<svg width="251" height="285" viewBox="0 0 251 285" fill="none" xmlns="http://www.w3.org/2000/svg">
<path d="M115.828 12.0941C115.828 12.4694 115.27 12.9379 115.064 13.2679C114.748 13.775 114.433 14.3127 114.293 14.8742C114.044 15.8699 113.476 16.7469 113.298 17.7779C113.073 19.0793 113.19 20.4416 113.19 21.7593C113.19 23.7812 113.051 25.7649 113.051 27.7795C113.051 28.4843 113.051 29.189 113.051 29.8938C113.051 30.4777 112.791 31.6456 113.12 32.1728C113.68 33.07 113.118 34.3583 113.359 35.3236C113.598 36.2787 113.606 37.4616 113.606 38.4401C113.606 39.781 113.606 41.1219 113.606 42.4627C113.606 43.9958 113.606 45.5289 113.606 47.062C113.606 47.869 113.884 48.6849 113.884 49.4783C113.884 50.3315 114.449 50.7971 114.717 51.572C115.011 52.4225 116.12 52.8881 116.661 53.5833C117.023 54.0488 118 54.5734 118.574 54.7502C120.524 55.3508 122.201 56.5823 124.306 56.8165C125.319 56.9291 126.321 56.9469 127.353 56.9469C128.667 56.9469 129.722 56.5485 130.963 56.233C132.951 55.7277 134.883 54.965 136.826 54.3246C138.539 53.76 140.027 52.7121 141.308 51.572C142.198 50.7799 143.208 50.2372 143.885 49.3341C145.068 47.7552 147.147 46.9257 148.32 45.3596C149.338 44.0018 150.257 42.6807 151.344 41.3781C152.21 40.3411 153.056 38.9225 153.458 37.6713C153.687 36.9567 154.467 36.3309 154.924 35.7218C155.479 34.9809 155.796 34.1501 156.235 33.3466C156.592 32.6945 156.801 31.9803 157.13 31.3147C157.273 31.0261 157.51 30.4177 157.824 30.2576C158.594 29.866 159.229 28.4352 159.575 27.7795C160.392 26.2358 161.264 24.4807 161.789 22.8439C161.994 22.2052 162.289 21.5487 162.692 20.9905C163.555 19.7955 164.174 18.3941 164.597 17.0365C164.837 16.2689 165.122 15.7396 165.122 14.936C165.122 13.654 165.01 12.3777 164.983 11.1056C164.949 9.46287 164.488 8.11691 163.595 6.72601C163.31 6.28273 162.692 5.8546 162.275 5.48354C161.859 5.11296 161.106 4.82736 160.817 4.37835C160.326 3.61331 158.594 3.25193 157.732 2.97798C156.727 2.65867 155.769 2.2573 154.708 2.08559C152.821 1.78027 150.888 1.64015 149.015 1.27558C143.663 0.233901 137.947 0.875425 132.876 2.57984C130.524 3.37082 127.931 3.99779 125.687 4.99615C124.645 5.45979 123.722 6.09979 122.701 6.58872C121.917 6.96477 121.397 7.57122 120.696 8.07833C119.393 9.01987 118.035 9.88135 116.8 10.8585C116.321 11.2372 115.698 11.7097 115.381 12.2176C115.104 12.6607 114.439 13.297 114.439 13.8239" stroke="#5A6B3B" stroke-linecap="square"/>
<path d="M134.161 4.55686C132.051 4.55686 130.016 6.09791 128.259 6.96631C127.956 7.11609 127.657 7.26917 127.357 7.42624C127.053 7.58509 126.991 7.97731 126.632 8.11269C125.627 8.4911 124.25 9.07243 123.608 9.89747C122.885 10.8266 122.134 11.7187 121.463 12.657C120.912 13.4277 120.65 14.5668 120.345 15.4371C119.858 16.8221 119.568 18.5402 120.028 19.9746C120.308 20.8461 120.503 21.7638 120.684 22.6518C120.752 22.9859 121.168 23.8753 121.455 24.0796C122.105 24.5422 122.338 25.0514 123.222 25.3427C123.935 25.5776 124.584 25.9856 125.274 26.2762C127.154 27.0687 129.618 27.12 131.661 27.2853C134.695 27.5308 137.698 27.5393 140.764 27.5393C141.819 27.5393 142.84 27.2977 143.85 27.0451C144.787 26.8106 145.771 26.7174 146.689 26.4273C148.443 25.8721 150.282 25.7033 151.903 24.7935C153.145 24.097 154.263 23.158 155.475 22.4115C156.606 21.7147 157.341 21.115 157.975 19.9883C158.472 19.1026 159.132 18.188 159.402 17.2288C159.822 15.7331 159.849 14.374 159.849 12.8355C159.849 11.8179 159.883 10.8401 159.571 9.87001C159.235 8.82135 158.37 7.95419 157.836 6.96631C156.882 5.2044 155.003 5.01878 153.184 4.3372C152.474 4.07121 151.188 4.26535 150.415 4.17931C149.368 4.06285 148.427 3.93906 147.344 3.93906C146.134 3.93906 144.933 4.03318 143.742 4.06262C142.659 4.08939 141.586 4.39806 140.517 4.4333C138.766 4.49101 136.761 4.44445 135.133 4.92755" stroke="#5A6B3B" stroke-linecap="square"/>
<path d="M117.462 36.6964C117.462 40.0593 117.358 43.4829 118.567 46.7109C118.945 47.7194 119.27 48.8345 120.163 49.5878C120.685 50.0276 121.148 50.4265 121.8 50.7168C123.706 51.5647 125.679 51.4815 127.757 51.4815C128.968 51.4815 130.095 51.3816 131.295 51.263C132.082 51.1851 132.797 51.0987 133.523 50.826C134.069 50.6208 134.61 50.3398 135.123 50.0815C135.611 49.8363 136.127 49.6426 136.619 49.4017C137.194 49.1203 137.81 48.9163 138.379 48.637C138.964 48.3499 139.409 48.1207 139.884 47.6982C140.311 47.3181 140.852 47.0474 141.276 46.6705C142.107 45.9306 142.875 45.0539 143.426 44.1254C143.735 43.6056 144.189 43.1003 144.636 42.6687C145.091 42.2293 145.373 41.6336 145.782 41.1554C146.759 40.0127 147.819 38.9163 147.987 37.4207C148.053 36.833 147.992 36.2115 147.992 35.6201C147.992 34.9336 148.002 34.3655 147.628 33.7466C147.241 33.1069 146.94 32.4104 146.355 31.8894C145.702 31.3089 144.593 31.3795 143.736 31.3795C141.155 31.3795 138.6 31.4882 136.024 31.5252C134.398 31.5485 132.764 31.598 131.131 31.598C130.066 31.598 129.056 31.4033 128.016 31.3108C127.148 31.2335 126.293 31.0882 125.42 31.0882C124.665 31.0882 123.814 30.9902 123.069 31.0923C122.378 31.1868 121.659 31.6839 121.064 31.9784C120.694 32.1609 120.218 32.4966 119.918 32.7634C119.544 33.096 119.141 33.366 118.808 33.7466C118.529 34.0664 118.372 34.3513 118.158 34.6935C117.766 35.3205 117.462 36.1224 117.462 36.842" stroke="#5A6B3B" stroke-linecap="square"/>
<path d="M124.171 39.9003C124.137 40.4418 123.614 40.9697 123.439 41.4905C123.336 41.7941 123.268 42.1001 123.17 42.3928C122.936 43.0972 123.02 44.2491 123.316 44.9258C123.76 45.9417 124.72 46.2159 125.517 46.9247C126.339 47.6563 127.752 47.9054 128.836 48.1466C129.293 48.2482 129.889 48.2761 130.355 48.2761C131.186 48.2761 131.967 48.2901 132.765 48.0576C133.451 47.8577 134.157 47.7752 134.816 47.5114C135.192 47.3607 135.56 47.1738 135.957 47.0744C136.258 46.999 136.689 46.9055 136.894 46.6738C137.199 46.3282 137.64 46.0291 137.985 45.7108C138.43 45.3004 138.86 44.8919 139.313 44.4888C140.24 43.6636 141.415 42.3756 141.441 41.1385C141.471 39.6854 141.451 38.0158 140.213 36.9141C139.02 35.8526 137.727 35.2554 136.08 34.9841C135.016 34.8087 133.48 34.8692 132.433 35.0609C131.639 35.2064 130.914 35.4091 130.164 35.676C129.677 35.8494 128.904 35.944 128.509 36.2586C128.053 36.6217 127.416 36.8396 126.954 37.2055C126.715 37.3939 126.405 37.4753 126.176 37.6789C125.988 37.8462 125.74 38.1118 125.517 38.2251C125.313 38.329 125.24 38.5843 125.071 38.6783C124.93 38.7569 124.66 39.0076 124.58 39.1315C124.348 39.4921 124.102 39.919 123.843 40.2645" stroke="#5A6B3B" stroke-linecap="square"/>
<path d="M118.521 34.7295C118.521 34.3178 119.356 33.9712 119.667 33.7099C120.066 33.375 120.631 32.9418 121.159 32.7792C122.35 32.4122 123.599 32.2532 124.865 32.2532C126.036 32.2532 127.286 32.1465 128.421 32.3989C129.669 32.6765 130.823 32.763 132.108 32.763C132.758 32.763 133.37 32.8958 134.009 32.9087C134.953 32.9278 135.903 32.9815 136.856 32.9815C138.38 32.9815 139.772 32.6244 141.275 32.4757C141.969 32.4072 142.66 32.326 143.363 32.326C143.854 32.326 144.512 32.3115 144.959 32.4879C145.654 32.763 147.526 33.9451 146.873 33.5966C146.6 33.4511 146.374 33.245 146.104 33.0908C145.789 32.9104 145.518 32.6601 145.2 32.5041C144.235 32.0319 143.317 31.8162 142.221 31.8162C140.801 31.8162 139.478 31.9661 138.088 32.2208C136.81 32.4548 135.545 32.6902 134.236 32.6902C133.539 32.6902 134.075 32.6359 134.5 32.6012C135.238 32.5409 136.018 32.5209 136.692 32.237C137.189 32.0274 137.753 31.7711 138.329 31.7434C140.333 31.647 142.338 31.5003 144.304 31.889C145.076 32.0418 145.57 32.4748 146.227 32.7994C146.614 32.9906 146.817 33.205 147.05 33.5318C147.684 34.4182 147.578 35.3794 147.578 36.4047C147.578 36.866 147.578 37.3272 147.578 37.7885C147.578 38.1857 147.188 38.438 147.082 38.7677C147.034 38.9175 146.812 39.1322 146.718 39.2816C146.611 39.4537 146.525 39.6778 146.432 39.8643C146.273 40.1818 145.801 41.3573 145.45 41.3573" stroke="#5A6B3B" stroke-linecap="square"/>
<path d="M113.323 50.1524C111.972 50.1524 110.596 49.7246 109.257 49.5604C108.456 49.4621 107.529 49.5575 106.753 49.4041C105.258 49.1084 103.667 48.9899 102.179 48.6394C101.456 48.4692 100.632 48.5413 99.9333 48.3022C99.0789 48.0098 97.9472 47.7991 97.0316 47.6362C95.366 47.3398 93.9102 47.0441 92.1987 47.0441C89.0661 47.0441 85.9334 47.0441 82.8008 47.0441C81.2317 47.0441 78.4984 47.9114 79.7606 49.7084C80.6507 50.9757 83.3363 50.8841 84.7506 51.3036C86.0439 51.6872 87.3332 51.6818 88.6225 51.9368C90.5041 52.3089 92.4779 52.5929 94.3703 53.0387C97.21 53.7076 100.164 53.782 103.01 54.3297C104.695 54.6538 106.465 55.1084 108.167 55.3247C109.503 55.4946 110.898 55.9777 112.196 56.3361C113.819 56.7844 115.557 57.1085 117.223 57.438C118.681 57.7264 120.319 58.1451 121.806 58.1451C123.414 58.1451 125.022 58.1451 126.63 58.1451C128.127 58.1451 129.585 57.9705 131.038 57.6353C133.303 57.1126 135.654 56.9055 137.941 56.443C138.939 56.2412 139.966 56.1206 140.972 55.9578C142.039 55.7851 143.054 55.4649 144.132 55.3C147.774 54.7429 151.271 53.4153 154.898 52.7509C157.958 52.1902 160.942 51.9487 164.055 51.6654C165.289 51.5532 167.082 51.4918 168.177 50.8925C168.536 50.696 169.033 50.3004 169.415 50.3004C170.335 50.3004 171.234 50.0044 172.123 50.0044C173.226 50.0044 169.983 49.4123 168.879 49.4123C167.497 49.4123 166.088 49.4858 164.711 49.4041C163.643 49.3407 162.639 48.7995 161.569 48.6805C161.054 48.6232 160.5 48.6723 159.98 48.6723C158.602 48.6723 157.228 49.0604 155.868 49.2972C153.746 49.6667 151.63 50.1488 149.501 50.4402C149.051 50.5018 148.325 50.6174 147.921 50.7774C147.312 51.0183 146.668 50.9115 146.054 51.0734C145.125 51.3183 143.734 51.0079 142.931 51.4845" stroke="#5A6B3B" stroke-linecap="square"/>
<path d="M79.6378 48.7517C79.6151 48.913 78.5609 49.7179 78.3125 49.8442C77.5491 50.2324 77.2665 50.896 76.7535 51.483C76.2001 52.1162 75.6154 53.1883 75.2918 53.9369C74.9776 54.6639 74.4632 55.377 74.064 56.0873C73.2414 57.5514 72.5819 59.0599 71.8326 60.5269C71.4789 61.2193 71.1093 62.4686 71.0433 63.2322C70.9695 64.0861 70.3794 64.9273 70.3417 65.7988C70.2694 67.4724 70.3417 69.1614 70.3417 70.8366C70.3417 71.7341 70.2602 72.7469 70.5561 73.6027C70.8491 74.4502 71.2959 75.5034 71.3941 76.3774C71.4709 77.0609 72.0047 77.9172 72.3588 78.4844C72.9564 79.4417 73.2515 80.598 73.762 81.5973C74.5313 83.1035 74.7172 84.7806 75.1651 86.375C75.4436 87.366 75.662 88.4081 75.9934 89.3665C76.3217 90.3159 76.2966 91.3002 76.617 92.2626C76.7557 92.6792 76.8069 93.2656 76.8314 93.702C76.8566 94.1509 77.1822 94.5928 77.1822 95.0373C77.1822 95.9252 77.7157 96.8028 77.8935 97.6733C78.2056 99.2007 79.055 101.158 79.9886 102.477C80.9136 103.784 81.4294 105.328 82.5221 106.578C83.0109 107.138 83.2565 107.565 83.8473 108.061C84.481 108.594 85.3071 108.956 85.952 109.466C87.1521 110.415 88.5058 111.263 90.0641 111.66C90.6583 111.811 91.4346 112.243 92.0909 112.275C92.5823 112.3 93.68 112.595 94.0593 112.865C94.5172 113.191 95.1576 113.261 95.6379 113.645C96.1532 114.058 96.8722 114.422 97.5283 114.616" stroke="#5A6B3B" stroke-linecap="square"/>
<path d="M97.874 114.459C99.6133 114.459 101.566 115.809 102.873 116.714C103.542 117.177 104.47 117.407 105.104 117.858C105.788 118.345 106.979 118.381 107.657 118.864C109.187 119.953 111.501 120.808 113.397 121.327C114.073 121.512 114.767 121.956 115.414 122.228C115.671 122.337 116.508 122.504 116.641 122.653C116.78 122.808 117.455 122.902 117.694 123.009C118.505 123.37 119.416 123.472 120.149 123.98C121.323 124.792 122.854 125.703 124.223 126.2C125.187 126.549 126.149 127.141 127.078 127.57C128.099 128.041 129.122 128.518 130.147 128.974C133.105 130.29 135.833 131.636 139.005 132.495C140.535 132.909 142.014 133.457 143.516 133.934C144.701 134.311 146.036 134.596 147.161 135.096C149.313 136.054 151.636 136.965 153.689 138.183C155.25 139.109 156.763 139.916 158.483 140.602C160.821 141.535 162.884 143.005 165.051 144.183C168.013 145.794 171.262 147.093 174.133 148.796C175.708 149.731 177.674 150.093 179.346 150.895C180.892 151.636 182.799 151.695 184.335 152.464C184.914 152.754 185.779 152.951 186.274 153.322C186.736 153.669 187.186 153.526 187.687 153.721C188.952 154.214 190.363 154.299 191.614 154.805C192.066 154.988 192.484 155.129 192.939 155.273C193.556 155.47 194.058 155.936 194.693 156.097C197.003 156.684 199.026 158.411 201.007 159.566C202.819 160.62 204.915 161.193 206.708 162.297C208.356 163.312 210.268 163.983 211.96 164.942C212.787 165.41 213.736 165.649 214.649 165.93C215.143 166.082 215.666 166.158 216.17 166.286C216.477 166.364 217.011 166.346 217.319 166.468C218.117 166.783 219.258 166.476 220.126 166.433C220.89 166.395 222.054 166.277 222.757 165.999C224.253 165.408 226.544 165.732 227.668 164.482C227.888 164.237 228.487 164.063 228.808 163.936C229.264 163.755 229.77 163.314 230.123 162.999C230.826 162.374 231.431 161.814 232.092 161.161C233.378 159.889 234.025 158.467 234.947 156.99C235.509 156.09 235.758 154.823 235.902 153.799C236.009 153.033 236.262 152.271 236.262 151.528C236.262 149.681 236.788 147.85 236.788 145.952C236.788 143.966 236.964 141.919 236.964 139.978C236.964 138.963 236.964 137.949 236.964 136.934C236.964 136.022 236.613 135.104 236.613 134.281C236.613 133.622 236.176 132.547 235.872 131.94C235.359 130.912 234.644 129.888 234.196 128.853C233.418 127.051 232.686 125.354 231.79 123.598C230.923 121.901 229.432 120.375 228.681 118.639C227.968 116.988 226.689 115.29 225.485 113.913C224.843 113.178 224.203 112.334 223.731 111.494C223.476 111.039 223.346 110.534 223.068 110.089C222.89 109.803 222.639 109.009 222.308 108.84C222.032 108.7 221.691 108.226 221.529 107.973C221.216 107.486 220.584 107.223 220.34 106.69C219.9 105.729 219.017 105.063 218.508 104.158C217.958 103.18 216.985 102.27 216.267 101.357C215.486 100.364 214.504 99.3292 213.539 98.4699C212.497 97.5426 211.524 96.186 210.342 95.4177C209.206 94.6787 208.584 93.3279 207.634 92.4175C206.974 91.7852 206.215 90.5067 205.392 90.0764C204.602 89.6628 204.07 88.7423 203.288 88.3942" stroke="#5A6B3B" stroke-linecap="square"/>
<path d="M172.916 49.7279C173.9 49.7279 174.797 49.5267 175.742 49.5267C176.729 49.5267 177.758 49.7279 178.68 49.7279C179.448 49.7279 180.765 50.1947 181.506 50.4878C182.148 50.7419 183.559 51.2681 184.218 51.3371C184.71 51.3886 186.601 52.278 186.931 52.6445C187.233 52.9803 187.885 53.0799 188.237 53.3933C188.62 53.734 188.913 54.107 189.304 54.4549C190.888 55.8642 192.607 57.819 193.599 59.5842C194.649 61.4528 195.659 63.3466 196.651 65.2163C197.1 66.0626 197.778 66.9125 198.007 67.8312C198.224 68.7009 198.517 69.835 198.911 70.6473C199.854 72.5879 200.314 74.7651 200.77 76.8382C201.052 78.1222 201.551 79.61 201.624 80.9059C201.699 82.245 201.456 84.0683 201.963 85.3311C202.551 86.7951 201.991 88.6364 202.415 90.1475C202.945 92.0344 203.206 94.367 203.206 96.2937C203.206 98.923 204.336 101.555 204.336 104.194C204.336 107.544 204.563 110.863 204.563 114.196C204.563 120.579 204.789 127.035 204.789 133.45C204.789 134.71 204.563 136.089 204.563 137.239C204.563 138.656 205.121 140.016 205.454 141.351C205.6 141.936 205.434 142.509 205.643 143.105C205.95 143.987 206.169 144.893 206.471 145.776C207.177 147.838 207.932 149.889 208.732 151.922C209.681 154.335 210.136 156.687 210.942 159.108C211.53 160.872 211.78 162.744 212.7 164.382" stroke="#5A6B3B" stroke-linecap="square"/>
<path d="M200.333 72.3817C201.463 72.3817 202.851 74.1882 203.622 74.8748C205.277 76.3468 206.773 77.9047 208.251 79.5237C210.533 82.0228 212.428 84.748 214.599 87.2317C217.233 90.2452 219.459 93.5017 222.205 96.4453C224.033 98.4039 225.339 100.829 226.834 102.997C227.84 104.456 228.686 105.945 230.001 107.116C232.681 109.501 236.155 111.379 238.217 114.342C241.753 119.425 247.037 123.509 247.826 129.831C248.176 132.631 248.084 135.452 248.084 138.286C248.084 140.746 248.096 143.077 247.542 145.488C246.933 148.139 245.894 150.683 244.917 153.244C244.502 154.331 243.411 158.315 242.237 158.664" stroke="#5A6B3B" stroke-linecap="square"/>
<path d="M242.966 158.879C242.775 160.41 240.736 161.718 240.043 163.106C239.599 163.996 238.766 164.744 238.094 165.491C237.241 166.44 236.128 167.837 234.927 168.466C233.294 169.32 232.262 171.066 230.65 171.886C228.708 172.874 226.853 174.451 225.06 175.692C224.349 176.184 223.642 176.757 222.989 177.306C222.397 177.804 221.447 178.013 220.851 178.438C219.222 179.597 217.703 180.796 215.978 181.858C214.446 182.803 212.207 183.717 211.052 185.002C209.869 186.317 208.207 188.299 206.545 189.121C204.57 190.097 203.53 191.984 201.55 192.963C199.628 193.913 197.566 195.091 196.001 196.431C194.098 198.063 191.262 198.993 189.613 200.827C188.225 202.371 185.098 202.419 183.414 203.646C182.527 204.291 181.608 204.941 180.599 205.44C179.889 205.791 178.406 205.955 177.973 206.572C177.783 206.844 176.955 207.035 176.593 207.211C176.174 207.414 175.927 207.822 175.483 208.042C174.569 208.493 173.276 209.243 172.749 210.041C172.336 210.666 171.337 211.017 170.867 211.643C170.431 212.226 169.639 212.773 169.027 213.196C167.83 214.024 166.584 214.925 165.494 215.894C164.756 216.551 163.619 217.696 162.693 218.062C160.931 218.759 159.84 220.327 158.186 221.145C156.195 222.129 155.013 223.966 152.948 224.783C151.296 225.436 149.949 226.893 148.495 227.818C147.167 228.661 145.945 229.821 144.786 230.853C142.987 232.454 141.238 234.07 139.372 235.67C136.841 237.842 134.005 239.815 131.279 241.801C129.084 243.398 126.702 244.992 124.322 246.353C123.157 247.02 121.919 247.997 120.911 248.846C119.608 249.944 117.744 250.517 116.526 251.664C114.767 253.321 111.748 253.932 110.381 256C109.856 256.794 108.387 257.342 107.512 257.843C106.594 258.368 105.66 259.31 104.71 259.686C103.809 260.042 103.333 260.908 102.518 261.312C101.683 261.724 100.916 262.2 100.081 262.612C98.0137 263.634 95.9374 264.919 93.6254 265.491C91.3779 266.046 89.3958 267.157 87.0476 267.273C85.4156 267.354 83.656 267.707 82.0533 267.707C79.9419 267.707 77.8305 267.707 75.7191 267.707C71.8384 267.707 68.0328 266.401 64.6343 264.889" stroke="#5A6B3B" stroke-linecap="square"/>
<path d="M65.0719 264.309C63.931 264.309 63.314 263.096 62.2605 262.888C61.5025 262.738 60.2024 262.057 59.6455 261.561C58.3552 260.413 56.4319 259.909 55.1116 258.734C53.7138 257.49 51.6971 256.839 50.292 255.589C49.5813 254.956 48.9167 254.373 48.2928 253.659C47.3659 252.599 46.6525 251.133 45.4725 250.268C44.6492 249.665 43.9339 248.979 43.027 248.441C42.5586 248.163 41.8911 247.764 41.5454 247.369C40.7658 246.477 39.7709 245.655 38.8501 244.835C37.7349 243.843 36.4017 242.771 35.5835 241.579C34.5391 240.059 32.5444 238.863 31.1745 237.576C29.8288 236.312 28.5148 234.871 27.4081 233.439C26.6936 232.514 25.7831 231.743 25.0697 230.826C23.9768 229.421 23.2669 227.785 22.2494 226.362C21.3562 225.113 20.1871 223.912 18.8847 222.931C17.8317 222.139 16.739 221.3 15.752 220.422C14.9454 219.704 13.8084 218.71 13.3422 217.777C12.7646 216.621 11.2516 215.785 10.7361 214.592C10.5881 214.25 10.0624 213.557 9.80785 213.274C9.44218 212.867 9.0177 211.99 8.84394 211.487C8.16527 209.524 6.52082 207.876 6.2646 205.824C5.95712 203.362 4.40423 201.248 3.86375 198.843C3.52683 197.344 3.0933 195.951 3.06049 194.404C3.04255 193.557 2.89984 192.719 2.89984 191.862C2.89984 191.36 3.01054 190.734 2.81952 190.258C2.4963 189.453 2.73919 188.254 2.73919 187.399C2.73919 186.565 2.73919 185.731 2.73919 184.897C2.73919 182.537 3.70495 179.819 4.90799 177.678C6.26308 175.266 7.68491 172.879 9.0046 170.53" stroke="#5A6B3B" stroke-linecap="square"/>
<path d="M9.57202 169.811C9.57202 168.704 10.5157 167.386 11.3108 166.599C11.8711 166.046 12.1746 165.389 12.6424 164.788C13.2171 164.049 14.0111 163.378 14.4802 162.584C15.1866 161.39 16.8514 160.212 17.8917 159.235C19.065 158.133 20.1673 156.952 21.6114 156.062C22.4155 155.567 23.1298 154.704 23.7353 154.045C24.3971 153.325 25.4016 152.7 26.2555 152.185C27.1151 151.665 28.0858 151.236 28.7756 150.52C29.3517 149.922 30.5502 149.58 31.3617 149.188C33.2133 148.294 34.3577 146.015 35.9178 144.781C36.5402 144.289 37.6782 143.786 38.4819 143.547C39.1537 143.348 39.6716 142.672 40.2317 142.313C41.3033 141.627 42.3198 141.065 43.4451 140.453C44.4891 139.885 45.2892 139.035 46.2624 138.436C47.4288 137.717 48.3978 136.786 49.5748 136.066C50.5039 135.497 51.4165 134.946 52.205 134.244C56.7775 130.175 62.788 127.687 67.92 124.295C69.6835 123.129 71.5936 122.189 73.3564 121.024C75.0526 119.903 77.1865 119.088 78.7048 117.812C80.2772 116.491 81.9385 115.463 83.459 114.11C84.2293 113.425 84.9069 112.41 85.737 111.819C86.1741 111.508 86.2466 110.933 86.8265 110.761" stroke="#5A6B3B" stroke-linecap="square"/>
<path d="M20.4675 169.987C20.4675 166.778 23.9847 163.684 26.3662 161.565C27.7724 160.314 29.2009 159.085 30.7681 158.001C32.6581 156.692 34.2478 155.281 35.9624 153.809C38.9781 151.222 42.7025 149.247 46.0209 147.033C48.1783 145.593 50.0685 143.823 51.9746 142.127C54.0558 140.274 56.8921 139.083 58.7426 137.024C60.1863 135.419 62.487 134.692 64.135 133.323C65.4559 132.226 67.174 130.874 68.8011 130.15C70.8766 129.227 72.7049 127.902 74.6557 126.791C76.0353 126.005 77.4526 125.294 78.8595 124.549C79.6669 124.121 80.4759 123.351 81.3246 123.06C82.0272 122.82 82.6146 122.147 83.2615 121.777C84.0045 121.352 84.5703 120.847 85.2424 120.377C86.544 119.467 87.7276 118.33 89.2042 117.635C91.2078 116.691 93.1155 115.549 94.9487 114.462" stroke="#5A6B3B" stroke-linecap="square"/>
<path d="M19.6676 198.19C19.6676 196.709 17.9778 195.533 17.8848 193.96C17.8556 193.467 17.4635 192.544 17.1915 192.109C16.8886 191.624 16.9731 190.952 16.7403 190.434C16.3557 189.579 16.4252 188.352 16.3111 187.438C16.1891 186.461 16.3001 185.425 16.3001 184.441C16.3001 183.262 15.9154 181.466 16.4541 180.387C16.9463 179.402 16.7247 177.799 17.5326 176.901C18.2028 176.155 18.3931 175.094 18.8312 174.217C19.3042 173.27 19.3451 172.175 19.8216 171.221C20.1549 170.554 20.5425 168.54 21.2523 168.224" stroke="#5A6B3B" stroke-linecap="square"/>
<path d="M20.2661 197.309C20.2661 198.694 20.5227 199.607 21.3446 200.756C22.3511 202.164 22.8454 203.76 23.6776 205.241C24.006 205.826 24.303 206.799 24.437 207.454C24.592 208.213 25.0885 208.886 25.2293 209.638C25.2951 209.989 25.7247 210.658 25.9667 210.921C26.5742 211.582 26.695 212.434 27.0451 213.173C27.6892 214.534 28.7543 215.673 29.5763 216.953C30.4275 218.279 31.3419 219.595 32.3495 220.89C33.8139 222.772 35.3425 224.577 36.6084 226.58C37.7209 228.34 38.9335 230.083 40.5151 231.545C42.122 233.029 43.5444 234.65 45.3243 235.99C46.5717 236.93 47.503 237.993 48.9889 238.693C50.4519 239.382 51.3277 241.166 52.4555 242.17C53.3148 242.934 54.2669 243.605 55.1296 244.373C55.8965 245.055 56.668 245.914 57.5507 246.488C58.6792 247.222 59.6649 248.044 60.8742 248.701C61.6589 249.128 62.5116 249.708 63.1522 250.278C64.3665 251.359 65.8953 252.34 67.4111 253.049C68.8672 253.731 70.5126 254.024 72.1652 254.234C72.8911 254.327 73.6198 254.597 74.3442 254.597C75.1463 254.597 75.4654 254.483 76.2811 254.734C79.501 255.726 83.1867 255.831 86.6257 255.831C90.4102 255.831 94.1592 254.097 97.7626 253.147C99.7089 252.634 101.94 252.097 103.562 250.973C105.21 249.833 106.918 248.773 108.657 247.722C109.632 247.134 110.65 246.615 111.486 245.871C112.335 245.116 113.616 243.974 114.732 243.629C117.314 242.83 119.595 240.926 121.731 239.438C122.835 238.669 124.213 238.15 125.253 237.322C127.705 235.37 130.224 233.408 132.56 231.329C133.712 230.304 134.875 229.095 136.148 228.195C137.094 227.527 138.079 226.989 138.965 226.256C140.078 225.336 141.647 224.632 142.883 223.838C143.993 223.124 144.81 222.074 145.953 221.37C148.238 219.962 150.31 218.365 152.391 216.699C153.145 216.095 154.325 215.693 155.164 215.112C157.055 213.804 159.325 212.778 160.92 211.146C161.611 210.439 162.675 209.709 163.528 209.158C164.619 208.454 165.615 207.679 166.697 206.965C168.411 205.833 170.061 204.048 172.046 203.302C173.677 202.689 175.178 201.736 176.547 200.746C177.665 199.938 178.294 198.72 179.529 197.926C182.144 196.246 184.58 194.004 187.453 192.726" stroke="#5A6B3B" stroke-linecap="square"/>
<path d="M188.047 192.551C188.281 191.512 190.344 190.507 191.217 189.73C191.9 189.123 192.749 188.696 193.44 188.105C194.858 186.889 196.604 185.651 198.348 184.834C202.61 182.838 206.442 180.146 210.442 177.832C211.651 177.133 212.867 176.526 213.986 175.717C214.882 175.069 215.713 174.368 216.671 173.778C218.273 172.791 220.236 172.015 221.623 170.781C222.601 169.911 223.516 168.893 224.595 168.147C225.679 167.396 227.035 166.383 227.467 165.229" stroke="#5A6B3B" stroke-linecap="square"/>
<path d="M146.255 135.749C146.255 137.077 144.991 137.927 144.228 139.009C143.065 140.656 141.737 142.17 140.37 143.685C138.632 145.609 137.374 148.134 136.376 150.418C135.41 152.629 133.258 154.499 131.106 155.815C128.935 157.143 127.804 158.776 126.467 160.759C124.447 163.754 123.344 167.223 121.062 170.084C119.658 171.844 117.909 173.191 116.393 174.84C113.946 177.501 111.405 179.936 109.381 182.883C108.106 184.739 107.108 186.427 105.193 187.812C103.038 189.37 100.692 190.824 98.4215 192.261C96.9742 193.178 95.9058 194.386 94.3828 195.267C93.3664 195.855 92.2527 196.339 91.26 196.951C90.7742 197.25 90.1864 197.403 89.7737 197.792C89.1424 198.387 89.5034 200.04 89.5034 200.812C89.5034 202.29 90.1476 203.337 90.6445 204.713C91.0934 205.956 92.1709 206.11 93.0166 207.051C93.3492 207.421 94.0428 207.275 94.3078 207.652C94.553 208.001 94.8987 208.529 95.2386 208.801C96.1466 209.528 99.4688 208.629 100.313 208.253C102.687 207.197 104.885 206.44 106.934 204.886C109.45 202.98 112.019 201.357 114.846 199.903C119.816 197.348 125.532 196.242 130.851 194.305C133.35 193.396 136.09 193.073 138.433 191.901C140.995 190.618 143.696 189.809 146.525 189.135C149.496 188.428 152.377 186.774 155.188 185.648C156.588 185.088 158.088 184.743 159.437 184.085C160.758 183.44 162.561 182.718 164.091 182.642C166.709 182.513 168.33 181.467 170.367 180.237C171.507 179.549 172.957 179.152 174.21 178.661C175.43 178.183 176.458 176.981 177.198 176.029C178.248 174.679 179.269 173.442 180.786 172.542C183.12 171.158 185.458 170.404 187.602 168.708C190.035 166.784 192.912 165.172 195.169 163.163C196.573 161.914 197.869 160.52 199.223 159.316" stroke="#5A6B3B" stroke-linecap="square"/>
<path d="M76.7973 254.546C76.7715 254.363 74.2942 253.868 73.8246 253.824C73.0385 253.751 72.0155 252.759 71.5425 252.261C70.7884 251.468 70.165 250.686 69.831 249.683C69.5737 248.91 69.8779 248.207 69.5007 247.452C68.2967 245.041 66.0974 242.837 63.5553 241.507C62.552 240.981 61.3293 239.749 60.8528 238.795C60.1698 237.427 58.9611 236.939 58.9611 235.187C58.9611 232.484 58.9611 229.781 58.9611 227.078C58.9611 225.974 58.9377 224.868 58.9611 223.765C58.9931 222.256 59.7347 221.001 60.0271 219.57C60.3853 217.816 60.8699 216.054 62.3391 214.747C63.3659 213.833 66.5496 214.386 67.8792 214.386C69.5876 214.386 71.2627 214.867 73.0138 214.867C78.5057 214.867 84.3091 215.554 89.1085 212.836C90.4917 212.053 92.351 211.385 93.8828 210.966C95.2959 210.579 96.1008 209.645 97.3359 209.095" stroke="#5A6B3B" stroke-linecap="square"/>
<path d="M61.6611 217.513C63.2032 218.885 63.8033 220.544 64.9041 222.135C65.7108 223.302 65.382 224.777 65.6998 226.05C66.0335 227.386 66.7203 228.437 67.2762 229.724C68.0172 231.438 68.3898 233.269 69.228 234.947C70.0172 236.528 71.7196 237.845 72.5911 239.396C73.4149 240.863 74.1342 242.472 74.693 244.019C75.8085 247.107 76.5246 250.353 76.5246 253.585" stroke="#5A6B3B" stroke-linecap="square"/>
<path d="M28.9649 161.239C28.8554 162.116 28.28 162.873 27.8238 163.644C27.3657 164.419 26.8726 165.645 26.2624 166.289C25.1662 167.448 25.8404 169.226 25.0463 170.498C24.3606 171.596 24.9534 174.12 25.3916 175.134C26.1817 176.962 28.2 177.77 29.2351 179.382C29.5779 179.916 30.4812 180.267 30.8566 180.852C31.3668 181.646 32.0175 182.477 32.6132 183.243C33.8866 184.88 34.9103 186.198 34.9103 188.173C34.9103 189.193 34.6998 191.299 36.3966 191.299C37.223 191.299 37.9979 191.875 38.8138 192.007C39.6091 192.136 40.6813 192.371 41.3962 192.689C42.569 193.21 43.2935 193.557 44.0986 194.612C44.7677 195.49 45.9008 196.046 46.3206 197.017C46.7919 198.108 48.4213 199.099 49.2933 199.903C50.6692 201.171 51.6189 202.763 52.3411 204.405C52.6335 205.07 52.9761 205.713 53.4071 206.316C53.6776 206.694 53.4496 207.143 53.6923 207.531C54.1668 208.292 54.1503 209.253 54.5781 210.057C55.6592 212.087 58.5147 211.805 60.4334 212.582C62.5337 213.431 66.6973 213.246 68.5558 212.101C70.0192 211.199 71.0892 210.083 72.4594 209.108C73.752 208.188 75.3695 207.48 76.5281 206.449C78.7193 204.499 80.4457 202.542 83.2842 201.279C85.1407 200.453 87.1827 200.197 89.2296 200.197" stroke="#5A6B3B" stroke-linecap="square"/>
<path d="M29.2122 160.78C29.2894 160.161 30.9737 159.409 31.5286 159.095C32.6748 158.446 33.7854 157.691 34.9142 156.955C36.2182 156.104 37.7939 155.421 39.1908 154.675C41.8701 153.245 44.2375 151.729 46.6525 149.938C50.7964 146.865 55.3552 144.435 59.8831 141.871C61.1236 141.169 62.2238 140.282 63.5026 139.641C64.5174 139.133 65.5268 138.523 66.4984 137.947C67.7622 137.197 68.6059 136.072 69.806 135.281C71.315 134.286 73.4132 133.577 74.7174 132.417C76.054 131.228 77.4179 130.052 78.7712 128.889C79.5314 128.236 80.7323 127.763 81.6222 127.244C82.9788 126.453 84.4751 125.836 85.9211 125.192C87.7662 124.371 89.7536 123.916 91.6343 123.151C93.3226 122.464 94.8645 121.562 96.412 120.644C97.2894 120.123 98.5542 119.798 99.3299 119.177C99.7562 118.835 100.609 118.203 101.179 118.146C101.861 118.079 102.334 117.433 102.983 117.433" stroke="#5A6B3B" stroke-linecap="square"/>
<path d="M25.1984 172.018C25.1984 175.796 24.5764 180.085 25.7998 183.752C26.1483 184.796 27.0322 185.525 27.3589 186.507C27.8852 188.087 27.9354 189.826 28.4058 191.422C28.7086 192.449 28.5111 193.512 28.8513 194.534C29.2356 195.688 29.8749 196.648 30.5663 197.666C32.0904 199.908 34.8229 201.095 36.4243 203.275C37.0424 204.116 37.57 204.639 38.3844 205.336C39.0292 205.888 39.9812 206.101 40.6341 206.624C42.1721 207.856 43.3079 208.765 45.4452 208.765C47.1458 208.765 48.7131 208.943 50.4122 208.943C51.8659 208.943 53.2662 209.3 54.6665 209.3" stroke="#5A6B3B" stroke-linecap="square"/>
<path d="M89.6141 112.162C89.6141 113.337 88.5179 113.747 87.7442 114.435C87.4756 114.674 87.0676 114.741 86.7946 114.984C86.5278 115.222 86.3605 115.527 86.0898 115.768C85.3562 116.421 84.7275 117.171 83.9751 117.807C81.848 119.605 79.5428 120.971 76.9263 122.041C75.9747 122.43 75.0367 122.812 74.1068 123.225C73.4103 123.535 72.6234 124 71.8943 124.236C71.2519 124.444 70.6346 125.13 70.1517 125.56C69.5667 126.081 68.8708 126.336 68.2524 126.867C67.0608 127.889 65.7248 128.898 64.3462 129.715C63.8346 130.019 63.23 130.27 62.6917 130.578C61.5622 131.224 60.6575 132.144 59.5002 132.773C57.6579 133.775 55.976 135.087 54.1548 136.119C52.5278 137.04 51.031 138.01 49.6906 139.202C48.5377 140.228 47.043 141.071 46.0879 142.234C45.5796 142.853 44.7952 143.374 44.2376 143.985C43.4997 144.793 42.5332 145.428 41.5062 145.91C38.3308 147.403 35.5726 149.724 32.656 151.521C31.9654 151.946 31.3213 152.427 30.5806 152.775C29.7674 153.157 29.1998 153.799 28.4464 154.134C26.2409 155.115 25.0989 157.026 23.4339 158.507C22.6131 159.238 21.5177 159.542 20.6731 160.267C19.3701 161.385 18.2592 162.601 17.09 163.83C16.0985 164.873 14.6069 165.657 13.8789 166.888C13.3315 167.813 12.7036 168.647 11.9796 169.475C10.1541 171.564 10.8716 174.443 9.51254 176.689C8.06659 179.078 7.73785 181.665 7.1042 184.259C6.85322 185.286 6.11876 186.382 6.08605 187.43C6.05998 188.265 6.08605 189.104 6.08605 189.939C6.08605 191.352 5.73361 192.798 5.73361 194.208C5.73361 196.455 5.41615 198.634 6.43848 200.681C7.40222 202.61 9.11978 204.17 9.78666 206.247C10.0175 206.966 10.7036 207.555 11.0985 208.207C11.3721 208.66 11.4286 209.234 11.7251 209.662C12.251 210.423 12.6062 211.16 12.6062 212.049" stroke="#5A6B3B" stroke-linecap="square"/>
<path d="M12.9597 211.893C13.012 212.265 13.9349 213.132 14.2324 213.426C14.7836 213.971 15.3055 214.542 15.7792 215.151C16.492 216.067 17.7376 216.641 18.4225 217.573C19.158 218.574 19.8524 219.602 20.6253 220.596C23.2503 223.97 25.3502 227.623 28.6433 230.553C29.6241 231.426 30.3582 232.638 31.2082 233.611C31.9941 234.51 32.9264 235.305 33.8417 236.12C35.2718 237.393 36.0949 239.486 38.12 240.153C39.3177 240.548 40.2675 241.81 41.1157 242.593C42.251 243.64 43.2506 244.817 44.3268 245.912C44.9439 246.539 45.5683 247.186 46.089 247.881C46.6816 248.672 47.1039 249.618 47.9491 250.233C48.7686 250.829 49.8502 251.031 50.6707 251.723C52.7325 253.461 55.3071 254.651 57.5433 256.235C59.6673 257.74 62.2069 258.857 64.455 260.19C65.3072 260.696 66.4078 261.403 67.4116 261.602C68.335 261.784 69.0949 262.18 70.0647 262.307C71.0465 262.436 72 262.542 72.9919 262.542C75.1718 262.542 77.3517 262.542 79.5316 262.542C82.9096 262.542 86.4533 262.487 89.7817 261.994C91.3284 261.764 92.854 261.831 94.3732 261.445C95.553 261.145 96.8043 261.243 97.9759 260.896C100.126 260.258 102.064 259.476 103.752 258.03C104.295 257.564 105.238 256.977 106.004 256.897C106.869 256.807 107.795 256.016 108.647 255.8C109.356 255.619 110.182 254.954 110.85 254.624C111.65 254.228 112.597 253.964 113.405 253.604" stroke="#5A6B3B" stroke-linecap="square"/>
<path d="M1.93356 189.735C1.93356 196.989 1.09226 204.037 1.51175 211.13C1.69297 214.194 3.70338 217.372 4.44098 220.326C5.05124 222.769 5.08557 226.074 6.24539 228.396C8.32647 232.562 11.4323 238.169 16.2751 240.323C19.7024 241.848 21.4148 245.51 23.6802 248.102C26.1993 250.984 29.8643 253.484 32.7257 256.172C34.3367 257.685 36.2427 258.988 38.2092 260.113C39.7539 260.996 40.7186 262.553 42.193 263.303C44.6099 264.532 45.1279 268.454 47.4891 269.768C48.0842 270.099 48.395 270.941 48.9888 271.373C49.7784 271.948 50.7787 272.236 51.4963 272.875C53.055 274.262 54.1556 275.992 55.7144 277.379C56.9918 278.515 57.7258 278.969 59.7216 279.068C60.9988 279.131 61.9307 280.098 63.1898 280.486C70.5468 282.752 77.7421 283.947 85.5457 283.947C89.1356 283.947 92.2437 282.446 95.7629 282.446C100.549 282.446 103.831 279.352 108.23 278.234C109.504 277.91 110.66 277.203 111.815 276.649C113.009 276.077 114.326 276.248 115.588 276.044C117.819 275.683 118.886 272.48 121.329 271.936C124.528 271.225 128.081 270.658 131.007 269.225C132.598 268.447 133.669 266.829 135.226 266.014C136.587 265.301 137.142 263.574 138.6 262.74C140.575 261.61 142.285 260.132 144.271 259.008C148.523 256.6 151.966 253.757 155.894 250.833C159.183 248.385 162.346 245.24 166.018 243.243C168.69 241.79 171.752 241.184 174.431 239.844C178.666 237.724 180.988 233.23 184.905 230.648C193.857 224.747 199.778 215.373 209.886 210.754C213.12 209.277 214.976 206.266 217.502 204.019C219.645 202.112 222.369 200.526 224.649 198.722C226.787 197.031 228.583 194.969 230.648 193.196C232.673 191.459 235.245 190.38 237.725 189.276C244.02 186.475 245.836 180.534 248.364 175.471C251.171 169.852 250.38 163.285 250.38 157.163C250.38 154.439 249.958 151.619 249.958 149.009C249.958 148.279 249.941 146.457 249.442 145.902C248.606 144.972 249.114 142.504 249.114 141.315" stroke="#5A6B3B" stroke-linecap="square"/>
</svg>
