<svg width="146" height="210" viewBox="0 0 146 210" fill="none" xmlns="http://www.w3.org/2000/svg">
<path d="M5.49366 15.4969C5.28723 24.569 4.7474 33.7037 4.87292 42.7766C5.01097 52.7547 12.3165 57.4388 16.3351 64.9493C19.6339 71.1143 30.8518 74.0935 37.4579 76.8561C50.5849 82.3456 50.7392 82.5185 59.0711 85.1341C64.5769 86.8626 66.9994 100.284 67.5616 105.134C68.2761 111.298 67.9453 125.835 67.8258 131.088C67.3821 150.584 68.618 171.401 68.1968 189.912" stroke="#5A6B3B" stroke-width="3" stroke-linecap="square"/>
<path d="M144.319 14.2854C144.113 23.3006 144.853 32.8627 143.352 41.7378C141.863 50.5405 141.641 60.4972 134.242 66.5341C130.548 69.5482 127.625 73.3612 123.058 75.1742C120.089 76.3529 117.182 77.5684 114.282 78.8782C112.196 79.8201 110.147 80.4517 107.979 81.1561C105.513 81.9575 103.804 83.2639 101.604 84.47C96.6692 87.1758 93.5789 91.9639 90.8025 96.7013C86.9238 103.32 85.9055 110.409 84.3875 117.878C82.8263 125.558 80.1385 133.134 79.0057 140.856C77.866 148.625 77.7956 156.48 77.615 164.42C77.5365 167.867 77.8082 171.255 77.8216 174.653C77.8305 176.893 78.423 179.211 78.6438 181.442C78.9115 184.147 78.5938 190.746 80.5817 192.851C80.8299 193.114 87.0181 191.922 87.8843 191.683C90.2948 191.02 93.404 190.198 95.927 190.186C99.379 190.17 104.667 189.252 107.775 190.999C110.142 192.33 112.344 192.754 114.845 193.631C121.785 196.064 114.375 202.515 110.638 204.653C104.285 208.289 98.0059 208.023 90.9345 207.862C80.5278 207.625 69.9606 207.829 59.4923 207.591C52.2225 207.426 44.5098 207.97 37.3438 206.642C32.8953 205.818 31.4902 202.071 31.5814 198.061C31.6896 193.308 38.4901 192.109 41.6425 190.483C45.8752 188.3 49.9644 188.251 54.656 188.358C55.8916 188.386 61.2151 188.01 62.1084 189.194C63.334 190.819 65.8128 191.725 67.7632 191.769" stroke="#5A6B3B" stroke-width="3" stroke-linecap="square"/>
<path d="M6.03347 13.0924C5.96259 16.2073 12.5173 16.2467 14.4567 16.9089C16.0386 17.449 17.8776 17.125 19.5011 17.6182C21.5849 18.2514 23.7231 18.6687 25.8744 19.0674C42.3172 22.115 58.8586 22.925 75.5875 23.3056C83.7977 23.4925 92.8499 24.8538 100.92 22.8464C108.629 20.9286 116.263 20.4337 124.169 20.6137C128.748 20.7178 132.91 18.9602 136.95 17.0303C139.121 15.9931 141.327 15.7911 143.488 14.5707C145.648 13.3505 143.118 11.281 141.674 10.9813C136.928 9.9961 132.228 9.09173 127.426 8.25974C124.823 7.80865 122.349 7.10855 119.702 7.04831C115.957 6.96309 112.247 6.9523 108.533 6.44894C105.13 5.9877 101.768 4.91413 98.3348 4.836C90.8434 4.66554 83.3743 4.15036 75.8756 3.97973C61.5633 3.65406 47.2905 2.63884 32.9651 2.31287C29.1571 2.22622 25.5747 2.34241 21.7917 2.74907C19.1603 3.03193 16.594 4.36092 13.9905 4.9114C10.3719 5.67653 5.46171 8.23365 5.3672 12.3868" stroke="#5A6B3B" stroke-width="3" stroke-linecap="square"/>
<path d="M9.8584 52.4898C18.3148 52.4898 27.1269 51.6901 35.7625 51.6901C47.7777 51.6901 59.1779 56.8291 69.8295 61.2865C75.571 63.6893 83.1539 65.6493 89.2694 66.9289C94.6196 68.0484 100.263 68.4839 105.831 68.4839C114.578 68.4839 126.11 69.7325 133.858 66.0848" stroke="#5A6B3B" stroke-width="3" stroke-linecap="square"/>
</svg>
