<svg width="333" height="430" viewBox="0 0 333 430" fill="none" xmlns="http://www.w3.org/2000/svg">
<path d="M48.813 11.5705C36.093 11.5705 29.9684 28.2793 27.7103 38.091C26.4255 43.6737 23.3316 48.8953 23.1002 54.7056C22.823 61.6628 21.9314 68.2839 21.9314 75.3327C21.9314 88.7301 21.5851 101.247 19.6588 114.267C18.6536 121.061 16.0876 129.005 16.0876 135.709C16.0876 141.183 12.5812 146.522 12.5812 152.073C12.5812 156.567 8.70735 162.207 7.84125 166.807C6.74245 172.642 4.39988 178.314 4.39988 184.236C4.39988 192.908 2.06235 201.859 2.06235 210.757C2.06235 221.185 2.06235 231.614 2.06235 242.042C2.06235 288.566 0.640532 307.401 11.3767 352.755C13.0715 359.914 15.5164 397.37 15.5164 404.718C15.5164 408.855 18.0828 416.302 20.7626 419.536C27.4965 427.664 44.0322 424.614 53.4881 424.614C72.1884 424.614 90.8887 424.614 109.589 424.614C118.246 424.614 126.904 424.614 135.562 424.614C143.822 424.614 152.035 421.229 160.365 421.229C172.235 421.229 174.635 419.536 186.797 419.536C193.565 419.536 207.411 421.229 214.222 421.229C222.378 421.229 228.967 420.7 236.4 422.295C248.299 424.848 260.318 426.871 272.632 426.871C279.595 426.871 286.783 428 293.994 428C300.947 428 303.924 427.236 310.033 424.614C317.816 421.274 319.54 410.177 319.967 403.172C320.297 397.757 319.967 392.234 319.967 386.808C319.967 379.679 317.903 373.045 317.629 366.181C316.99 350.118 311.786 333.986 311.786 317.654C311.786 305.189 310.617 292.095 310.617 279.284C310.617 246.402 316.072 222.556 321.201 190.368C324.015 172.704 319.152 146.742 321.201 128.938C322.318 119.23 323.81 109.147 326.071 99.5962C327.894 91.8947 327.501 83.252 329.902 75.8343C331.697 70.2881 330.486 63.0009 330.486 57.2134C330.486 53.1318 332.113 43.723 329.577 40.6616C328.563 39.4375 327.82 37.1914 326.98 35.7713C325.246 32.8425 323.231 32.1408 320.551 30.1286C317.05 27.4988 309.329 23.9843 304.773 23.9843C291.544 23.9843 278.256 24.339 265.035 23.9843C251.706 23.6268 238.63 18.3417 225.362 18.3417C217.575 18.3417 209.373 17.4269 201.402 17.2131C181.902 16.6901 161.606 8.25453 143.223 2.79296C137.758 1.16921 129.938 2.54218 124.199 2.54218C115.519 2.54218 106.84 2.54218 98.161 2.54218C86.2373 2.54218 77.1807 3.2838 66.3445 7.93407C61.7986 9.88496 55.2725 10.1915 50.5013 11.5078C45.5211 12.8817 41.7529 13.8505 37.1254 16.0846" stroke="#5A6B3B" stroke-width="3" stroke-linecap="round"/>
</svg>
