<svg width="348" height="576" viewBox="0 0 348 576" fill="none" xmlns="http://www.w3.org/2000/svg">
<path d="M45.6653 3.64554C45.5655 4.44449 44.0803 5.51471 43.5057 6.08929C42.5844 7.01065 42.3497 8.04578 41.5735 9.01611C39.9283 11.0725 37.9918 13.3661 36.7144 15.6654C34.2235 20.149 32.9775 21.1535 29.9775 25.6535C28.6416 27.6575 26.1653 32.0156 24.9775 34.1535C23.8373 36.2059 23.6905 36.4653 21.4775 40.1535C19.9775 42.6535 18.6201 46.1001 17.278 48.1535C15.936 50.207 14.2877 51.8017 12.9304 53.7709C11.9774 55.1535 10.7528 55.9558 9.97753 56.6535C9.7096 56.8947 6.89402 59.1704 7.58828 59.3687C10.336 60.1538 14.4077 59.3972 17.278 59.3972C20.2069 59.3972 23.1314 60.4201 26.229 60.4201C29.5354 60.4201 32.2868 60.9316 35.5493 60.9316C38.6524 60.9316 41.9949 60.4485 44.9265 60.4485C48.9062 60.4485 52.9572 60.4201 56.4062 60.4201C62.9159 60.4201 68.2225 60.9316 74.8199 60.9316C88.6184 60.9316 101.988 59.9086 115.738 59.9086C122.303 59.9086 128.867 59.9086 135.431 59.9086C142.703 59.9086 149.25 59.9086 156.406 59.9086C159.909 59.9086 162.906 59.5035 167.406 59.5035C169.041 59.5035 171.282 59.5035 172.906 59.5035C174.914 59.5035 180.352 58.8857 182.406 58.8857C189.16 58.8857 192.504 58.8857 199.508 58.8857C201.241 58.8857 203.008 58.784 204.736 58.8857C206.199 58.9717 208.76 59.5035 210.406 59.5035C213.039 59.5035 216.262 60.3459 218.906 60.4201C222.482 60.5204 225.965 60.5855 228.776 60.4201C231.006 60.289 238.226 58.6171 239.517 59.9086" stroke="#5A6B3B" stroke-width="2" stroke-linecap="round"/>
<path d="M240.541 59.3972C240.629 58.6887 249.787 59.0798 250.998 59.4256C254.422 60.4041 258.147 59.3972 261.511 59.3972C265.375 59.3972 268.738 58.8857 272.508 58.8857C276.383 58.8857 280.368 59.9086 284.272 59.9086C292.5 59.9086 300.541 59.3972 308.568 59.3972C312.66 59.3972 316.751 59.3972 320.843 59.3972C322.74 59.3972 331.85 60.4001 332.607 58.8857" stroke="#5A6B3B" stroke-width="2" stroke-linecap="round"/>
<path d="M296.292 3.13406C296.514 4.90902 298.965 7.4572 299.872 9.04453C301.536 11.9554 302.961 13.6198 304.478 16.6535C305.478 18.6535 305.978 19.6535 306.978 21.6535C307.942 23.5825 310.052 25.5317 310.978 27.1535C312.342 29.5426 312.795 31.4712 314.478 33.1535C316.46 35.1365 315.848 35.5581 317.478 37.6535C318.763 39.3066 319.639 40.9408 320.957 42.4046C321.781 43.3207 322.478 44.6535 323.429 45.8145C325.128 47.8872 326.794 51.107 328.629 53.1457C330.659 55.4011 332.02 57.0578 334.653 58.3742" stroke="#5A6B3B" stroke-width="2" stroke-linecap="round"/>
<path d="M46.6885 2.62257C48.0997 2.62257 52.2648 2.36683 53.8492 2.36683C56.4062 2.36683 60.0067 2.06172 61.2373 2.08268C62.9062 2.11109 64.3078 2.11109 65.4062 2.11109C68.4062 2.11109 72.9954 2.36683 74.9062 2.36683C77.0812 2.36683 79.576 2.74777 82.4062 2.62257C84.8864 2.51287 87.9604 2.11109 90.4203 2.11109C95.7324 2.11109 101.503 1.80327 107.043 2.11109C127.932 3.27156 148.46 2.62257 169.444 2.62257C180.005 2.62257 190.435 1.59961 201.156 1.59961C212.492 1.59961 223.545 2.11109 234.914 2.11109C245.165 2.11109 254.662 2.11109 265.092 2.11109C275.477 2.11109 285.427 3.13406 295.781 3.13406" stroke="#5A6B3B" stroke-width="2" stroke-linecap="round"/>
<path d="M52.3145 10.2948C54.9476 10.2948 57.5808 10.2948 60.214 10.2948C63.3449 10.2948 66.1132 11.1711 69.1934 11.3178C72.3682 11.469 75.2 12.3408 78.4001 12.3408C80.7017 12.3408 83.0034 12.3408 85.3051 12.3408C95.0971 12.3408 104.538 11.8293 114.46 11.8293C133.22 11.8293 152.102 10.8063 170.978 10.8063C181.109 10.8063 191.035 10.2948 201.184 10.2948C206.576 10.2948 211.688 10.8063 217.012 10.8063C218.735 10.8063 222.604 10.7344 224.173 11.4315C227.116 12.7394 231.167 11.453 234.175 12.3123C236.156 12.8785 239.248 12.8522 241.307 12.8522C243.39 12.8522 245.926 13.3955 247.957 13.8468C252.371 14.8278 258.006 13.8752 262.534 13.8752C267.218 13.8752 272.079 13.3637 276.6 13.3637C279.157 13.3637 281.714 13.3637 284.272 13.3637C286.734 13.3637 288.628 14.2135 291.177 13.3637" stroke="#5A6B3B" stroke-width="2" stroke-linecap="round"/>
<path d="M51.8032 28.7082C54.1001 28.7082 55.5007 27.1737 57.7137 27.1737C60.3469 27.1737 62.9801 27.1737 65.6133 27.1737C67.726 27.1737 70.449 28.1535 72.4899 28.7366C73.674 29.0749 77.9245 28.7796 78.4003 29.7312" stroke="#5A6B3B" stroke-width="2" stroke-linecap="round"/>
<path d="M97.3252 37.4034C98.9501 37.4034 100.276 36.3804 102.184 36.3804C104.401 36.3804 106.617 36.3804 108.834 36.3804C112.881 36.3804 116.397 37.9149 120.342 37.9149" stroke="#5A6B3B" stroke-width="2" stroke-linecap="round"/>
<path d="M132.106 25.6393C133.927 27.2579 137.973 25.6393 140.034 25.6393C143.018 25.6393 146.001 25.6393 148.985 25.6393C152.046 25.6393 154.707 26.2091 157.68 26.6339C160.159 26.988 161.909 26.6623 164.329 26.6623" stroke="#5A6B3B" stroke-width="2" stroke-linecap="round"/>
<path d="M170.979 41.4953C172.962 41.7432 174.557 42.5182 176.889 42.5182C179.437 42.5182 181.985 42.5182 184.533 42.5182C189.563 42.5182 195.567 40.8258 200.645 42.5182" stroke="#5A6B3B" stroke-width="2" stroke-linecap="round"/>
<path d="M196.041 24.6163C196.299 24.6163 198.771 24.6163 198.087 24.6163C197.311 24.6163 195.757 24.6163 195.757 24.6163C195.757 24.6163 198.18 25.4302 199.338 25.0994C201.576 24.4598 204.074 23.5934 206.527 23.5934C209.223 23.5934 212.664 22.9994 214.966 24.2185C217.366 25.4891 220.5 25.4997 223.15 24.6163" stroke="#5A6B3B" stroke-width="2" stroke-linecap="round"/>
<path d="M228.265 46.6101C228.575 44.1238 237.481 45.5347 239.006 46.2123C241.723 47.42 246.254 46.6101 249.235 46.6101" stroke="#5A6B3B" stroke-width="2" stroke-linecap="round"/>
<path d="M249.235 29.7312C251.793 29.7312 254.35 29.7312 256.908 29.7312C260.685 29.7312 264.55 30.7541 268.16 30.7541C272.834 30.7541 277.585 30.7541 281.97 30.7541" stroke="#5A6B3B" stroke-width="2" stroke-linecap="round"/>
<path d="M281.459 43.5412C284.388 43.5412 287.498 43.9051 290.154 44.0527C293.071 44.2147 295.757 45.0756 298.849 45.0756" stroke="#5A6B3B" stroke-width="2" stroke-linecap="round"/>
<path d="M43.1079 48.1445C45.0397 48.1445 47.3446 47.6331 49.5299 47.6331C52.1517 47.6331 54.5883 48.519 56.9179 48.656C61.4154 48.9206 65.7273 47.6331 70.2165 47.6331" stroke="#5A6B3B" stroke-width="2" stroke-linecap="round"/>
<path d="M12.9307 68.0924C53.1662 68.0924 93.8188 68.6038 134.408 68.6038C139.096 68.6038 144.279 68.6038 148.985 68.6038C153.647 68.6038 158.213 68.0924 163.051 68.0924C173.404 68.0924 183.31 67.5809 193.74 67.5809C203.292 67.5809 213.562 68.0924 223.406 68.0924C227.844 68.0924 233.174 69.1251 237.699 68.5754C242.406 68.0035 247.417 68.0035 251.906 68.0035" stroke="#5A6B3B" stroke-width="2" stroke-linecap="round"/>
<path d="M251.793 68.0924C265.857 68.0924 280.108 69.1153 294.246 69.1153C301.407 69.1153 308.568 69.1153 315.728 69.1153C318.585 69.1153 322.444 69.352 325.162 68.5754C327.874 67.8006 330.016 66.5579 333.119 66.5579" stroke="#5A6B3B" stroke-width="2" stroke-linecap="round"/>
<path d="M15.4879 68.6039C15.4879 74.7416 15.4879 80.8794 15.4879 87.0172C15.4879 92.5866 15.4879 98.0211 15.4879 103.654C15.4879 109.636 15.4879 114.808 15.4879 120.775C15.4879 126.578 15.4879 133.136 15.4879 138.654C15.4879 144.717 15.4878 150.499 15.4878 156.654C15.4878 162.57 15.4879 168.154 15.4879 174.154C15.4879 186.369 15.4876 197.273 15.4876 208.654C15.4876 211.798 15.4879 215.009 15.4879 218.154C15.4879 220.769 15.3746 224.632 15.4879 227.654C15.5943 230.491 15.4879 232.378 15.4879 235.154C15.4879 238.154 15.4879 241.719 15.4879 244.554C15.4879 247.384 15.4879 249.741 15.4879 252.654C15.4879 254.321 15.9994 260.535 15.9994 262.154C15.9994 264.154 15.9994 267.739 15.9994 269.361C15.9994 271.993 15.8573 274.738 15.9994 277.154C16.3272 282.726 15.9994 287.644 15.9994 293.154C15.9994 295.982 16.5044 299.376 15.9994 302.154C15.4784 305.019 15.9994 307.537 15.9994 310.535C15.9994 313.139 14.9764 316.038 14.9764 318.463C14.9764 321.773 14.9764 326.469 14.9764 329.654C14.9764 332.079 14.9764 336.164 14.9764 338.654C14.9764 340.017 14.9764 343.79 14.9764 345.154C14.9764 346.277 14.4773 352.154 14.9773 350.154" stroke="#5A6B3B" stroke-width="2" stroke-linecap="round"/>
<path d="M327.411 69.0211C327.411 74.9679 326.094 80.4137 326.094 86.3586C326.094 92.5035 327.85 109.009 327.85 115.154C327.85 141.01 327.951 157.624 327.478 183.654C326.978 211.154 326.978 239.154 326.978 272.154C326.978 283.85 326.978 310.957 326.978 322.654C326.978 325.58 326.533 337.35 326.533 340.276C326.533 341.74 326.533 343.203 326.533 344.666C326.533 346.435 325.895 348.29 327.85 348.616" stroke="#5A6B3B" stroke-width="2" stroke-linecap="round"/>
<path d="M9.86816 350.18C12.6535 350.18 15.478 351.333 18.3231 351.333C21.2553 351.333 24.2349 351.487 27.1623 351.333C32.695 351.042 38.422 350.949 44.0721 350.949C49.6893 350.949 55.6212 351.333 61.3663 351.333C68.0388 351.333 74.6544 352.102 81.3506 352.102C84.297 352.102 87.2435 352.102 90.1899 352.102C93.2794 352.102 96.0423 350.949 99.0291 350.949C105.918 350.949 112.807 350.949 119.697 350.949C134.941 350.949 150.186 350.949 165.43 350.949C181.37 350.949 197.43 350.949 213.17 350.949C219.309 350.949 225.591 351.717 231.703 351.717C238.079 351.717 244.392 350.949 250.833 350.949C258.861 350.949 267.134 350.564 275.344 350.564C282.46 350.564 289.44 351.333 296.567 351.333C300.584 351.333 304.539 350.18 308.48 350.18C311.235 350.18 313.909 349.412 316.551 349.412C319.342 349.412 321.899 348.643 324.622 348.643C326.022 348.643 327.451 348.561 328.849 348.643C330.05 348.714 331.285 349.412 332.692 349.412" stroke="#5A6B3B" stroke-width="2" stroke-linecap="round"/>
<path d="M332.692 350.564C334.301 349.134 333.46 354.791 333.46 355.368C333.46 356.952 334.11 360.321 333.375 361.71C332.734 362.92 328.746 362.863 327.504 362.863C324.885 362.863 322.337 362.478 319.647 362.478C314.515 362.478 309.384 362.478 304.253 362.478C299.718 362.478 295.423 361.71 290.994 361.71C288.752 361.71 286.51 361.71 284.268 361.71C282.394 361.71 279.743 361.218 277.948 361.731C274.101 362.83 270.111 362.863 265.821 362.863C259.882 362.863 253.631 363.247 247.566 363.247C241.593 363.247 235.611 362.478 229.696 362.478C224.335 362.478 218.983 361.71 213.554 361.71C210.439 361.71 207.323 360.941 204.117 360.941C200.153 360.941 196.189 360.941 192.225 360.941C185.734 360.941 179.265 361.325 172.817 361.325C170.139 361.325 167.535 361.71 164.917 361.71C162.675 361.71 159.831 361.243 157.637 361.731C155.343 362.241 152.931 362.094 150.527 362.094C147.737 362.094 144.765 362.478 141.858 362.478C135.95 362.478 129.98 363.028 124.009 362.863C121.409 362.79 118.248 362.287 115.746 361.731C113.613 361.257 110.372 362.588 108.444 361.517C106.664 360.528 103.937 362.055 102.103 361.24C100.122 360.36 96.9614 360.941 94.8013 360.941" stroke="#5A6B3B" stroke-width="2" stroke-linecap="round"/>
<path d="M95.5699 360.941C88.0316 360.941 80.412 360.172 72.9807 360.172C64.4438 360.172 55.9458 360.941 47.5306 360.941C39.2052 360.941 30.9078 361.71 22.5502 361.71C19.924 361.71 17.2979 361.71 14.6717 361.71C12.6654 361.71 11.8875 361.928 10.7218 360.471C8.77851 358.042 8.71484 354.423 8.71484 351.333" stroke="#5A6B3B" stroke-width="2" stroke-linecap="round"/>
<path d="M41.3604 88.1535C45.9775 89.1535 49.4775 89.1535 52.9775 89.1535C56.807 89.1535 60.9563 89.1535 64.9775 89.1535C69.0277 89.1535 72.0035 89.1535 75.9775 89.1535C78.3778 89.1535 80.6509 89.1535 82.9775 89.1535C83.9775 89.1535 85.7399 89.1535 86.7308 89.1535C87.9692 89.1535 86.9775 93.6535 86.9775 95.1535C86.9775 97.2526 86.9775 99.5126 86.9775 101.654C86.9775 104.152 86.9775 104.655 86.9775 107.154C86.9775 111.672 87.4775 115.581 87.4775 120.154C87.4775 123.841 86.9775 126.154 86.9775 129.654C86.9775 131.271 86.8842 133.068 86.9775 134.654C87.0983 136.707 87.0396 139.183 87.4775 141.154C87.6291 141.835 87.5358 142.101 87.9775 142.654C88.3313 143.096 88.1138 144.419 86.9775 144.154C85.4775 143.803 83.1365 143.803 82.119 143.803C77.5997 143.803 73.0912 143.419 68.668 143.419C60.0646 143.419 51.3235 143.803 42.919 143.803C41.3471 143.803 41.3604 144.495 41.3604 142.843C41.3604 141.823 41.4778 140.032 41.4778 139.154C41.4777 135.654 41.4776 136.654 41.4774 133.154C41.4773 129.991 41.8514 128.173 41.8514 124.654C41.8514 123.154 41.9775 118.654 41.8514 117.154C41.8093 116.653 41.8514 115.189 41.8514 114.654C41.8514 113.358 42.312 111.851 41.8514 110.654C41.3377 109.318 41.8855 107.38 41.8514 105.948C41.8279 104.962 41.8514 103.083 41.8514 102.212C41.8514 100.654 42.1503 96.992 42.1503 95.5719C42.1503 93.8748 42.1503 91.9353 42.1503 89.9994" stroke="#5A6B3B" stroke-width="2" stroke-linecap="round"/>
<path d="M63.6721 91.5366C64.9126 92.9322 64.4408 97.3095 64.4408 99.0308C64.4408 100.76 64.4408 102.49 64.4408 104.219C64.4408 108.446 63.9778 112.426 63.9778 116.654C63.9778 119.537 63.4778 122.787 63.4778 125.654C63.4778 127.309 63.4777 129.189 63.4777 130.654C63.4777 132.206 63.1982 132.617 63.4775 134.154C63.6921 135.334 63.4777 135.966 63.4777 137.154C63.4777 137.541 63.4777 138.463 63.4777 139.154" stroke="#5A6B3B" stroke-width="2" stroke-linecap="round"/>
<path d="M45.3813 111.521C47.3813 111.521 51.3395 111.213 52.4775 111.154C54.221 111.062 56.1891 111.154 57.9775 111.154C59.8176 111.154 61.3545 111.137 63.0952 111.137C69.1648 111.137 75.3211 111.137 81.3502 111.137" stroke="#5A6B3B" stroke-width="2" stroke-linecap="round"/>
<path d="M40.9775 177.654C45.5947 178.654 49.0947 178.654 52.5947 178.654C56.4242 178.654 60.5735 178.654 64.5947 178.654C68.6449 178.654 71.6207 178.654 75.5947 178.654C77.995 178.654 80.2681 178.654 82.5947 178.654C83.5947 178.654 85.3571 178.654 86.348 178.654C87.5863 178.654 86.5947 183.154 86.5947 184.654C86.5947 186.753 86.5947 189.013 86.5947 191.154C86.5947 193.652 86.5947 194.155 86.5947 196.654C86.5947 201.172 87.0947 205.081 87.0947 209.654C87.0947 213.341 86.5947 215.654 86.5947 219.154C86.5947 220.771 86.5014 222.568 86.5947 224.154C86.7155 226.207 86.6568 228.683 87.0947 230.654C87.2463 231.335 87.153 231.601 87.5947 232.154C87.9485 232.596 87.731 233.919 86.5947 233.654C85.0947 233.303 82.7537 233.303 81.7362 233.303C77.2169 233.303 72.7084 232.919 68.2852 232.919C59.6818 232.919 50.9406 233.303 42.5362 233.303C40.9643 233.303 40.9775 233.995 40.9775 232.343C40.9775 231.323 41.095 229.532 41.095 228.654C41.0949 225.154 41.0948 226.154 41.0946 222.654C41.0944 219.491 41.4686 217.673 41.4686 214.154C41.4686 212.654 41.5947 208.154 41.4686 206.654C41.4265 206.153 41.4686 204.689 41.4686 204.154C41.4686 202.858 41.9292 201.351 41.4686 200.154C40.9549 198.818 41.5027 196.88 41.4686 195.448C41.4451 194.462 41.4686 192.583 41.4686 191.712C41.4686 190.154 41.7675 186.492 41.7675 185.072C41.7675 183.375 41.7675 181.435 41.7675 179.499" stroke="#5A6B3B" stroke-width="2" stroke-linecap="round"/>
<path d="M63.2893 181.037C64.5298 182.432 64.0579 186.81 64.0579 188.531C64.0579 190.26 64.0579 191.99 64.0579 193.719C64.0579 197.946 63.595 201.926 63.595 206.154C63.595 209.037 63.095 212.287 63.095 215.154C63.095 216.809 63.0949 218.689 63.0949 220.154C63.0949 221.706 62.8153 222.117 63.0947 223.654C63.3093 224.834 63.0949 225.466 63.0949 226.654C63.0949 227.041 63.0948 227.963 63.0949 228.654" stroke="#5A6B3B" stroke-width="2" stroke-linecap="round"/>
<path d="M44.9985 201.021C46.9985 201.021 50.9567 200.713 52.0947 200.654C53.8382 200.562 55.8063 200.654 57.5947 200.654C59.4348 200.654 60.9717 200.637 62.7124 200.637C68.7819 200.637 74.9383 200.637 80.9674 200.637" stroke="#5A6B3B" stroke-width="2" stroke-linecap="round"/>
<path d="M40.9775 274.654C45.4775 275.154 47.9775 274.654 51.4775 274.654C55.307 274.654 60.4563 275.154 64.4775 275.154C68.5277 275.154 71.5035 275.154 75.4775 275.154C77.8778 275.154 80.1509 275.154 82.4775 275.154C83.4775 275.154 85.3571 275.796 86.348 275.796C87.5863 275.796 86.5947 280.935 86.5947 282.649C86.5947 285.046 86.5947 287.627 86.5947 290.073C86.5947 292.926 86.5947 293.501 86.5947 296.354C86.5947 301.515 87.0947 305.98 87.0947 311.202C87.0947 315.413 86.5947 318.055 86.5947 322.053C86.5947 323.9 86.5014 325.952 86.5947 327.763C86.7155 330.108 86.6568 332.937 87.0947 335.187C87.2463 335.966 87.153 336.27 87.5947 336.901C87.9485 337.406 87.731 338.917 86.5947 338.614C85.0947 338.214 82.7537 338.214 81.7362 338.214C77.2169 338.214 72.7084 337.775 68.2852 337.775C59.6818 337.775 50.9406 338.214 42.5362 338.214C40.9643 338.214 40.9775 339.004 40.9775 337.116C40.9775 335.952 41.095 333.907 41.095 332.903C41.0949 328.906 41.0948 330.048 41.0946 326.05C41.0944 322.438 41.4686 320.362 41.4686 316.342C41.4686 314.629 41.5947 309.489 41.4686 307.776C41.4265 307.204 41.4686 305.532 41.4686 304.92C41.4686 303.44 41.9292 301.72 41.4686 300.352C40.9549 298.826 41.5027 296.613 41.4686 294.978C41.4451 293.852 41.4686 291.705 41.4686 290.71C41.4686 288.93 41.7675 284.748 41.7675 283.126C41.7675 281.188 41.7675 278.973 41.7675 276.762" stroke="#5A6B3B" stroke-width="2" stroke-linecap="round"/>
<path d="M63.2893 278.517C64.5298 280.111 64.0579 285.111 64.0579 287.077C64.0579 289.052 64.0579 291.027 64.0579 293.003C64.0579 297.831 63.595 302.376 63.595 307.205C63.595 310.498 63.095 314.209 63.095 317.484C63.095 319.374 63.0949 321.523 63.0949 323.195C63.0949 324.968 62.8153 325.437 63.0947 327.192C63.3093 328.54 63.0949 329.262 63.0949 330.619C63.0949 331.062 63.0948 332.114 63.0949 332.903" stroke="#5A6B3B" stroke-width="2" stroke-linecap="round"/>
<path d="M44.9775 298.12C46.9775 298.12 50.9357 297.769 52.0737 297.7C53.8172 297.595 55.7853 297.7 57.5737 297.7C59.4138 297.7 60.9507 297.681 62.6914 297.681C68.761 297.681 74.9173 297.681 80.9464 297.681" stroke="#5A6B3B" stroke-width="2" stroke-linecap="round"/>
<path d="M112.978 273.654C117.595 274.796 121.095 274.796 124.595 274.796C128.424 274.796 132.574 274.796 136.595 274.796C140.645 274.796 143.621 274.796 147.595 274.796C149.995 274.796 152.268 274.796 154.595 274.796C155.595 274.796 157.357 274.796 158.348 274.796C159.586 274.796 158.595 279.935 158.595 281.649C158.595 284.046 158.595 286.627 158.595 289.073C158.595 291.926 158.595 292.501 158.595 295.354C158.595 300.515 159.095 304.98 159.095 310.202C159.095 314.413 158.595 317.055 158.595 321.053C158.595 322.9 158.501 324.952 158.595 326.763C158.716 329.108 158.657 331.937 159.095 334.187C159.246 334.966 159.153 335.27 159.595 335.901C159.948 336.406 159.731 337.917 158.595 337.614C157.095 337.214 154.754 337.214 153.736 337.214C149.217 337.214 144.708 336.775 140.285 336.775C131.682 336.775 122.941 337.214 114.536 337.214C112.964 337.214 112.978 338.004 112.978 336.116C112.978 334.952 113.095 332.907 113.095 331.903C113.095 327.906 113.095 329.048 113.095 325.05C113.094 321.438 113.469 319.362 113.469 315.342C113.469 313.629 113.595 308.489 113.469 306.776C113.426 306.204 113.469 304.532 113.469 303.92C113.469 302.44 113.929 300.72 113.469 299.352C112.955 297.826 113.503 295.613 113.469 293.978C113.445 292.852 113.469 290.705 113.469 289.71C113.469 287.93 113.768 283.748 113.768 282.126C113.768 280.188 113.768 277.973 113.768 275.762" stroke="#5A6B3B" stroke-width="2" stroke-linecap="round"/>
<path d="M135.289 277.517C136.53 279.111 136.058 284.111 136.058 286.077C136.058 288.052 136.058 290.027 136.058 292.003C136.058 296.831 135.595 301.376 135.595 306.205C135.595 309.498 135.095 313.209 135.095 316.484C135.095 318.374 135.095 320.523 135.095 322.195C135.095 323.968 134.815 324.437 135.095 326.192C135.309 327.54 135.095 328.262 135.095 329.619C135.095 330.062 135.095 331.114 135.095 331.903" stroke="#5A6B3B" stroke-width="2" stroke-linecap="round"/>
<path d="M117.978 298.12C119.978 298.12 123.936 297.769 125.074 297.7C126.817 297.595 128.785 297.7 130.574 297.7C132.414 297.7 133.951 297.681 135.691 297.681C141.761 297.681 147.917 297.681 153.946 297.681" stroke="#5A6B3B" stroke-width="2" stroke-linecap="round"/>
<path d="M187.978 272.654C192.595 273.814 196.095 273.814 199.595 273.814C203.424 273.814 207.574 273.814 211.595 273.814C215.645 273.814 218.621 273.814 222.595 273.814C224.995 273.814 227.268 273.814 229.595 273.814C230.595 273.814 232.357 273.814 233.348 273.814C234.586 273.814 233.595 279.033 233.595 280.773C233.595 283.208 233.595 285.83 233.595 288.313C233.595 291.211 233.595 291.796 233.595 294.693C233.595 299.935 234.095 304.469 234.095 309.773C234.095 314.05 233.595 316.733 233.595 320.793C233.595 322.669 233.501 324.754 233.595 326.593C233.716 328.975 233.657 331.847 234.095 334.133C234.246 334.924 234.153 335.233 234.595 335.873C234.948 336.386 234.731 337.921 233.595 337.613C232.095 337.207 229.754 337.207 228.736 337.207C224.217 337.207 219.708 336.761 215.285 336.761C206.682 336.761 197.941 337.207 189.536 337.207C187.964 337.207 187.978 338.01 187.978 336.092C187.978 334.91 188.095 332.833 188.095 331.813C188.095 327.753 188.095 328.913 188.095 324.853C188.094 321.185 188.469 319.076 188.469 314.993C188.469 313.253 188.595 308.033 188.469 306.293C188.426 305.712 188.469 304.014 188.469 303.393C188.469 301.89 188.929 300.143 188.469 298.753C187.955 297.204 188.503 294.956 188.469 293.295C188.445 292.151 188.469 289.972 188.469 288.961C188.469 287.153 188.768 282.906 188.768 281.259C188.768 279.29 188.768 277.04 188.768 274.795" stroke="#5A6B3B" stroke-width="2" stroke-linecap="round"/>
<path d="M210.289 276.578C211.53 278.197 211.058 283.274 211.058 285.271C211.058 287.277 211.058 289.283 211.058 291.289C211.058 296.193 210.595 300.809 210.595 305.713C210.595 309.058 210.095 312.828 210.095 316.153C210.095 318.073 210.095 320.255 210.095 321.953C210.095 323.755 209.815 324.231 210.095 326.013C210.309 327.382 210.095 328.115 210.095 329.493C210.095 329.943 210.095 331.012 210.095 331.813" stroke="#5A6B3B" stroke-width="2" stroke-linecap="round"/>
<path d="M192.978 297.127C194.978 297.127 198.936 296.77 200.074 296.701C201.817 296.594 203.785 296.701 205.574 296.701C207.414 296.701 208.951 296.681 210.691 296.681C216.761 296.681 222.917 296.681 228.946 296.681" stroke="#5A6B3B" stroke-width="2" stroke-linecap="round"/>
<path d="M258.978 273.654C263.595 274.796 267.095 274.796 270.595 274.796C274.424 274.796 278.574 274.796 282.595 274.796C286.645 274.796 289.621 274.796 293.595 274.796C295.995 274.796 298.268 274.796 300.595 274.796C301.595 274.796 303.357 274.796 304.348 274.796C305.586 274.796 304.595 279.935 304.595 281.649C304.595 284.046 304.595 286.627 304.595 289.073C304.595 291.926 304.595 292.501 304.595 295.354C304.595 300.515 305.095 304.98 305.095 310.202C305.095 314.413 304.595 317.055 304.595 321.053C304.595 322.9 304.501 324.952 304.595 326.763C304.716 329.108 304.657 331.937 305.095 334.187C305.246 334.966 305.153 335.27 305.595 335.901C305.948 336.406 305.731 337.917 304.595 337.614C303.095 337.214 300.754 337.214 299.736 337.214C295.217 337.214 290.708 336.775 286.285 336.775C277.682 336.775 268.941 337.214 260.536 337.214C258.964 337.214 258.978 338.004 258.978 336.116C258.978 334.952 259.095 332.907 259.095 331.903C259.095 327.906 259.095 329.048 259.095 325.05C259.094 321.438 259.469 319.362 259.469 315.342C259.469 313.629 259.595 308.489 259.469 306.776C259.426 306.204 259.469 304.532 259.469 303.92C259.469 302.44 259.929 300.72 259.469 299.352C258.955 297.826 259.503 295.613 259.469 293.978C259.445 292.852 259.469 290.705 259.469 289.71C259.469 287.93 259.768 283.748 259.768 282.126C259.768 280.188 259.768 277.973 259.768 275.762" stroke="#5A6B3B" stroke-width="2" stroke-linecap="round"/>
<path d="M281.289 277.517C282.53 279.111 282.058 284.111 282.058 286.077C282.058 288.052 282.058 290.027 282.058 292.003C282.058 296.831 281.595 301.376 281.595 306.205C281.595 309.498 281.095 313.209 281.095 316.484C281.095 318.374 281.095 320.523 281.095 322.195C281.095 323.968 280.815 324.437 281.095 326.192C281.309 327.54 281.095 328.262 281.095 329.619C281.095 330.062 281.095 331.114 281.095 331.903" stroke="#5A6B3B" stroke-width="2" stroke-linecap="round"/>
<path d="M262.978 298.12C264.978 298.12 268.936 297.769 270.074 297.7C271.817 297.595 273.785 297.7 275.574 297.7C277.414 297.7 278.951 297.681 280.691 297.681C286.761 297.681 292.917 297.681 298.946 297.681" stroke="#5A6B3B" stroke-width="2" stroke-linecap="round"/>
<path d="M112.978 177.654C117.595 178.654 121.095 178.654 124.595 178.654C128.424 178.654 132.574 178.654 136.595 178.654C140.645 178.654 143.621 178.654 147.595 178.654C149.995 178.654 152.268 178.654 154.595 178.654C155.595 178.654 157.357 178.654 158.348 178.654C159.586 178.654 158.595 183.154 158.595 184.654C158.595 186.753 158.595 189.013 158.595 191.154C158.595 193.652 158.595 194.155 158.595 196.654C158.595 201.172 159.095 205.081 159.095 209.654C159.095 213.341 158.595 215.654 158.595 219.154C158.595 220.771 158.501 222.568 158.595 224.154C158.716 226.207 158.657 228.683 159.095 230.654C159.246 231.335 159.153 231.601 159.595 232.154C159.948 232.596 159.731 233.919 158.595 233.654C157.095 233.303 154.754 233.303 153.736 233.303C149.217 233.303 144.708 232.919 140.285 232.919C131.682 232.919 122.941 233.303 114.536 233.303C112.964 233.303 112.978 233.995 112.978 232.343C112.978 231.323 113.095 229.532 113.095 228.654C113.095 225.154 113.095 226.154 113.095 222.654C113.094 219.491 113.469 217.673 113.469 214.154C113.469 212.654 113.595 208.154 113.469 206.654C113.426 206.153 113.469 204.689 113.469 204.154C113.469 202.858 113.929 201.351 113.469 200.154C112.955 198.818 113.503 196.88 113.469 195.448C113.445 194.462 113.469 192.583 113.469 191.712C113.469 190.154 113.768 186.492 113.768 185.072C113.768 183.375 113.768 181.435 113.768 179.499" stroke="#5A6B3B" stroke-width="2" stroke-linecap="round"/>
<path d="M135.289 181.037C136.53 182.432 136.058 186.81 136.058 188.531C136.058 190.26 136.058 191.99 136.058 193.719C136.058 197.946 135.595 201.926 135.595 206.154C135.595 209.037 135.095 212.287 135.095 215.154C135.095 216.809 135.095 218.689 135.095 220.154C135.095 221.706 134.815 222.117 135.095 223.654C135.309 224.834 135.095 225.466 135.095 226.654C135.095 227.041 135.095 227.963 135.095 228.654" stroke="#5A6B3B" stroke-width="2" stroke-linecap="round"/>
<path d="M116.999 201.021C118.999 201.021 122.957 200.713 124.095 200.654C125.838 200.562 127.806 200.654 129.595 200.654C131.435 200.654 132.972 200.637 134.712 200.637C140.782 200.637 146.938 200.637 152.967 200.637" stroke="#5A6B3B" stroke-width="2" stroke-linecap="round"/>
<path d="M188.978 177.654C193.595 178.654 197.095 178.654 200.595 178.654C204.424 178.654 208.574 178.654 212.595 178.654C216.645 178.654 219.621 178.654 223.595 178.654C225.995 178.654 228.268 178.654 230.595 178.654C231.595 178.654 233.357 178.654 234.348 178.654C235.586 178.654 234.595 183.154 234.595 184.654C234.595 186.753 234.595 189.013 234.595 191.154C234.595 193.652 234.595 194.155 234.595 196.654C234.595 201.172 235.095 205.081 235.095 209.654C235.095 213.341 234.595 215.654 234.595 219.154C234.595 220.771 234.501 222.568 234.595 224.154C234.716 226.207 234.657 228.683 235.095 230.654C235.246 231.335 235.153 231.601 235.595 232.154C235.948 232.596 235.731 233.919 234.595 233.654C233.095 233.303 230.754 233.303 229.736 233.303C225.217 233.303 220.708 232.919 216.285 232.919C207.682 232.919 198.941 233.303 190.536 233.303C188.964 233.303 188.978 233.995 188.978 232.343C188.978 231.323 189.095 229.532 189.095 228.654C189.095 225.154 189.095 226.154 189.095 222.654C189.094 219.491 189.469 217.673 189.469 214.154C189.469 212.654 189.595 208.154 189.469 206.654C189.426 206.153 189.469 204.689 189.469 204.154C189.469 202.858 189.929 201.351 189.469 200.154C188.955 198.818 189.503 196.88 189.469 195.448C189.445 194.462 189.469 192.583 189.469 191.712C189.469 190.154 189.768 186.492 189.768 185.072C189.768 183.375 189.768 181.435 189.768 179.499" stroke="#5A6B3B" stroke-width="2" stroke-linecap="round"/>
<path d="M211.289 181.037C212.53 182.432 212.058 186.81 212.058 188.531C212.058 190.26 212.058 191.99 212.058 193.719C212.058 197.946 211.595 201.926 211.595 206.154C211.595 209.037 211.095 212.287 211.095 215.154C211.095 216.809 211.095 218.689 211.095 220.154C211.095 221.706 210.815 222.117 211.095 223.654C211.309 224.834 211.095 225.466 211.095 226.654C211.095 227.041 211.095 227.963 211.095 228.654" stroke="#5A6B3B" stroke-width="2" stroke-linecap="round"/>
<path d="M192.999 201.021C194.999 201.021 198.957 200.713 200.095 200.654C201.838 200.562 203.806 200.654 205.595 200.654C207.435 200.654 208.972 200.637 210.712 200.637C216.782 200.637 222.938 200.637 228.967 200.637" stroke="#5A6B3B" stroke-width="2" stroke-linecap="round"/>
<path d="M257.978 177.654C262.595 178.654 266.095 178.654 269.595 178.654C273.424 178.654 277.574 178.654 281.595 178.654C285.645 178.654 288.621 178.654 292.595 178.654C294.995 178.654 297.268 178.654 299.595 178.654C300.595 178.654 302.357 178.654 303.348 178.654C304.586 178.654 303.595 183.154 303.595 184.654C303.595 186.753 303.595 189.013 303.595 191.154C303.595 193.652 303.595 194.155 303.595 196.654C303.595 201.172 304.095 205.081 304.095 209.654C304.095 213.341 303.595 215.654 303.595 219.154C303.595 220.771 303.501 222.568 303.595 224.154C303.716 226.207 303.657 228.683 304.095 230.654C304.246 231.335 304.153 231.601 304.595 232.154C304.948 232.596 304.731 233.919 303.595 233.654C302.095 233.303 299.754 233.303 298.736 233.303C294.217 233.303 289.708 232.919 285.285 232.919C276.682 232.919 267.941 233.303 259.536 233.303C257.964 233.303 257.978 233.995 257.978 232.343C257.978 231.323 258.095 229.532 258.095 228.654C258.095 225.154 258.095 226.154 258.095 222.654C258.094 219.491 258.469 217.673 258.469 214.154C258.469 212.654 258.595 208.154 258.469 206.654C258.426 206.153 258.469 204.689 258.469 204.154C258.469 202.858 258.929 201.351 258.469 200.154C257.955 198.818 258.503 196.88 258.469 195.448C258.445 194.462 258.469 192.583 258.469 191.712C258.469 190.154 258.768 186.492 258.768 185.072C258.768 183.375 258.768 181.435 258.768 179.499" stroke="#5A6B3B" stroke-width="2" stroke-linecap="round"/>
<path d="M280.289 181.037C281.53 182.432 281.058 186.81 281.058 188.531C281.058 190.26 281.058 191.99 281.058 193.719C281.058 197.946 280.595 201.926 280.595 206.154C280.595 209.037 280.095 212.287 280.095 215.154C280.095 216.809 280.095 218.689 280.095 220.154C280.095 221.706 279.815 222.117 280.095 223.654C280.309 224.834 280.095 225.466 280.095 226.654C280.095 227.041 280.095 227.963 280.095 228.654" stroke="#5A6B3B" stroke-width="2" stroke-linecap="round"/>
<path d="M261.999 201.021C263.999 201.021 267.957 200.713 269.095 200.654C270.838 200.562 272.806 200.654 274.595 200.654C276.435 200.654 277.972 200.637 279.712 200.637C285.782 200.637 291.938 200.637 297.967 200.637" stroke="#5A6B3B" stroke-width="2" stroke-linecap="round"/>
<path d="M112.978 88.6535C117.595 89.6535 121.095 89.6535 124.595 89.6535C128.424 89.6535 132.574 89.6535 136.595 89.6535C140.645 89.6535 143.621 89.6535 147.595 89.6535C149.995 89.6535 152.268 89.6535 154.595 89.6535C155.595 89.6535 157.357 89.6535 158.348 89.6535C159.586 89.6535 158.595 94.1535 158.595 95.6535C158.595 97.7526 158.595 100.013 158.595 102.154C158.595 104.652 158.595 105.155 158.595 107.654C158.595 112.172 159.095 116.081 159.095 120.654C159.095 124.341 158.595 126.654 158.595 130.154C158.595 131.771 158.501 133.568 158.595 135.154C158.716 137.207 158.657 139.683 159.095 141.654C159.246 142.335 159.153 142.601 159.595 143.154C159.948 143.596 159.731 144.919 158.595 144.654C157.095 144.303 154.754 144.303 153.736 144.303C149.217 144.303 144.708 143.919 140.285 143.919C131.682 143.919 122.941 144.303 114.536 144.303C112.964 144.303 112.978 144.995 112.978 143.343C112.978 142.323 113.095 140.532 113.095 139.654C113.095 136.154 113.095 137.154 113.095 133.654C113.094 130.491 113.469 128.673 113.469 125.154C113.469 123.654 113.595 119.154 113.469 117.654C113.426 117.153 113.469 115.689 113.469 115.154C113.469 113.858 113.929 112.351 113.469 111.154C112.955 109.818 113.503 107.88 113.469 106.448C113.445 105.462 113.469 103.583 113.469 102.712C113.469 101.154 113.768 97.492 113.768 96.0719C113.768 94.3748 113.768 92.4353 113.768 90.4994" stroke="#5A6B3B" stroke-width="2" stroke-linecap="round"/>
<path d="M135.289 92.0366C136.53 93.4322 136.058 97.8095 136.058 99.5308C136.058 101.26 136.058 102.99 136.058 104.719C136.058 108.946 135.595 112.926 135.595 117.154C135.595 120.037 135.095 123.287 135.095 126.154C135.095 127.809 135.095 129.689 135.095 131.154C135.095 132.706 134.815 133.117 135.095 134.654C135.309 135.834 135.095 136.466 135.095 137.654C135.095 138.041 135.095 138.963 135.095 139.654" stroke="#5A6B3B" stroke-width="2" stroke-linecap="round"/>
<path d="M116.999 112.021C118.999 112.021 122.957 111.713 124.095 111.654C125.838 111.562 127.806 111.654 129.595 111.654C131.435 111.654 132.972 111.637 134.712 111.637C140.782 111.637 146.938 111.637 152.967 111.637" stroke="#5A6B3B" stroke-width="2" stroke-linecap="round"/>
<path d="M188.978 89.6535C193.595 90.6535 197.095 90.6535 200.595 90.6535C204.424 90.6535 208.574 90.6535 212.595 90.6535C216.645 90.6535 219.621 90.6535 223.595 90.6535C225.995 90.6535 228.268 90.6535 230.595 90.6535C231.595 90.6535 233.357 90.6535 234.348 90.6535C235.586 90.6535 234.595 95.1535 234.595 96.6535C234.595 98.7526 234.595 101.013 234.595 103.154C234.595 105.652 234.595 106.155 234.595 108.654C234.595 113.172 235.095 117.081 235.095 121.654C235.095 125.341 234.595 127.654 234.595 131.154C234.595 132.771 234.501 134.568 234.595 136.154C234.716 138.207 234.657 140.683 235.095 142.654C235.246 143.335 235.153 143.601 235.595 144.154C235.948 144.596 235.731 145.919 234.595 145.654C233.095 145.303 230.754 145.303 229.736 145.303C225.217 145.303 220.708 144.919 216.285 144.919C207.682 144.919 198.941 145.303 190.536 145.303C188.964 145.303 188.978 145.995 188.978 144.343C188.978 143.323 189.095 141.532 189.095 140.654C189.095 137.154 189.095 138.154 189.095 134.654C189.094 131.491 189.469 129.673 189.469 126.154C189.469 124.654 189.595 120.154 189.469 118.654C189.426 118.153 189.469 116.689 189.469 116.154C189.469 114.858 189.929 113.351 189.469 112.154C188.955 110.818 189.503 108.88 189.469 107.448C189.445 106.462 189.469 104.583 189.469 103.712C189.469 102.154 189.768 98.492 189.768 97.0719C189.768 95.3748 189.768 93.4353 189.768 91.4994" stroke="#5A6B3B" stroke-width="2" stroke-linecap="round"/>
<path d="M211.289 93.0366C212.53 94.4322 212.058 98.8095 212.058 100.531C212.058 102.26 212.058 103.99 212.058 105.719C212.058 109.946 211.595 113.926 211.595 118.154C211.595 121.037 211.095 124.287 211.095 127.154C211.095 128.809 211.095 130.689 211.095 132.154C211.095 133.706 210.815 134.117 211.095 135.654C211.309 136.834 211.095 137.466 211.095 138.654C211.095 139.041 211.095 139.963 211.095 140.654" stroke="#5A6B3B" stroke-width="2" stroke-linecap="round"/>
<path d="M192.999 113.021C194.999 113.021 198.957 112.713 200.095 112.654C201.838 112.562 203.806 112.654 205.595 112.654C207.435 112.654 208.972 112.637 210.712 112.637C216.782 112.637 222.938 112.637 228.967 112.637" stroke="#5A6B3B" stroke-width="2" stroke-linecap="round"/>
<path d="M258.978 88.6535C263.595 89.6535 267.095 89.6535 270.595 89.6535C274.424 89.6535 278.574 89.6535 282.595 89.6535C286.645 89.6535 289.621 89.6535 293.595 89.6535C295.995 89.6535 298.268 89.6535 300.595 89.6535C301.595 89.6535 303.357 89.6535 304.348 89.6535C305.586 89.6535 304.595 94.1535 304.595 95.6535C304.595 97.7526 304.595 100.013 304.595 102.154C304.595 104.652 304.595 105.155 304.595 107.654C304.595 112.172 305.095 116.081 305.095 120.654C305.095 124.341 304.595 126.654 304.595 130.154C304.595 131.771 304.501 133.568 304.595 135.154C304.716 137.207 304.657 139.683 305.095 141.654C305.246 142.335 305.153 142.601 305.595 143.154C305.948 143.596 305.731 144.919 304.595 144.654C303.095 144.303 300.754 144.303 299.736 144.303C295.217 144.303 290.708 143.919 286.285 143.919C277.682 143.919 268.941 144.303 260.536 144.303C258.964 144.303 258.978 144.995 258.978 143.343C258.978 142.323 259.095 140.532 259.095 139.654C259.095 136.154 259.095 137.154 259.095 133.654C259.094 130.491 259.469 128.673 259.469 125.154C259.469 123.654 259.595 119.154 259.469 117.654C259.426 117.153 259.469 115.689 259.469 115.154C259.469 113.858 259.929 112.351 259.469 111.154C258.955 109.818 259.503 107.88 259.469 106.448C259.445 105.462 259.469 103.583 259.469 102.712C259.469 101.154 259.768 97.492 259.768 96.0719C259.768 94.3748 259.768 92.4353 259.768 90.4994" stroke="#5A6B3B" stroke-width="2" stroke-linecap="round"/>
<path d="M281.289 92.0366C282.53 93.4322 282.058 97.8095 282.058 99.5308C282.058 101.26 282.058 102.99 282.058 104.719C282.058 108.946 281.595 112.926 281.595 117.154C281.595 120.037 281.095 123.287 281.095 126.154C281.095 127.809 281.095 129.689 281.095 131.154C281.095 132.706 280.815 133.117 281.095 134.654C281.309 135.834 281.095 136.466 281.095 137.654C281.095 138.041 281.095 138.963 281.095 139.654" stroke="#5A6B3B" stroke-width="2" stroke-linecap="round"/>
<path d="M262.999 112.021C264.999 112.021 268.957 111.713 270.095 111.654C271.838 111.562 273.806 111.654 275.595 111.654C277.435 111.654 278.972 111.637 280.712 111.637C286.782 111.637 292.938 111.637 298.967 111.637" stroke="#5A6B3B" stroke-width="2" stroke-linecap="round"/>
<path d="M16.2627 363.423V547.362" stroke="#5A6B3B" stroke-width="2" stroke-linecap="round"/>
<path d="M4.78955 549.213H34.3974" stroke="#5A6B3B" stroke-width="2" stroke-linecap="round"/>
<path d="M44.7603 549.583H54.7529" stroke="#5A6B3B" stroke-width="2" stroke-linecap="round"/>
<path d="M61.7847 549.583H67.7062" stroke="#5A6B3B" stroke-width="2" stroke-linecap="round"/>
<path d="M73.2578 549.583H78.4392" stroke="#5A6B3B" stroke-width="2" stroke-linecap="round"/>
<path d="M83.6206 548.843H91.7628" stroke="#5A6B3B" stroke-width="2" stroke-linecap="round"/>
<path d="M100.645 549.583H107.677" stroke="#5A6B3B" stroke-width="2" stroke-linecap="round"/>
<path d="M115.079 548.843H119.89" stroke="#5A6B3B" stroke-width="2" stroke-linecap="round"/>
<path d="M129.143 548.102H219.817" stroke="#5A6B3B" stroke-width="2" stroke-linecap="round"/>
<path d="M227.589 548.473H233.51" stroke="#5A6B3B" stroke-width="2" stroke-linecap="round"/>
<path d="M246.094 548.843C247.543 548.843 249.01 548.102 250.535 548.102" stroke="#5A6B3B" stroke-width="2" stroke-linecap="round"/>
<path d="M257.567 548.102H264.229" stroke="#5A6B3B" stroke-width="2" stroke-linecap="round"/>
<path d="M273.111 548.102H281.253" stroke="#5A6B3B" stroke-width="2" stroke-linecap="round"/>
<path d="M289.025 548.473H293.466" stroke="#5A6B3B" stroke-width="2" stroke-linecap="round"/>
<path d="M301.979 548.473C303.673 549.979 307.132 549.953 309.38 549.953" stroke="#5A6B3B" stroke-width="2" stroke-linecap="round"/>
<path d="M318.633 548.843H340.099" stroke="#5A6B3B" stroke-width="2" stroke-linecap="round"/>
<path d="M326.405 363.423V547.362" stroke="#5A6B3B" stroke-width="2" stroke-linecap="round"/>
<path d="M1.90625 574.9H346.829" stroke="#5A6B3B" stroke-width="2" stroke-linecap="round"/>
<path d="M254.575 414.654V436.654L253.978 457.654M254.575 488.137V480.154M254.575 480.154L254.978 470.654L253.978 457.654M254.575 480.154L253.978 457.654" stroke="#5A6B3B" stroke-width="2" stroke-linecap="round"/>
<path d="M42.5747 414.154V436.154L41.9775 457.154M42.5747 487.637V479.654M42.5747 479.654L42.9775 470.154L41.9775 457.154M42.5747 479.654L41.9775 457.154" stroke="#5A6B3B" stroke-width="2" stroke-linecap="round"/>
<path d="M254.978 414.154L275.478 415.154L288.978 414.654L299.478 415.154" stroke="#5A6B3B" stroke-width="2" stroke-linecap="round"/>
<path d="M42.9775 413.654L63.4775 414.654L76.9775 414.154L87.4775 414.654" stroke="#5A6B3B" stroke-width="2" stroke-linecap="round"/>
<path d="M299.819 414.681V488.137" stroke="#5A6B3B" stroke-width="2" stroke-linecap="round"/>
<path d="M87.8188 414.181V487.637" stroke="#5A6B3B" stroke-width="2" stroke-linecap="round"/>
<path d="M252.978 490.799C253.246 488.655 274.597 490.799 277.463 490.799C285.551 490.799 293.627 490.799 301.948 490.799" stroke="#5A6B3B" stroke-width="2" stroke-linecap="round"/>
<path d="M40.9775 490.299C41.2455 488.155 62.5967 490.299 65.4628 490.299C73.5508 490.299 81.6267 490.299 89.9481 490.299" stroke="#5A6B3B" stroke-width="2" stroke-linecap="round"/>
<path d="M257.978 437.654L277.035 437.079L296.093 436.505" stroke="#5A6B3B" stroke-width="2" stroke-linecap="round"/>
<path d="M45.9775 437.154L65.0354 436.579L84.0933 436.005" stroke="#5A6B3B" stroke-width="2" stroke-linecap="round"/>
<path d="M113.485 379.158V404.493" stroke="#5A6B3B" stroke-width="2" stroke-linecap="round"/>
<path d="M114.021 378.89C115.316 378.89 117.013 378.225 118.311 378.689C118.923 378.907 119.864 379.158 120.522 379.158C121.018 379.158 121.639 379.563 122.124 379.702C123.349 380.052 124.47 380.684 125.013 381.906C125.539 383.089 126.012 384.164 126.361 385.384C126.551 386.049 126.622 386.724 126.622 387.469C126.622 388.397 125.918 389.075 125.817 389.882C125.71 390.742 123.723 391.81 123.002 392.131C122.403 392.397 121.587 392.194 120.992 392.459C120.416 392.714 119.486 392.965 118.847 392.965C118.125 392.965 117.425 393.367 116.702 393.367C116.069 393.367 115.544 393.769 114.959 393.769" stroke="#5A6B3B" stroke-width="2" stroke-linecap="round"/>
<path d="M134.128 379.694C134.658 380.291 133.994 381.689 133.994 382.375C133.994 383.235 134.262 384.298 134.262 385.19C134.262 386.312 134.664 387.28 134.664 388.377C134.664 389.266 134.824 390.474 135.059 391.297C135.2 391.789 135.201 392.512 135.201 393.032C135.201 393.587 135.469 394.148 135.469 394.641C135.469 395.58 135.603 396.588 135.603 397.456C135.603 398.436 135.737 399.332 135.737 400.271C135.737 400.758 136.138 403.019 135.603 403.019" stroke="#5A6B3B" stroke-width="2" stroke-linecap="round"/>
<path d="M153.431 380.498C153.388 380.843 151.028 381.79 150.616 381.839C149.962 381.916 149.595 382.618 149.082 382.911C148.647 383.16 147.915 383.743 147.667 384.177C146.584 386.073 145.388 388.28 145.388 390.552C145.388 391.198 145.254 391.817 145.254 392.488C145.254 392.967 145.391 394.041 145.686 394.41C145.939 394.726 146.226 395.561 146.319 395.981C146.426 396.462 146.718 396.981 146.856 397.463C147.179 398.596 147.715 400.335 148.874 400.978C149.92 401.559 151.067 401.812 152.292 401.812C152.892 401.812 153.476 401.946 154.102 401.946C154.713 401.946 155.318 401.678 155.911 401.678C156.993 401.678 158.245 400.613 159.032 399.906C161.454 397.726 162.098 395.129 162.673 391.967C162.961 390.384 162.959 389.102 162.673 387.528C162.424 386.158 160.924 384.56 160 383.581C159.127 382.657 157.766 380.498 156.313 380.498C155.764 380.498 155.234 380.364 154.638 380.364C154.202 380.364 153.088 380.783 152.895 381.169" stroke="#5A6B3B" stroke-width="2" stroke-linecap="round"/>
<path d="M178.9 380.096C179.004 381.033 179.79 381.993 179.839 382.911C179.863 383.367 180.207 384.209 180.479 384.55C180.853 385.017 180.779 385.964 181.149 386.426C181.461 386.816 181.394 387.546 181.611 388.005C181.882 388.576 181.834 389.247 182.013 389.852C182.295 390.802 182.576 391.563 183.086 392.429C184.228 394.371 185.509 396.052 186.571 398.059C186.999 398.868 187.553 400.014 188.18 400.71C188.64 401.221 189.074 402.475 189.624 402.75" stroke="#5A6B3B" stroke-width="2" stroke-linecap="round"/>
<path d="M189.893 402.75C189.893 401.982 190.642 401.069 190.831 400.315C190.971 399.756 191.168 399.152 191.233 398.595C191.282 398.18 191.744 397.835 191.769 397.388C191.824 396.398 192.742 395.39 192.968 394.372C193.328 392.753 194.083 391.093 194.823 389.614C195.212 388.834 195.087 387.754 195.523 386.992C195.938 386.264 196.162 385.393 196.491 384.654C196.798 383.962 197.265 382.897 197.265 382.174C197.265 381.807 197.51 381.428 197.533 381.035C197.552 380.723 197.656 380.118 197.801 379.828" stroke="#5A6B3B" stroke-width="2" stroke-linecap="round"/>
<path d="M205.576 380.498C205.576 381.094 205.32 382.491 205.681 382.941C205.864 383.17 205.878 384.024 205.949 384.326C206.093 384.937 206.344 385.423 206.388 386.061C206.531 388.129 206.247 390.248 206.247 392.399C206.247 394.376 206.381 396.29 206.381 398.245C206.381 399.765 205.983 402.09 206.649 403.421" stroke="#5A6B3B" stroke-width="2" stroke-linecap="round"/>
<path d="M216.836 403.689C216.836 399.875 216.166 396.023 216.166 392.22C216.166 391.22 216.032 390.229 216.032 389.212C216.032 388.746 215.898 388.359 215.898 387.901C215.898 387.326 216.032 386.733 216.032 386.195C216.032 385.341 215.898 384.55 215.898 383.716C215.898 383.291 215.898 382.867 215.898 382.442C215.898 381.964 216.3 381.591 216.3 381.169" stroke="#5A6B3B" stroke-width="2" stroke-linecap="round"/>
<path d="M216.702 381.035C216.702 381.733 218.271 382.544 218.743 383.016C219.555 383.828 220.308 384.7 221.096 385.488C221.94 386.332 222.477 387.42 223.3 388.243C224.035 388.978 224.985 389.912 225.52 390.82C226.007 391.649 226.757 392.686 227.396 393.397C228.22 394.312 228.521 395.519 229.333 396.42C229.782 396.92 229.959 397.668 230.405 398.163C230.826 398.631 230.838 399.442 231.209 399.906C231.711 400.533 231.872 402.616 232.788 402.616" stroke="#5A6B3B" stroke-width="2" stroke-linecap="round"/>
<path d="M231.984 379.962C231.984 381.642 232.118 383.336 232.118 384.974C232.118 385.873 232.118 386.771 232.118 387.67C232.118 388.308 232.118 388.946 232.118 389.584C232.118 390.201 232.049 391.312 232.282 391.893C232.636 392.778 232.386 394.188 232.386 395.139C232.386 396.18 232.386 397.22 232.386 398.26C232.386 399.053 232.788 399.745 232.788 400.539C232.788 400.837 232.922 401.186 232.922 401.544C232.922 401.935 232.788 402.278 232.788 402.616" stroke="#5A6B3B" stroke-width="2" stroke-linecap="round"/>
<path d="M39.9731 510.201C41.8633 509.965 44.1805 509.701 46.1003 509.701C47.1796 509.701 48.0036 509.451 49.1013 509.451C50.3039 509.451 51.2865 508.7 52.4775 508.7" stroke="#5A6B3B" stroke-width="2" stroke-linecap="round"/>
<path d="M44.7248 532.709C45.1692 532.653 44.0645 531.035 43.9189 530.708C43.4891 529.741 43.6864 528.849 43.4605 527.832C43.0495 525.983 42.2239 523.99 42.2239 522.08C42.2239 520.179 40.7234 518.442 40.7234 516.703C40.7234 515.818 40.2232 515.043 40.2232 514.077C40.2232 513.119 40.3842 512.023 39.9731 511.201" stroke="#5A6B3B" stroke-width="2" stroke-linecap="round"/>
<path d="M52.4775 508.95C52.6707 510.495 54.2281 511.918 54.2281 513.577C54.2281 515.373 55.5186 517.168 55.7287 518.954C55.9281 520.649 56.9791 522.29 56.9791 524.081C56.9791 525.902 57.7293 527.579 57.7293 529.457" stroke="#5A6B3B" stroke-width="2" stroke-linecap="round"/>
<path d="M41.9741 517.954C42.4954 517.49 43.931 517.588 44.6 517.439C45.2127 517.303 47.5854 517.067 47.9762 516.578C48.3005 516.173 50.2034 516.453 50.7271 516.453C51.7688 516.453 52.7355 516.203 53.7282 516.203" stroke="#5A6B3B" stroke-width="2" stroke-linecap="round"/>
<path d="M45.4754 533.959C43.3605 533.959 49.5449 532.762 51.4774 531.903C53.4448 531.028 55.6004 530.897 57.4795 529.958" stroke="#5A6B3B" stroke-width="2" stroke-linecap="round"/>
<path d="M44.725 534.209C44.725 536.177 43.9748 537.894 43.9748 539.711C43.9748 540.811 43.5155 541.631 43.2384 542.601C43.0366 543.307 42.9285 545.25 42.3492 545.713C42.0998 545.913 41.9741 548.082 41.9741 548.464C41.9741 549.506 41.9741 550.548 41.9741 551.59C41.9741 552.567 41.5258 553.584 41.4739 554.466C41.4228 555.335 40.7236 556.098 40.7236 556.967" stroke="#5A6B3B" stroke-width="2" stroke-linecap="round"/>
<path d="M46.9756 533.709C47.0617 534.398 49.0951 534.054 49.532 534.404C49.7554 534.582 50.784 534.653 51.102 534.723C51.5214 534.816 52.2224 535.155 52.5331 535.404C53.9569 536.543 56.6717 536.21 58.4796 536.21" stroke="#5A6B3B" stroke-width="2" stroke-linecap="round"/>
<path d="M58.2295 529.708C58.2295 530.532 60.046 530.708 60.7304 530.708C61.761 530.708 62.7521 531.208 63.7314 531.208C63.9559 531.208 65.0157 531.385 65.1763 531.514C65.6043 531.856 66.2889 531.453 66.6768 531.764C67.0947 532.098 67.6987 531.929 68.2329 531.958C68.8376 531.992 69.3548 532.458 69.9835 532.458" stroke="#5A6B3B" stroke-width="2" stroke-linecap="round"/>
<path d="M58.2295 536.46C59.4881 536.46 60.1183 536.032 61.1194 535.46C62.0879 534.906 63.1289 534.627 64.1065 534.084C64.8244 533.685 66.1951 533.005 66.9825 532.959C67.8961 532.905 69.1816 532.859 69.9835 532.459" stroke="#5A6B3B" stroke-width="2" stroke-linecap="round"/>
<path d="M59.23 558.718C59.23 557.955 58.9799 557.091 58.9799 556.217C58.9799 555.287 59.4801 554.588 59.4801 553.591C59.4801 551.697 59.4734 550.004 58.9938 548.325C58.0079 544.874 57.7295 541.525 57.7295 537.71" stroke="#5A6B3B" stroke-width="2" stroke-linecap="round"/>
<path d="M70.2339 532.709C70.3282 533.557 70.7341 534.23 70.7341 535.084C70.7341 535.94 70.5626 537.001 70.748 537.835C71.145 539.622 70.7341 541.247 70.7341 542.962C70.7341 543.957 70.4923 544.563 70.7202 545.588C70.942 546.586 70.7341 547.814 70.7341 548.839C70.7341 550.605 71.2342 551.939 71.2342 553.716" stroke="#5A6B3B" stroke-width="2" stroke-linecap="round"/>
<path d="M220.978 510.154C222.868 509.918 225.185 509.654 227.105 509.654C228.184 509.654 229.008 509.404 230.106 509.404C231.308 509.404 232.291 508.654 233.482 508.654" stroke="#5A6B3B" stroke-width="2" stroke-linecap="round"/>
<path d="M225.729 532.662C226.174 532.606 225.069 530.989 224.923 530.661C224.494 529.694 224.691 528.802 224.465 527.785C224.054 525.936 223.228 523.943 223.228 522.033C223.228 520.132 221.728 518.395 221.728 516.656C221.728 515.771 221.228 514.997 221.228 514.03C221.228 513.072 221.389 511.977 220.978 511.154" stroke="#5A6B3B" stroke-width="2" stroke-linecap="round"/>
<path d="M233.482 508.904C233.675 510.449 235.233 511.871 235.233 513.53C235.233 515.326 236.523 517.121 236.733 518.907C236.933 520.603 237.983 522.243 237.983 524.034C237.983 525.855 238.734 527.532 238.734 529.411" stroke="#5A6B3B" stroke-width="2" stroke-linecap="round"/>
<path d="M222.979 517.907C223.5 517.443 224.935 517.541 225.604 517.393C226.217 517.256 228.59 517.02 228.981 516.531C229.305 516.126 231.208 516.406 231.732 516.406C232.773 516.406 233.74 516.156 234.733 516.156" stroke="#5A6B3B" stroke-width="2" stroke-linecap="round"/>
<path d="M226.48 533.912C224.365 533.912 230.549 532.715 232.482 531.856C234.449 530.982 236.605 530.85 238.484 529.911" stroke="#5A6B3B" stroke-width="2" stroke-linecap="round"/>
<path d="M225.729 534.162C225.729 536.13 224.979 537.848 224.979 539.664C224.979 540.764 224.52 541.584 224.243 542.554C224.041 543.26 223.933 545.203 223.354 545.666C223.104 545.866 222.978 548.035 222.978 548.417C222.978 549.459 222.978 550.501 222.978 551.543C222.978 552.52 222.53 553.537 222.478 554.419C222.427 555.288 221.728 556.051 221.728 556.92" stroke="#5A6B3B" stroke-width="2" stroke-linecap="round"/>
<path d="M227.98 533.662C228.066 534.351 230.1 534.007 230.536 534.357C230.76 534.536 231.788 534.606 232.106 534.676C232.526 534.77 233.227 535.109 233.537 535.357C234.961 536.496 237.676 536.163 239.484 536.163" stroke="#5A6B3B" stroke-width="2" stroke-linecap="round"/>
<path d="M239.234 529.661C239.234 530.485 241.05 530.661 241.735 530.661C242.765 530.661 243.756 531.161 244.736 531.161C244.96 531.161 246.02 531.338 246.181 531.467C246.609 531.809 247.293 531.407 247.681 531.717C248.099 532.051 248.703 531.882 249.237 531.912C249.842 531.945 250.359 532.412 250.988 532.412" stroke="#5A6B3B" stroke-width="2" stroke-linecap="round"/>
<path d="M239.234 536.413C240.492 536.413 241.123 535.985 242.124 535.413C243.092 534.859 244.133 534.58 245.111 534.037C245.829 533.638 247.2 532.958 247.987 532.912C248.9 532.858 250.186 532.813 250.988 532.412" stroke="#5A6B3B" stroke-width="2" stroke-linecap="round"/>
<path d="M240.234 558.671C240.234 557.909 239.984 557.044 239.984 556.17C239.984 555.24 240.484 554.541 240.484 553.544C240.484 551.65 240.478 549.957 239.998 548.278C239.012 544.828 238.734 541.478 238.734 537.663" stroke="#5A6B3B" stroke-width="2" stroke-linecap="round"/>
<path d="M251.238 532.662C251.333 533.51 251.738 534.183 251.738 535.038C251.738 535.893 251.567 536.954 251.752 537.789C252.149 539.575 251.738 541.2 251.738 542.915C251.738 543.911 251.497 544.516 251.725 545.541C251.946 546.54 251.738 547.767 251.738 548.792C251.738 550.558 252.239 551.892 252.239 553.669" stroke="#5A6B3B" stroke-width="2" stroke-linecap="round"/>
<path d="M314.716 512.033C312.979 511.816 310.848 511.573 309.084 511.573C308.091 511.573 307.334 511.343 306.325 511.343C305.219 511.343 304.316 510.654 303.221 510.654" stroke="#5A6B3B" stroke-width="2" stroke-linecap="round"/>
<path d="M310.348 532.725C309.939 532.674 310.955 531.187 311.089 530.886C311.484 529.996 311.303 529.176 311.51 528.242C311.888 526.542 312.647 524.709 312.647 522.954C312.647 521.206 314.027 519.609 314.027 518.011C314.027 517.197 314.486 516.485 314.486 515.597C314.486 514.716 314.338 513.708 314.716 512.953" stroke="#5A6B3B" stroke-width="2" stroke-linecap="round"/>
<path d="M303.221 510.883C303.043 512.304 301.611 513.612 301.611 515.137C301.611 516.788 300.425 518.438 300.232 520.08C300.049 521.638 299.082 523.147 299.082 524.793C299.082 526.467 298.393 528.009 298.393 529.736" stroke="#5A6B3B" stroke-width="2" stroke-linecap="round"/>
<path d="M312.877 519.16C312.398 518.734 311.078 518.824 310.463 518.688C309.9 518.562 307.718 518.345 307.359 517.896C307.061 517.523 305.312 517.781 304.83 517.781C303.873 517.781 302.984 517.551 302.071 517.551" stroke="#5A6B3B" stroke-width="2" stroke-linecap="round"/>
<path d="M309.658 533.874C311.602 533.874 305.917 532.774 304.14 531.984C302.331 531.18 300.35 531.06 298.622 530.196" stroke="#5A6B3B" stroke-width="2" stroke-linecap="round"/>
<path d="M310.348 534.104C310.348 535.913 311.038 537.492 311.038 539.162C311.038 540.174 311.46 540.927 311.715 541.819C311.9 542.468 311.999 544.254 312.532 544.68C312.761 544.863 312.877 546.857 312.877 547.209C312.877 548.167 312.877 549.125 312.877 550.083C312.877 550.981 313.289 551.916 313.337 552.727C313.384 553.526 314.026 554.227 314.026 555.026" stroke="#5A6B3B" stroke-width="2" stroke-linecap="round"/>
<path d="M308.279 533.644C308.2 534.278 306.33 533.962 305.929 534.283C305.723 534.447 304.778 534.512 304.485 534.577C304.1 534.663 303.455 534.974 303.17 535.203C301.861 536.25 299.365 535.944 297.703 535.944" stroke="#5A6B3B" stroke-width="2" stroke-linecap="round"/>
<path d="M297.933 529.966C297.933 530.724 296.263 530.886 295.634 530.886C294.687 530.886 293.775 531.345 292.875 531.345C292.669 531.345 291.694 531.508 291.547 531.626C291.153 531.941 290.524 531.571 290.167 531.856C289.783 532.164 289.228 532.008 288.737 532.035C288.181 532.066 287.705 532.495 287.127 532.495" stroke="#5A6B3B" stroke-width="2" stroke-linecap="round"/>
<path d="M297.933 536.173C296.776 536.173 296.197 535.78 295.276 535.254C294.386 534.745 293.429 534.489 292.53 533.989C291.87 533.623 290.61 532.997 289.886 532.955C289.046 532.905 287.865 532.864 287.127 532.495" stroke="#5A6B3B" stroke-width="2" stroke-linecap="round"/>
<path d="M297.013 556.635C297.013 555.935 297.243 555.14 297.243 554.336C297.243 553.482 296.783 552.839 296.783 551.922C296.783 550.181 296.789 548.624 297.23 547.081C298.137 543.909 298.393 540.83 298.393 537.323" stroke="#5A6B3B" stroke-width="2" stroke-linecap="round"/>
<path d="M286.897 532.725C286.81 533.505 286.437 534.124 286.437 534.909C286.437 535.696 286.595 536.671 286.424 537.438C286.059 539.08 286.437 540.574 286.437 542.151C286.437 543.066 286.659 543.622 286.45 544.565C286.246 545.483 286.437 546.611 286.437 547.554C286.437 549.177 285.977 550.404 285.977 552.037" stroke="#5A6B3B" stroke-width="2" stroke-linecap="round"/>
<path d="M96.7432 534.709C99.4866 534.709 101.458 533.459 104.246 533.459C105.638 533.459 106.773 532.709 108.122 532.709C109.534 532.709 110.95 532.208 112.249 532.208" stroke="#5A6B3B" stroke-width="2" stroke-linecap="round"/>
<path d="M112.999 531.958C114.651 531.958 115.876 532.959 117.5 532.959C119.075 532.959 120.207 534.062 121.501 534.709" stroke="#5A6B3B" stroke-width="2" stroke-linecap="round"/>
<path d="M111.248 538.961C111.32 538.386 113.292 537.987 113.749 537.96C114.666 537.906 115.471 537.271 116.5 537.21C116.856 537.189 117.302 536.82 117.639 536.724C118.051 536.606 118.854 536.927 119.195 536.654C119.858 536.124 121.394 536.246 122.252 535.96" stroke="#5A6B3B" stroke-width="2" stroke-linecap="round"/>
<path d="M110.498 538.961C108.331 538.72 106.102 537.71 103.871 537.71C102.44 537.71 101.127 536.71 99.6192 536.71C98.5929 536.71 97.7906 535.96 96.7432 535.96" stroke="#5A6B3B" stroke-width="2" stroke-linecap="round"/>
<path d="M95.9928 556.217C95.9928 554.569 95.7427 553.147 95.7427 551.465C95.7427 549.805 96.743 548.534 96.743 546.838C96.743 545.238 96.9931 543.512 96.9931 541.837C96.9931 540.115 96.743 538.36 96.743 536.71" stroke="#5A6B3B" stroke-width="2" stroke-linecap="round"/>
<path d="M110.85 539.763C110.85 540.622 111.159 541.466 111.159 542.232C111.159 543.14 111.313 544.133 111.313 545.087C111.313 546.96 111.5 548.959 111.167 550.788C110.986 551.784 110.696 552.755 110.696 553.84C110.696 554.41 110.462 554.834 110.55 555.409C110.627 555.907 110.85 556.364 110.85 556.892C110.85 557.478 111.37 558.931 111.742 559.396C112.108 559.853 112.257 561.299 112.702 561.522" stroke="#5A6B3B" stroke-width="2" stroke-linecap="round"/>
<path d="M122.732 536.059C122.803 536.695 123.35 537.361 123.35 537.988C123.35 538.743 123.658 539.538 123.658 540.303C123.658 542.025 123.835 543.599 124.276 545.25C124.472 545.988 124.739 546.745 124.739 547.513C124.739 548.5 125.299 549.471 125.356 550.497C125.41 551.465 125.973 552.411 125.973 553.343C125.973 553.835 126.015 554.596 126.213 555.049C126.411 555.502 126.33 556.039 126.59 556.429" stroke="#5A6B3B" stroke-width="2" stroke-linecap="round"/>
<path d="M123.35 535.288C123.266 535.277 123.35 533.472 123.35 533.127C123.35 531.946 124.101 530.741 124.267 529.578C124.375 528.824 124.396 527.803 124.704 527.109C125.166 526.07 124.857 524.74 125.056 523.645C125.555 520.898 126.792 518.287 128.013 515.844C128.251 515.37 128.703 514.855 129.059 514.455C129.145 514.359 129.515 513.81 129.522 513.683C129.548 513.245 129.62 511.677 128.982 511.677C128.158 511.677 127.035 511.489 126.282 511.866C125.65 512.182 125.045 512.262 124.361 512.457C123.205 512.788 121.809 513.375 120.572 513.375C118.977 513.375 117.383 513.375 115.788 513.375" stroke="#5A6B3B" stroke-width="2" stroke-linecap="round"/>
<path d="M115.48 513.683C115.48 514.418 115.159 515.181 115.026 515.913C114.912 516.537 115.055 517.41 114.828 518.004C114.488 518.897 114.49 519.907 114.391 520.842C114.277 521.931 114.091 522.99 114.091 524.1C114.091 525.411 113.908 526.815 113.62 528.112C113.504 528.631 113.348 529.851 113.045 530.23C112.752 530.596 112.976 531.833 112.548 532.047" stroke="#5A6B3B" stroke-width="2" stroke-linecap="round"/>
<path d="M111.776 532.973C111.282 533.528 111.159 534.471 111.159 535.211C111.159 535.662 111.35 535.919 111.459 536.3C111.576 536.71 111.431 537.066 111.622 537.448" stroke="#5A6B3B" stroke-width="2" stroke-linecap="round"/>
<path d="M115.171 521.399C116.134 521.506 117.004 521.209 118.017 520.971C119.048 520.728 120.165 520.676 121.121 520.242C121.623 520.014 122.268 520.001 122.767 519.822C123.205 519.664 123.589 519.512 124.036 519.385C124.764 519.176 125.596 518.81 126.282 518.467" stroke="#5A6B3B" stroke-width="2" stroke-linecap="round"/>
<path d="M87.465 511.426C85.5722 511.216 83.6655 510.837 81.7241 510.837C79.8866 510.837 78.2186 511.426 76.2777 511.426C75.5807 511.426 74.7007 511.814 74.0534 511.999C73.47 512.165 71.9584 511.968 71.5673 512.457C71.197 512.92 69.7854 512.557 69.2775 512.964C68.8732 513.287 67.3727 513.751 66.8569 513.782C64.9809 513.892 63.5275 514.468 63.0133 516.268C62.5783 517.79 63.5928 518.894 64.7961 519.964C66.1771 521.191 68.0166 521.383 69.6537 521.747C71.8219 522.229 73.6204 522.614 75.9179 522.614C79.9178 522.614 83.8137 522.319 87.7594 522.319C88.7224 522.319 89.6974 522.355 90.5562 521.878C91.4061 521.405 92.2867 521.678 93.1894 521.42C94.6229 521.01 96.7047 520.865 97.8344 519.735C98.2692 519.3 98.8739 518.903 99.3882 518.492C100.075 517.943 100.012 516.874 100.566 516.431C101.842 515.41 97.7268 513.812 97.1802 513.782C93.3321 513.568 90.2784 511.426 86.2874 511.426" stroke="#5A6B3B" stroke-width="2" stroke-linecap="round"/>
<path d="M275.478 512.298C273.585 512.087 271.919 512.154 269.978 512.154C268.14 512.154 267.418 512.154 265.478 512.154C264.781 512.154 263.125 512.469 262.478 512.654C261.894 512.82 259.978 513.154 259.634 513.273C259.074 513.467 257.571 513.857 256.978 514.154C255.978 514.654 261.478 512.154 253.978 515.154C252.233 515.851 250.992 515.854 250.478 517.654C250.042 519.176 251.092 520.527 252.478 521.154C254.161 521.915 256.084 522.199 257.721 522.563C259.889 523.045 261.687 523.43 263.985 523.43C267.985 523.43 269.032 523.654 272.978 523.654C273.941 523.654 275.978 523.706 276.978 523.43C277.942 523.164 279.575 522.911 280.478 522.654C281.911 522.244 282.978 522.154 285.478 521.154C285.829 521.013 287.463 520.565 287.978 520.154C288.664 519.604 289.478 518.654 289.478 517.654C289.478 516.019 285.778 514.731 285.247 514.598C281.478 513.654 278.345 512.242 274.354 512.242" stroke="#5A6B3B" stroke-width="2" stroke-linecap="round"/>
<path d="M82.166 522.614C82.166 527.647 82.7548 533.117 82.7548 538.217C82.7548 540.866 82.7548 543.516 82.7548 546.166C82.7548 547.342 82.4493 548.997 82.7712 550.124C83.0532 551.111 83.7262 552.51 83.0492 553.526" stroke="#5A6B3B" stroke-width="2" stroke-linecap="round"/>
<path d="M269.478 523.654C269.478 528.687 269.478 533.054 269.478 538.154C269.478 540.803 269.478 543.504 269.478 546.154C269.478 547.33 269.478 548.482 269.478 549.654C269.478 550.654 269.222 552.154 269.478 553.154" stroke="#5A6B3B" stroke-width="2" stroke-linecap="round"/>
<path d="M90.7035 559.119C90.6132 558.397 89.1696 558.093 88.9207 557.222C88.6743 556.36 87.6222 555.752 86.8763 555.357C85.7824 554.778 82.2853 551.831 81.2827 553.084C81.0689 553.351 80.5094 553.656 80.4158 553.984C80.178 554.816 79.8007 554.358 79.2873 554.769C78.5663 555.345 77.4899 555.264 76.7194 555.881C75.7449 556.66 71.8618 558.156 71.8618 559.414" stroke="#5A6B3B" stroke-width="2" stroke-linecap="round"/>
<path d="M278.77 559.935C278.68 559.213 277.237 558.909 276.988 558.038C276.741 557.176 275.689 556.568 274.943 556.174C273.849 555.594 270.352 552.647 269.35 553.9C269.136 554.167 268.576 554.472 268.483 554.8C268.245 555.632 267.868 555.174 267.354 555.585C266.633 556.162 265.557 556.081 264.786 556.697C263.812 557.476 259.929 558.972 259.929 560.23" stroke="#5A6B3B" stroke-width="2" stroke-linecap="round"/>
<path d="M211.384 547.15C211.384 543.788 211.128 540.574 211.128 537.154C211.128 535.102 211.128 533.131 211.128 531.154C211.128 529.281 211.128 526.921 211.128 525.021C211.128 521.463 210.873 519.313 210.873 515.654C210.873 513.81 210.873 510.364 210.873 508.52C210.873 506.678 210.978 506.006 210.978 504.154" stroke="#5A6B3B" stroke-width="2" stroke-linecap="round"/>
<path d="M211.006 503.366C211.006 502.537 210.978 501.502 210.978 500.654C210.978 500.068 211.669 499.749 211.669 499.137C211.669 497.813 211.669 496.49 211.669 495.166C211.669 492.068 211.669 488.969 211.669 485.87C211.669 484.736 212.001 483.537 212.001 482.471C212.001 480.524 212.001 478.577 212.001 476.629C212.001 473.349 212.166 470.12 212.166 466.845C212.166 466.031 212.332 465.223 212.332 464.394C212.332 463.727 212.166 463.133 212.166 462.487C212.166 461.753 212.166 461.019 212.166 460.285C212.166 460.049 212.062 458.54 211.918 458.424C211.756 458.295 211.669 456.975 211.669 456.729C211.669 456.095 211.503 455.605 211.503 455.016C211.503 454.369 211.171 453.765 211.171 453.118C211.171 452.538 210.84 452.105 210.84 451.542C210.84 450.471 210.128 449.474 210.011 448.474C209.878 447.345 209.186 446.039 208.721 444.992C208.273 443.985 208.123 442.944 207.523 441.97C207.23 441.494 207.227 440.543 206.777 440.182C206.396 439.878 205.978 438.82 205.736 438.358C205.324 437.573 204.577 437.102 204.169 436.368C203.744 435.602 203.015 434.341 202.478 433.654C201.331 432.187 200.739 431.221 199.478 430.154C196.978 428.038 195.569 427.28 193.478 425.654C192.17 424.637 191.444 424.468 189.978 423.654C188.502 422.834 185.649 422.071 183.978 421.654C182.361 421.249 179.978 420.817 178.478 420.654C174.643 420.237 171.345 420.203 167.478 420.817C163.064 421.517 159.478 422.154 156.363 424.004C153.831 425.509 151.393 427.188 149.066 428.998C147.768 430.008 146.71 430.985 145.629 432.186C144.831 433.073 144.26 434.022 143.547 434.913C143.121 435.446 144.478 433.657 142.978 435.654C142.604 436.151 142.271 436.566 141.978 437.154C140.978 439.154 140.478 439.654 139.978 441.154" stroke="#5A6B3B" stroke-width="2" stroke-linecap="round"/>
<path d="M139.978 441.154C139.865 442.05 138.978 445.154 138.478 446.154C137.788 447.532 137.987 448.239 137.478 449.654C136.895 451.272 136.978 453.154 136.478 455.654C136.227 456.904 135.978 457.716 135.978 459.154C135.978 460.677 135.478 462.63 135.478 464.154C135.478 465.648 135.619 467.168 135.478 468.654C135.251 471.037 135.09 472.878 135.09 475.429C135.09 476.84 134.978 478.771 134.978 480.154C134.978 481.026 134.721 482.29 134.721 483.162C134.721 484.578 134.555 485.956 134.555 487.372C134.555 490.294 134.978 492.218 134.978 495.154C134.978 497.656 135.041 500.659 134.977 503.154C134.905 505.982 134.721 507.847 134.721 510.892C134.721 512.732 134.721 515.297 134.721 517.154C134.721 519.701 134.721 522.095 134.721 524.654C134.721 527.386 135.467 530.926 135.467 533.654C135.467 535.665 135.461 537.662 135.467 539.654C135.477 543.154 134.977 545.654 135.053 546.815" stroke="#5A6B3B" stroke-width="2" stroke-linecap="round"/>
<path d="M136.312 540.461C138.334 540.461 140.463 541.382 142.45 541.744C143.665 541.964 145.101 541.756 146.335 541.756C147.393 541.756 148.285 541.162 149.26 541.108C150.932 541.015 152.624 540.738 154.272 540.677C157.819 540.545 161.4 541.108 165.014 541.108C169.285 541.108 173.596 540.677 177.855 540.677C179.717 540.677 181.554 540.245 183.406 540.245C185.46 540.245 187.515 540.245 189.569 540.245C193.022 540.245 196.396 539.597 199.868 539.597C200.839 539.597 201.006 539.597 201.978 539.597C202.888 539.597 203.978 539.597 204.978 539.597C205.526 539.597 207.947 539.461 208.478 539.43C209.293 539.382 209.045 539.108 209.978 539.43C210.593 539.642 210.333 539.154 210.978 539.154" stroke="#5A6B3B" stroke-width="2" stroke-linecap="round"/>
<path d="M198.249 538.654C198.249 537.654 198.31 536.025 198.249 535.388C198.164 534.491 197.978 533.591 197.978 532.654C197.978 531.654 198.033 530.099 198.033 529.154C198.033 527.692 197.978 526.727 197.978 525.154C197.978 524.448 198.033 523.758 198.033 523.154C198.033 522.769 198.021 521.181 198.261 520.882C198.542 520.53 198.135 519.655 198.261 519.215C198.412 518.685 198.222 518.587 198.261 517.883C198.325 516.731 198.681 515.34 198.681 514.154C198.681 512.25 199.196 507.956 198.681 506.154C198.198 504.464 198.261 503.893 198.261 502.154C198.261 496.099 197.386 490.718 197.386 484.662C197.386 479.903 197.981 475.16 198.033 470.346C198.072 466.769 198.805 463.219 198.896 459.652C198.948 457.653 199.328 455.701 199.328 453.705C199.328 452.561 199.544 451.284 199.544 450.036C199.544 448.927 199.112 447.749 199.112 446.583" stroke="#5A6B3B" stroke-width="2" stroke-linecap="round"/>
<path d="M157.245 539.813C158.268 538.535 158.713 535.78 158.756 534.202C158.792 532.844 158.972 531.488 158.972 530.102C158.972 528.551 158.972 527.001 158.972 525.45C158.972 523.417 159.476 520.421 158.864 518.46C158.53 517.394 158.912 516.195 158.744 515.103C158.597 514.146 158.54 513.284 158.54 512.297C158.54 510.755 158.324 509.299 158.324 507.741C158.324 505.213 157.893 502.798 157.893 500.284C157.893 497.083 157.677 493.87 157.677 490.656C157.677 487.154 157.461 483.705 157.461 480.202C157.461 477.349 157.029 474.551 157.029 471.689C157.029 468.14 157.029 464.591 157.029 461.043C157.029 458.325 157.245 455.457 157.245 452.83C157.245 450.636 157.677 448.708 157.677 446.583" stroke="#5A6B3B" stroke-width="2" stroke-linecap="round"/>
<path d="M138.685 447.015C140.002 447.015 141.264 447.316 142.57 447.434C144.485 447.609 146.368 447.662 148.301 447.662C149.336 447.662 150.384 447.711 151.418 447.662C151.885 447.64 153.592 447.428 153.96 447.183C154.735 446.666 156.386 446.719 157.317 446.595C158.828 446.394 160.349 446.367 161.873 446.164C163.281 445.976 164.817 446.152 166.237 446.152C168.414 446.152 170.714 446.163 172.855 446.535C175.076 446.921 177.375 446.468 179.605 446.811C180.935 447.016 182.395 447.231 183.741 447.231C185.396 447.231 187.432 447.098 189.017 447.494C189.559 447.63 192.437 448.075 192.853 447.554C193.17 447.159 194.422 447.569 194.892 447.434C195.329 447.31 195.794 446.941 196.139 446.631C197.128 445.741 199.875 446.152 201.054 446.152" stroke="#5A6B3B" stroke-width="2" stroke-linecap="round"/>
<path d="M200.407 445.936C200.489 446.587 206.225 446.916 207.133 447.003C208.301 447.114 209.393 446.799 210.55 446.799" stroke="#5A6B3B" stroke-width="2" stroke-linecap="round"/>
</svg>
