<?xml version="1.0" encoding="UTF-8"?><svg id="Lag_1" xmlns="http://www.w3.org/2000/svg" width="434.93" height="434.35" viewBox="0 0 434.93 434.35"><defs><style>.cls-1{fill:none;stroke:#f7f5ea;stroke-miterlimit:10;stroke-width:22px;}.cls-2{fill:#f7f5ea;}</style></defs><path class="cls-1" d="M239.3,422.78c104.27-10.42,184.63-98.31,184.63-205.32,0-114.03-92.44-206.46-206.46-206.46S11,103.44,11,217.46c0,107.87,80.8,196.4,186.27,205.65"/><path class="cls-1" d="M249.22,420.79v-147.05l50.52-.59,8.14-54.91h-61.4c.07-17.72-.33-30.52.33-40.5,1.98-30.05,26.53-30.49,26.53-30.49h34.54v-48.79c-54.43-5.29-80.94,2.21-100.38,19.41-12.59,11.14-19.19,34.63-19.78,56.21-.68,24.91-.56,44.16-.56,44.16h-50.09l-.26,56.4,51.02-.21v146.37"/><rect class="cls-2" x="192.61" y="420.53" width="6.21" height="13.17"/><polygon class="cls-2" points="192.61 433.71 198.83 434.35 198.83 433.71 192.61 433.71"/><rect class="cls-2" x="238.25" y="402.5" width="9.53" height="30.37" transform="translate(486.02 835.37) rotate(180)"/><polygon class="cls-2" points="247.78 432.87 238.25 434.35 238.25 432.87 247.78 432.87"/></svg>