<svg width="2768" height="1597" viewBox="0 0 2768 1597" fill="none" xmlns="http://www.w3.org/2000/svg">
<path d="M2399.46 18.9807C2479.94 18.9807 2556.92 7.30078 2634.63 7.30078C2706.95 7.30078 2725.33 59.8393 2727.67 102.038C2732.64 191.737 2736.09 282.495 2736.09 371.975C2736.09 428.145 2746.92 485.952 2753.38 541.983C2760.62 604.736 2736.09 754.869 2736.09 818.065C2736.09 1014.68 2761.33 1123.38 2761.33 1320C2761.33 1350.02 2742.17 1379.12 2729.54 1407.6C2719.85 1429.46 2718.52 1463.36 2697.75 1481.89C2635.97 1537.01 2482.09 1535.87 2391.05 1542.89C2332.78 1547.38 2279.01 1552.86 2222.27 1560.73C2136.14 1572.69 2046.19 1570.14 1961.85 1582.8C1900.43 1592.01 1822.97 1589.93 1759.87 1589.93C1703.43 1589.93 1647.36 1584.09 1592.03 1584.09C1431.29 1584.09 1270.17 1572.41 1108.13 1572.41C963.509 1572.41 818.885 1572.41 674.261 1572.41C622.058 1572.41 560.711 1578.26 510.157 1569.17C453.16 1558.91 388.35 1554.89 329.221 1554.89C252.078 1554.89 174.935 1554.89 97.7916 1554.89C-48.1601 1554.89 26.2589 1409.55 26.2589 1350.49" stroke="#5A6B3B" stroke-width="13" stroke-linecap="round"/>
</svg>
