<svg width="671" height="849" viewBox="0 0 671 849" fill="none" xmlns="http://www.w3.org/2000/svg">
<path d="M47.4269 827.491L9.75899 848.365H107.417L64.1682 827.491L60.8351 620.546L65.2095 565.899C65.2095 561.185 118.668 504.15 113.634 465.842L103.9 427.478C103.9 427.478 95.0765 402.536 89.907 398.735C85.399 395.421 34.2579 398.838 27.407 401.735C20.5561 404.632 15.2176 422.308 1.63559 463.038C-8.26556 492.73 49.6544 559.315 49.6553 565.899V622.117L47.4269 827.491Z" fill="#F7F5EA"/>
<path d="M180.507 826.518L150.755 843.032L232.779 844.173L197.201 825.586L195.077 781.07L194.077 646.67V596.672C194.077 592.436 242.264 541.158 237.906 506.735L227.906 473.235C227.906 473.235 218.906 446.735 216.906 444.735C214.906 442.735 166.678 444.695 162.906 447.735C159.134 450.775 152.876 467.642 141.118 504.241C132.547 530.922 183.972 590.756 183.973 596.672L183.011 646.245L180.507 826.518Z" fill="#F7F5EA"/>
<path d="M184.408 824.734C185.908 810.234 186.147 588.028 186.147 588.028C186.146 582.843 137.75 530.4 145.505 507.015C156.144 474.936 164.414 455.646 165.455 454.164L214.341 451.56L225.61 479.008L233.235 509.223C237.178 539.394 192.176 584.315 192.176 588.028V632.234C192.176 632.234 190.908 813.602 194.908 824.734" stroke="#5A6B3B" stroke-width="2"/>
<path d="M145.631 510.333C154.451 510.333 163.424 509.783 172.22 510.349C176.062 510.596 179.705 512.755 183.599 513.142C187.407 513.52 191.398 513.157 195.222 513.157C199.697 513.157 204.252 513.027 208.595 511.745C212.412 510.619 216.835 509.768 220.792 509.768C222.471 509.768 224.15 509.768 225.829 509.768C226.272 509.768 226.534 509.735 226.907 509.735C227.093 509.735 227.113 509.768 227.651 509.768C228.885 509.768 232.006 509.44 232.673 510.898" stroke="#5A6B3B" stroke-width="2" stroke-linecap="round"/>
<path d="M179.48 577.563C180.176 577.563 180.851 578.094 181.499 578.378C182.558 578.841 183.589 579.381 184.663 579.79C187.352 580.815 190.142 580.605 192.931 580.605C194.056 580.605 195.062 580.609 196.099 580.086C196.36 579.954 196.892 579.814 197.092 579.603C197.277 579.409 197.761 579.442 197.856 579.193" stroke="#5A6B3B" stroke-width="2" stroke-linecap="round"/>
<path d="M6.87402 466.278C17.0274 466.278 27.3577 465.65 37.4851 466.296C41.9076 466.577 46.1024 469.04 50.5853 469.482C54.9693 469.914 59.5639 469.5 63.9663 469.5C69.118 469.5 74.3625 469.351 79.3627 467.889C83.7573 466.604 88.8484 465.633 93.4045 465.633C95.3373 465.633 97.2701 465.633 99.2029 465.633C99.7137 465.633 99.9466 465.025 100.376 465.025C100.59 465.025 100.682 465.633 101.301 465.633C102.721 465.633 106.315 465.259 107.083 466.922" stroke="#5A6B3B" stroke-width="2" stroke-linecap="round"/>
<path d="M45.9375 545.787C46.7703 545.787 47.5783 546.312 48.3545 546.593C49.6224 547.051 50.8571 547.584 52.1425 547.989C55.3625 549.002 58.7025 548.794 62.0418 548.794C63.3888 548.794 64.5942 548.798 65.8353 548.281C66.1473 548.151 66.7842 548.012 67.0245 547.804C67.2462 547.612 67.8248 547.644 67.9385 547.398" stroke="#5A6B3B" stroke-width="2" stroke-linecap="round"/>
<path d="M49.9053 828.235C51.8554 756.567 53.4664 557.893 53.4664 557.893C53.4655 552.111 -2.33846 493.628 6.60427 467.55C18.8716 431.777 28.6261 410.265 29.8257 408.613L87.1379 405.189L98.97 436.317L107.761 470.013C112.308 503.658 60.4183 553.753 60.4183 557.893L59.4053 606.235C59.4053 606.235 60.4053 753.066 60.4053 828.235" stroke="#5A6B3B" stroke-width="2"/>
<path d="M196.414 450.573L209.962 316.004L206.431 311.861C184.458 319.396 181.854 407.129 183.299 450.053L196.414 450.573Z" fill="#F7F5EA"/>
<path d="M337.317 157.337C348.363 148.983 607.968 1.00588 607.968 1.00588C613.289 0.0633038 616.588 1.48858 617.735 2.60736C641.663 26.594 661.939 76.4863 669.972 98.9365C673.2 107.887 664.593 113.928 661.796 116.837C659.558 119.164 651.826 124.221 648.24 126.458L406.172 268.544C400.664 272.124 394.25 274.935 385.946 277.046C369.888 281.129 354.574 281.163 343.557 275.256C332.541 269.349 324.289 272.673 318.598 275.704C312.906 278.735 246.406 314.235 238.769 318.889C237.708 319.535 238.111 320.728 237.478 321.798C234.698 326.497 230.62 329.272 225.213 328.51C224.182 328.365 223.578 328.556 222.537 328.51C221.206 328.452 218.28 331.186 216.606 331.419C214.933 331.652 213.406 331.235 212.406 330.235C211.406 329.235 191.862 300.735 191.862 295.394C191.862 292.75 194.331 290.555 195.406 289.735C196.482 288.914 198.406 287.735 200.406 285.735C201.611 284.53 202.291 283.966 202.906 282.735C203.406 281.735 207.222 276.37 212.303 275.704C214.053 275.474 215.669 276.542 217.406 276.235C220.406 275.704 288.906 232.235 292.406 229.735C295.906 227.235 300.38 221.555 302.029 218.646C303.751 189.647 326.272 165.69 337.317 157.337Z" fill="#F7F5EA"/>
<path d="M332.734 167.119C331.881 167.402 330.17 168.543 328.809 170.043C327.517 171.468 326.312 173.113 324.666 174.83C323.209 176.349 322.025 178.257 321.09 179.974C320.123 181.752 318.595 183.118 317.661 184.69C316.663 186.368 316.16 188.117 315.588 189.834C315.016 191.551 314.446 193.262 313.873 194.978C313.301 196.695 312.731 198.406 312.158 200.123C311.586 201.84 311.016 203.55 310.444 205.267C309.871 206.984 309.301 208.695 308.729 210.412C308.157 212.129 307.586 214.122 307.37 216.341C307.185 218.233 305.589 219.841 304.8 221.558C303.955 223.397 302.588 224.985 301.372 226.632C300.105 228.348 298.018 229.701 296.727 231.418C295.57 232.958 294.014 233.988 292.443 234.923C290.703 235.957 289.015 237.418 287.227 238.85C285.052 240.592 283.442 241.85 281.725 242.924C280.17 243.897 278.298 244.423 276.581 245.638C274.718 246.956 273.153 248.281 271.436 249.355C269.835 250.356 268.009 251.282 266.292 252.356C264.575 253.142 262.864 254 261.147 254.999C260.717 255.286 260.292 255.569 259.855 255.86" stroke="#5A6B3B" stroke-width="2" stroke-linecap="round"/>
<path d="M259.855 255.861C259.002 256.002 257.292 256.572 255.575 257.571C253.72 258.65 252.147 260.285 250.43 261.429C248.776 262.532 247.003 263.286 245.286 264.43C243.569 265.575 241.858 266.715 240.141 267.86C238.425 269.005 236.714 270.145 234.997 271.29C233.343 272.393 231.57 272.863 229.853 273.862C227.998 274.94 226.425 276.292 224.708 277.291C222.989 278.291 221.281 278.865 219.564 279.437C217.847 280.009 213.307 280.297 210.132 281.22C207.85 281.885 206.988 284.575 205.417 285.865C203.759 287.227 201.989 288.579 199.987 290.506C198.398 292.036 197.557 294.006 196.909 296.148C195.791 299.848 197.335 301.518 197.907 303.235C198.495 304.999 199.589 306.594 200.408 308.235C201.481 310.385 201.908 311.235 203.548 313.373C204.677 314.845 205.547 316.727 206.692 318.444C207.837 320.161 207.692 319.588 208.908 321.235C209.266 321.595 208.907 321.235 209.907 322.735" stroke="#5A6B3B" stroke-width="2" stroke-linecap="round"/>
<path d="M209.908 322.735C210.191 323.588 213.14 326.159 213.908 326.735C215.908 328.235 218.262 327.599 220.333 326.741C223.584 325.395 226.965 326.167 229.41 325.67C231.359 325.273 232.126 322.746 232.915 321.029C233.76 319.19 235.41 317.601 237.127 315.955C238.646 314.499 240.555 313.88 242.271 312.526C243.924 311.222 245.699 310.168 247.416 309.379C249.255 308.534 250.843 307.167 252.56 306.378C254.399 305.533 255.988 304.449 257.705 303.094C259.357 301.79 261.132 300.736 262.849 299.948C264.688 299.103 266.277 297.735 267.994 296.662C269.595 295.66 271.421 294.735 273.138 293.59C274.792 292.487 276.565 291.734 278.282 290.589C279.937 289.486 281.71 288.733 283.427 287.944C285.201 287.129 286.854 286.444 288.571 285.515C290.302 284.58 292.427 284.3 294.144 283.372C295.758 282.5 297.572 282.157 299.289 281.228C300.902 280.356 302.716 279.73 304.433 279.012C306.103 278.314 307.691 276.807 309.408 276.235C310.263 275.949 311.052 275.305 311.908 274.734C312.338 274.447 314.042 273.526 314.908 273.235" stroke="#5A6B3B" stroke-width="2" stroke-linecap="round"/>
<path d="M314.922 272.895C315.402 272.815 316.365 272.494 317.331 272.172C318.324 271.841 319.26 271.288 320.226 270.926C321.255 270.541 322.155 270.082 323.121 269.799C324.056 269.526 325.05 269.358 326.016 269.076C326.951 268.803 327.945 268.634 329.913 268.512C333.154 268.312 338.319 268.47 339.285 268.792C340.252 269.114 341.214 269.276 342.181 269.676C343.101 270.058 344.109 270.4 345.076 270.762C346.105 271.147 347.004 271.606 347.971 271.968C349 272.354 349.9 272.972 350.866 273.376C351.805 273.769 352.795 274.019 353.88 274.301C355.405 274.698 356.414 274.743 357.58 274.865C358.836 274.996 360.274 275.225 368.048 275.267C370.576 275.281 371.854 274.907 372.82 274.785C373.819 274.659 374.749 274.342 375.715 273.942C376.62 273.567 377.644 273.459 378.611 273.337C379.609 273.212 380.539 272.735 381.506 272.614C382.562 272.48 383.676 272.253 384.642 271.931C385.608 271.609 386.571 271.288 387.577 270.966C388.731 270.597 389.707 270.323 390.673 270.001C391.64 269.679 392.602 269.358 393.569 269.036C394.561 268.705 395.497 268.152 396.464 267.629C397.372 267.138 398.393 266.786 399.359 266.182C400.234 265.634 401.288 265.498 402.254 265.136C403.321 264.736 404.183 264.05 405.149 263.528C406.084 263.022 407.078 262.603 408.044 262.041C409.048 261.457 409.973 260.914 410.939 260.352C411.943 259.768 412.868 259.225 413.834 258.703C414.769 258.197 415.763 257.777 416.729 257.455C417.792 257.101 417.94 256.797 418.906 256.235C419.793 255.511 421.125 255.216 421.406 254.735C421.528 254.492 423.824 253.481 423.906 253.235" stroke="#5A6B3B" stroke-width="2" stroke-linecap="round"/>
<path d="M184.401 824.674C184.401 825.477 184.052 826.974 183.775 827.486C183.507 827.982 183.2 828.509 182.837 829.021C182.444 829.576 181.964 829.959 181.558 830.407C181.152 830.855 180.77 831.323 180.301 831.623C179.739 831.982 179.278 832.305 178.766 832.476C178.254 832.647 177.743 832.901 177.231 833.243C176.719 833.584 176.208 833.84 175.696 834.138C175.183 834.436 174.589 834.692 174.033 835.034C173.527 835.344 173.01 835.503 172.498 835.695C171.952 835.899 171.475 836.227 170.963 836.441C170.465 836.65 169.94 836.782 169.216 836.868C168.608 836.94 168.149 837.294 167.637 837.465C167.125 837.635 166.614 837.805 165.996 837.87C165.445 837.928 164.952 838.189 164.333 838.254C163.782 838.311 163.204 838.489 162.648 838.722C162.119 838.944 161.498 838.957 160.985 839.128C160.473 839.298 159.963 839.553 159.45 839.809C158.878 840.096 157.792 840.414 157.406 840.734C156.841 841.204 158.077 841.473 158.907 841.537C159.952 841.619 162.864 841.67 163.907 841.734C165.164 841.812 167.25 841.473 168.772 841.537C170.166 841.595 172.826 841.559 174.259 841.537C175.82 841.514 177.132 841.431 178.986 841.41C179.787 841.4 181.182 841.303 183.185 841.282C183.922 841.274 184.09 841.218 187.301 841.197C190.512 841.175 196.759 841.175 200.041 841.196C203.323 841.217 203.449 841.259 204.696 841.281C205.944 841.303 208.308 841.303 209.589 841.282C211.552 841.249 212.659 841.09 213.278 841.026C213.902 840.961 214.578 840.835 215.727 840.77C216.545 840.724 217.392 840.579 218.86 840.514C220.709 840.433 223.405 840.323 223.576 840.132C223.732 839.958 223.492 839.641 223.365 839.407C223.082 838.886 222.386 838.703 221.874 838.489C221.375 838.281 220.851 838.064 220.339 837.85C219.84 837.641 219.316 837.424 218.804 837.189C218.274 836.946 217.781 836.741 217.269 836.464C216.787 836.204 216.246 836.102 215.734 835.931C215.207 835.755 214.711 835.462 214.199 835.291C213.686 835.121 213.176 834.95 212.664 834.78C212.151 834.609 211.641 834.439 211.129 834.268C210.616 834.097 210.022 833.927 209.466 833.756C208.95 833.598 208.359 833.415 207.676 833.245C206.981 833.071 206.228 832.691 205.607 832.456C204.973 832.215 204.478 831.924 203.965 831.71C203.454 831.496 202.943 831.241 202.43 831.049C201.865 830.837 201.408 830.389 200.895 830.154C200.347 829.901 199.873 829.493 199.36 829.173C198.883 828.874 198.338 828.598 197.825 828.235C197.27 827.842 196.803 827.447 196.312 826.978C195.857 826.544 195.608 825.955 195.373 825.443C195.309 825.314 195.224 825.188 195.16 825.059C195.095 824.931 195.053 824.804 195.009 824.674" stroke="#5A6B3B" stroke-width="2" stroke-linecap="round"/>
<path d="M436.224 102.235C435.371 102.518 433.66 103.658 431.943 104.803C430.226 105.947 428.516 107.088 426.799 108.232C425.144 109.335 423.372 110.088 421.655 111.518C420.179 112.747 418.227 113.518 416.51 114.236C414.795 114.954 413.083 115.807 411.366 116.806C409.582 117.844 407.938 119.091 406.221 120.165C404.62 121.166 402.794 122.092 401.077 123.237C399.36 124.381 397.65 125.522 395.933 126.596C394.331 127.597 392.505 128.523 390.788 129.667C389.071 130.812 387.361 131.952 385.644 133.026C384.043 134.028 381.933 135.519 380.071 136.529C378.48 137.391 376.643 137.954 374.926 139.028C373.325 140.029 371.499 140.955 369.782 141.744C368.007 142.559 366.354 143.527 364.637 144.316C362.798 145.161 361.21 146.528 359.493 147.317C357.654 148.162 356.066 149.246 354.349 150.316C352.489 151.474 350.921 152.53 349.204 153.604C347.649 154.576 345.494 155.668 343.702 157.175C342.23 158.413 340.632 159.389 338.915 160.534C337.34 161.82 335.917 163.247 334.556 164.748C334.198 165.108 333.773 165.391 332.907 166.54" stroke="#5A6B3B" stroke-width="2" stroke-linecap="round"/>
<path d="M437.038 101.556C437.909 101.411 439.657 100.829 441.411 99.8804C443.109 98.9628 444.913 98.2006 446.667 97.1801C448.423 96.1584 450.169 95.5725 451.923 94.6242C453.621 93.7066 455.425 92.6554 457.18 91.4859C458.934 90.3163 460.682 89.1512 462.436 88.054C464.072 87.0308 465.938 86.0851 467.692 85.2792C469.505 84.4462 471.194 83.457 472.876 82.2152C474.541 80.9858 476.012 79.804 477.766 78.8557C479.464 77.9381 481.268 76.8868 483.023 75.7173C484.777 74.5478 486.525 73.3827 488.279 72.2132C490.033 71.0437 491.781 70.1676 493.535 69.5829C495.337 68.9821 497.037 67.9775 498.791 67.0292C500.44 66.1381 502.293 65.4984 504.047 64.6924C505.86 63.8595 507.549 63.1594 509.304 62.2111C511.001 61.2935 512.805 60.2422 514.56 59.4362C516.439 58.5729 518.062 57.4652 519.816 56.4446C521.57 55.2751 523.318 54.11 525.072 53.0127C525.512 52.7915 525.946 52.647 526.831 52.0601" stroke="#5A6B3B" stroke-width="2" stroke-linecap="round"/>
<path d="M527.707 51.6221C528.723 51.6221 530.764 51.0439 532.591 49.8744C534.63 48.5689 536.458 47.5398 538.213 46.7339C540.092 45.8705 541.714 44.7628 543.469 43.3787C545.225 41.9929 546.971 40.5316 548.725 39.3621C550.415 38.2351 552.227 37.4655 553.981 36.296C555.805 35.0801 557.483 33.5233 559.237 32.7174C561.05 31.8844 562.739 30.8952 564.493 30.0893C566.373 29.2259 567.995 27.8291 569.75 26.5873C571.652 25.2405 573.252 24.1761 575.006 23.1555C576.762 22.1338 578.508 21.2589 580.262 20.4529C582.141 19.5896 583.764 18.4819 585.518 17.5336C587.167 16.6424 589.02 16.0027 590.774 15.269C592.529 14.5397 594.276 13.6637 596.031 13.0789C596.471 12.9322 596.904 12.7877 598.227 11.7627" stroke="#5A6B3B" stroke-width="2" stroke-linecap="round"/>
<path d="M599.707 10.5722C601.55 10.3101 605.25 9.25401 608.43 7.53485C609.941 6.71819 612.397 6.60182 615.172 6.99488C619.459 7.60203 620.607 12.9385 622.597 16.1187C624.452 19.0846 626.166 22.4673 628.155 25.6476C630.072 28.7126 631.994 31.9962 633.714 35.1764C635.377 38.2537 636.759 41.525 637.819 44.7052C638.908 47.9726 640.729 51.0538 642.579 54.2341C644.431 57.4178 646.018 60.5827 648.138 63.7629C650.181 66.8276 651.052 70.1115 652.243 73.2917C653.512 76.679 655.022 79.6403 656.742 82.8206C658.405 85.8979 660.311 89.1692 661.641 92.3494C662.934 95.4421 663.233 104.463 660.863 110.351C659.535 113.65 654.514 114.055 651.334 116.175C648.154 118.296 644.985 120.408 641.805 122.397C638.839 124.252 635.456 125.966 632.276 127.427C628.87 128.993 625.928 131.001 622.878 132.982C619.732 135.027 617.193 138.401 614.013 140.002C611.018 141.508 607.664 142.118 604.484 143.309C601.304 145.032 598.135 146.088 594.955 147.148C594.157 147.414 593.371 147.676 590.973 148.74" stroke="#5A6B3B" stroke-width="2" stroke-linecap="round"/>
<path d="M590.973 148.74C589.393 149.265 586.224 151.901 583.044 153.632C579.751 155.424 576.695 157.205 573.515 159.055C570.211 160.977 567.167 163.812 563.986 166.071C561.134 168.097 557.638 169.116 554.457 170.307C550.947 171.622 548.109 174.405 544.929 175.735C541.836 177.028 538.58 178.375 535.4 180.495C532.22 182.615 529.051 184.728 525.871 186.848C522.691 188.968 519.522 190.556 516.342 191.747C512.831 193.062 509.994 195.845 506.813 197.965C503.633 200.085 500.465 202.197 497.284 204.317C494.15 206.407 491.73 208.82 488.55 210.011C485.369 211.996 482.201 214.108 479.021 216.359C478.223 217.023 477.437 217.809 475.039 219.413" stroke="#5A6B3B" stroke-width="2" stroke-linecap="round"/>
<path d="M475.039 219.413C473.458 219.937 470.29 221.525 467.11 223.375C463.854 225.269 461.555 228.401 458.375 229.994C454.82 231.773 452.026 233.96 448.846 236.08C445.666 238.2 442.498 240.313 439.317 242.433C436.253 244.476 432.969 245.871 429.919 248.122C429.252 248.785 428.728 249.571 428.065 250.238C427.402 250.905 426.616 251.429 425.012 252.764" stroke="#5A6B3B" stroke-width="2" stroke-linecap="round"/>
<path d="M49.9072 828.235C49.9072 829.082 49.2244 830.694 48.9072 831.235C48.6003 831.757 47.8225 832.694 47.4072 833.235C46.9568 833.82 46.3723 834.263 45.9072 834.735C45.4421 835.207 44.8271 835.245 44.2902 835.561C43.6471 835.94 43.119 836.281 42.5323 836.461C41.9456 836.641 41.3611 836.909 40.7744 837.269C40.1878 837.63 39.6033 837.899 39.0166 838.214C38.4292 838.528 37.7487 838.797 37.1122 839.158C36.5333 839.485 35.941 839.653 35.3543 839.855C34.7294 840.07 34.1831 840.416 33.5965 840.642C33.0259 840.861 32.4253 841.001 31.5954 841.092C30.8996 841.167 30.3744 841.541 29.7877 841.721C29.201 841.901 28.6165 842.08 27.9083 842.148C27.2767 842.209 26.7122 842.485 26.0039 842.553C25.3724 842.614 24.7111 842.8 24.0746 843.047C23.468 843.281 22.757 843.294 22.1703 843.474C21.5836 843.654 20.9991 843.922 20.4124 844.193C19.7565 844.495 18.5128 844.83 18.0712 845.168C17.4237 845.663 18.839 845.947 19.7904 846.015C20.9862 846.101 24.3219 846.154 25.5165 846.222C26.9553 846.304 29.3446 845.947 31.0871 846.014C32.6833 846.076 35.7301 846.037 37.3715 846.015C39.1592 845.991 40.6609 845.902 42.7843 845.88C43.7019 845.87 45.2988 845.767 47.5928 845.745C48.4369 845.737 48.6299 845.678 52.3068 845.656C55.9837 845.633 63.1383 845.633 66.8964 845.655C70.6546 845.677 70.7997 845.722 72.2279 845.745C73.6562 845.767 76.3633 845.767 77.8304 845.745C80.0784 845.711 81.3469 845.544 82.0552 845.475C82.77 845.407 83.5442 845.274 84.8604 845.206C85.7965 845.157 86.767 845.004 88.448 844.936C90.5655 844.85 93.6535 844.734 93.849 844.533C94.0271 844.349 93.7531 844.016 93.6073 843.769C93.2829 843.219 92.486 843.027 91.8993 842.801C91.3287 842.581 90.7281 842.353 90.1414 842.127C89.5709 841.907 88.9702 841.678 88.3835 841.43C87.7772 841.174 87.2123 840.958 86.6256 840.666C86.0743 840.392 85.4545 840.284 84.8678 840.104C84.265 839.919 83.6966 839.609 83.1099 839.429C82.5232 839.249 81.9387 839.07 81.352 838.89C80.7653 838.71 80.1808 838.53 79.5942 838.35C79.0075 838.17 78.3263 837.991 77.6898 837.811C77.0986 837.644 76.4219 837.452 75.6397 837.271C74.8447 837.088 73.9814 836.688 73.2709 836.44C72.5445 836.186 71.9774 835.879 71.3907 835.653C70.8046 835.427 70.2196 835.159 69.6329 834.956C68.9852 834.733 68.4617 834.261 67.875 834.012C67.2465 833.747 66.7038 833.316 66.1171 832.979C65.57 832.664 64.9459 832.372 64.3592 831.99C63.7229 831.575 63.1881 831.159 62.6255 830.664C62.1053 830.207 61.9072 830.235 61.4072 829.735C61.2983 829.626 60.9072 829.235 60.9072 829.235C60.9072 829.235 60.4072 828.735 60.4072 828.235" stroke="#5A6B3B" stroke-width="2" stroke-linecap="round"/>
</svg>
