<svg width="220" height="417" viewBox="0 0 220 417" fill="none" xmlns="http://www.w3.org/2000/svg">
<path d="M45.0552 257.928V318L57.0195 309V257.928L55.3018 205.862L59.3111 155.777C59.3111 151.456 108.307 99.1818 103.693 64.072L94.7724 28.9104L83.6247 0L22.2359 3.90909C21.0187 5.63307 13.492 24.1718 1.04371 61.5018C-8.03098 88.715 45.0543 149.743 45.0552 155.777V207.302V257.928Z" fill="#F7F5EA"/>
<path d="M46.2469 396.37L5.83103 415.006L104.872 410.771L53.0007 398.487V192.552L54.9201 148.439C54.9201 144.644 102.478 98.731 98.3115 67.8938L90.2539 37.0112L79.4095 8.48123L26.8811 11.6191C25.7817 13.1333 16.8414 32.8493 5.59803 65.6364C-2.59824 89.5379 48.5477 143.139 48.5485 148.439L46.2469 396.37Z" stroke="#5A6B3B" stroke-width="2"/>
<path d="M5.84601 64.4701C15.1519 64.4701 24.6199 63.8949 33.902 64.4865C37.9553 64.7449 41.8 67.002 45.9086 67.4067C49.9267 67.8025 54.1378 67.4231 58.1727 67.4231C62.8944 67.4231 67.7011 67.2866 72.284 65.9466C76.3118 64.769 80.9779 63.8795 85.1537 63.8795C86.9251 63.8795 88.6966 63.8795 90.4681 63.8795C90.9363 63.8795 91.1497 63.3218 91.5431 63.3218C91.7398 63.3218 91.8233 63.8795 92.391 63.8795C93.6927 63.8795 96.9867 63.5361 97.6903 65.0607" stroke="#5A6B3B" stroke-width="2" stroke-linecap="round"/>
<path d="M41.6484 137.344C42.4117 137.344 43.1522 137.825 43.8636 138.082C45.0257 138.502 46.1573 138.991 47.3354 139.361C50.2867 140.29 53.3478 140.099 56.4084 140.099C57.643 140.099 58.7478 140.103 59.8852 139.629C60.1712 139.51 60.7549 139.383 60.9752 139.192C61.1784 139.016 61.7087 139.046 61.8129 138.82" stroke="#5A6B3B" stroke-width="2" stroke-linecap="round"/>
<path d="M166.397 275.775V362L177.422 352.5L177.34 275.775L176.54 229.416L177.422 183.981C177.422 180.099 221.739 133.125 217.745 101.575L210.023 69.9789L200.372 44L147.229 47.5127C146.175 49.0619 139.66 65.7209 128.883 99.2656C121.027 123.719 168.161 178.559 168.161 183.981L167.279 229.416L166.397 275.775Z" fill="#F7F5EA"/>
<path d="M168.157 398.386L133.106 415.098L219 411.299L174.014 400.285V215.616L175.679 176.059C175.679 172.656 216.924 131.485 213.31 103.832L206.322 76.139L195.994 50.9826L151.188 53.3692C150.234 54.727 142.655 72.4069 132.904 101.808C125.796 123.241 170.152 171.307 170.153 176.059L168.157 398.386Z" stroke="#5A6B3B" stroke-width="2"/>
<path d="M133.019 104.85C141.102 104.85 149.326 104.345 157.388 104.864C160.909 105.09 164.249 107.069 167.817 107.424C171.308 107.771 174.965 107.438 178.47 107.438C182.571 107.438 186.747 107.318 190.727 106.144C194.226 105.111 198.279 104.332 201.906 104.332C203.445 104.332 204.983 104.332 206.522 104.332C206.929 104.332 207.114 103.843 207.456 103.843C207.627 103.843 207.699 104.332 208.192 104.332C209.323 104.332 212.184 104.031 212.795 105.367" stroke="#5A6B3B" stroke-width="2" stroke-linecap="round"/>
<path d="M164.043 166.468C164.681 166.468 165.299 166.955 165.893 167.214C166.864 167.639 167.809 168.134 168.793 168.509C171.258 169.448 173.815 169.256 176.371 169.256C177.402 169.256 178.325 169.259 179.275 168.78C179.514 168.659 180.001 168.53 180.185 168.337C180.355 168.159 180.798 168.19 180.885 167.961" stroke="#5A6B3B" stroke-width="2" stroke-linecap="round"/>
</svg>
