<svg width="2128" height="781" viewBox="0 0 2128 781" fill="none" xmlns="http://www.w3.org/2000/svg">
<path d="M962.168 59.0775C712.127 -6.65373 530.508 -18.2446 316.4 29.9843C185.26 59.5244 0.0016578 -9.33002 0 262.303C-0.00252038 675.277 323.963 259.967 511.76 318.201C661.332 364.582 760.13 179.249 1047.2 262.303C1334.26 345.356 1486.65 376.106 1809.16 370.173C2067.17 365.428 2122.3 490.058 2123.48 399.094C2115.21 250.784 2194.93 19.079 1913.9 81.7663C1696.16 130.336 1607.15 48.0679 1368.37 81.7663C1156.9 111.612 1064.51 85.9826 962.168 59.0775Z" fill="#F7F5EA"/>
<path d="M286.664 46.7547C291.388 45.9713 303.992 44.3809 315.113 42.0191C324.916 39.9373 335.658 37.2598 345.972 34.8979C356.467 32.4945 367.323 28.5719 378.8 27.3732C394.237 25.7609 414.798 23.8245 430.975 21.0472C464.204 15.3423 475.707 16.7033 515.574 15.5046C541.382 14.7286 571.463 11.9559 628.255 11.5405C649.107 11.3879 661.665 15.0892 675.112 16.2879C686.503 17.3034 703.537 20.6437 716.664 22.6139C728.086 24.3282 742.324 25.3911 755.035 27.3613C768.399 29.4326 779.544 30.1386 790.25 32.1088C801.609 34.1993 811.21 36.4527 821.108 39.23C832.229 42.3501 842.068 43.5739 851.575 46.7428C861.082 49.9117 870.553 53.0688 880.059 56.2377C890.08 59.578 901.411 60.1899 910.918 63.3589C920.425 66.5278 931.462 68.1182 941.776 70.48C952.073 72.8379 963.128 74.4323 972.635 77.6012C982.141 80.7701 991.613 83.9272 1003.48 86.7044C1015.12 89.4275 1024.84 91.0483 1040.26 92.2471C1051.9 93.1517 1062.82 95.7958 1072.33 98.9647C1083.8 102.789 1098.43 102.917 1112.25 105.694C1142.96 111.869 1165.56 108.471 1189.75 110.442C1240.71 114.593 1261.32 108.471 1283.13 106.501C1307.71 104.281 1302.21 104.712 1318.71 100.712C1321.49 100.038 1331.32 97.6942 1338.21 96.7117" stroke="#5A6B3B" stroke-width="2" stroke-linecap="round"/>
<path d="M1341.21 96.2117C1342.71 95.7117 1371.41 92.6628 1386.83 91.4641C1400 90.4395 1411.79 88.6987 1440.41 87.5118C1466.67 86.4232 1516.82 87.1083 1543.82 87.5C1578.05 87.9965 1592.12 91.8557 1604.05 94.2176C1618.94 97.1659 1639.64 98.1698 1680.67 99.3686C1698.3 99.8838 1710.85 102.917 1749.91 104.116C1758.35 104.508 1760.7 105.291 1768.96 105.695C1777.22 106.098 1790.16 105.695 1805.66 104.116" stroke="#5A6B3B" stroke-width="2" stroke-linecap="round"/>
<path d="M1337.16 96.7203C1337.64 96.7203 1338.61 96.6746 1338.92 96.5936C1339.36 96.4799 1339.65 96.467 1339.94 96.386C1340.27 96.3514 1340.5 96.2822 1340.73 96.2476C1340.87 96.2358 1341.06 96.2358 1341.24 96.0974" stroke="#5A6B3B" stroke-width="2" stroke-linecap="round"/>
<path d="M1806.11 103.787C1807.34 103.787 1809.8 103.438 1812 103.172C1815.26 102.777 1819.13 102.382 1821.51 101.763C1822.79 101.432 1824.07 101.499 1831.05 101.235C1837.51 100.991 1849.89 101.145 1856.53 101.058C1864.94 100.948 1867.39 100.268 1871.26 100.001C1873.8 99.826 1876.54 99.032 1879.01 98.5063C1881.15 98.053 1883.24 97.6266 1885.79 96.9212C1887.98 96.3174 1890.11 96.0416 1892.4 95.4234C1895.47 94.5938 1898.38 94.4565 1901.12 94.1897C1903.39 93.9673 1905.43 93.2202 1907.55 92.6945C1909.66 92.1685 1911.77 91.8148 1914.41 91.1967C1917 90.5906 1919.17 90.2298 1921.72 89.963C1924 89.7251 1928.82 88.9935 1932.38 88.4678C1934.58 88.1414 1937.65 87.4085 1940.48 86.97C1943.62 86.4823 1946.11 86.0031 1950.42 85.7363C1954.74 85.4686 1960.38 84.9464 1966 84.6796C1971.45 84.2385 1978.87 83.8898 1991.51 83.6229C1994.2 83.5358 1994.72 83.3614 1995.79 82.6534" stroke="#5A6B3B" stroke-width="2" stroke-linecap="round"/>
<path d="M1995.79 82.6534C1998.93 82.6534 2005.29 83.0021 2007.4 83.269C2009.72 83.5608 2012.15 84.0588 2014.27 84.7642C2016.39 85.4695 2018.49 85.8235 2021.05 86.7005C2023.16 87.426 2025.36 87.7572 2027.48 88.4625C2029.59 89.1679 2031.7 89.8706 2034.26 90.6631C2036.63 91.3997 2038.57 92.5123 2040.69 93.6561C2042.68 94.7311 2045.26 95.5027 2047.56 96.4748C2049.85 97.4475 2051.78 98.8523 2054.33 100.171C2056.54 102.022 2058.65 103.079 2060.76 104.661C2061.29 105.018 2061.82 105.192 2062.88 105.9" stroke="#5A6B3B" stroke-width="2" stroke-linecap="round"/>
<path d="M286.597 46.6266C281.96 46.6266 272.579 47.0676 267.684 47.405C263.425 47.6987 258.546 48.404 252.543 48.7414C248.055 48.9937 243.178 49.7404 239.616 50.5222C235.03 51.529 231.819 51.745 226.924 52.0824C223.492 52.319 218.695 53.3086 215.11 53.9734C212.187 54.5156 209.1 55.086 204.763 55.8678C199.151 56.8795 195.963 57.0906 188.623 57.428C183.907 57.6448 179.031 58.427 175.028 59.2087C168.449 60.4939 162.139 59.9905 157.535 60.6554C154.004 61.1653 150.967 62.4361 146.961 63.3282C142.942 64.2231 139.394 65.1089 136.153 66.001C132.713 66.9478 129.584 67.7817 126.354 68.6738C123.459 69.4731 120.898 71.1227 118.222 72.6796C115.442 74.297 112.879 76.2411 110.203 78.5798C107.733 80.7386 104.861 82.2549 101.523 84.8107C94.8233 89.9415 92.8335 93.387 90.1574 95.3983C87.6233 97.3028 85.4833 99.628 82.8072 101.412C80.1311 103.196 77.465 105.415 74.5683 106.982C70.598 109.129 68.1102 111.656 65.2136 113.77C60.8172 116.98 58.0872 120.115 55.0804 122.788C49.82 127.464 46.5141 132.57 42.1641 138.925C38.4099 144.409 37.8141 147.511 36.6949 150.187C35.5767 152.861 33.805 155.97 32.0209 158.874C30.3982 161.514 28.6866 164.657 26.6753 169.224C25.2627 172.432 23.5548 174.907 22.5525 177.583C21.4164 180.617 20.6548 184.917 19.99 188.829C19.4732 191.87 18.8774 194.953 18.54 201.511C18.3572 205.064 16.8728 207.649 15.8705 210.325C14.803 213.175 13.0908 215.667 11.417 218.898C10.0528 221.531 9.52266 224.795 9.18522 230.471C8.83412 236.377 9.06829 244.4 9.40573 248.185C9.51598 249.084 9.73648 249.745 9.96033 250.527C10.1842 251.309 10.4047 252.191 10.6319 254.436" stroke="#5A6B3B" stroke-width="2" stroke-linecap="round"/>
<rect x="9" y="304" width="2119" height="477" fill="#F7F5EA"/>
<rect x="601" y="151" width="678" height="274" fill="#F7F5EA"/>
</svg>
