<svg width="2206" height="1005" viewBox="0 0 2206 1005" fill="none" xmlns="http://www.w3.org/2000/svg">
<path d="M791.784 25.1641C792.526 26.1208 799.527 2.84111 805.556 14.3319C814.004 21.0138 819.045 18.9888 827.386 25.8085C862.126 40.6335 916.852 90.2345 953.211 105.681C990.944 122.518 1001.1 123.517 1027.25 155.351L1031.98 165.321C1049.85 198.7 1058.72 211.93 1084.7 232.41C1099.59 243.95 1114.99 252.693 1132.58 258.891C1146.07 263.625 1159.54 265.651 1173.64 268.111C1174.8 268.455 1175.43 268.888 1176.69 269.755C1177.33 270.189 1177.75 269.575 1178.38 270.008C1181.54 272.175 1184.4 275.48 1183.58 279.415C1183 287.104 1179.57 294.198 1176.77 301.724C1174.5 309.161 1173.39 316.941 1168.8 323.691C1167.02 325.622 1164.94 328.69 1161.46 327.66C1158.62 327.063 1158.39 323.309 1155.86 321.575C1148.89 316.807 1141.11 315.973 1132.8 315.23C1132.27 315.32 1131.53 314.365 1131 314.454C1123.85 314.054 1117.95 311.814 1111.31 308.616C1097.5 302.312 1086 293.985 1071.99 289.341C1045.13 280.397 1019.08 285.948 991.437 286.354C968.732 286.996 947.463 281.429 927.523 269.129C926.89 268.695 925.84 268.875 925.207 268.442C923.415 267.665 922.566 266.184 921.299 265.317C917.608 263.24 850.978 229.092 847.286 227.015C803.051 194.488 823.465 208.257 774.952 181.343C772.524 180.131 750.014 165.107 747.588 163.895C733.456 156.02 729.65 151.117 715.41 142.718C709.711 138.817 703.477 131.256 699.555 125.424C694.041 117.154 706.599 108.251 712.361 99.7721C713.195 98.5456 710.552 102.553 715.014 95.7938C718.66 89.7477 721.781 83.7914 726.585 78.0886C727.419 76.8615 728.145 75.1107 728.979 73.8836C743.901 53.9776 757.664 33.7279 781.683 23.6451C785.251 22.4912 788.618 22.997 791.784 25.1641Z" fill="#F7F5EA"/>
<path d="M1158.12 681.46L1157.21 688.83C1156.86 691.75 1156.01 694.91 1157.69 697.63C1159.21 700.09 1162.44 701.36 1165.08 702.47C1167.72 703.58 1170.22 704.51 1172.89 705.27C1176.88 706.4 1180.88 703.3 1180.92 699.48C1181.03 689.23 1180.95 678.95 1178.41 668.93C1175.86 658.91 1172.67 649.51 1169.76 639.84C1169.06 637.54 1166.98 635.86 1164.49 635.54C1162.18 635.25 1159.23 636.26 1158.18 638.4C1155.08 644.68 1155.1 651.24 1155.97 657.98C1156.83 664.72 1157.74 671.45 1158.63 678.18C1158.85 679.83 1159.19 681.2 1160.49 682.42C1161.59 683.46 1163.39 684.24 1164.96 684.18C1168.05 684.05 1171.74 681.52 1171.3 678.18C1170.44 671.73 1169.6 665.29 1168.74 658.84C1168.39 656.1 1168.04 653.35 1168.05 650.58C1168.05 649.86 1168.07 649.14 1168.13 648.42C1168.15 648.21 1168.34 646.98 1168.15 647.94C1167.96 648.9 1168.23 647.56 1168.24 647.47C1168.36 646.84 1168.51 646.22 1168.7 645.61C1168.81 645.27 1168.94 644.94 1169.05 644.6C1169.42 643.43 1168.51 645.66 1169.11 644.45L1157.53 643.02C1160.39 652.54 1163.56 662.03 1166.06 671.64C1166.66 673.97 1167.31 676.39 1167.53 678.78C1167.37 677.16 1167.58 679.29 1167.62 679.59C1167.68 680.07 1167.73 680.55 1167.78 681.04C1167.91 682.33 1168.01 683.62 1168.08 684.91C1168.35 689.76 1168.3 694.63 1168.25 699.48L1176.27 693.69C1175.35 693.43 1174.44 693.15 1173.54 692.85C1173.08 692.7 1172.64 692.54 1172.19 692.37C1171.89 692.26 1171.59 692.15 1171.3 692.03C1172 692.31 1172.13 692.37 1171.71 692.19C1170.85 691.81 1169.97 691.44 1169.11 691.02C1168.68 690.81 1168.26 690.6 1167.84 690.38C1167.62 690.27 1167.41 690.16 1167.2 690.05C1166.63 689.72 1166.78 689.82 1167.66 690.34L1169.28 692.99C1169.04 692.39 1169.06 692.59 1169.32 693.59C1169.36 693.31 1169.39 693.03 1169.42 692.75C1169.48 692.26 1169.54 691.77 1169.6 691.28L1169.99 688.09L1170.8 681.46C1170.98 680.04 1169.97 678.19 1168.94 677.22C1167.85 676.18 1166.04 675.4 1164.47 675.46C1162.89 675.52 1161.13 676.04 1159.99 677.22C1158.79 678.47 1158.34 679.79 1158.13 681.46H1158.12Z" fill="#F7F5EA"/>
<path d="M1106.47 718.47C1137.14 719.85 1168.33 709.46 1197.85 714.93C1213.27 717.79 1225.95 724.63 1239.62 730C1292.83 750.89 1360.07 749.15 1421.85 743.38C1483.64 737.61 1546.74 728.52 1607.77 736.97C1663.32 744.66 1714.96 766.66 1771.68 764.35" fill="black"/>
<path d="M1120.97 752.433C1163.76 755.493 1206 731.518 1248.76 741.044L1240.69 739.182C1253.9 742.428 1266.4 749.373 1278.67 758.154L1271.41 752.912C1289.26 765.87 1306.64 780.585 1324.99 791.441C1341.23 801.046 1357.94 808.204 1374.83 813.473C1412.37 825.234 1450.58 829.491 1488.7 828.773C1566.12 827.282 1642.66 805.517 1719.78 796.443C1764.7 791.148 1809.92 790.27 1854.64 800.301L1846.57 798.439C1879.3 806.022 1911.32 819.832 1943.27 833.722C1977.3 848.516 2011.25 862.193 2046.13 869.909C2064.65 874.007 2083.32 875.763 2101.99 874.513C2117.84 873.448 2201.74 885.183 2201 856.392C2200.28 829.199 2141.24 800.301 2112 785.773C2085.16 772.435 2062.91 769.994 2043.51 765.551L2051.58 767.413C2010.72 757.781 1971.04 738.197 1931.06 721.514C1887.63 703.393 1843.66 691.233 1798.93 689.158C1711.66 685.087 1625.39 712.147 1538.56 721.673C1493.36 726.622 1447.75 727.208 1402.78 716.964L1410.85 718.826C1381.06 711.855 1351.68 699.961 1323.89 680.111L1331.14 685.353C1314.33 673.139 1297.98 658.771 1280.62 648.819C1263.26 638.868 1209.73 635.021 1191 635.5C1156.18 636.378 1188.5 635.479 1155 635.5C1139.12 634.356 1074.39 698.778 1075.11 725.972C1075.87 755.055 1103.97 751.235 1120.99 752.459L1120.97 752.433Z" fill="#F7F5EA"/>
<path d="M1116.26 718.15C1047.47 724.12 977.993 700.09 909.753 708.21C867.761 713.21 831.208 729.91 789.691 736.33C744.965 743.25 697.325 737.82 652.514 744.5C601.897 752.05 558.934 774.44 508.136 781.49C447.34 789.93 381.032 775.6 323.055 790.04" fill="black"/>
<path d="M1108.46 631.53C1026.5 642 963.087 617.519 890.165 613.532C852.504 611.466 815.086 615.405 778.489 625.573C744.825 634.924 712.167 648.279 678.331 656.893C669.703 659.087 661.003 660.976 652.26 662.449C650.951 662.674 649.556 662.786 648.276 663.09C648.319 663.09 653.971 662.321 650.735 662.706C648.722 662.946 646.723 663.234 644.71 663.474C640.008 664.035 635.305 664.515 630.589 664.915C611.909 666.501 593.157 666.917 574.434 667.253C536.024 667.942 497.615 668.79 459.737 676.7C425.743 683.81 393.114 696.684 360.37 708.773C344.034 714.794 327.627 720.606 310.96 725.378C302.504 727.796 293.991 729.941 285.406 731.719C281.222 732.583 277.008 733.336 272.795 734.057C271.084 734.345 267.604 734.265 274.463 733.832C273.5 733.896 272.522 734.105 271.558 734.233C269.301 734.537 267.028 734.809 264.756 735.065C191.863 743.184 118.553 729.029 45.8611 741.919C37.3912 743.424 29.0219 745.361 20.7245 747.763C6.5169 751.846 -3.47734 770.292 1.1387 786.177C5.75474 802.061 20.4082 812.373 35.6368 807.985C43.9342 805.599 52.3178 803.646 60.7734 802.141C62.6859 801.805 69.8616 801.068 61.8375 801.885C63.7501 801.692 65.6483 801.356 67.5608 801.116C72.0331 800.556 76.5197 800.091 81.0063 799.707C98.6077 798.218 116.267 798.01 133.897 798.25C169.675 798.73 205.481 801.148 241.259 799.371C278.288 797.529 314.426 790.068 349.844 778.058C382.703 766.914 414.857 753.191 448.147 743.568C456.603 741.134 465.116 738.94 473.686 737.131C477.885 736.234 482.099 735.434 486.326 734.713C487.319 734.553 488.325 734.393 489.318 734.233C492.539 733.688 486.902 734.601 486.858 734.601C489.476 734.665 492.294 733.864 494.883 733.56C513.131 731.414 531.48 730.63 549.815 730.182C588.426 729.237 626.864 729.157 665.173 723.008C699.498 717.484 732.386 705.202 765.547 694.33C782.242 688.854 799.067 683.794 816.179 680.207C820.364 679.326 824.563 678.574 828.776 677.853C830.732 677.517 833.392 678.11 827.209 678.077C828.172 678.077 829.237 677.805 830.2 677.677C832.53 677.373 834.845 677.117 837.174 676.877C846.133 675.964 855.135 675.5 864.137 675.387C937.03 674.491 1008.43 696.444 1081.34 695.499C1090.4 695.387 1099.44 694.874 1108.46 693.994C1116.02 693.257 1122.75 691.015 1128.29 684.851C1133.15 679.439 1136.81 670.552 1136.5 662.77C1135.87 647.078 1232 659.97 1203 635.5L1108.46 631.53Z" fill="#F7F5EA"/>
<path d="M317.023 778.839C281.281 794.272 261.103 816.967 263.141 839.433C265.179 861.898 289.401 883.755 327.814 897.778C386.099 919.055 466.219 920.788 540.342 924.462C746.335 934.674 953.045 966.801 1156.31 948.438C1246.25 940.317 1330.52 922.6 1418.15 910.267C1511.23 897.169 1608.56 890.072 1698.32 872.798C1732.67 866.188 1766.31 857.909 1791.96 845.534C1817.61 833.166 1834.51 816.15 1830.38 799.206C1826.25 782.255 1797.7 766.249 1760.77 764" fill="#F7F5EA"/>
<path d="M307.369 788.756C281.279 800.398 259.771 815.971 249.502 835.698C240.507 852.972 244.155 871.454 256.729 887.273C284.527 922.25 347.815 937.116 404.063 943.003C468.277 949.723 534.095 948.933 598.936 951.832C669.178 954.969 739.156 959.823 809.294 963.666C878.904 967.484 948.793 970.352 1018.8 969.429C1089.15 968.499 1158.98 963.149 1227.83 952.945C1294.67 943.033 1360.22 929.592 1426.93 919.282C1493.37 909.012 1560.75 901.831 1627.27 891.807C1659.79 886.906 1692.22 881.393 1723.83 874.259C1753.56 867.553 1783.76 859.299 1808.67 846.403C1833.59 833.506 1854.51 815.797 1852.59 794.909C1850.88 776.343 1831.13 761.25 1806.36 753.31C1791.95 748.691 1776.92 746.513 1760.9 745.733C1749.81 745.193 1740.44 752.833 1740.57 759.566C1740.71 767.458 1750.28 772.098 1761.4 772.637C1771.86 773.147 1782.61 775.405 1791.93 779.021C1797.14 781.043 1798.14 781.549 1802.75 784.638C1803.69 785.263 1804.61 785.902 1805.47 786.569C1804.86 786.097 1803.74 784.82 1805.81 786.928C1806.5 787.626 1807.23 788.296 1807.88 789.015C1808.13 789.287 1810.49 792.169 1809.38 790.658C1808.28 789.146 1809.84 791.456 1810.02 791.819C1810.38 792.564 1810.71 793.304 1811.02 794.057C1811.25 794.605 1811.46 795.187 1811.58 795.751C1811.14 793.737 1811.47 796.084 1811.46 796.374C1811.44 796.913 1810.73 801.812 1811.34 799.758C1810.89 801.243 1809.54 804.553 1809.28 805.02C1805.39 811.724 1796.85 818.155 1787.4 823.499C1767.25 834.892 1741.13 841.89 1716.38 847.614C1686.76 854.463 1656.37 859.794 1625.87 864.533C1563.76 874.192 1500.84 881.098 1438.54 890.104C1375.58 899.206 1313.78 911.453 1251.25 921.74C1188.88 932.004 1126.16 939.017 1062.09 941.431C998.009 943.845 931.592 942.521 866.615 939.659C800.474 936.743 734.58 932.29 668.562 928.543C605.694 924.98 542.777 923.336 479.764 921.038C427.106 919.114 369.578 915.914 325.357 896.809C320.705 894.804 316.632 892.672 312.157 889.98C309.85 888.594 307.627 887.159 305.488 885.666C304.439 884.934 303.412 884.193 302.416 883.432C300.713 882.145 301.666 882.88 300.732 882.076C293.252 875.576 289.758 871.12 287.084 864.138C286.751 863.275 286.492 862.403 286.191 861.532C285.432 859.338 286.436 863.384 286.057 861.155C285.749 859.353 285.578 857.541 285.566 855.719C285.557 854.105 285.654 852.488 285.899 850.882C285.578 852.966 285.99 850.66 286.089 850.334C286.518 848.952 286.925 847.579 287.46 846.216C289.759 840.363 294.934 833.546 300.693 828.567C308.457 821.861 318.09 816.293 328.575 811.613C337.812 807.488 341.539 799.441 335.624 793.071C330.085 787.114 316.659 784.623 307.369 788.763L307.369 788.756Z" fill="#F7F5EA"/>
<path d="M311.757 844.81C317.565 843.52 323.435 842.5 329.358 841.74L323.889 842.44C333.529 841.24 343.254 840.75 352.967 841C355.797 841.1 358.447 840.54 360.897 839.32C363.452 838.53 365.659 837.19 367.528 835.29C369.534 833.52 370.959 831.43 371.783 829.01C373.071 826.69 373.662 824.18 373.557 821.5C373.314 816.46 371.572 811.23 367.528 807.71C363.484 804.19 358.595 802.14 352.967 802C335.504 801.56 317.818 803.43 300.808 807.2C298.126 807.8 295.793 808.97 293.808 810.69C291.569 812.06 289.796 813.89 288.507 816.16C286.997 818.4 286.184 820.81 286.068 823.41C285.456 826 285.583 828.59 286.438 831.19C288.053 835.91 291.136 840.46 295.898 842.84C300.903 845.35 306.182 846.04 311.768 844.81H311.757Z" fill="#F7F5EA"/>
<path d="M316.002 820.707C440.649 804.638 564.109 778.119 685.042 740.784C719.142 730.263 753.014 718.884 786.671 706.716C795.59 703.49 801.68 694.139 800.24 683.534C798.926 673.788 791.181 664.493 781.63 665.212C698.814 671.521 618.764 696.533 539.789 723.644C499.954 737.319 460.245 751.473 420.081 763.923C415.179 765.444 410.277 766.937 405.362 768.387C403.265 769.007 401.13 769.542 399.045 770.204C397.567 770.683 396.392 769.838 399.601 770.133C398.123 769.993 396.405 770.148 394.914 770.162C390.315 770.218 398.06 771.612 393.802 769.922C392.589 769.443 389.026 767.289 392.779 769.838C388.786 767.134 391.819 769.429 393.562 771.725L394.358 774.232C393.827 771.992 393.853 772.373 394.421 775.401C394.105 777.429 393.423 777.922 393.019 779.569L394.396 778.119C393.095 779.302 393.373 779.189 395.205 777.781C397.163 776.71 399.033 775.387 400.966 774.26C409.014 769.57 415.899 766.289 424.377 763.12C463.732 748.417 503.971 749.727 542.897 766.43C541.393 753.557 539.877 740.685 538.374 727.813C515.632 747.29 499.865 773.105 491.539 803.751C487.37 819.116 501.179 834.171 514.849 829.735C631.12 792.047 748.491 753.402 869.234 738.488C903.624 734.249 938.191 731.953 972.808 731.995C994.046 732.024 998.721 696.632 977.849 690.506C890.017 664.705 786.507 640.833 707.241 706.011C699.016 712.771 694.884 724.32 700.443 734.911C705.56 744.671 717.575 748.417 726.368 742.488C767.417 714.828 810.84 695.759 858.129 685.252C901.401 675.633 950.8 674.324 994.097 682.154C1021.08 687.041 1047.54 695.026 1073.11 705.786C1068.7 697.125 1064.29 688.463 1059.87 679.802C1060.75 677.436 1059.36 680.83 1059.28 681.013C1058.64 682.337 1058.05 683.661 1057.39 684.971C1056.26 687.21 1055.03 689.393 1053.73 691.505C1053.53 691.829 1051.14 695.407 1052.31 693.745C1053.34 692.294 1051.32 695.012 1051.35 694.97C1049.41 697.364 1047.48 699.744 1045.38 701.969C1043.76 703.702 1042.06 705.321 1040.36 706.969C1037.53 709.687 1038.99 708.237 1039.67 707.645C1038.64 708.504 1037.6 709.335 1036.55 710.152C1032.34 713.433 1027.93 716.419 1023.43 719.165C1003.62 731.277 984.091 738.643 960.882 747.544C910.699 766.782 859.102 781.02 807.226 793.287C778.004 800.188 748.68 806.483 719.344 812.736L737.777 848.043C789.008 797.624 840.239 747.191 891.458 696.773C907.541 680.943 886.581 650.649 868.489 663.592C801.667 711.434 734.846 759.261 668.012 807.103L690.98 840.283C709.729 816.074 728.478 791.864 747.215 767.641C761.441 749.262 743.892 723.897 724.246 734.46C710.5 741.854 696.754 749.234 683.008 756.627C676.666 760.036 669.578 762.923 663.602 767.063C657.627 771.204 651.891 777.133 646.18 782.034C638.094 788.991 633.748 800.202 639.383 810.933C645.018 821.665 656.085 823.538 665.308 818.51C743.601 775.865 824.763 740.178 908.122 711.828C900.984 701.491 893.858 691.139 886.72 680.802C873.037 716.236 855.122 750.684 833.543 780.048C843.461 788.583 853.391 797.117 863.309 805.652C873.593 786.555 883.89 767.458 894.174 748.36C905.532 727.277 880.011 706.856 864.408 722.757C841.679 745.924 818.964 769.077 796.235 792.245C807.024 797.23 817.801 802.202 828.591 807.187C828.603 806.187 828.654 803.807 828.54 806.159C828.578 805.441 829.235 802.779 828.692 805.046C829.197 802.962 830.524 803.525 828.944 804.441C829.045 804.384 831.585 803.201 832.381 802.751C839.026 799.019 845.672 795.287 852.317 791.554C865.608 784.09 878.887 776.626 892.178 769.162C882.677 763.078 873.164 757.008 863.663 750.924C863.638 759.036 862.311 765.599 858.849 772.542C854.288 781.696 856.133 793.47 863.726 799.793C870.839 805.722 882.285 806.187 888.615 798.145C908.526 772.837 932.278 755.627 961.223 748.22C954.085 737.882 946.959 727.531 939.821 717.194C936.789 725.038 933.744 732.897 930.712 740.741C926.972 750.417 927.427 761.19 935.589 767.993C943.75 774.795 952.847 773.077 960.478 766.345C962.107 764.894 966.201 761.965 968.791 760.275C971.078 758.782 976.359 755.768 977.306 755.332C980.679 753.768 984.242 752.557 987.78 751.543C989.902 750.938 992.037 750.431 994.198 749.994C997.457 749.318 994.261 749.881 997.811 749.529L988.247 746.642C999.188 755.923 1014.63 751.994 1023.64 741.586C1031.65 732.319 1036.05 718.053 1035.08 705.265C1033.89 689.576 1025.38 675.985 1012.53 669.225C999.681 662.465 986.63 662.409 973.238 664.24C963.08 665.634 943.154 668.394 943.154 680.802C943.154 691.393 962.992 707.575 973.238 706.49C986.466 705.082 999.681 703.688 1012.91 702.279C1016.22 701.927 1019.54 701.42 1022.85 701.251C1024.2 701.139 1025.57 701.11 1026.92 701.209C1024.03 701.124 1021.78 699.73 1020.19 697.04L1019.78 695.871C1020.19 697.28 1020.5 698.716 1020.73 700.167C1020.19 697.153 1021.2 705.885 1021.26 706.941C1022.71 731.686 1019.33 756.712 1010.28 778.781C1007.39 785.851 1006.59 793.089 1010.28 800.103C1013.33 805.905 1020.26 811.468 1026.64 810.567C1047.46 807.624 1068.28 804.68 1089.1 801.737C1098.69 800.385 1108.83 799.962 1117.91 796.061C1129.23 791.202 1137.85 781.865 1141.76 768.936C1147.52 749.91 1141.95 727.024 1131.78 711.039C1126.54 702.786 1120.26 695.547 1114.39 687.886C1110.43 682.717 1106.6 675.845 1105.18 668.437L1081.87 694.421C1087.56 696.885 1078.96 692.66 1084.49 695.646C1086.25 696.59 1088.01 697.533 1089.74 698.561C1092.63 700.279 1095.46 702.153 1098.2 704.138C1101.59 706.589 1104.08 708.617 1105.59 710.082C1108.41 712.8 1111.18 715.518 1113.82 718.447C1124.53 730.334 1131.86 742.699 1138.64 759.078C1144.1 748.487 1149.55 737.882 1155 727.292C1119.36 728.489 1083.71 727.63 1048.15 724.686C1049.83 738.516 1051.51 752.346 1053.19 766.176C1072.81 759.937 1092.43 753.698 1112.05 747.459C1105.91 735.685 1099.76 723.926 1093.62 712.152C1079.19 728.08 1064.75 744.009 1050.32 759.937C1039.52 771.852 1046.81 797.962 1063.72 796.005C1129.91 788.315 1196.12 780.626 1262.31 772.936C1272.49 771.753 1281.26 764.078 1281.26 751.811C1281.26 740.516 1272.59 730.489 1262.31 730.686C1219.89 731.531 1178.71 719.602 1141.33 696.195C1136.47 709.068 1131.59 721.94 1126.73 734.812C1262.94 794.244 1410.62 764.148 1552.57 765.697C1591.83 766.134 1630.93 768.993 1669.06 777.063C1679.1 779.189 1689.5 773.936 1692.37 762.303C1695.01 751.571 1689.13 738.981 1679.13 736.319C1576.93 709.082 1459.5 767.922 1363 703C1352.8 703.986 1347.38 718.898 1347.38 731.024C1347.38 741.685 1356.08 753.135 1366.33 752.149C1467.8 742.375 1570 750.67 1669.06 777.063L1679.14 736.319C1536.78 706.195 1392.51 742.995 1249.53 724.869C1211.88 720.095 1172.88 709.814 1136.8 694.069C1128.13 690.28 1117.65 697.435 1114.44 706.293C1111 715.828 1113.8 727.418 1122.19 732.671C1164.91 759.416 1213.22 773.908 1262.29 772.936V730.686C1196.1 738.375 1129.9 746.065 1063.71 753.754L1077.12 789.822C1091.54 773.894 1105.98 757.965 1120.41 742.037C1133.8 727.263 1120.21 700.927 1101.98 706.73C1082.36 712.969 1062.74 719.208 1043.12 725.447C1034.12 728.306 1028.15 738.305 1029.55 748.628C1031.01 759.458 1038.51 766.148 1048.16 766.951C1083.72 769.88 1119.38 770.753 1155.02 769.556C1170.3 769.035 1177.38 752.262 1171.38 737.77C1155.47 699.378 1127.32 669 1091.95 653.691C1077.49 647.438 1065.91 665.493 1068.64 679.675C1072.15 697.956 1082.89 711.926 1093.73 725.517C1098.64 731.672 1099.84 732.897 1103.47 740.629C1104.85 743.544 1103.68 740.826 1104.23 742.657C1104.75 744.375 1105.11 746.163 1105.63 747.882C1107.07 752.6 1106.02 745.811 1106.11 750.642C1106.11 751.163 1106.01 756.543 1106.25 753.895C1106.46 751.557 1105.57 756.656 1105.52 756.825C1106.49 753.825 1104.48 757.008 1105.58 756.346C1107.37 755.261 1106.45 755.67 1105.06 756.501C1107.25 755.191 1103.84 756.895 1103.19 757.078C1101.6 757.543 1099.98 757.867 1098.35 758.177C1101.83 757.501 1094.17 758.782 1094.3 758.754C1089.96 759.374 1085.62 759.979 1081.28 760.599C1063.07 763.176 1044.85 765.753 1026.63 768.331C1032.09 778.922 1037.53 789.526 1042.99 800.117C1056.21 767.866 1062.22 732.136 1058.25 696.773C1057.15 687.013 1055.18 677.168 1048.9 669.746C1042.4 662.057 1033.22 658.592 1023.84 658.959C1007 659.606 989.991 662.465 973.2 664.254V706.504C978.923 705.716 984.545 705.307 990.307 705.504C991.658 705.547 989.801 710.56 987.78 710.096C989.296 710.448 993.844 706.251 995.322 706.786C998.203 707.828 993.099 705.575 995.79 707.096C997.432 708.025 994.716 705.8 997.142 708.124C999.567 710.448 997.23 709.082 997.533 708.476L996.826 706.265C997.078 707.011 997.281 707.758 997.42 708.546C997.281 710.518 996.459 705.927 997.268 707.716C998.077 709.504 996.813 711.138 997.508 707.814C997.281 708.87 996.99 709.941 996.813 711.011C996.156 714.912 997.546 708.87 996.826 711.138C996.674 711.631 994.943 714.715 996.51 712.18C998.077 709.645 996.055 712.814 995.487 713.18C999.188 710.8 1001.39 709.251 1005.96 710.096C1010.53 710.941 1007.38 710.194 1005.08 709.124C1002.35 707.87 999.643 707.335 996.687 707.406C989.372 707.603 981.501 709.49 974.501 711.814C959.252 716.87 946.037 725.545 933.655 736.488C943.573 745.023 953.504 753.557 963.421 762.092C966.453 754.247 969.498 746.389 972.53 738.544C975.613 730.559 976.245 722.362 971.052 715.081C966.188 708.279 958.772 705.547 951.128 707.504C916.461 716.377 885.141 738.615 861.793 768.303C871.711 776.837 881.641 785.372 891.559 793.906C898.192 780.612 901.502 766.176 901.54 750.966C901.59 734.178 885.583 725.672 873.025 732.728C856.613 741.952 829.918 738.319 813.506 747.544C805.686 751.938 806.835 768.429 800.973 775.908C794.087 784.682 790.865 795.681 790.663 807.229C790.322 826.27 811.295 834.115 823.019 822.172C845.748 799.005 868.464 775.851 891.192 752.684C881.275 744.149 871.344 735.615 861.427 727.08C851.142 746.177 840.846 765.275 830.562 784.372C825.735 793.329 828.035 805.455 835.438 811.623C842.374 817.398 854.25 818.229 860.327 809.976C884.458 777.133 904.357 741.178 919.43 702.181C922.512 694.195 923.144 685.999 917.951 678.718C913.34 672.267 905.406 668.634 898.027 671.141C811.585 700.533 727.354 737.854 646.167 782.076L665.295 818.552C670.741 813.877 676.034 808.666 681.745 804.413C687.91 799.821 695.428 796.751 702.124 793.146C715.87 785.752 729.615 778.372 743.361 770.978L720.393 737.798C701.644 762.007 682.895 786.217 664.158 810.44C658.006 818.383 656.54 829.58 662.68 838.185C668.315 846.072 679.041 849.423 687.127 843.621C753.949 795.779 820.77 747.952 887.604 700.11C879.948 689.055 872.292 677.985 864.636 666.93C813.405 717.349 762.173 767.781 710.955 818.2C704.714 824.341 703.943 836.086 707.986 843.804C712.446 852.31 721.062 855.282 729.388 853.508C783.891 841.889 838.433 830.143 892.165 814.567C919.114 806.75 945.835 797.991 972.151 787.85C995.941 778.682 1020.41 769.232 1042.54 755.684C1066.89 740.784 1085.67 719.785 1096.38 691.069C1100.56 679.858 1091.72 668.69 1083.14 665.085C988.538 625.243 881.616 625.158 786.646 663.733C759.015 674.957 732.344 689.083 707.177 706.04L726.305 742.516C744.081 727.897 760.872 718.856 781.415 712.87C786.822 711.293 792.293 709.997 797.814 708.941C803.335 707.885 803.828 707.842 809.475 707.251C820.088 706.152 830.764 705.857 841.414 706.195C863.814 706.899 881.881 709.729 903.599 714.419C925.317 719.109 946.479 725.038 967.717 731.277C969.397 717.447 971.078 703.617 972.758 689.787C848.11 689.632 725.459 720.109 605.878 756.825C572.069 767.204 538.399 778.105 504.729 789.019C512.499 797.681 520.269 806.342 528.039 815.003C531.033 804.004 534.407 795.582 540.521 785.231C543.478 780.217 544.072 779.316 547.786 774.781C549.631 772.528 551.551 770.345 553.547 768.26C554.128 767.655 559.068 762.937 557.464 764.317C570.793 752.909 568.999 732.601 552.941 725.7C512.84 708.49 467.989 706.166 426.474 718.334C415.495 721.545 404.92 725.982 394.522 731.024C384.933 735.685 374.535 740.812 366.866 748.966C358.326 758.064 354.194 772.668 357.77 785.456C361.042 797.16 369.482 804.877 379.437 809.117C398.565 817.271 418.931 808.201 437.478 802.356C459.575 795.399 481.533 787.949 503.466 780.4C546.902 765.444 590.237 750.008 634.19 736.995C682.591 722.658 731.675 711.265 781.592 707.462C779.912 693.632 778.231 679.802 776.551 665.972C658.94 708.462 538.5 741.065 416.442 762.979C383.051 768.979 349.545 774.133 315.951 778.457C305.781 779.767 297 787.231 297 799.582C297 809.99 305.718 822.031 315.951 820.707H316.002Z" fill="#F7F5EA"/>
<path d="M898.233 969.53C902.921 969.76 907.451 969.27 912.086 968.65C915.359 968.22 918.58 967.55 921.716 966.58C925.992 965.26 930.215 963.57 934.175 961.56C938.134 959.55 941.84 956.88 945.43 954.16C946.972 952.8 948.07 951.19 948.703 949.33C949.696 947.54 950.15 945.62 950.065 943.55C950.065 939.87 948.344 935.48 945.43 932.94C942.516 930.4 938.451 928.37 934.228 928.55L930.015 929.09C927.333 929.8 924.999 931.09 923.025 932.95C922.677 933.21 922.339 933.47 921.99 933.72L925.2 931.37C921.695 933.89 917.883 935.98 913.828 937.63L917.608 936.12C913.142 937.9 908.465 939.11 903.661 939.72L907.873 939.18C904.674 939.56 901.454 939.68 898.223 939.52C894.295 939.32 889.744 941.33 887.02 943.91C884.296 946.49 882.206 950.78 882.385 954.52C882.565 958.26 883.916 962.42 887.02 965.13C890.124 967.84 893.862 969.31 898.223 969.52L898.233 969.53Z" fill="#F7F5EA"/>
<path d="M1104.52 763.22C1108.58 763.22 1112.85 761.55 1115.72 758.83C1118.59 756.11 1120.53 751.96 1120.35 748.22C1120.17 744.48 1118.82 740.32 1115.72 737.61C1112.61 734.9 1108.81 733.22 1104.52 733.22C1100.45 733.22 1096.19 734.89 1093.31 737.61C1090.44 740.33 1088.5 744.48 1088.68 748.22C1088.86 751.96 1090.21 756.12 1093.31 758.83C1096.42 761.54 1100.22 763.22 1104.52 763.22Z" fill="#F7F5EA"/>
<path d="M1405.74 783.38C1409.81 783.38 1414.07 781.71 1416.94 778.99C1419.82 776.27 1421.76 772.12 1421.58 768.38C1421.4 764.64 1420.05 760.48 1416.94 757.77C1413.84 755.06 1410.04 753.38 1405.74 753.38C1401.68 753.38 1397.41 755.05 1394.54 757.77C1391.67 760.49 1389.72 764.64 1389.9 768.38C1390.08 772.12 1391.44 776.28 1394.54 778.99C1397.64 781.7 1401.44 783.38 1405.74 783.38Z" fill="#F7F5EA"/>
<path d="M1825.06 842.907C1825.06 845.929 1754.4 872.752 1754.4 875.774C1754.4 877.299 1315.67 870.631 1307.66 869.679C1299.57 868.717 1844.57 873.544 1734.98 848.585C1727.4 846.858 1106 863.157 1106 860.684C1106 860.514 1964.29 846.658 1971.67 846.593C1983.31 846.491 1756.95 873.719 1768.12 873.544C1779.53 873.366 2142.44 846.9 2153.81 846.593C2162.94 846.347 1834.84 834.741 1834.84 842.907" stroke="#F7F5EA" stroke-width="100" stroke-linecap="round"/>
<path d="M1050.36 720.733C1047.83 720.733 1045.65 720.625 1043.63 718.972C1041.3 717.066 1039.03 715.699 1043.47 715.802C1048.82 715.927 1054.31 720.797 1058.97 723.042C1068.16 727.466 1077.57 730.878 1087.46 733.372C1102.48 737.158 1117.91 737.638 1133.32 737.638C1144.46 737.638 1155.06 738.103 1165.8 734.82C1181.48 730.028 1187.78 717.493 1191.98 702.811C1192.08 702.436 1193.93 708.813 1194.76 710.011C1196.93 713.153 1202.7 714.846 1206.03 716.507" stroke="#F7F5EA" stroke-width="100" stroke-linecap="round"/>
<path d="M1165.98 301.117C1173.97 301.806 1180.14 310.101 1183.89 319.293C1190.1 334.495 1191.49 352.634 1192.78 370.263C1194.23 390.261 1195.69 410.465 1193.72 430.707C1193.12 436.915 1192.2 443.144 1192.31 449.338C1192.46 457.417 1194.38 465.109 1194.82 473.144C1195.39 483.583 1193.47 494.199 1193.16 504.741C1192.85 515.818 1194.33 526.684 1194.32 537.738C1194.31 547.944 1193.02 558.186 1192.33 568.418C1191.58 579.299 1191.5 590.169 1191.41 601.028C1191.24 623.556 1191.06 646.094 1190.9 668.623C1187.74 673.235 1181.82 670.117 1180.07 664.726C1178.31 659.335 1179.15 652.93 1179.16 646.897C1179.19 635.807 1170.55 641.284 1170.43 630.215C1170.35 623.226 1177.16 600.183 1177.96 593.189C1182.63 552.771 1180.95 512.147 1178.44 472.07C1176.54 441.823 1174.19 411.669 1171.82 381.523C1170.71 367.355 1169.6 353.188 1168.49 339.02C1167.47 325.994 1166.46 312.998 1165.43 300L1165.97 301.116L1165.98 301.117Z" fill="#F7F5EA"/>
<path d="M792.633 24.1435C798.489 19.5778 800.152 16.0783 802.545 19.1232C810.161 25.2312 818.899 28.7124 826.419 34.9462C857.732 48.5035 907.071 93.8412 939.844 107.968C973.855 123.364 981.001 120.242 1009.5 146.242L1017.5 153.375L1024 160.743C1040.5 184.742 1032 173.243 1042.5 196.743C1055.92 207.292 1071.5 228.743 1086 241.743C1097.5 252.053 1117.79 258.99 1130.5 261.243C1131.54 261.557 1134.86 262.449 1136 263.242C1136.57 263.638 1140.74 264.846 1141.31 265.242C1144.17 267.223 1174 267.743 1177 276.743C1176.47 283.768 1177.52 290.867 1175 297.742C1172.96 304.536 1174.63 309.077 1170.5 315.242C1168.9 317.006 1165 323.242 1159.5 320.743C1143.5 307.243 1124.78 309.328 1122.5 307.743C1116.22 303.384 1109.25 300.167 1101.77 299.485C1101.29 299.567 1100.62 298.693 1100.15 298.775C1093.71 298.407 1089.49 294.166 1083.5 291.242C1071.05 285.477 1056.63 281.991 1044 277.743C1009.5 277.743 1019.42 281.382 994.501 281.742C974.039 282.32 934.73 268.534 916.755 257.289C916.184 256.893 915.237 257.057 914.666 256.661C913.051 255.951 912.285 254.597 911.144 253.805C907.815 251.905 847.761 220.684 844.429 218.782C804.552 189.049 822.954 201.636 779.223 177.029C777.036 175.922 756.742 162.186 754.555 161.078C741.816 153.878 738.384 149.396 725.547 141.717C720.41 138.151 714.791 131.24 711.253 125.911C706.282 118.353 717.595 110.224 722.785 102.48C723.536 101.359 721.156 105.019 725.175 98.8462C728.458 93.3236 731.268 87.8824 735.595 82.674C736.346 81.5531 737 79.9535 737.751 78.8326C751.191 60.6513 762.433 40.1955 784.075 30.9924C790.381 25.9704 786.777 28.2519 792.633 24.1435Z" fill="#F7F5EA"/>
<path d="M792.633 24.1435L792.92 24.5528L792.93 24.5456L792.94 24.5378L792.633 24.1435ZM802.545 19.1232L802.152 19.4322L802.187 19.4774L802.232 19.5133L802.545 19.1232ZM826.419 34.9462L826.1 35.3311L826.155 35.3766L826.22 35.405L826.419 34.9462ZM939.844 107.968L940.05 107.512L940.042 107.508L939.844 107.968ZM1009.5 146.242L1009.16 146.611L1009.17 146.615L1009.5 146.242ZM1017.5 153.375L1017.88 153.044L1017.86 153.021L1017.83 153.001L1017.5 153.375ZM1024 160.743L1024.41 160.46L1024.4 160.435L1024.38 160.412L1024 160.743ZM1042.5 196.743L1042.04 196.947L1042.09 197.059L1042.19 197.136L1042.5 196.743ZM1086 241.743L1085.67 242.115L1085.67 242.115L1086 241.743ZM1130.5 261.243L1130.64 260.764L1130.62 260.755L1130.59 260.75L1130.5 261.243ZM1136 263.242L1136.29 262.831L1136.29 262.831L1136 263.242ZM1141.31 265.242L1141.03 265.653L1141.03 265.653L1141.31 265.242ZM1177 276.743L1177.5 276.78L1177.51 276.68L1177.47 276.584L1177 276.743ZM1175 297.742L1174.53 297.57L1174.53 297.584L1174.52 297.598L1175 297.742ZM1170.5 315.242L1170.87 315.578L1170.89 315.551L1170.92 315.521L1170.5 315.242ZM1159.5 320.743L1159.18 321.125L1159.23 321.169L1159.29 321.198L1159.5 320.743ZM1122.5 307.743L1122.22 308.154L1122.22 308.154L1122.5 307.743ZM1101.77 299.485L1101.81 298.987L1101.75 298.981L1101.68 298.992L1101.77 299.485ZM1100.15 298.775L1100.12 299.274L1100.18 299.277L1100.24 299.268L1100.15 298.775ZM1083.5 291.242L1083.72 290.793L1083.71 290.789L1083.5 291.242ZM1044 277.743L1044.16 277.269L1044.08 277.243L1044 277.243L1044 277.743ZM994.501 281.742L994.493 281.242L994.486 281.242L994.501 281.742ZM916.755 257.289L916.47 257.7L916.48 257.707L916.49 257.713L916.755 257.289ZM914.666 256.661L914.951 256.25L914.911 256.223L914.867 256.203L914.666 256.661ZM911.144 253.805L911.429 253.394L911.411 253.381L911.392 253.37L911.144 253.805ZM844.429 218.782L844.13 219.183L844.154 219.201L844.181 219.216L844.429 218.782ZM779.223 177.029L779.468 176.593L779.459 176.588L779.449 176.583L779.223 177.029ZM754.555 161.078L754.309 161.514L754.319 161.519L754.329 161.524L754.555 161.078ZM725.547 141.717L725.262 142.128L725.276 142.138L725.29 142.147L725.547 141.717ZM711.253 125.911L710.836 126.186L710.837 126.187L711.253 125.911ZM722.785 102.48L722.369 102.201L722.369 102.201L722.785 102.48ZM725.175 98.8462L725.594 99.119L725.599 99.1104L725.604 99.1017L725.175 98.8462ZM735.595 82.674L735.979 82.9935L735.996 82.9737L736.01 82.9524L735.595 82.674ZM737.751 78.8326L737.349 78.5354L737.342 78.5447L737.335 78.5543L737.751 78.8326ZM784.075 30.9924L784.271 31.4525L784.333 31.4259L784.387 31.3835L784.075 30.9924ZM792.633 24.1435L792.94 24.5378C794.419 23.3846 795.632 22.2996 796.651 21.375C797.68 20.4421 798.487 19.6952 799.184 19.1821C799.89 18.6624 800.384 18.4606 800.786 18.4804C801.159 18.4988 801.592 18.7198 802.152 19.4322L802.545 19.1232L802.938 18.8143C802.302 18.0042 801.63 17.5208 800.835 17.4816C800.069 17.4439 799.332 17.8314 798.591 18.3767C797.841 18.9285 796.985 19.7223 795.98 20.6344C794.965 21.555 793.774 22.6196 792.325 23.7492L792.633 24.1435ZM802.545 19.1232L802.232 19.5133C806.073 22.5934 810.193 25.0085 814.264 27.4178C818.343 29.8327 822.375 32.2429 826.1 35.3311L826.419 34.9462L826.738 34.5612C822.944 31.4156 818.846 28.9683 814.773 26.5572C810.69 24.1405 806.634 21.761 802.858 18.7332L802.545 19.1232ZM826.419 34.9462L826.22 35.405C841.814 42.1563 861.924 56.8379 882.29 71.6479C902.618 86.4297 923.197 101.336 939.646 108.427L939.844 107.968L940.042 107.508C923.718 100.472 903.242 85.6471 882.878 70.8391C862.554 56.0593 842.338 41.2934 826.618 34.4873L826.419 34.9462ZM939.844 107.968L939.637 108.423C948.153 112.278 954.986 114.974 960.888 117.254C966.794 119.535 971.748 121.394 976.531 123.583C986.072 127.95 994.941 133.636 1009.16 146.611L1009.5 146.242L1009.84 145.872C995.56 132.848 986.606 127.095 976.947 122.674C972.129 120.469 967.139 118.597 961.248 116.321C955.354 114.043 948.54 111.356 940.05 107.512L939.844 107.968ZM1009.5 146.242L1009.17 146.615L1017.17 153.748L1017.5 153.375L1017.83 153.001L1009.83 145.869L1009.5 146.242ZM1017.5 153.375L1017.13 153.705L1023.63 161.074L1024 160.743L1024.38 160.412L1017.88 153.044L1017.5 153.375ZM1024 160.743L1023.59 161.026C1031.85 173.047 1033.81 176.119 1035.04 179.119C1036.25 182.087 1036.8 185.219 1042.04 196.947L1042.5 196.743L1042.96 196.539C1037.7 184.766 1037.25 181.898 1035.96 178.741C1034.69 175.616 1032.65 172.438 1024.41 160.46L1024 160.743ZM1042.5 196.743L1042.19 197.136C1048.86 202.378 1056.08 210.342 1063.47 218.656C1070.85 226.953 1078.39 235.591 1085.67 242.115L1086 241.743L1086.33 241.37C1079.11 234.894 1071.61 226.307 1064.22 217.991C1056.84 209.693 1049.56 201.657 1042.81 196.35L1042.5 196.743ZM1086 241.743L1085.67 242.115C1091.48 247.324 1099.48 251.661 1107.61 254.977C1115.74 258.294 1124.02 260.602 1130.41 261.735L1130.5 261.243L1130.59 260.75C1124.27 259.63 1116.05 257.343 1107.99 254.051C1099.91 250.758 1092.02 246.472 1086.33 241.37L1086 241.743ZM1130.5 261.243L1130.36 261.721C1130.89 261.883 1131.96 262.179 1133.06 262.538C1134.17 262.903 1135.21 263.305 1135.72 263.652L1136 263.242L1136.29 262.831C1135.64 262.386 1134.46 261.945 1133.37 261.588C1132.26 261.224 1131.15 260.916 1130.64 260.764L1130.5 261.243ZM1136 263.242L1135.72 263.652C1135.83 263.735 1136.01 263.814 1136.17 263.886C1136.36 263.962 1136.58 264.047 1136.82 264.135C1137.31 264.313 1137.91 264.516 1138.5 264.716C1139.09 264.917 1139.68 265.115 1140.15 265.288C1140.39 265.374 1140.59 265.452 1140.75 265.52C1140.92 265.592 1141 265.637 1141.03 265.653L1141.31 265.242L1141.6 264.832C1141.48 264.749 1141.31 264.67 1141.14 264.598C1140.96 264.522 1140.74 264.437 1140.49 264.349C1140.01 264.171 1139.41 263.968 1138.82 263.768C1138.22 263.567 1137.64 263.369 1137.16 263.196C1136.93 263.11 1136.72 263.032 1136.56 262.965C1136.39 262.893 1136.31 262.848 1136.29 262.831L1136 263.242ZM1141.31 265.242L1141.03 265.653C1141.27 265.823 1141.62 265.959 1142.01 266.077C1142.4 266.199 1142.89 266.314 1143.44 266.426C1144.55 266.651 1145.98 266.87 1147.6 267.104C1150.86 267.574 1154.93 268.103 1159.01 268.852C1163.1 269.602 1167.16 270.565 1170.37 271.89C1173.62 273.228 1175.85 274.875 1176.53 276.901L1177 276.743L1177.47 276.584C1176.65 274.11 1174.03 272.318 1170.75 270.965C1167.44 269.6 1163.3 268.622 1159.19 267.869C1155.09 267.115 1150.98 266.581 1147.74 266.115C1146.12 265.881 1144.72 265.664 1143.64 265.446C1143.1 265.337 1142.65 265.229 1142.3 265.121C1141.93 265.01 1141.71 264.909 1141.6 264.832L1141.31 265.242ZM1177 276.743L1176.5 276.705C1176.24 280.221 1176.36 283.827 1176.25 287.282C1176.13 290.773 1175.76 294.205 1174.53 297.57L1175 297.742L1175.47 297.914C1176.76 294.404 1177.13 290.849 1177.25 287.316C1177.37 283.746 1177.24 280.289 1177.5 276.78L1177 276.743ZM1175 297.742L1174.52 297.598C1173.48 301.047 1173.38 303.959 1173.04 306.664C1172.69 309.375 1172.09 311.969 1170.08 314.964L1170.5 315.242L1170.92 315.521C1173.04 312.351 1173.67 309.591 1174.03 306.792C1174.39 303.986 1174.47 301.23 1175.48 297.886L1175 297.742ZM1170.5 315.242L1170.13 314.907C1169.26 315.863 1167.97 317.764 1166.15 319.198C1164.37 320.602 1162.22 321.43 1159.71 320.287L1159.5 320.743L1159.29 321.198C1162.28 322.554 1164.83 321.514 1166.77 319.984C1168.67 318.485 1170.14 316.386 1170.87 315.578L1170.5 315.242ZM1159.5 320.743L1159.82 320.36C1151.74 313.538 1142.97 310.659 1135.95 309.284C1132.45 308.597 1129.37 308.285 1127.05 308.047C1125.88 307.927 1124.91 307.827 1124.17 307.709C1123.8 307.65 1123.49 307.588 1123.25 307.52C1123.01 307.451 1122.86 307.384 1122.79 307.332L1122.5 307.743L1122.22 308.154C1122.43 308.299 1122.69 308.402 1122.98 308.483C1123.27 308.566 1123.62 308.635 1124.01 308.697C1124.79 308.82 1125.79 308.923 1126.94 309.042C1129.27 309.28 1132.3 309.588 1135.76 310.265C1142.67 311.62 1151.26 314.447 1159.18 321.125L1159.5 320.743ZM1122.5 307.743L1122.79 307.332C1116.46 302.943 1109.41 299.679 1101.81 298.987L1101.77 299.485L1101.72 299.983C1109.1 300.654 1115.98 303.825 1122.22 308.154L1122.5 307.743ZM1101.77 299.485L1101.68 298.992C1101.72 298.985 1101.71 299.005 1101.61 298.951C1101.51 298.9 1101.39 298.823 1101.24 298.719C1101.11 298.625 1100.93 298.504 1100.76 298.417C1100.59 298.333 1100.34 298.234 1100.06 298.282L1100.15 298.775L1100.24 299.268C1100.19 299.275 1100.2 299.255 1100.31 299.309C1100.41 299.36 1100.52 299.437 1100.67 299.541C1100.81 299.635 1100.98 299.755 1101.15 299.843C1101.32 299.927 1101.57 300.026 1101.85 299.978L1101.77 299.485ZM1100.15 298.775L1100.18 298.276C1097.07 298.098 1094.48 296.987 1091.9 295.532C1090.6 294.801 1089.33 293.994 1087.98 293.174C1086.64 292.357 1085.24 291.534 1083.72 290.793L1083.5 291.242L1083.28 291.692C1084.76 292.412 1086.13 293.216 1087.46 294.028C1088.79 294.837 1090.09 295.661 1091.41 296.403C1094.05 297.891 1096.79 299.084 1100.12 299.274L1100.15 298.775ZM1083.5 291.242L1083.71 290.789C1071.23 285.009 1056.73 281.496 1044.16 277.269L1044 277.743L1043.84 278.217C1056.53 282.485 1070.87 285.945 1083.29 291.696L1083.5 291.242ZM1044 277.743L1044 277.243C1026.73 277.243 1020.55 278.154 1015.56 279.116C1010.63 280.069 1006.91 281.062 994.493 281.242L994.501 281.742L994.508 282.242C1007.01 282.061 1010.79 281.055 1015.75 280.098C1020.66 279.151 1026.77 278.243 1044 278.243L1044 277.743ZM994.501 281.742L994.486 281.242C984.345 281.529 969.47 278.25 954.85 273.474C940.24 268.701 925.961 262.459 917.02 256.865L916.755 257.289L916.49 257.713C925.524 263.365 939.886 269.638 954.54 274.425C969.184 279.209 984.194 282.534 994.515 282.242L994.501 281.742ZM916.755 257.289L917.04 256.879C916.641 256.602 916.135 256.534 915.786 256.481C915.376 256.418 915.123 256.37 914.951 256.25L914.666 256.661L914.381 257.072C914.78 257.348 915.286 257.416 915.635 257.469C916.045 257.532 916.298 257.581 916.47 257.7L916.755 257.289ZM914.666 256.661L914.867 256.203C914.143 255.884 913.599 255.418 913.078 254.907C912.576 254.414 912.046 253.822 911.429 253.394L911.144 253.805L910.859 254.215C911.383 254.579 911.807 255.061 912.377 255.62C912.928 256.161 913.574 256.727 914.465 257.119L914.666 256.661ZM911.144 253.805L911.392 253.37C909.717 252.414 893.856 244.126 878.019 235.851C862.164 227.566 846.332 219.293 844.677 218.348L844.429 218.782L844.181 219.216C845.858 220.173 861.719 228.462 877.556 236.737C893.412 245.023 909.242 253.295 910.896 254.239L911.144 253.805ZM844.429 218.782L844.728 218.381C824.809 203.529 819.41 199.219 813.536 195.559C807.675 191.907 801.301 188.879 779.468 176.593L779.223 177.029L778.978 177.465C800.876 189.787 807.166 192.768 813.007 196.408C818.834 200.039 824.172 204.302 844.13 219.183L844.429 218.782ZM779.223 177.029L779.449 176.583C778.933 176.322 777.285 175.276 775.026 173.806C772.784 172.347 769.975 170.492 767.165 168.637C764.355 166.781 761.543 164.925 759.297 163.463C757.068 162.012 755.359 160.925 754.781 160.632L754.555 161.078L754.329 161.524C754.845 161.786 756.493 162.831 758.752 164.301C760.995 165.761 763.803 167.615 766.614 169.471C769.423 171.326 772.235 173.183 774.481 174.644C776.711 176.096 778.419 177.183 778.997 177.475L779.223 177.029ZM754.555 161.078L754.801 160.643C748.457 157.057 744.433 154.151 740.384 151.174C736.329 148.194 732.245 145.141 725.804 141.288L725.547 141.717L725.29 142.147C731.686 145.972 735.737 149 739.792 151.98C743.852 154.965 747.914 157.899 754.309 161.514L754.555 161.078ZM725.547 141.717L725.832 141.307C720.773 137.795 715.196 130.947 711.67 125.634L711.253 125.911L710.837 126.187C714.385 131.534 720.046 138.507 725.262 142.128L725.547 141.717ZM711.253 125.911L711.671 125.636C710.51 123.871 710.3 122.087 710.716 120.261C711.136 118.413 712.2 116.511 713.614 114.559C715.025 112.608 716.753 110.649 718.472 108.673C720.182 106.707 721.883 104.724 723.2 102.758L722.785 102.48L722.369 102.201C721.092 104.107 719.433 106.045 717.717 108.017C716.01 109.98 714.247 111.977 712.804 113.972C711.361 115.965 710.205 117.996 709.74 120.04C709.271 122.105 709.511 124.172 710.836 126.186L711.253 125.911ZM722.785 102.48L723.2 102.758C723.247 102.688 723.28 102.639 723.304 102.604C723.33 102.566 723.338 102.556 723.336 102.558C723.335 102.56 723.333 102.562 723.33 102.566C723.327 102.569 723.321 102.577 723.312 102.586C723.311 102.588 723.282 102.62 723.239 102.652C723.231 102.658 723.149 102.722 723.023 102.742C722.95 102.749 722.779 102.721 722.688 102.678C722.605 102.616 722.496 102.471 722.467 102.398C722.426 102.267 722.452 102.158 722.454 102.148C722.461 102.115 722.47 102.091 722.473 102.08C722.482 102.057 722.49 102.04 722.492 102.035C722.498 102.023 722.503 102.015 722.503 102.015C722.503 102.013 722.498 102.022 722.484 102.046C722.458 102.088 722.421 102.147 722.388 102.2C722.372 102.225 722.357 102.249 722.346 102.267C722.34 102.276 722.335 102.285 722.33 102.293C722.328 102.296 722.324 102.303 722.32 102.311C722.318 102.313 722.313 102.323 722.306 102.336C722.304 102.34 722.296 102.357 722.287 102.379C722.283 102.391 722.272 102.425 722.267 102.447C722.259 102.49 722.261 102.639 722.289 102.741C722.417 102.927 722.771 103.057 722.926 103.027C722.982 103.003 723.058 102.955 723.08 102.937C723.112 102.91 723.133 102.884 723.135 102.882C723.148 102.867 723.156 102.855 723.158 102.853C723.164 102.845 723.169 102.838 723.171 102.834C723.177 102.826 723.185 102.815 723.192 102.803C723.209 102.779 723.234 102.741 723.269 102.688C723.339 102.58 723.454 102.405 723.63 102.134C723.984 101.591 724.589 100.662 725.594 99.119L725.175 98.8462L724.756 98.5734C723.751 100.117 723.146 101.045 722.793 101.588C722.616 101.859 722.502 102.033 722.433 102.139C722.398 102.192 722.374 102.227 722.36 102.248C722.353 102.26 722.349 102.265 722.348 102.267C722.347 102.269 722.349 102.265 722.353 102.259C722.354 102.258 722.362 102.247 722.374 102.233C722.376 102.231 722.397 102.205 722.429 102.178C722.451 102.16 722.527 102.112 722.583 102.088C722.738 102.058 723.091 102.188 723.219 102.374C723.248 102.476 723.25 102.626 723.242 102.668C723.237 102.69 723.226 102.724 723.221 102.736C723.213 102.758 723.205 102.774 723.203 102.778C723.197 102.79 723.192 102.799 723.191 102.801C723.188 102.806 723.187 102.809 723.187 102.807C723.188 102.806 723.191 102.802 723.196 102.794C723.205 102.778 723.219 102.757 723.235 102.731C723.266 102.681 723.307 102.616 723.336 102.569C723.349 102.548 723.365 102.521 723.377 102.5C723.38 102.495 723.387 102.483 723.394 102.467C723.397 102.461 723.405 102.443 723.414 102.419C723.418 102.408 723.427 102.383 723.434 102.35C723.436 102.34 723.462 102.23 723.421 102.099C723.392 102.026 723.283 101.881 723.2 101.819C723.109 101.777 722.938 101.749 722.864 101.755C722.738 101.775 722.656 101.839 722.647 101.846C722.604 101.878 722.575 101.911 722.572 101.914C722.556 101.932 722.544 101.948 722.541 101.952C722.514 101.986 722.459 102.068 722.369 102.201L722.785 102.48ZM725.175 98.8462L725.604 99.1017C728.906 93.5483 731.685 88.1622 735.979 82.9935L735.595 82.674L735.21 82.3545C730.85 87.6026 728.01 93.099 724.745 98.5907L725.175 98.8462ZM735.595 82.674L736.01 82.9524C736.405 82.3636 736.769 81.6562 737.117 80.9827C737.472 80.296 737.81 79.6432 738.166 79.111L737.751 78.8326L737.335 78.5543C736.941 79.143 736.576 79.8504 736.229 80.5239C735.874 81.2106 735.536 81.8635 735.179 82.3956L735.595 82.674ZM737.751 78.8326L738.153 79.1299C744.903 69.9991 751.035 60.3915 758.22 51.8679C765.387 43.3647 773.548 36.0123 784.271 31.4525L784.075 30.9924L783.88 30.5323C772.96 35.1756 764.679 42.6526 757.455 51.2234C750.248 59.7739 744.039 69.4849 737.349 78.5354L737.751 78.8326ZM784.075 30.9924L784.387 31.3835C787.552 28.8625 788.237 28.1687 788.862 27.593C789.453 27.0477 789.99 26.6085 792.92 24.5528L792.633 24.1435L792.346 23.7342C789.42 25.787 788.831 26.2613 788.184 26.8578C787.57 27.4239 786.904 28.1004 783.764 30.6013L784.075 30.9924Z" fill="#5A6B3B"/>
<path d="M5 774H2206V1005H5V774Z" fill="#F7F5EA"/>
</svg>
