<svg width="1653" height="1756" viewBox="0 0 1653 1756" fill="none" xmlns="http://www.w3.org/2000/svg">
<mask id="mask0_972_164" style="mask-type:alpha" maskUnits="userSpaceOnUse" x="0" y="0" width="1653" height="1756">
<rect x="1.31531" y="1.31689" width="1651.08" height="1753.94" fill="#D9D9D9" stroke="#F2FF00"/>
</mask>
<g mask="url(#mask0_972_164)">
<path d="M741.983 843.332C491.942 777.601 310.323 766.01 96.2156 814.239C-43.6106 845.736 -174.288 789.586 -220.185 1046.56C-292.795 1453.1 103.778 1044.22 291.576 1102.46C441.147 1148.84 539.945 963.504 827.012 1046.56C1114.08 1129.61 1266.47 1160.36 1588.98 1154.43C1846.98 1149.68 1902.11 1274.31 1903.3 1183.35C1895.03 1035.04 1974.75 803.334 1693.71 866.021C1475.97 914.59 1386.97 832.323 1148.19 866.021C936.711 895.867 844.33 870.237 741.983 843.332Z" fill="#F7F5EA"/>
<path d="M66.4794 831.009C71.2031 830.226 83.8076 828.636 94.9285 826.274C104.731 824.192 115.473 821.514 125.787 819.153C136.282 816.749 147.139 812.827 158.615 811.628C174.052 810.016 194.613 808.079 210.79 805.302C244.02 799.597 255.523 800.958 295.389 799.759C321.197 798.983 351.279 796.211 408.07 795.795C428.922 795.643 441.48 799.344 454.927 800.543C466.319 801.558 483.353 804.898 496.479 806.869C507.901 808.583 522.139 809.646 534.851 811.616C548.214 813.687 559.359 814.393 570.065 816.363C581.424 818.454 591.025 820.707 600.923 823.485C612.044 826.605 621.883 827.829 631.39 830.997C640.897 834.166 650.368 837.323 659.875 840.492C669.896 843.833 681.226 844.445 690.733 847.613C700.24 850.782 711.278 852.373 721.592 854.735C731.888 857.093 742.943 858.687 752.45 861.856C761.957 865.025 771.428 868.182 783.297 870.959C794.934 873.682 804.66 875.303 820.077 876.502C831.713 877.406 842.64 880.05 852.146 883.219C863.62 887.044 878.245 887.172 892.061 889.949C922.778 896.124 945.374 892.726 969.563 894.696C1020.53 898.847 1041.13 892.726 1062.94 890.756C1087.53 888.536 1082.03 888.966 1098.53 884.966C1101.31 884.292 1111.14 881.949 1118.03 880.966" stroke="#5A6B3B" stroke-width="2" stroke-linecap="round"/>
<path d="M1121.03 880.466C1122.53 879.966 1151.22 876.917 1166.64 875.719C1179.82 874.694 1191.6 872.953 1220.23 871.766C1246.49 870.678 1296.64 871.363 1323.64 871.755C1357.87 872.251 1371.93 876.11 1383.86 878.472C1398.75 881.421 1419.45 882.424 1460.48 883.623C1478.12 884.138 1490.67 887.172 1529.73 888.371C1538.16 888.762 1540.51 889.546 1548.78 889.949C1557.04 890.353 1569.98 889.949 1585.48 888.371" stroke="#5A6B3B" stroke-width="2" stroke-linecap="round"/>
<path d="M1116.98 880.975C1117.46 880.975 1118.43 880.929 1118.74 880.848C1119.18 880.735 1119.47 880.722 1119.75 880.641C1120.09 880.606 1120.32 880.537 1120.55 880.502C1120.69 880.49 1120.87 880.49 1121.06 880.352" stroke="#5A6B3B" stroke-width="2" stroke-linecap="round"/>
<path d="M1585.93 888.042C1587.15 888.042 1589.62 887.693 1591.82 887.426C1595.08 887.031 1598.95 886.636 1601.33 886.018C1602.6 885.687 1603.89 885.754 1610.87 885.49C1617.32 885.246 1629.71 885.4 1636.34 885.313C1644.75 885.202 1647.2 884.523 1651.07 884.256C1653.62 884.081 1656.36 883.287 1658.83 882.761C1660.96 882.308 1663.05 881.881 1665.61 881.176C1667.8 880.572 1669.92 880.296 1672.21 879.678C1675.29 878.849 1678.2 878.711 1680.93 878.444C1683.21 878.222 1685.24 877.475 1687.36 876.949C1689.48 876.423 1691.58 876.07 1694.23 875.451C1696.82 874.845 1698.98 874.485 1701.54 874.218C1703.81 873.98 1708.64 873.248 1712.19 872.723C1714.4 872.396 1717.46 871.663 1720.29 871.225C1723.44 870.737 1725.93 870.258 1730.24 869.991C1734.56 869.723 1740.19 869.201 1745.82 868.934C1751.27 868.493 1758.68 868.145 1771.32 867.878C1774.01 867.791 1774.53 867.616 1775.6 866.908" stroke="#5A6B3B" stroke-width="2" stroke-linecap="round"/>
<path d="M66.4127 830.881C61.9117 830.881 52.806 831.322 48.0554 831.66C43.9211 831.953 39.1864 832.659 33.3592 832.996C29.0032 833.248 24.2697 833.995 20.8129 834.777C16.361 835.784 13.2443 836 8.4936 836.337C5.1624 836.574 0.506652 837.563 -2.97284 838.228C-5.8105 838.77 -8.80658 839.341 -13.0157 840.123C-18.4631 841.134 -21.5572 841.345 -28.6815 841.683C-33.2584 841.9 -37.9915 842.682 -41.8763 843.464C-48.2623 844.749 -54.387 844.245 -58.8555 844.91C-62.2829 845.42 -65.2308 846.691 -69.1189 847.583C-73.0193 848.478 -76.4637 849.364 -79.6092 850.256C-82.948 851.203 -85.9845 852.036 -89.1203 852.929C-91.9302 853.728 -94.4157 855.377 -97.0132 856.934C-99.7115 858.552 -102.198 860.496 -104.796 862.835C-107.193 864.993 -109.981 866.51 -113.221 869.065C-119.724 874.196 -121.655 877.642 -124.252 879.653C-126.712 881.558 -128.789 883.883 -131.387 885.667C-133.984 887.451 -136.572 889.669 -139.383 891.236C-143.237 893.384 -145.651 895.91 -148.463 898.025C-152.73 901.235 -155.38 904.37 -158.298 907.042C-163.404 911.718 -166.613 916.825 -170.835 923.179C-174.479 928.664 -175.057 931.766 -176.143 934.442C-177.229 937.116 -178.948 940.225 -180.68 943.128C-182.255 945.769 -183.916 948.912 -185.868 953.479C-187.239 956.687 -188.897 959.162 -189.87 961.838C-190.973 964.872 -191.712 969.171 -192.357 973.084C-192.859 976.124 -193.437 979.208 -193.764 985.766C-193.942 989.319 -195.383 991.904 -196.355 994.58C-197.392 997.43 -199.053 999.922 -200.678 1003.15C-202.002 1005.79 -202.517 1009.05 -202.844 1014.73C-203.185 1020.63 -202.958 1028.65 -202.63 1032.44C-202.523 1033.34 -202.309 1034 -202.092 1034.78C-201.875 1035.56 -201.661 1036.45 -201.44 1038.69" stroke="#5A6B3B" stroke-width="2" stroke-linecap="round"/>
<rect x="-211.185" y="1088.25" width="2119" height="477" fill="#F7F5EA"/>
<rect x="380.815" y="935.255" width="678" height="274" fill="#F7F5EA"/>
<path d="M1235.27 1067.28L1197.41 1088.25H1295.56L1252.09 1067.28L1248.74 859.309L1253.14 804.392C1253.14 799.655 1306.86 742.337 1301.8 703.84L1292.02 665.287C1292.02 665.287 1283.15 640.221 1277.96 636.402C1273.43 633.071 1222.03 636.505 1215.15 639.416C1208.27 642.327 1202.9 660.091 1189.25 701.022C1179.3 730.861 1237.51 797.776 1237.51 804.392V860.888L1235.27 1067.28Z" fill="#F7F5EA"/>
<path d="M1369.01 1066.3L1339.11 1082.9L1421.54 1084.04L1385.78 1065.36L1383.65 1020.63L1382.64 885.563V835.317C1382.64 831.061 1431.07 779.529 1426.69 744.935L1416.64 711.269C1416.64 711.269 1407.6 684.639 1405.59 682.629C1403.58 680.619 1355.11 682.589 1351.32 685.643C1347.53 688.698 1341.24 705.649 1329.42 742.43C1320.81 769.242 1372.49 829.372 1372.49 835.317L1371.52 885.135L1369.01 1066.3Z" fill="#F7F5EA"/>
<path d="M1372.93 1064.51C1374.43 1049.94 1374.67 826.631 1374.67 826.631C1374.67 821.42 1326.04 768.718 1333.83 745.217C1344.52 712.979 1352.83 693.594 1353.88 692.105L1403.01 689.488L1414.33 717.071L1422 747.436C1425.96 777.756 1380.73 822.899 1380.73 826.631V871.056C1380.73 871.056 1379.46 1053.32 1383.48 1064.51" stroke="#5A6B3B" stroke-width="2"/>
<path d="M1333.96 748.552C1342.82 748.552 1351.84 747.999 1360.68 748.568C1364.54 748.816 1368.2 750.985 1372.11 751.374C1375.94 751.755 1379.95 751.39 1383.79 751.39C1388.29 751.39 1392.87 751.259 1397.23 749.971C1401.07 748.839 1405.51 747.984 1409.49 747.984C1411.18 747.984 1412.87 747.984 1414.55 747.984C1415 747.984 1415.26 747.951 1415.64 747.951C1415.82 747.951 1415.84 747.984 1416.38 747.984C1417.62 747.984 1420.76 747.654 1421.43 749.12" stroke="#5A6B3B" stroke-width="2" stroke-linecap="round"/>
<path d="M1367.98 816.114C1368.67 816.114 1369.35 816.648 1370 816.933C1371.07 817.399 1372.1 817.941 1373.18 818.352C1375.89 819.382 1378.69 819.171 1381.49 819.171C1382.62 819.171 1383.63 819.175 1384.68 818.649C1384.94 818.517 1385.47 818.376 1385.67 818.164C1385.86 817.969 1386.35 818.002 1386.44 817.752" stroke="#5A6B3B" stroke-width="2" stroke-linecap="round"/>
<path d="M1194.52 704.278C1204.72 704.278 1215.1 703.647 1225.28 704.296C1229.72 704.579 1233.94 707.054 1238.44 707.498C1242.85 707.932 1247.47 707.516 1251.89 707.516C1257.07 707.516 1262.34 707.366 1267.36 705.897C1271.78 704.605 1276.9 703.63 1281.47 703.63C1283.42 703.63 1285.36 703.63 1287.3 703.63C1287.81 703.63 1288.05 703.019 1288.48 703.019C1288.7 703.019 1288.79 703.63 1289.41 703.63C1290.84 703.63 1294.45 703.254 1295.22 704.925" stroke="#5A6B3B" stroke-width="2" stroke-linecap="round"/>
<path d="M1233.77 784.181C1234.61 784.181 1235.42 784.708 1236.2 784.99C1237.48 785.45 1238.72 785.987 1240.01 786.393C1243.24 787.411 1246.6 787.202 1249.96 787.202C1251.31 787.202 1252.52 787.206 1253.77 786.687C1254.08 786.556 1254.72 786.416 1254.96 786.207C1255.19 786.014 1255.77 786.047 1255.88 785.799" stroke="#5A6B3B" stroke-width="2" stroke-linecap="round"/>
<path d="M1237.76 1068.03C1239.72 996.002 1241.34 796.346 1241.34 796.346C1241.34 790.535 1185.26 731.763 1194.24 705.556C1206.57 669.606 1216.37 647.988 1217.58 646.328L1275.18 642.887L1287.07 674.169L1295.9 708.031C1300.47 741.843 1248.32 792.185 1248.32 796.346L1247.31 844.927C1247.31 844.927 1248.31 992.485 1248.31 1068.03" stroke="#5A6B3B" stroke-width="2"/>
<path d="M1384.99 688.496L1398.61 553.261L1395.06 549.098C1372.98 556.67 1370.36 644.836 1371.81 687.973L1384.99 688.496Z" fill="#F7F5EA"/>
<path d="M1526.59 393.809C1537.69 385.414 1798.58 236.705 1798.58 236.705C1803.93 235.758 1807.24 237.19 1808.4 238.315C1832.44 262.42 1852.82 312.559 1860.89 335.12C1864.14 344.115 1855.49 350.186 1852.68 353.109C1850.43 355.448 1842.66 360.53 1839.05 362.778L1595.79 505.566C1590.25 509.164 1583.81 511.989 1575.46 514.111C1559.33 518.213 1543.94 518.248 1532.86 512.312C1521.79 506.376 1513.5 509.716 1507.78 512.762C1502.06 515.808 1435.23 551.483 1427.56 556.16C1426.49 556.81 1426.9 558.008 1426.26 559.083C1423.47 563.806 1419.37 566.595 1413.93 565.829C1412.9 565.683 1412.29 565.875 1411.24 565.829C1409.91 565.77 1406.97 568.519 1405.28 568.753C1403.6 568.986 1402.07 568.567 1401.06 567.562C1400.06 566.558 1380.42 537.917 1380.42 532.55C1380.42 529.892 1382.9 527.687 1383.98 526.862C1385.06 526.038 1387 524.852 1389 522.842C1390.22 521.632 1390.9 521.065 1391.52 519.828C1392.02 518.823 1395.85 513.431 1400.96 512.762C1402.72 512.531 1404.34 513.604 1406.09 513.295C1409.1 512.762 1477.94 469.078 1481.46 466.565C1484.98 464.053 1489.47 458.345 1491.13 455.422C1492.86 426.279 1515.49 402.204 1526.59 393.809Z" fill="#F7F5EA"/>
<path d="M1521.99 403.64C1521.13 403.924 1519.41 405.07 1518.04 406.578C1516.74 408.01 1515.53 409.663 1513.88 411.388C1512.41 412.915 1511.22 414.833 1510.29 416.558C1509.31 418.345 1507.78 419.718 1506.84 421.297C1505.84 422.984 1505.33 424.742 1504.76 426.467C1504.18 428.193 1503.61 429.912 1503.03 431.637C1502.46 433.362 1501.88 435.081 1501.31 436.807C1500.73 438.532 1500.16 440.251 1499.59 441.977C1499.01 443.702 1498.44 445.421 1497.86 447.147C1497.29 448.872 1496.71 450.875 1496.5 453.105C1496.31 455.006 1494.71 456.622 1493.91 458.348C1493.07 460.196 1491.69 461.792 1490.47 463.447C1489.2 465.171 1487.1 466.531 1485.8 468.257C1484.64 469.804 1483.08 470.84 1481.5 471.779C1479.75 472.819 1478.05 474.286 1476.26 475.725C1474.07 477.476 1472.45 478.741 1470.73 479.82C1469.16 480.797 1467.28 481.326 1465.56 482.547C1463.68 483.872 1462.11 485.203 1460.39 486.282C1458.78 487.289 1456.94 488.219 1455.22 489.298C1453.49 490.089 1451.77 490.95 1450.05 491.954C1449.61 492.243 1449.19 492.527 1448.75 492.82" stroke="#5A6B3B" stroke-width="2" stroke-linecap="round"/>
<path d="M1448.75 492.82C1447.89 492.962 1446.17 493.535 1444.45 494.539C1442.58 495.623 1441 497.266 1439.28 498.417C1437.61 499.525 1435.83 500.282 1434.11 501.432C1432.38 502.583 1430.66 503.729 1428.94 504.879C1427.21 506.029 1425.49 507.175 1423.77 508.326C1422.1 509.434 1420.32 509.907 1418.6 510.91C1416.73 511.995 1415.15 513.353 1413.43 514.357C1411.7 515.362 1409.98 515.938 1408.26 516.513C1406.53 517.088 1401.97 517.377 1398.78 518.306C1396.49 518.973 1395.62 521.677 1394.04 522.973C1392.37 524.342 1390.6 525.701 1388.58 527.637C1386.99 529.175 1386.14 531.155 1385.49 533.307C1384.37 537.025 1385.92 538.703 1386.49 540.429C1387.08 542.201 1388.18 543.805 1389.01 545.453C1390.08 547.614 1390.51 548.468 1392.16 550.617C1393.3 552.096 1394.17 553.988 1395.32 555.714C1396.47 557.439 1396.33 556.863 1397.55 558.518C1397.91 558.88 1397.55 558.518 1398.55 560.025" stroke="#5A6B3B" stroke-width="2" stroke-linecap="round"/>
<path d="M1398.55 560.026C1398.84 560.883 1401.8 563.467 1402.57 564.045C1404.58 565.553 1406.95 564.914 1409.03 564.052C1412.3 562.699 1415.69 563.475 1418.15 562.975C1420.11 562.577 1420.88 560.037 1421.67 558.311C1422.52 556.463 1424.18 554.867 1425.91 553.212C1427.43 551.749 1429.35 551.127 1431.08 549.766C1432.74 548.456 1434.52 547.396 1436.25 546.604C1438.1 545.755 1439.69 544.381 1441.42 543.588C1443.26 542.739 1444.86 541.649 1446.59 540.288C1448.25 538.978 1450.03 537.918 1451.76 537.126C1453.6 536.276 1455.2 534.903 1456.93 533.823C1458.54 532.817 1460.37 531.887 1462.1 530.737C1463.76 529.628 1465.54 528.871 1467.27 527.721C1468.93 526.612 1470.71 525.855 1472.44 525.063C1474.22 524.243 1475.88 523.555 1477.61 522.622C1479.34 521.682 1481.48 521.401 1483.21 520.468C1484.83 519.591 1486.65 519.247 1488.38 518.314C1490 517.437 1491.82 516.808 1493.55 516.086C1495.22 515.385 1496.82 513.87 1498.55 513.295C1499.4 513.009 1500.2 512.361 1501.06 511.788C1501.49 511.499 1503.2 510.574 1504.07 510.281" stroke="#5A6B3B" stroke-width="2" stroke-linecap="round"/>
<path d="M1504.09 509.938C1504.57 509.858 1505.54 509.536 1506.51 509.212C1507.51 508.88 1508.45 508.324 1509.42 507.96C1510.45 507.573 1511.36 507.112 1512.33 506.828C1513.27 506.553 1514.26 506.384 1515.24 506.1C1516.18 505.826 1517.17 505.657 1519.15 505.534C1522.41 505.333 1527.6 505.492 1528.57 505.816C1529.54 506.139 1530.51 506.302 1531.48 506.704C1532.4 507.087 1533.42 507.432 1534.39 507.795C1535.42 508.183 1536.33 508.644 1537.3 509.007C1538.33 509.395 1539.24 510.016 1540.21 510.422C1541.15 510.817 1542.15 511.068 1543.24 511.352C1544.77 511.75 1545.78 511.796 1546.96 511.918C1548.22 512.05 1549.66 512.281 1557.48 512.323C1560.02 512.337 1561.3 511.961 1562.27 511.838C1563.27 511.712 1564.21 511.393 1565.18 510.991C1566.09 510.614 1567.12 510.506 1568.09 510.383C1569.09 510.257 1570.03 509.778 1571 509.656C1572.06 509.522 1573.18 509.294 1574.15 508.97C1575.12 508.646 1576.09 508.324 1577.1 508C1578.26 507.629 1579.24 507.354 1580.21 507.03C1581.18 506.707 1582.15 506.384 1583.12 506.06C1584.12 505.728 1585.06 505.172 1586.03 504.647C1586.94 504.154 1587.97 503.8 1588.94 503.192C1589.82 502.642 1590.88 502.505 1591.85 502.141C1592.92 501.74 1593.79 501.05 1594.76 500.525C1595.7 500.017 1596.7 499.595 1597.67 499.031C1598.68 498.444 1599.61 497.898 1600.58 497.333C1601.59 496.747 1602.52 496.201 1603.49 495.676C1604.43 495.168 1605.43 494.746 1606.4 494.423C1607.47 494.067 1607.61 493.761 1608.59 493.196C1609.48 492.469 1610.82 492.172 1611.1 491.689C1611.22 491.445 1613.53 490.428 1613.61 490.181" stroke="#5A6B3B" stroke-width="2" stroke-linecap="round"/>
<path d="M1372.92 1064.45C1372.92 1065.25 1372.57 1066.76 1372.29 1067.27C1372.02 1067.77 1371.71 1068.3 1371.35 1068.82C1370.95 1069.37 1370.47 1069.76 1370.06 1070.21C1369.66 1070.66 1369.27 1071.13 1368.8 1071.43C1368.24 1071.79 1367.77 1072.12 1367.26 1072.29C1366.74 1072.46 1366.23 1072.72 1365.71 1073.06C1365.2 1073.4 1364.69 1073.66 1364.17 1073.96C1363.66 1074.26 1363.06 1074.51 1362.5 1074.86C1361.99 1075.17 1361.47 1075.33 1360.96 1075.52C1360.41 1075.73 1359.93 1076.06 1359.42 1076.27C1358.92 1076.48 1358.39 1076.62 1357.66 1076.7C1357.05 1076.77 1356.59 1077.13 1356.07 1077.3C1355.56 1077.47 1355.05 1077.64 1354.42 1077.71C1353.87 1077.77 1353.37 1078.03 1352.75 1078.09C1352.2 1078.15 1351.62 1078.33 1351.06 1078.56C1350.53 1078.79 1349.9 1078.8 1349.39 1078.97C1348.87 1079.14 1348.36 1079.4 1347.85 1079.66C1347.27 1079.95 1346.18 1080.26 1345.79 1080.59C1345.22 1081.06 1346.47 1081.33 1347.3 1081.39C1348.35 1081.48 1351.28 1081.53 1352.33 1081.59C1353.59 1081.67 1355.68 1081.33 1357.21 1081.39C1358.61 1081.45 1361.29 1081.42 1362.73 1081.39C1364.3 1081.37 1365.62 1081.29 1367.48 1081.27C1368.28 1081.26 1369.68 1081.16 1371.7 1081.14C1372.44 1081.13 1372.61 1081.07 1375.83 1081.05C1379.06 1081.03 1385.34 1081.03 1388.64 1081.05C1391.94 1081.07 1392.06 1081.11 1393.32 1081.14C1394.57 1081.16 1396.95 1081.16 1398.23 1081.14C1400.21 1081.1 1401.32 1080.94 1401.94 1080.88C1402.57 1080.81 1403.25 1080.69 1404.4 1080.62C1405.22 1080.58 1406.07 1080.43 1407.55 1080.37C1409.41 1080.28 1412.12 1080.17 1412.29 1079.98C1412.45 1079.81 1412.21 1079.49 1412.08 1079.25C1411.79 1078.73 1411.09 1078.55 1410.58 1078.33C1410.08 1078.12 1409.55 1077.9 1409.04 1077.69C1408.54 1077.48 1408.01 1077.26 1407.49 1077.02C1406.96 1076.78 1406.47 1076.57 1405.95 1076.3C1405.47 1076.03 1404.92 1075.93 1404.41 1075.76C1403.88 1075.58 1403.38 1075.29 1402.87 1075.12C1402.35 1074.95 1401.84 1074.77 1401.32 1074.6C1400.81 1074.43 1400.3 1074.26 1399.78 1074.09C1399.27 1073.92 1398.67 1073.75 1398.11 1073.57C1397.59 1073.42 1397 1073.23 1396.31 1073.06C1395.61 1072.89 1394.85 1072.5 1394.23 1072.27C1393.59 1072.03 1393.1 1071.73 1392.58 1071.52C1392.07 1071.3 1391.55 1071.05 1391.04 1070.85C1390.47 1070.64 1390.01 1070.19 1389.5 1069.95C1388.94 1069.7 1388.47 1069.29 1387.95 1068.97C1387.47 1068.67 1386.93 1068.39 1386.41 1068.03C1385.85 1067.63 1385.38 1067.23 1384.89 1066.76C1384.43 1066.33 1384.18 1065.73 1383.95 1065.22C1383.88 1065.09 1383.8 1064.96 1383.73 1064.83C1383.67 1064.71 1383.62 1064.58 1383.58 1064.45" stroke="#5A6B3B" stroke-width="2" stroke-linecap="round"/>
<path d="M1625.99 338.435C1625.13 338.719 1623.41 339.865 1621.69 341.015C1619.96 342.165 1618.24 343.311 1616.52 344.462C1614.85 345.57 1613.07 346.327 1611.35 347.764C1609.86 348.999 1607.9 349.774 1606.18 350.495C1604.45 351.216 1602.73 352.074 1601.01 353.078C1599.22 354.121 1597.56 355.374 1595.84 356.454C1594.23 357.46 1592.39 358.39 1590.67 359.54C1588.94 360.691 1587.22 361.837 1585.5 362.916C1583.89 363.922 1582.05 364.852 1580.33 366.003C1578.6 367.153 1576.88 368.299 1575.16 369.378C1573.55 370.385 1571.43 371.883 1569.56 372.898C1567.96 373.765 1566.11 374.331 1564.39 375.41C1562.78 376.416 1560.94 377.346 1559.22 378.139C1557.43 378.958 1555.77 379.931 1554.05 380.724C1552.2 381.573 1550.6 382.947 1548.88 383.74C1547.03 384.589 1545.43 385.678 1543.71 386.753C1541.84 387.918 1540.26 388.978 1538.54 390.058C1536.98 391.035 1534.81 392.132 1533.01 393.646C1531.53 394.89 1529.92 395.872 1528.2 397.022C1526.62 398.314 1525.19 399.749 1523.82 401.257C1523.46 401.619 1523.03 401.903 1522.16 403.058" stroke="#5A6B3B" stroke-width="2" stroke-linecap="round"/>
<path d="M1626.81 337.752C1627.68 337.607 1629.44 337.022 1631.2 336.069C1632.91 335.146 1634.72 334.38 1636.48 333.355C1638.25 332.328 1640 331.739 1641.77 330.786C1643.47 329.864 1645.29 328.808 1647.05 327.633C1648.81 326.457 1650.57 325.286 1652.33 324.184C1653.97 323.155 1655.85 322.205 1657.61 321.395C1659.43 320.558 1661.13 319.564 1662.82 318.316C1664.5 317.08 1665.97 315.893 1667.74 314.94C1669.44 314.018 1671.26 312.961 1673.02 311.786C1674.78 310.611 1676.54 309.44 1678.3 308.264C1680.06 307.089 1681.82 306.209 1683.58 305.621C1685.39 305.017 1687.1 304.008 1688.87 303.055C1690.52 302.159 1692.38 301.517 1694.15 300.707C1695.97 299.869 1697.67 299.166 1699.43 298.213C1701.14 297.291 1702.95 296.234 1704.71 295.424C1706.6 294.557 1708.23 293.444 1709.99 292.418C1711.76 291.243 1713.51 290.072 1715.28 288.969C1715.72 288.747 1716.15 288.602 1717.04 288.012" stroke="#5A6B3B" stroke-width="2" stroke-linecap="round"/>
<path d="M1665 456.192C1663.41 456.719 1660.22 458.315 1657.03 460.174C1653.76 462.078 1651.45 465.225 1648.25 466.825C1644.68 468.614 1641.87 470.811 1638.67 472.942C1635.48 475.073 1632.29 477.195 1629.1 479.326C1626.02 481.379 1622.72 482.781 1619.65 485.043C1618.98 485.71 1618.46 486.5 1617.79 487.17C1617.12 487.84 1616.33 488.367 1614.72 489.708" stroke="#5A6B3B" stroke-width="2" stroke-linecap="round"/>
<path d="M1237.76 1068.03C1237.76 1068.88 1237.08 1070.5 1236.76 1071.04C1236.45 1071.57 1235.67 1072.51 1235.25 1073.05C1234.8 1073.64 1234.21 1074.08 1233.74 1074.56C1233.27 1075.03 1232.66 1075.07 1232.12 1075.39C1231.47 1075.77 1230.94 1076.11 1230.35 1076.29C1229.76 1076.47 1229.17 1076.74 1228.58 1077.1C1227.99 1077.47 1227.41 1077.74 1226.82 1078.05C1226.23 1078.37 1225.54 1078.64 1224.9 1079C1224.32 1079.33 1223.73 1079.5 1223.14 1079.7C1222.51 1079.92 1221.96 1080.27 1221.37 1080.49C1220.8 1080.71 1220.19 1080.86 1219.36 1080.95C1218.66 1081.02 1218.13 1081.4 1217.54 1081.58C1216.95 1081.76 1216.37 1081.94 1215.65 1082.01C1215.02 1082.07 1214.45 1082.35 1213.74 1082.41C1213.11 1082.48 1212.44 1082.66 1211.8 1082.91C1211.19 1083.15 1210.48 1083.16 1209.89 1083.34C1209.3 1083.52 1208.71 1083.79 1208.12 1084.06C1207.46 1084.37 1206.21 1084.7 1205.77 1085.04C1205.12 1085.54 1206.54 1085.83 1207.5 1085.89C1208.7 1085.98 1212.05 1086.03 1213.25 1086.1C1214.7 1086.18 1217.1 1085.83 1218.85 1085.89C1220.45 1085.96 1223.51 1085.92 1225.16 1085.89C1226.96 1085.87 1228.47 1085.78 1230.6 1085.76C1231.53 1085.75 1233.13 1085.64 1235.44 1085.62C1236.28 1085.61 1236.48 1085.56 1240.17 1085.53C1243.87 1085.51 1251.06 1085.51 1254.83 1085.53C1258.61 1085.55 1258.76 1085.6 1260.19 1085.62C1261.63 1085.64 1264.35 1085.64 1265.82 1085.62C1268.08 1085.59 1269.36 1085.42 1270.07 1085.35C1270.79 1085.28 1271.56 1085.15 1272.89 1085.08C1273.83 1085.03 1274.8 1084.88 1276.49 1084.81C1278.62 1084.72 1281.72 1084.61 1281.92 1084.4C1282.1 1084.22 1281.82 1083.88 1281.68 1083.64C1281.35 1083.08 1280.55 1082.89 1279.96 1082.66C1279.39 1082.44 1278.78 1082.21 1278.19 1081.99C1277.62 1081.77 1277.02 1081.54 1276.43 1081.29C1275.82 1081.03 1275.25 1080.81 1274.66 1080.52C1274.11 1080.24 1273.48 1080.13 1272.89 1079.95C1272.29 1079.77 1271.72 1079.46 1271.13 1079.28C1270.54 1079.09 1269.95 1078.91 1269.36 1078.73C1268.77 1078.55 1268.18 1078.37 1267.6 1078.19C1267.01 1078.01 1266.32 1077.83 1265.68 1077.65C1265.09 1077.48 1264.41 1077.29 1263.62 1077.11C1262.82 1076.92 1261.95 1076.52 1261.24 1076.27C1260.51 1076.02 1259.94 1075.71 1259.35 1075.48C1258.76 1075.25 1258.17 1074.98 1257.58 1074.78C1256.93 1074.56 1256.41 1074.08 1255.82 1073.83C1255.19 1073.56 1254.64 1073.13 1254.05 1072.79C1253.5 1072.48 1252.87 1072.18 1252.28 1071.8C1251.65 1071.38 1251.11 1070.96 1250.54 1070.47C1250.02 1070.01 1249.82 1070.04 1249.32 1069.53C1249.21 1069.42 1248.82 1069.03 1248.82 1069.03C1248.82 1069.03 1248.31 1068.53 1248.31 1068.03" stroke="#5A6B3B" stroke-width="2" stroke-linecap="round"/>
</g>
</svg>
