<svg width="1654" height="1148" viewBox="0 0 1654 1148" fill="none" xmlns="http://www.w3.org/2000/svg">
<mask id="mask0_972_219" style="mask-type:alpha" maskUnits="userSpaceOnUse" x="0" y="-147" width="1654" height="1756">
<rect x="1.48389" y="-146.214" width="1651.08" height="1753.94" fill="#D9D9D9" stroke="#F2FF00"/>
</mask>
<g mask="url(#mask0_972_219)">
<path d="M742.152 695.801C492.111 630.07 310.492 618.479 96.3843 666.708C-43.4419 698.205 -174.119 642.056 -220.016 899.027C-292.627 1305.57 103.947 896.691 291.744 954.925C441.316 1001.31 540.114 815.973 827.18 899.027C1114.25 982.08 1266.64 1012.83 1589.14 1006.9C1847.15 1002.15 1902.28 1126.78 1903.46 1035.82C1895.19 887.508 1974.92 655.803 1693.88 718.49C1476.14 767.06 1387.13 684.792 1148.36 718.49C936.879 748.336 844.499 722.706 742.152 695.801Z" fill="#F7F5EA"/>
<path d="M66.6479 683.479C71.3717 682.695 83.9761 681.105 95.097 678.743C104.899 676.661 115.642 673.984 125.955 671.622C136.451 669.218 147.307 665.296 158.784 664.097C174.221 662.485 194.782 660.548 210.958 657.771C244.188 652.066 255.691 653.427 295.558 652.228C321.366 651.452 351.447 648.68 408.239 648.264C429.091 648.112 441.649 651.813 455.096 653.012C466.487 654.027 483.521 657.368 496.648 659.338C508.07 661.052 522.308 662.115 535.019 664.085C548.383 666.156 559.528 666.862 570.233 668.833C581.593 670.923 591.193 673.177 601.092 675.954C612.212 679.074 622.052 680.298 631.559 683.467C641.065 686.636 650.537 689.793 660.043 692.962C670.064 696.302 681.395 696.914 690.902 700.083C700.408 703.252 711.446 704.842 721.76 707.204C732.057 709.562 743.112 711.156 752.619 714.325C762.125 717.494 771.596 720.651 783.465 723.428C795.102 726.151 804.829 727.772 820.246 728.971C831.881 729.876 842.808 732.52 852.315 735.689C863.789 739.513 878.414 739.641 892.229 742.418C922.946 748.593 945.543 745.195 969.731 747.166C1020.69 751.317 1041.3 745.195 1063.11 743.225C1087.69 741.005 1082.19 741.436 1098.69 737.436C1101.47 736.762 1111.31 734.418 1118.19 733.436" stroke="#5A6B3B" stroke-width="2" stroke-linecap="round"/>
<path d="M1121.19 732.936C1122.69 732.436 1151.39 729.387 1166.81 728.188C1179.99 727.163 1191.77 725.423 1220.4 724.236C1246.65 723.147 1296.81 723.832 1323.81 724.224C1358.04 724.72 1372.1 728.58 1384.03 730.941C1398.92 733.89 1419.62 734.894 1460.65 736.092C1478.29 736.608 1490.83 739.641 1529.89 740.84C1538.33 741.232 1540.68 742.015 1548.94 742.418C1557.2 742.822 1570.15 742.418 1585.65 740.84" stroke="#5A6B3B" stroke-width="2" stroke-linecap="round"/>
<path d="M1117.14 733.444C1117.62 733.444 1118.6 733.398 1118.91 733.318C1119.34 733.204 1119.63 733.191 1119.92 733.11C1120.26 733.075 1120.49 733.006 1120.72 732.971C1120.86 732.96 1121.04 732.96 1121.23 732.821" stroke="#5A6B3B" stroke-width="2" stroke-linecap="round"/>
<path d="M1586.1 740.511C1587.32 740.511 1589.78 740.162 1591.99 739.896C1595.25 739.501 1599.11 739.106 1601.5 738.487C1602.77 738.156 1604.05 738.223 1611.04 737.959C1617.49 737.715 1629.87 737.869 1636.51 737.782C1644.92 737.672 1647.37 736.992 1651.24 736.725C1653.79 736.55 1656.52 735.756 1659 735.23C1661.13 734.777 1663.22 734.351 1665.78 733.645C1667.96 733.041 1670.09 732.766 1672.38 732.147C1675.46 731.318 1678.37 731.181 1681.1 730.914C1683.38 730.691 1685.41 729.944 1687.53 729.419C1689.65 728.893 1691.75 728.539 1694.39 727.921C1696.99 727.315 1699.15 726.954 1701.7 726.687C1703.98 726.449 1708.81 725.718 1712.36 725.192C1714.57 724.865 1717.63 724.132 1720.46 723.694C1723.61 723.206 1726.1 722.727 1730.4 722.46C1734.73 722.193 1740.36 721.67 1745.98 721.404C1751.43 720.962 1758.85 720.614 1771.49 720.347C1774.18 720.26 1774.7 720.085 1775.77 719.377" stroke="#5A6B3B" stroke-width="2" stroke-linecap="round"/>
<path d="M66.5813 683.351C62.0803 683.351 52.9746 683.792 48.224 684.129C44.0896 684.423 39.355 685.128 33.5277 685.465C29.1718 685.718 24.4382 686.464 20.9814 687.246C16.5295 688.253 13.4128 688.469 8.66218 688.806C5.33098 689.043 0.675231 690.033 -2.80426 690.697C-5.64192 691.24 -8.638 691.81 -12.8471 692.592C-18.2945 693.604 -21.3886 693.815 -28.5129 694.152C-33.0898 694.369 -37.8229 695.151 -41.7078 695.933C-48.0937 697.218 -54.2184 696.715 -58.6869 697.379C-62.1144 697.889 -65.0622 699.16 -68.9503 700.052C-72.8507 700.947 -76.2951 701.833 -79.4406 702.725C-82.7795 703.672 -85.8159 704.506 -88.9517 705.398C-91.7616 706.197 -94.2471 707.847 -96.8446 709.404C-99.5429 711.021 -102.03 712.965 -104.627 715.304C-107.025 717.463 -109.812 718.979 -113.052 721.535C-119.555 726.665 -121.486 730.111 -124.084 732.122C-126.543 734.027 -128.62 736.352 -131.218 738.136C-133.815 739.92 -136.403 742.139 -139.215 743.706C-143.068 745.853 -145.483 748.38 -148.294 750.494C-152.562 753.704 -155.211 756.839 -158.13 759.512C-163.235 764.188 -166.444 769.294 -170.666 775.649C-174.31 781.133 -174.888 784.235 -175.975 786.911C-177.06 789.585 -178.78 792.694 -180.511 795.598C-182.086 798.238 -183.748 801.381 -185.7 805.948C-187.071 809.156 -188.728 811.631 -189.701 814.307C-190.804 817.341 -191.543 821.641 -192.188 825.553C-192.69 828.594 -193.268 831.677 -193.596 838.235C-193.773 841.788 -195.214 844.373 -196.187 847.049C-197.223 849.899 -198.885 852.391 -200.509 855.622C-201.834 858.255 -202.348 861.519 -202.676 867.195C-203.016 873.101 -202.789 881.124 -202.462 884.909C-202.355 885.808 -202.141 886.469 -201.923 887.251C-201.706 888.033 -201.492 888.915 -201.271 891.16" stroke="#5A6B3B" stroke-width="2" stroke-linecap="round"/>
<rect x="-211.016" y="940.724" width="2119" height="477" fill="#F7F5EA"/>
<rect x="380.984" y="787.724" width="678" height="274" fill="#F7F5EA"/>
<path d="M1235.44 919.747L1197.58 940.724H1295.72L1252.26 919.747L1248.91 711.778L1253.31 656.861C1253.31 652.124 1307.03 594.807 1301.97 556.31L1292.19 517.756C1292.19 517.756 1283.32 492.69 1278.13 488.871C1273.6 485.541 1222.2 488.975 1215.32 491.886C1208.43 494.797 1203.07 512.56 1189.42 553.492C1179.47 583.33 1237.68 650.245 1237.68 656.861V713.357L1235.44 919.747Z" fill="#F7F5EA"/>
<path d="M1369.18 918.769L1339.28 935.365L1421.71 936.512L1385.95 917.833L1383.82 873.097L1382.81 738.032V687.787C1382.81 683.53 1431.24 631.998 1426.86 597.404L1416.81 563.739C1416.81 563.739 1407.76 537.108 1405.75 535.098C1403.74 533.088 1355.28 535.058 1351.49 538.113C1347.7 541.168 1341.41 558.118 1329.59 594.899C1320.98 621.712 1372.66 681.842 1372.66 687.787L1371.69 737.604L1369.18 918.769Z" fill="#F7F5EA"/>
<path d="M1373.1 916.977C1374.6 902.405 1374.84 679.1 1374.84 679.1C1374.84 673.889 1326.21 621.187 1334 597.686C1344.69 565.449 1353 546.063 1354.05 544.574L1403.18 541.958L1414.5 569.541L1422.16 599.906C1426.13 630.226 1380.9 675.369 1380.9 679.1V723.525C1380.9 723.525 1379.63 905.79 1383.65 916.977" stroke="#5A6B3B" stroke-width="2"/>
<path d="M1334.13 601.021C1342.99 601.021 1352.01 600.468 1360.85 601.037C1364.71 601.285 1368.37 603.455 1372.28 603.844C1376.11 604.224 1380.12 603.859 1383.96 603.859C1388.46 603.859 1393.04 603.728 1397.4 602.44C1401.24 601.308 1405.68 600.454 1409.66 600.454C1411.35 600.454 1413.03 600.454 1414.72 600.454C1415.17 600.454 1415.43 600.42 1415.81 600.42C1415.99 600.42 1416.01 600.454 1416.55 600.454C1417.79 600.454 1420.93 600.124 1421.6 601.589" stroke="#5A6B3B" stroke-width="2" stroke-linecap="round"/>
<path d="M1368.14 668.583C1368.84 668.583 1369.52 669.117 1370.17 669.402C1371.24 669.868 1372.27 670.41 1373.35 670.821C1376.05 671.851 1378.86 671.64 1381.66 671.64C1382.79 671.64 1383.8 671.644 1384.84 671.119C1385.11 670.986 1385.64 670.845 1385.84 670.633C1386.03 670.438 1386.51 670.472 1386.61 670.221" stroke="#5A6B3B" stroke-width="2" stroke-linecap="round"/>
<path d="M1194.68 556.747C1204.89 556.747 1215.27 556.116 1225.45 556.765C1229.89 557.048 1234.11 559.523 1238.61 559.967C1243.02 560.401 1247.63 559.985 1252.06 559.985C1257.24 559.985 1262.51 559.835 1267.53 558.366C1271.95 557.075 1277.06 556.099 1281.64 556.099C1283.58 556.099 1285.53 556.099 1287.47 556.099C1287.98 556.099 1288.22 555.488 1288.65 555.488C1288.86 555.488 1288.96 556.099 1289.58 556.099C1291.01 556.099 1294.62 555.723 1295.39 557.395" stroke="#5A6B3B" stroke-width="2" stroke-linecap="round"/>
<path d="M1233.94 636.65C1234.78 636.65 1235.59 637.178 1236.37 637.459C1237.64 637.919 1238.88 638.456 1240.18 638.862C1243.41 639.88 1246.77 639.671 1250.12 639.671C1251.48 639.671 1252.69 639.676 1253.94 639.156C1254.25 639.025 1254.89 638.886 1255.13 638.676C1255.35 638.483 1255.94 638.516 1256.05 638.269" stroke="#5A6B3B" stroke-width="2" stroke-linecap="round"/>
<path d="M1237.93 920.495C1239.89 848.472 1241.51 648.815 1241.51 648.815C1241.51 643.004 1185.43 584.233 1194.41 558.025C1206.74 522.075 1216.54 500.457 1217.75 498.797L1275.34 495.356L1287.24 526.639L1296.07 560.5C1300.64 594.313 1248.49 644.655 1248.49 648.815L1247.47 697.397C1247.47 697.397 1248.48 844.954 1248.48 920.495" stroke="#5A6B3B" stroke-width="2"/>
<path d="M1385.16 540.965L1398.78 405.73L1395.23 401.567C1373.15 409.139 1370.53 497.306 1371.98 540.442L1385.16 540.965Z" fill="#F7F5EA"/>
<path d="M1526.76 246.279C1537.86 237.884 1798.75 89.1744 1798.75 89.1744C1804.1 88.2272 1807.41 89.6595 1808.57 90.7838C1832.61 114.889 1852.99 165.028 1861.06 187.589C1864.31 196.584 1855.66 202.655 1852.84 205.578C1850.6 207.917 1842.83 212.999 1839.22 215.247L1595.96 358.035C1590.42 361.633 1583.98 364.458 1575.63 366.58C1559.49 370.683 1544.1 370.718 1533.03 364.781C1521.96 358.845 1513.67 362.185 1507.95 365.231C1502.23 368.277 1435.4 403.953 1427.73 408.629C1426.66 409.279 1427.06 410.478 1426.43 411.553C1423.63 416.275 1419.54 419.064 1414.1 418.299C1413.07 418.152 1412.46 418.345 1411.41 418.299C1410.08 418.24 1407.14 420.988 1405.45 421.222C1403.77 421.455 1402.24 421.037 1401.23 420.032C1400.23 419.027 1380.59 390.386 1380.59 385.019C1380.59 382.361 1383.07 380.156 1384.15 379.331C1385.23 378.507 1387.16 377.322 1389.17 375.312C1390.38 374.101 1391.07 373.534 1391.69 372.297C1392.19 371.292 1396.02 365.9 1401.13 365.231C1402.89 365 1404.51 366.074 1406.26 365.765C1409.27 365.231 1478.11 321.547 1481.63 319.035C1485.15 316.522 1489.64 310.814 1491.3 307.891C1493.03 278.749 1515.66 254.673 1526.76 246.279Z" fill="#F7F5EA"/>
<path d="M1522.16 256.109C1521.3 256.394 1519.58 257.54 1518.21 259.048C1516.91 260.479 1515.7 262.132 1514.05 263.858C1512.58 265.384 1511.39 267.302 1510.45 269.028C1509.48 270.814 1507.95 272.188 1507.01 273.767C1506 275.453 1505.5 277.211 1504.92 278.936C1504.35 280.662 1503.78 282.381 1503.2 284.106C1502.63 285.832 1502.05 287.551 1501.48 289.276C1500.9 291.002 1500.33 292.721 1499.76 294.446C1499.18 296.171 1498.61 297.89 1498.03 299.616C1497.46 301.341 1496.88 303.345 1496.67 305.574C1496.48 307.476 1494.88 309.092 1494.08 310.817C1493.23 312.665 1491.86 314.262 1490.64 315.916C1489.37 317.64 1487.27 319.001 1485.97 320.726C1484.81 322.273 1483.24 323.309 1481.66 324.248C1479.92 325.288 1478.22 326.755 1476.42 328.194C1474.24 329.945 1472.62 331.21 1470.89 332.289C1469.33 333.267 1467.45 333.795 1465.72 335.016C1463.85 336.341 1462.28 337.672 1460.55 338.752C1458.95 339.758 1457.11 340.688 1455.38 341.767C1453.66 342.558 1451.94 343.42 1450.21 344.423C1449.78 344.712 1449.36 344.996 1448.92 345.289" stroke="#5A6B3B" stroke-width="2" stroke-linecap="round"/>
<path d="M1448.92 345.29C1448.06 345.432 1446.34 346.005 1444.61 347.009C1442.75 348.093 1441.17 349.736 1439.44 350.886C1437.78 351.994 1436 352.751 1434.27 353.902C1432.55 355.052 1430.83 356.198 1429.11 357.348C1427.38 358.499 1425.66 359.644 1423.94 360.795C1422.27 361.903 1420.49 362.376 1418.77 363.38C1416.9 364.464 1415.32 365.822 1413.6 366.826C1411.87 367.831 1410.15 368.407 1408.43 368.983C1406.7 369.558 1402.14 369.846 1398.95 370.775C1396.65 371.442 1395.79 374.146 1394.21 375.443C1392.54 376.811 1390.76 378.17 1388.75 380.106C1387.15 381.644 1386.31 383.624 1385.66 385.776C1384.53 389.494 1386.09 391.172 1386.66 392.898C1387.25 394.671 1388.35 396.274 1389.17 397.923C1390.25 400.084 1390.68 400.937 1392.33 403.086C1393.46 404.566 1394.34 406.457 1395.49 408.183C1396.64 409.908 1396.5 409.333 1397.72 410.987C1398.08 411.349 1397.72 410.987 1398.72 412.494" stroke="#5A6B3B" stroke-width="2" stroke-linecap="round"/>
<path d="M1398.72 412.495C1399.01 413.352 1401.97 415.936 1402.74 416.515C1404.75 418.022 1407.12 417.383 1409.2 416.521C1412.47 415.168 1415.86 415.944 1418.32 415.444C1420.28 415.046 1421.05 412.506 1421.84 410.78C1422.69 408.932 1424.35 407.336 1426.08 405.682C1427.6 404.218 1429.52 403.597 1431.25 402.235C1432.91 400.925 1434.69 399.866 1436.42 399.073C1438.26 398.224 1439.86 396.85 1441.59 396.057C1443.43 395.208 1445.03 394.118 1446.76 392.757C1448.42 391.447 1450.2 390.388 1451.93 389.595C1453.77 388.746 1455.37 387.372 1457.09 386.293C1458.7 385.286 1460.54 384.356 1462.26 383.206C1463.93 382.097 1465.71 381.34 1467.43 380.19C1469.1 379.082 1470.88 378.325 1472.6 377.532C1474.39 376.713 1476.05 376.024 1477.77 375.091C1479.51 374.151 1481.65 373.87 1483.37 372.937C1485 372.061 1486.82 371.716 1488.54 370.783C1490.17 369.907 1491.99 369.277 1493.71 368.556C1495.39 367.854 1496.99 366.34 1498.71 365.765C1499.57 365.478 1500.37 364.83 1501.23 364.257C1501.66 363.968 1503.37 363.043 1504.24 362.75" stroke="#5A6B3B" stroke-width="2" stroke-linecap="round"/>
<path d="M1504.26 362.408C1504.74 362.328 1505.71 362.005 1506.68 361.682C1507.67 361.349 1508.61 360.793 1509.59 360.429C1510.62 360.042 1511.52 359.581 1512.5 359.297C1513.43 359.023 1514.43 358.853 1515.4 358.57C1516.34 358.295 1517.34 358.126 1519.32 358.004C1522.58 357.802 1527.77 357.961 1528.74 358.285C1529.71 358.609 1530.68 358.771 1531.65 359.173C1532.57 359.557 1533.59 359.901 1534.56 360.264C1535.59 360.652 1536.5 361.113 1537.47 361.477C1538.5 361.864 1539.41 362.485 1540.38 362.891C1541.32 363.286 1542.32 363.538 1543.41 363.821C1544.94 364.22 1545.95 364.265 1547.12 364.387C1548.39 364.519 1549.83 364.75 1557.64 364.792C1560.18 364.806 1561.47 364.43 1562.44 364.307C1563.44 364.181 1564.38 363.862 1565.35 363.46C1566.26 363.083 1567.29 362.975 1568.26 362.853C1569.26 362.726 1570.2 362.248 1571.17 362.125C1572.23 361.991 1573.35 361.763 1574.32 361.439C1575.29 361.115 1576.26 360.793 1577.27 360.469C1578.43 360.098 1579.41 359.823 1580.38 359.5C1581.35 359.176 1582.32 358.853 1583.29 358.53C1584.29 358.197 1585.23 357.641 1586.2 357.116C1587.11 356.623 1588.14 356.269 1589.11 355.662C1589.99 355.111 1591.05 354.974 1592.02 354.61C1593.09 354.209 1593.96 353.519 1594.93 352.995C1595.87 352.487 1596.87 352.065 1597.84 351.5C1598.85 350.913 1599.78 350.368 1600.75 349.803C1601.76 349.216 1602.69 348.67 1603.66 348.146C1604.6 347.638 1605.6 347.216 1606.57 346.892C1607.63 346.536 1607.78 346.23 1608.75 345.665C1609.65 344.938 1610.98 344.642 1611.27 344.158C1611.39 343.914 1613.7 342.898 1613.78 342.65" stroke="#5A6B3B" stroke-width="2" stroke-linecap="round"/>
<path d="M1373.09 916.916C1373.09 917.723 1372.74 919.227 1372.46 919.742C1372.19 920.24 1371.88 920.77 1371.52 921.285C1371.12 921.843 1370.64 922.228 1370.23 922.678C1369.82 923.128 1369.44 923.598 1368.97 923.899C1368.4 924.261 1367.94 924.585 1367.43 924.757C1366.91 924.928 1366.4 925.184 1365.88 925.528C1365.37 925.871 1364.86 926.128 1364.34 926.427C1363.83 926.727 1363.23 926.984 1362.67 927.327C1362.16 927.639 1361.64 927.799 1361.13 927.992C1360.58 928.197 1360.1 928.527 1359.58 928.742C1359.08 928.951 1358.56 929.084 1357.83 929.171C1357.22 929.243 1356.76 929.599 1356.24 929.77C1355.73 929.942 1355.21 930.113 1354.59 930.178C1354.04 930.236 1353.54 930.499 1352.92 930.563C1352.37 930.621 1351.79 930.799 1351.23 931.034C1350.7 931.258 1350.07 931.27 1349.56 931.441C1349.04 931.613 1348.53 931.869 1348.02 932.127C1347.44 932.415 1346.35 932.734 1345.96 933.056C1345.39 933.528 1346.63 933.798 1347.47 933.863C1348.52 933.945 1351.45 933.996 1352.49 934.061C1353.76 934.139 1355.85 933.798 1357.38 933.863C1358.78 933.922 1361.46 933.885 1362.9 933.863C1364.47 933.84 1365.78 933.756 1367.65 933.735C1368.45 933.726 1369.85 933.627 1371.87 933.606C1372.61 933.598 1372.78 933.543 1376 933.521C1379.23 933.499 1385.51 933.499 1388.81 933.52C1392.1 933.541 1392.23 933.584 1393.48 933.606C1394.74 933.627 1397.11 933.627 1398.4 933.606C1400.37 933.574 1401.49 933.414 1402.11 933.349C1402.74 933.284 1403.42 933.157 1404.57 933.092C1405.39 933.046 1406.24 932.9 1407.72 932.835C1409.58 932.753 1412.29 932.643 1412.46 932.451C1412.61 932.276 1412.37 931.958 1412.25 931.722C1411.96 931.199 1411.26 931.015 1410.75 930.8C1410.25 930.591 1409.72 930.373 1409.2 930.157C1408.7 929.948 1408.18 929.73 1407.66 929.493C1407.13 929.249 1406.63 929.043 1406.12 928.765C1405.64 928.503 1405.09 928.401 1404.58 928.229C1404.05 928.053 1403.55 927.758 1403.03 927.586C1402.52 927.415 1402.01 927.244 1401.49 927.072C1400.98 926.9 1400.46 926.729 1399.95 926.558C1399.43 926.386 1398.84 926.215 1398.28 926.044C1397.76 925.884 1397.17 925.701 1396.48 925.529C1395.78 925.355 1395.02 924.973 1394.4 924.737C1393.76 924.495 1393.26 924.202 1392.75 923.987C1392.24 923.772 1391.72 923.516 1391.21 923.323C1390.64 923.11 1390.18 922.66 1389.66 922.423C1389.11 922.17 1388.64 921.76 1388.12 921.438C1387.64 921.137 1387.09 920.86 1386.58 920.495C1386.02 920.1 1385.55 919.703 1385.06 919.232C1384.6 918.796 1384.35 918.204 1384.11 917.689C1384.05 917.56 1383.97 917.433 1383.9 917.304C1383.84 917.174 1383.79 917.047 1383.75 916.916" stroke="#5A6B3B" stroke-width="2" stroke-linecap="round"/>
<path d="M1626.16 190.904C1625.3 191.188 1623.58 192.334 1621.86 193.484C1620.13 194.635 1618.41 195.781 1616.69 196.931C1615.02 198.039 1613.24 198.796 1611.52 200.233C1610.03 201.468 1608.07 202.243 1606.35 202.965C1604.62 203.686 1602.9 204.544 1601.18 205.547C1599.38 206.59 1597.73 207.844 1596.01 208.923C1594.4 209.929 1592.56 210.859 1590.84 212.01C1589.11 213.16 1587.39 214.306 1585.67 215.385C1584.06 216.392 1582.22 217.322 1580.5 218.472C1578.77 219.622 1577.05 220.768 1575.33 221.848C1573.72 222.854 1571.6 224.353 1569.73 225.367C1568.13 226.234 1566.28 226.8 1564.56 227.879C1562.95 228.885 1561.11 229.816 1559.39 230.608C1557.6 231.428 1555.94 232.4 1554.22 233.193C1552.37 234.042 1550.77 235.416 1549.05 236.209C1547.2 237.058 1545.6 238.148 1543.88 239.223C1542.01 240.387 1540.43 241.448 1538.71 242.527C1537.14 243.504 1534.98 244.601 1533.18 246.116C1531.7 247.36 1530.09 248.341 1528.37 249.491C1526.78 250.784 1525.35 252.218 1523.99 253.726C1523.63 254.088 1523.2 254.372 1522.33 255.527" stroke="#5A6B3B" stroke-width="2" stroke-linecap="round"/>
<path d="M1626.97 190.222C1627.85 190.076 1629.61 189.491 1631.37 188.538C1633.08 187.616 1634.89 186.85 1636.65 185.824C1638.42 184.797 1640.17 184.209 1641.93 183.256C1643.64 182.333 1645.45 181.277 1647.22 180.102C1648.98 178.926 1650.74 177.756 1652.5 176.653C1654.14 175.625 1656.02 174.674 1657.78 173.864C1659.6 173.027 1661.3 172.033 1662.99 170.785C1664.66 169.55 1666.14 168.362 1667.91 167.409C1669.61 166.487 1671.42 165.43 1673.19 164.255C1674.95 163.08 1676.71 161.909 1678.47 160.734C1680.23 159.558 1681.99 158.678 1683.75 158.09C1685.56 157.487 1687.27 156.477 1689.03 155.524C1690.69 154.629 1692.55 153.986 1694.32 153.176C1696.14 152.339 1697.84 151.635 1699.6 150.682C1701.3 149.76 1703.12 148.704 1704.88 147.894C1706.77 147.026 1708.4 145.913 1710.16 144.887C1711.93 143.712 1713.68 142.541 1715.44 141.438C1715.89 141.216 1716.32 141.071 1717.21 140.481" stroke="#5A6B3B" stroke-width="2" stroke-linecap="round"/>
<path d="M1665.16 308.661C1663.58 309.188 1660.39 310.784 1657.2 312.643C1653.92 314.547 1651.61 317.694 1648.42 319.294C1644.85 321.083 1642.04 323.28 1638.84 325.411C1635.65 327.542 1632.46 329.664 1629.27 331.795C1626.19 333.848 1622.89 335.25 1619.82 337.513C1619.15 338.179 1618.62 338.969 1617.96 339.639C1617.29 340.31 1616.5 340.836 1614.89 342.177" stroke="#5A6B3B" stroke-width="2" stroke-linecap="round"/>
<path d="M1237.93 920.494C1237.93 921.345 1237.24 922.966 1236.92 923.509C1236.62 924.034 1235.83 924.976 1235.42 925.519C1234.96 926.108 1234.38 926.552 1233.91 927.026C1233.44 927.501 1232.82 927.539 1232.28 927.857C1231.64 928.238 1231.11 928.58 1230.52 928.761C1229.93 928.942 1229.34 929.212 1228.75 929.574C1228.16 929.936 1227.57 930.207 1226.99 930.522C1226.39 930.839 1225.71 931.109 1225.07 931.471C1224.49 931.8 1223.89 931.969 1223.3 932.172C1222.68 932.388 1222.13 932.736 1221.54 932.963C1220.96 933.183 1220.36 933.324 1219.53 933.415C1218.83 933.491 1218.3 933.866 1217.71 934.047C1217.12 934.228 1216.53 934.408 1215.82 934.477C1215.19 934.538 1214.62 934.815 1213.91 934.883C1213.27 934.944 1212.61 935.132 1211.97 935.379C1211.36 935.615 1210.65 935.628 1210.06 935.809C1209.47 935.99 1208.88 936.26 1208.29 936.531C1207.63 936.835 1206.38 937.172 1205.94 937.511C1205.29 938.009 1206.71 938.294 1207.66 938.362C1208.87 938.448 1212.22 938.502 1213.42 938.571C1214.86 938.653 1217.27 938.294 1219.02 938.362C1220.62 938.424 1223.68 938.385 1225.33 938.362C1227.13 938.338 1228.64 938.249 1230.77 938.227C1231.69 938.217 1233.3 938.114 1235.6 938.091C1236.45 938.083 1236.65 938.024 1240.34 938.001C1244.04 937.978 1251.23 937.978 1255 938.001C1258.78 938.023 1258.93 938.068 1260.36 938.091C1261.8 938.114 1264.52 938.114 1265.99 938.091C1268.25 938.057 1269.52 937.889 1270.24 937.82C1270.96 937.751 1271.73 937.618 1273.06 937.549C1274 937.501 1274.97 937.347 1276.66 937.278C1278.79 937.192 1281.89 937.076 1282.09 936.873C1282.27 936.688 1281.99 936.353 1281.85 936.105C1281.52 935.553 1280.72 935.36 1280.13 935.133C1279.56 934.912 1278.95 934.682 1278.36 934.455C1277.79 934.234 1277.19 934.004 1276.6 933.755C1275.99 933.497 1275.42 933.281 1274.83 932.987C1274.28 932.711 1273.65 932.603 1273.06 932.422C1272.46 932.236 1271.89 931.925 1271.3 931.744C1270.71 931.563 1270.12 931.383 1269.53 931.202C1268.94 931.021 1268.35 930.841 1267.76 930.66C1267.17 930.479 1266.49 930.299 1265.85 930.118C1265.26 929.95 1264.58 929.757 1263.79 929.576C1262.99 929.392 1262.12 928.989 1261.41 928.74C1260.68 928.485 1260.11 928.176 1259.52 927.949C1258.93 927.722 1258.34 927.453 1257.75 927.249C1257.1 927.025 1256.58 926.55 1255.99 926.3C1255.35 926.033 1254.81 925.601 1254.22 925.262C1253.67 924.945 1253.04 924.652 1252.45 924.268C1251.81 923.851 1251.28 923.433 1250.71 922.936C1250.19 922.476 1249.99 922.504 1249.49 922.002C1249.38 921.892 1248.98 921.499 1248.98 921.499C1248.98 921.499 1248.48 920.997 1248.48 920.494" stroke="#5A6B3B" stroke-width="2" stroke-linecap="round"/>
</g>
</svg>
