<svg width="115" height="85" viewBox="0 0 115 85" fill="none" xmlns="http://www.w3.org/2000/svg">
<path d="M101.756 15.9351C101.756 15.2416 101.524 14.5315 101.215 13.9023C100.921 13.3027 100.737 12.6189 100.376 12.0536C100.187 11.7579 100.007 11.3182 99.8834 10.9797C99.7762 10.6854 99.5238 10.4434 99.4314 10.1359C99.3307 9.80094 99.0572 9.41081 98.8502 9.11568C98.6249 8.79459 98.4846 8.4022 98.2367 8.09928C98.1308 7.96989 98.1215 7.79037 98.0349 7.65054C97.9652 7.53786 97.8231 7.47388 97.7605 7.33987C97.6028 7.00271 97.2329 6.87593 97.0501 6.54593C96.7452 5.99531 96.0729 5.57121 95.6375 5.11147C94.758 4.18286 93.6518 3.51378 92.4974 2.88691C91.9237 2.57535 91.3019 2.35337 90.7135 2.0738C90.0348 1.7513 89.3196 1.52756 88.5906 1.31438C87.1003 0.878644 85.4745 1.02289 83.9208 1.02289C83.6545 1.02289 83.3881 1.02289 83.1217 1.02289C82.8101 1.02289 82.6033 1.13897 82.3024 1.16096C81.5883 1.21316 80.8382 1.19138 80.1068 1.23C79.8657 1.24273 79.5979 1.3841 79.3641 1.45246C78.8515 1.60235 78.3334 1.76979 77.8183 1.92038C77.2189 2.09566 76.5847 2.51357 76.1514 2.92527C75.7513 3.30554 75.2911 3.62775 74.8922 4.00686C74.44 4.43655 74.1267 4.97975 73.6773 5.4068C73.3247 5.74192 72.9851 6.33662 72.7531 6.75304C72.517 7.17687 72.1589 7.57855 71.8087 7.91135C71.3525 8.34484 71.2282 8.93672 70.84 9.41101C70.42 9.92418 70.1586 10.5696 69.827 11.137C69.4437 11.7925 69.3664 12.5703 69.048 13.2426C68.8927 13.5706 68.8523 13.9226 68.6646 14.2437C68.5386 14.4591 68.2221 14.7973 68.1924 15.0376C68.1632 15.2729 67.871 15.6369 67.7 15.8124C67.4256 16.094 67.2465 16.4941 66.9977 16.7981C66.8369 16.9945 66.6682 17.2995 66.5376 17.523C66.3811 17.7907 66.2067 18.0475 66.0492 18.3169C65.9004 18.5714 65.7245 18.8468 65.5366 19.0763C65.3898 19.2557 65.2681 19.5669 65.0685 19.6785C64.6346 19.921 64.12 20.4929 63.8899 20.9058C63.8102 21.0489 63.7364 21.1679 63.5832 21.251C63.3896 21.3562 63.2429 21.8234 63.1392 21.9951C62.9173 22.3626 62.7589 22.6244 62.4168 22.8773C61.7539 23.3672 60.988 23.7601 60.201 24.0509C59.3914 24.3501 58.737 24.4268 57.8762 24.4268C57.2169 24.4268 56.9087 24.2777 56.3506 24.0125" stroke="#F7F5EA" stroke-width="1.5" stroke-linecap="square"/>
<path d="M69.6455 11.7927C69.6455 12.355 69.649 12.9046 69.5768 13.4535C69.53 13.8095 69.3234 14.1328 69.2822 14.4852C69.2407 14.8403 69.0643 15.1882 69.0643 15.5553C69.0643 15.9005 69.0643 16.2457 69.0643 16.5909C69.0643 17.3251 69.4705 17.7119 69.8069 18.3513C70.0469 18.8075 70.6618 19.2488 71.2074 19.2488C72.7891 19.2488 73.7488 18.3232 74.4241 17.0396C74.6225 16.6626 74.9747 16.2632 75.0941 15.866C75.2189 15.4509 75.3298 14.9937 75.4937 14.5888C75.654 14.1926 75.8367 13.795 75.9821 13.3959C76.0471 13.2173 76.2541 12.5533 76.4018 12.4831" stroke="#F7F5EA" stroke-width="1.5" stroke-linecap="square"/>
<path d="M76.4021 12.8972C76.4021 13.3226 76.1115 13.6686 76.1115 14.0709C76.1115 14.437 75.944 14.9731 75.837 15.3289C75.7048 15.7687 75.8209 16.3724 75.8209 16.8324C75.8209 17.1536 75.738 17.5776 75.837 17.8833C75.9633 18.2735 75.9837 18.6816 76.1115 19.0761C76.2322 19.4489 76.4209 19.7985 76.6039 20.1462C77.0246 20.9459 77.5781 21.2299 78.4726 21.4886C79.235 21.7091 80.1679 21.2622 80.7247 20.733C81.2287 20.2541 81.633 19.6549 81.9557 19.0416C82.1611 18.6511 82.2757 18.1976 82.4158 17.7836C82.6147 17.1956 82.8557 16.606 83.0131 16.0078C83.1369 15.5371 83.5068 15.1186 83.5217 14.6232C83.5369 14.1165 83.5943 13.6154 83.5943 13.1043" stroke="#F7F5EA" stroke-width="1.5" stroke-linecap="square"/>
<path d="M59.2564 23.7364C59.2564 23.1901 59.085 22.6414 58.9617 22.114C58.8941 21.8246 58.7552 21.3142 58.5622 21.0784C58.3031 20.7619 58.2141 20.4476 57.8397 20.2499C57.5391 20.0912 56.9296 20.2196 56.7863 20.5261C56.4466 21.2523 56.1325 21.7597 56.1325 22.5781C56.1325 23.5026 56.0598 24.4027 56.0598 25.3242C56.0598 26.1884 55.9145 27.0561 55.9145 27.9477C55.9145 28.948 55.8419 29.9735 55.8419 30.9854C55.8419 31.9316 56.0598 32.87 56.0598 33.8159C56.0598 34.7591 56.423 35.6859 56.423 36.6465" stroke="#F7F5EA" stroke-width="1.5" stroke-linecap="square"/>
<path d="M56.4949 36.3704C56.4949 36.7846 56.4949 37.1988 56.4949 37.613C56.4949 37.914 56.4668 38.4398 56.5837 38.7177C56.6957 38.9838 56.7855 39.5326 56.7855 39.8223C56.7855 40.1903 56.9195 40.5491 56.9308 40.9269C56.9508 41.5923 57.0373 42.2643 57.0761 42.929C57.0948 43.2479 57.2108 43.6443 57.2941 43.9607C57.4168 44.4272 57.3973 44.9513 57.5483 45.4105C57.6412 45.693 57.6573 46.1404 57.6573 46.4346C57.6573 46.7688 57.8026 47.0777 57.8026 47.4126C57.8026 48.1231 58.2737 48.811 58.3111 49.4876C58.3476 50.1456 58.3882 50.8413 58.5856 51.4743C58.6965 51.8301 58.7682 52.2939 58.8237 52.6633C58.9169 53.2832 59.286 53.8651 59.4009 54.4928C59.6696 55.9612 60.0349 57.3731 60.4543 58.8077C60.6127 59.3497 60.494 60.1471 60.8902 60.5989C61.2498 61.0089 61.5094 61.7073 62.1615 61.7073C62.3909 61.7073 62.747 61.7731 62.9243 61.6383C63.0678 61.5292 63.2415 60.9862 63.2513 60.8098C63.2965 59.9927 63.4692 59.1864 63.4692 58.3551C63.4692 57.1022 63.4692 55.8493 63.4692 54.5964" stroke="#F7F5EA" stroke-width="1.5" stroke-linecap="square"/>
<path d="M43.1282 27.3955C43.1282 27.4646 43.1515 27.7236 43.2573 27.5336C43.3201 27.4209 43.2008 27.3493 43.2008 27.5336" stroke="#F7F5EA" stroke-width="1.5" stroke-linecap="square"/>
<path d="M44.3639 30.8472C44.3639 31.1142 44.2815 30.9347 44.2186 31.0543" stroke="#F7F5EA" stroke-width="1.5" stroke-linecap="square"/>
<path d="M46.6154 27.4644C46.6154 27.8109 46.7939 27.5572 46.7203 27.5372C46.4939 27.4758 46.3975 27.5382 46.3975 27.7405" stroke="#F7F5EA" stroke-width="1.5" stroke-linecap="square"/>
<path d="M56.6412 20.6296C56.2156 20.2252 55.6242 19.9392 55.1156 19.6285C54.6157 19.3232 54.1003 18.9964 53.5536 18.7655C52.2668 18.222 50.8013 17.73 49.3763 17.73C48.8247 17.73 48.2731 17.73 47.7215 17.73C47.2374 17.73 46.4803 17.5953 46.0344 17.7837C45.8015 17.882 45.5075 17.868 45.2676 17.9716C45.0715 18.0563 44.7252 18.189 44.5088 18.2132C44.3077 18.2357 44.0291 18.4181 43.8227 18.4894C43.5858 18.5712 43.3605 18.6522 43.1285 18.7502C42.2374 19.1266 41.2488 19.3897 40.4042 19.8356C39.9886 20.055 39.4695 20.2008 39.0279 20.3534C38.4504 20.553 37.9826 20.988 37.4215 21.1819C37.1195 21.2862 36.7341 21.4474 36.4811 21.6344C36.2603 21.7977 36.0959 22.0339 35.8636 22.1637C35.6483 22.2841 35.5278 22.5203 35.3228 22.6317C35.0729 22.7673 34.8653 22.9741 34.7012 23.1993C34.3562 23.6729 33.9258 24.0547 33.5227 24.4803C33.2358 24.7833 32.9674 25.3074 32.5944 25.5159C32.2997 25.6807 31.9929 26.0492 31.8316 26.3252C31.4889 26.9114 31.1373 27.5395 30.7459 28.124C30.465 28.5435 30.0897 28.9765 29.8701 29.4357C29.5888 30.0237 29.4166 30.6634 29.1395 31.2652C28.927 31.727 28.5162 32.3423 28.4534 32.8493C28.4243 33.0844 28.2354 33.4193 28.1265 33.6471C28.0181 33.8737 28.0079 34.1409 27.8884 34.3681C27.0738 35.9163 27.7348 37.7879 27.2345 39.3925C27.1421 39.689 27.1457 40.1345 27.1457 40.4435C27.1457 40.8614 27.0731 41.2775 27.0731 41.6861C27.0731 42.2385 27.0731 42.7908 27.0731 43.3431C27.0731 44.7393 26.9042 46.1155 27.0771 47.5122C27.1602 48.1836 27.1191 48.8591 27.1457 49.5411C27.1676 50.1031 27.3637 50.6567 27.3637 51.2134C27.3637 51.8554 27.5018 52.4235 27.6704 53.0467C27.8156 53.5834 28.1628 54.1758 28.1628 54.7343" stroke="#F7F5EA" stroke-width="1.5" stroke-linecap="square"/>
<path d="M28.3809 54.8037C28.3809 55.1706 28.3809 55.5376 28.3809 55.9045C28.3809 56.1417 28.5988 56.3381 28.5988 56.5642C28.5988 56.927 28.9056 57.3699 29.0186 57.7186C29.137 58.0845 29.1698 58.471 29.2567 58.8424C29.3718 59.3347 29.6883 59.7461 29.7652 60.2577C29.9 61.1541 30.228 62.136 30.5442 63.0039C30.745 63.5552 30.6976 64.1185 30.9599 64.6723C31.1752 65.1269 31.4573 65.5449 31.6904 65.9879C32.2253 67.0046 32.8772 67.9134 33.7206 68.7149C34.4544 69.4122 35.417 69.8976 36.2996 70.391C36.5643 70.5389 36.8462 70.8491 37.0664 71.0583C37.3393 71.3176 37.7025 71.4548 38.0068 71.6797C38.2773 71.8795 38.7063 72.1815 39.0602 72.2013C39.1809 72.208 39.373 72.4968 39.4961 72.5618C39.706 72.6726 39.8935 72.834 40.0935 72.9607C41.0553 73.57 42.4507 73.3749 43.5483 73.3749C44.2923 73.3749 45.0363 73.3749 45.7803 73.3749C46.5546 73.3749 47.1568 73.1801 47.8871 73.0259C48.3506 72.928 48.803 72.6548 49.2311 72.4621C49.6413 72.2774 50.0712 72.2355 50.4661 72.0479C50.6527 71.9592 50.9446 71.8581 51.0473 71.6873C51.0894 71.6174 51.5263 71.5801 51.6285 71.5454C51.7982 71.4878 52.0683 71.4419 52.246 71.4419C52.4967 71.4419 52.7268 71.2113 52.9685 71.1696C53.2381 71.123 53.517 71.0703 53.7918 71.0123C54.0479 70.9582 54.2529 70.8396 54.4618 70.6978C54.5789 70.6183 54.7227 70.6362 54.8251 70.5444C55.2027 70.2054 55.512 69.8148 55.8744 69.4705C56.7551 68.6336 57.2684 67.4846 58.1669 66.6782C58.5555 66.3295 58.7558 65.8319 59.1073 65.4701C59.5099 65.0556 60.0641 64.5439 60.3787 64.0548C60.6867 63.5758 60.9316 63.0904 61.202 62.605C61.3647 62.313 61.6105 62.0387 61.7267 61.7075" stroke="#F7F5EA" stroke-width="1.5" stroke-linecap="square"/>
<path d="M46.4699 63.226C47.9239 63.226 49.3357 63.157 50.7925 63.157C51.358 63.157 51.9139 63.2951 52.4594 63.2951C53.277 63.2951 54.1073 63.3641 54.9335 63.3641C55.819 63.3641 56.7074 63.6654 57.5852 63.7093C58.1242 63.7362 58.6837 63.8006 59.1512 64.0545C59.275 64.1217 59.5714 64.223 59.6153 64.369C59.6737 64.5634 59.7178 64.8505 59.5467 64.9366C59.2257 65.0981 58.7057 65.4352 58.348 65.4352C57.8598 65.4352 57.4226 65.7804 56.9313 65.7804C56.2917 65.7804 55.6671 65.9875 55.0425 65.9875C54.4813 65.9875 53.8735 66.0953 53.2989 66.1256C52.718 66.1563 52.1155 66.2637 51.519 66.2637C50.3959 66.2637 49.2733 66.4708 48.1771 66.4708C47.6081 66.4708 47.039 66.4708 46.4699 66.4708C45.7883 66.4708 45.0616 66.1256 44.3994 66.1256C42.8563 66.1256 41.3132 66.1256 39.77 66.1256C39.4068 66.1256 39.0436 66.1256 38.6803 66.1256C38.357 66.1256 37.8645 66.2164 37.5744 66.0911C37.356 65.9967 37.0117 66.0245 36.7753 65.9837C36.4503 65.9275 36.1152 65.8495 35.7744 65.8495C35.4675 65.8495 35.2077 65.7804 34.9026 65.7804C34.4616 65.7804 33.8372 65.8259 33.4294 65.6769C33.184 65.5872 32.8577 65.7279 32.6303 65.6078C32.3305 65.4495 31.9831 65.4623 31.7222 65.2281C31.2516 64.8058 31.1651 64.4738 31.8311 64.1926C32.3514 63.9728 32.9538 64.1506 33.4657 63.9317C34.5576 63.4648 35.5392 63.2951 36.7349 63.2951C37.372 63.2951 38.0196 63.157 38.6642 63.157C39.1835 63.157 39.7028 63.157 40.2221 63.157C42.3289 63.157 44.4357 63.157 46.5425 63.157" stroke="#F7F5EA" stroke-width="1.5" stroke-linecap="square"/>
<path d="M55.9878 22.0795C55.2659 22.0414 54.546 21.5856 53.9173 21.3201C53.4685 21.1305 53.1336 20.7813 52.6459 20.645C51.8726 20.4289 51.222 20.0334 50.3979 19.9355C49.9614 19.8836 49.5384 19.8703 49.0902 19.8703C48.8273 19.8703 48.3346 19.7838 48.1054 19.9048C47.9633 19.9798 47.5784 19.9911 47.4152 20.0083C47.1703 20.0342 46.9093 20.195 46.6887 20.2998C46.064 20.5967 45.4279 20.7403 44.7313 20.9058C44.4047 20.9834 44.1152 21.1469 43.7828 21.182C43.4975 21.2121 43.1317 21.2927 42.8545 21.3738C42.1407 21.5825 41.3872 21.5844 40.675 21.8187C39.6132 22.1679 38.4201 22.8691 37.6076 23.5983C37.1846 23.978 36.6606 24.0854 36.3363 24.5648C36.1693 24.8117 35.8255 24.9467 35.6098 25.1517C35.3738 25.3759 35.0921 25.5918 34.8873 25.8421C34.5174 26.294 34.1374 26.8279 33.846 27.3264C33.562 27.8122 33.4026 28.3616 33.1034 28.8299C32.8433 29.2369 32.4353 29.8074 32.3002 30.2566C32.1971 30.5996 32.0136 31.1236 31.832 31.4341C31.7219 31.6225 31.7003 31.8878 31.5939 32.09C31.5013 32.2659 31.3707 32.526 31.3598 32.7113C31.3368 33.1044 31.0217 33.5877 30.928 33.9885C30.6707 35.0888 30.706 36.2433 30.706 37.3906C30.706 38.6759 30.758 39.9722 30.706 41.2567C30.6823 41.8428 30.5607 42.4242 30.5607 43.0325C30.5607 43.6425 30.488 44.2694 30.488 44.8927C30.488 45.6368 30.488 46.3809 30.488 47.1249C30.488 47.7881 30.7738 48.2761 30.9199 48.9007C31.1368 49.8284 31.3083 50.8173 31.6343 51.7121C31.8735 52.3688 32.2286 52.9675 32.5222 53.5953C32.6145 53.7927 32.7753 53.9344 32.8168 54.1515C32.8763 54.4624 33.0046 54.8652 33.2083 55.1142C33.5344 55.5126 33.94 55.9409 34.177 56.3914C34.3276 56.6777 34.6258 56.8257 34.7905 57.0818C34.8853 57.2292 35.5825 57.6651 35.1376 57.496" stroke="#F7F5EA" stroke-width="1.5" stroke-linecap="square"/>
<path d="M35.1364 57.4958C35.373 57.524 35.4594 57.8601 35.6449 57.9638C35.8022 58.0517 35.979 58.2353 36.1131 58.3627C36.3908 58.6266 36.6654 58.895 36.9526 59.1528C37.6847 59.8099 38.5805 60.3135 39.4953 60.7253C40.3912 61.1286 41.4801 61.6078 42.4739 61.7072C42.9692 61.7567 43.7169 62.1215 44.1085 61.7494C44.2978 61.5694 45.0941 61.7072 45.3798 61.7072C45.6539 61.7072 45.8843 61.7178 46.1427 61.7724C46.4485 61.837 46.7494 61.8671 47.0588 61.9488C47.4883 62.0622 47.9877 62.3051 48.4311 62.3285C48.868 62.3516 49.3722 62.3975 49.8478 62.3975C50.1639 62.3975 50.4801 62.3975 50.7962 62.3975C51.0975 62.3975 51.6352 62.5017 51.9182 62.3822C52.3521 62.199 53.0358 62.3285 53.5165 62.3285C53.8212 62.3285 54.1997 62.2495 54.4973 62.1866C55.5149 61.9717 56.6658 61.3379 57.4032 60.6371C57.6204 60.4307 58.0053 60.2962 58.275 60.1538C58.584 59.9907 58.7345 59.8827 58.9652 59.636C59.1942 59.3912 59.3059 58.949 59.5827 58.7385C59.8447 58.5393 60.0069 58.2989 60.0549 57.9791" stroke="#F7F5EA" stroke-width="1.5" stroke-linecap="square"/>
<path d="M29.606 68.7659C29.606 68.4183 29.6752 68.0065 29.5909 67.6657C29.5452 67.4813 29.4831 67.2875 29.4698 67.0977C29.4522 66.847 29.377 66.3405 29.1974 66.1485C29.0522 65.9933 28.8734 65.4894 28.8569 65.2856C28.8328 64.9874 28.7085 64.596 28.6375 64.3005C28.52 63.8121 28.4082 63.2258 28.3802 62.7474C28.3692 62.5594 28.1783 62.2719 28.0927 62.1002C27.9537 61.8214 27.8079 61.5375 27.6614 61.2589C27.3278 60.6249 27.1145 59.9132 26.8442 59.2528C26.7229 58.9563 26.5242 58.595 26.4772 58.282C26.4385 58.0249 26.2662 57.8653 26.2048 57.6025C26.1127 57.2087 25.5751 56.6518 25.2817 56.373C25.0026 56.1077 24.3645 55.6287 23.9537 55.6287C22.9429 55.6287 21.6626 55.4004 21.0406 56.4053C20.8019 56.7909 20.3875 57.0214 20.1553 57.4408C20.0161 57.6921 19.8329 58.0624 19.7996 58.3468C19.7835 58.4845 19.7237 59.0516 19.6294 59.1233C19.5561 59.1791 19.488 59.6308 19.4629 59.7381C19.4282 59.8864 19.317 60.1337 19.217 60.2559C19.0487 60.4615 18.9213 60.8153 18.8462 61.0648C18.7231 61.4745 18.5816 61.8729 18.4717 62.2908C18.3004 62.9418 18.4376 63.7483 18.4376 64.43C18.4376 65.0009 18.3516 65.6486 18.5209 66.1917C18.6245 66.5239 18.6808 66.8391 18.8614 67.148C18.984 67.3578 19.2261 67.6142 19.2548 67.8599C19.3075 68.3102 19.8633 68.5984 20.0872 68.96C20.5836 69.7619 21.7722 69.8566 22.4253 70.4772C22.6916 70.7303 23.0795 70.9454 23.3711 71.1855C23.5952 71.3701 24.0121 71.5936 24.158 71.8362C24.2638 72.0121 24.5041 72.2648 24.6688 72.3899C24.8762 72.5476 25.0199 72.8206 25.2136 73.0047C25.5713 73.3446 25.9278 73.6396 26.3675 73.8784C26.5602 73.983 26.7101 74.1796 26.9161 74.2666C27.3042 74.4306 27.6013 74.6266 27.9035 74.9138C28.2363 75.23 28.472 75.6194 28.8039 75.9349C29.0701 76.1878 29.4734 76.6397 29.8784 76.6611C30.3292 76.6849 30.7888 76.6611 31.2404 76.6611C31.7532 76.6611 32.2131 76.4267 32.7083 76.3411C33.7616 76.1591 34.2923 74.8368 34.7438 74.0401C35.1098 73.3941 35.1902 72.3963 35.1902 71.678C35.1902 71.4481 35.319 70.2832 35.1221 70.1896" stroke="#F7F5EA" stroke-width="1.5" stroke-linecap="square"/>
<path d="M18.9145 62.7473C19.2987 62.3822 19.8801 62.2054 20.3067 61.8737C20.6532 61.6043 21.0004 61.2947 21.3131 60.9856C21.6033 60.6988 21.9592 60.5123 22.2892 60.2558C22.5421 60.0592 22.7313 59.6764 23.0005 59.5259C23.2541 59.3842 23.5461 59.188 23.8517 59.188C24.2454 59.188 24.3142 59.4893 24.4457 59.7704C24.6676 60.245 24.4987 61.1176 24.4987 61.6328C24.4987 62.2449 24.1501 62.9726 23.6815 63.3945C23.3088 63.73 22.5829 64.438 22.0471 64.4946C21.7921 64.5215 21.5316 64.7653 21.2639 64.8218C20.9347 64.8913 20.6414 65.0123 20.2916 65.0123C20.0565 65.0123 19.6318 65.089 19.4252 64.98C19.11 64.8136 18.9324 64.498 18.8464 64.171" stroke="#F7F5EA" stroke-width="1.5" stroke-linecap="square"/>
<path d="M11.8314 59.8999C11.6152 59.9227 11.5481 60.3171 11.3547 60.432C11.1584 60.5486 11.0208 60.8463 10.912 61.0324C10.5832 61.5948 10.6847 62.4249 10.5412 63.0386C10.387 63.6983 10.6931 64.383 11.052 64.9189C11.466 65.5371 11.9895 66.2618 12.6145 66.7237C13.7576 67.5687 15.0331 68.2307 16.3259 68.8449C16.8399 69.0891 17.3382 69.3124 17.8241 69.5568C18.0995 69.6953 18.3211 69.8092 18.6073 69.8696C18.8439 69.9196 19.5647 69.9954 19.3223 69.9954" stroke="#F7F5EA" stroke-width="1.5" stroke-linecap="square"/>
<path d="M5.9743 60.612C7.04036 60.612 8.33462 60.4205 9.17499 59.706C9.70857 59.2523 10.3025 58.968 11.0099 58.7999C11.7214 58.6309 12.5737 58.3159 13.208 57.9587C14.1417 57.4329 15.4147 57.4552 16.4276 57.085C17.4339 56.7172 18.5907 56.6731 19.6321 56.4343C20.257 56.2909 20.8045 56.0601 21.4027 55.8554C21.9304 55.6749 22.7011 55.462 23.1354 55.1112C23.6783 54.6727 24.6339 54.5152 25.2768 54.2375C25.5051 54.1389 25.8101 54.1593 26.0297 54.0434C26.24 53.9324 26.7085 53.8169 26.949 53.8169" stroke="#F7F5EA" stroke-width="1.5" stroke-linecap="square"/>
<path d="M5.77051 58.023C6.00842 57.9979 6.29682 57.7324 6.5196 57.6384C6.89703 57.4789 7.29509 57.3627 7.6773 57.2141C8.02901 57.0774 8.42686 57.018 8.7669 56.8726C9.55928 56.5337 10.4176 56.3805 11.1844 55.9881C11.5246 55.814 12.0028 55.7128 12.3762 55.6142C12.7094 55.5263 13.0276 55.3673 13.3674 55.3086C13.8457 55.226 14.288 55.0823 14.7597 54.9671C15.0659 54.8922 15.454 54.8068 15.7282 54.6579C16.2182 54.3918 16.8397 54.3491 17.3475 54.1078C17.7342 53.924 18.0855 53.7188 18.5052 53.608C19.2419 53.4136 19.9449 53.0758 20.6844 52.8782C21.2746 52.7205 21.8765 52.6215 22.4549 52.4252C23.0497 52.2233 23.5717 51.7923 24.1953 51.6846C24.8807 51.5661 25.5603 51.4221 26.2685 51.4221" stroke="#F7F5EA" stroke-width="1.5" stroke-linecap="square"/>
<path d="M17.8237 50.1278C18.7449 50.1278 19.6968 49.8784 20.4947 49.4303C20.7069 49.3111 20.933 49.1994 21.1265 49.0564C21.2808 48.9423 21.3295 48.7439 21.467 48.6393C21.7318 48.438 21.774 48.0564 22.0118 47.8304C22.2264 47.6265 22.3901 47.351 22.5074 47.0862C22.7031 46.6444 22.9157 45.582 22.6928 45.116C22.5439 44.8046 22.1452 44.4976 21.7735 44.4976C21.4808 44.4976 20.7743 44.3709 20.5477 44.5623C19.9996 45.0252 19.2761 45.297 19.0495 46.0507C18.8812 46.6106 18.4842 47.1121 18.3723 47.6974C18.2947 48.1029 18.1642 48.4613 18.1642 48.8838C18.1642 49.6303 18.0961 50.4041 18.0961 51.1632C18.0961 51.6425 18.4732 52.0294 18.709 52.4216C18.8502 52.6565 19.2685 52.587 19.511 52.587C20.4616 52.587 21.3096 52.2292 22.148 51.8751C22.7291 51.6297 23.0788 51.0161 23.5289 50.6311C23.7682 50.4265 23.8794 50.0719 24.0359 49.8042C24.2405 49.4541 24.4784 49.0555 24.7396 48.7364C24.9891 48.4315 25.0487 48.0534 25.1066 47.6686C25.158 47.3266 25.2465 46.9115 25.2465 46.5685C25.2465 46.1728 25.3811 45.7189 25.466 45.3245C25.5793 44.7982 25.587 44.2243 25.587 43.6887C25.587 42.7551 25.587 41.8215 25.587 40.8879C25.587 40.2181 25.2845 39.2948 24.9401 38.7056C24.7927 38.4535 24.6177 38.186 24.4974 37.929C24.3847 37.6879 24.1415 37.4789 24.0207 37.2495" stroke="#F7F5EA" stroke-width="1.5" stroke-linecap="square"/>
<path d="M11.4908 51.8105C12.1768 51.8105 12.8508 51.8752 13.5375 51.8752C13.9488 51.8752 15.011 51.9324 15.3043 51.584C15.8728 50.9088 16.2636 50.0024 15.8189 49.1572C15.5444 48.6356 15.319 48.2789 14.7595 48.0427C14.3489 47.8692 13.9277 47.7335 13.4657 47.7335C13.1083 47.7335 12.4527 47.6107 12.1718 47.8629C11.7675 48.2258 11.4199 48.4171 11.2335 48.9487C10.9221 49.8366 10.7328 50.98 10.9497 51.9076C11.0761 52.4481 11.3289 52.9719 11.5248 53.4931C11.6362 53.7894 11.7647 54.3609 12.0734 54.5286C12.8573 54.9542 13.9653 54.8496 14.7595 54.5142C15.5482 54.1811 16.3017 53.1507 16.6663 52.4577" stroke="#F7F5EA" stroke-width="1.5" stroke-linecap="square"/>
<path d="M5.63446 53.752C6.17563 53.752 6.96181 53.7864 7.40505 53.4284C7.76993 53.1337 8.26298 52.9727 8.61572 52.6375C9.08169 52.1946 9.17665 50.9343 8.68382 50.4659C8.4949 50.2864 7.81205 50.1421 7.59422 50.3077C7.36007 50.4857 7.13476 50.6796 6.91322 50.8902C6.35678 51.4189 6.11116 51.8145 6.11116 52.5871C6.11116 53.2812 6.02381 54.1012 6.50462 54.6724C6.70532 54.9108 6.70011 55.3414 6.87539 55.5496C7.056 55.7642 7.24052 56.4494 7.60935 56.47C8.15738 56.5007 8.16954 56.29 8.50978 55.9667C8.78909 55.7013 9.05341 55.6875 9.37995 55.5496C9.84823 55.3519 10.4014 54.2797 10.4014 53.8167" stroke="#F7F5EA" stroke-width="1.5" stroke-linecap="square"/>
<path d="M27.4262 36.0202C27.4262 35.3368 27.318 34.7202 27.0555 34.0787C26.7752 33.3939 26.7328 32.6268 26.488 31.9287C26.1786 31.0468 25.7615 30.2864 25.2887 29.4875C24.9488 28.9134 24.5814 28.3592 24.0213 27.9452C23.4685 27.5366 23.0463 27.0248 22.3188 27.0248C22.0051 27.0248 21.8172 27.0125 21.5848 27.2333C21.3987 27.4102 21.1738 27.6499 21.04 27.8661C20.8362 28.1953 20.4451 28.4425 20.2758 28.8044C20.0581 29.2698 19.6645 29.656 19.4737 30.1455C19.2257 30.7817 18.9133 31.4551 18.8419 32.1337C18.8019 32.5134 18.7095 32.8491 18.7095 33.2374C18.7095 33.6305 18.7095 34.0236 18.7095 34.4167C18.7095 36.4608 18.7953 38.5107 18.5203 40.5358C18.0761 43.8072 18.0966 47.1466 18.0966 50.4516" stroke="#F7F5EA" stroke-width="1.5" stroke-linecap="square"/>
<path d="M18.8452 32.2019C18.8452 31.6506 18.741 31.0102 18.4366 30.5337C18.3283 30.3641 18.18 30.1486 18.0961 29.9693C18.0137 29.793 17.8044 29.7198 17.6875 29.581C17.4426 29.2901 16.1726 29.4839 15.7807 29.4839C14.8274 29.4839 14.2254 30.5606 13.7718 31.2312C13.082 32.2508 12.9859 33.6396 12.6822 34.7941C12.2486 36.442 12.2395 38.136 12.2395 39.8239C12.2395 40.3719 12.1714 40.914 12.1714 41.4562C12.1714 41.7804 12.1192 42.3618 12.0012 42.6534C11.9154 42.8653 12.0166 43.1035 11.952 43.3185C11.854 43.6443 11.8482 44.0316 11.8271 44.3719C11.7813 45.1127 11.6266 45.8423 11.6266 46.583C11.6266 47.1967 11.6197 47.8889 11.5547 48.5065C11.5058 48.9718 11.218 49.4953 11.218 49.9338" stroke="#F7F5EA" stroke-width="1.5" stroke-linecap="square"/>
<path d="M12.172 37.3143C12.172 36.505 12.2571 35.7226 11.9526 34.9702C11.7395 34.4437 11.1024 33.9813 10.6435 33.6615C10.326 33.4402 10.1638 33.1717 9.77339 33.0575C8.99092 32.8287 8.58041 34.6157 8.35843 35.0493C7.98328 35.7821 7.78258 36.6486 7.57528 37.4365C7.25422 38.6569 6.78614 39.854 6.58783 41.1037C6.39171 42.3397 6.32004 43.5774 6.17545 44.814C6.10025 45.4572 5.99099 46.0921 5.97493 46.7483C5.95235 47.6711 5.77064 48.6148 5.77064 49.5454C5.77064 50.9479 5.70254 52.3523 5.70254 53.7519C5.70254 53.9785 5.62088 54.3629 5.73659 54.5608C5.84151 54.7403 6.04303 54.9726 6.04303 55.1756" stroke="#F7F5EA" stroke-width="1.5" stroke-linecap="square"/>
<path d="M7.47334 38.1556C6.2252 38.1556 4.75652 37.3334 4.13645 36.2789C4.00865 36.0616 3.71492 35.7683 3.52355 35.5994C3.29343 35.3963 3.12454 35.1421 2.88039 34.9522C2.55447 34.6988 2.08899 34.197 1.94213 33.8341C1.86177 33.6356 1.68612 33.4266 1.58271 33.2301C1.43109 32.9419 1.30955 32.5567 1.28005 32.2342C1.21881 31.565 1.09293 30.8055 1.2914 30.1454C1.44148 29.6462 1.36438 29.0918 1.51461 28.5778C1.58631 28.3325 1.65205 28.0961 1.73783 27.8516C1.81784 27.6235 1.99057 27.4854 2.10859 27.2835C2.27029 27.0069 2.65655 26.9599 2.94849 26.9599C3.35622 26.9599 3.86391 26.887 4.25752 26.7802C5.08893 26.5544 6.13693 27.1331 6.70911 27.6574C7.17209 28.0817 7.63732 28.4535 7.98409 28.9661C8.37301 29.541 8.78264 30.0955 9.10773 30.7134C9.45149 31.3668 9.72063 32.1222 9.72063 32.849" stroke="#F7F5EA" stroke-width="1.5" stroke-linecap="square"/>
<path d="M6.09527 45.0489C6.09527 43.7812 5.94877 42.3876 5.60851 41.1589C5.47767 40.6864 5.28205 39.8999 4.9462 39.5209C4.59731 39.1272 4.4787 38.4221 4.24399 37.9512C4.0742 37.6106 3.91451 37.3424 3.63754 37.0792C3.09707 36.5656 2.11505 36.6108 1.73041 37.2688C1.02317 38.4785 1.13992 40.0735 1.13992 41.428C1.13992 43.6751 1.0681 45.9108 1.0681 48.1542C1.0681 50.3732 0.809727 52.7576 1.29951 54.9296C1.60258 56.2736 1.65921 57.7277 1.71445 59.0927C1.74817 59.9258 1.96234 60.8157 2.08949 61.6482C2.23879 62.6256 2.28898 63.6491 2.28898 64.6359C2.28898 65.9601 2.61243 67.3331 2.85953 68.6246C2.91315 68.9048 2.88678 69.1979 2.95129 69.4814C3.05101 69.9197 3.16638 70.3997 3.21861 70.8464C3.29129 71.468 3.42266 72.0762 3.58168 72.689C3.75081 73.3409 4.07117 73.9289 4.25995 74.5696C4.40758 75.0707 4.20451 75.4441 4.28389 75.9118C4.36711 76.4022 4.5497 76.8798 4.66292 77.364C4.81525 78.0154 5.17743 78.6408 5.30528 79.309C5.52243 80.444 6.08137 82.0926 7.15656 82.7214C8.23997 83.355 8.54033 82.0458 8.76844 81.3413C8.96379 80.738 9.23703 80.0845 9.2552 79.4455C9.26694 79.0328 9.32702 78.6306 9.32702 78.2171C9.32702 77.7761 9.26023 77.2815 9.36293 76.8521C9.47683 76.3759 9.39884 75.8217 9.39884 75.3355C9.39884 74.5545 9.39884 73.7734 9.39884 72.9924C9.39884 71.9107 9.17964 70.889 9.02379 69.8227C8.89951 68.9723 8.78877 68.1119 8.64476 67.2634C8.44886 66.1092 8.4552 64.9257 8.21386 63.779C8.08199 63.1524 8.10614 62.4898 8.10614 61.8529C8.10614 61.4761 8.03432 61.1113 8.03432 60.7458" stroke="#F7F5EA" stroke-width="1.5" stroke-linecap="square"/>
<path d="M60.3975 57.8671C60.4232 57.6711 61.013 57.3391 61.1703 57.1951C61.3183 57.0596 61.5151 56.9545 61.677 56.8348C62.136 56.4955 62.4208 56.0747 62.7268 55.6224C63.0414 55.1573 63.3942 54.717 63.6928 54.2368C63.8772 53.9402 64.0293 53.6301 64.2359 53.3465C64.3694 53.1634 64.5433 53.0152 64.6479 52.8165C64.9196 52.3 65.201 51.7655 65.5483 51.2888C65.8023 50.9401 65.9239 50.5572 66.1388 50.1942C66.4047 49.7449 66.5666 49.2965 67.0756 49.1237C67.2969 49.0487 67.8755 48.7796 67.9578 48.5626C68.1135 48.1515 68.2983 47.9529 68.7634 47.9529C69.0934 47.9529 69.4524 48.4306 69.4524 48.7323C69.4524 48.8834 69.5618 49.3768 69.6638 49.4979C69.7909 49.6489 69.7581 50.3099 69.7002 50.4955C69.5761 50.8937 69.4497 51.2658 69.3211 51.6629C69.2008 52.0347 68.8849 52.2059 68.7306 52.5359C68.617 52.7788 68.3436 52.9277 68.2567 53.1906C68.1574 53.491 67.9691 53.7687 67.8484 54.0636C67.6951 54.4383 67.6807 54.7856 67.6807 55.1859C67.6807 55.5739 67.924 55.8995 67.9432 56.2459C67.9473 56.3193 68.1641 56.7694 68.038 56.8037C67.8089 56.8659 67.6506 56.8704 67.4693 57.0427C67.2197 57.2799 66.9318 57.5189 66.6637 57.7736C66.3154 58.1046 66.0743 58.5375 65.8107 58.9272C65.2492 59.7572 65.253 61.0248 65.253 61.9686C65.253 63.0024 65.35 64.1008 65.6139 65.1037C65.7702 65.698 65.9831 66.2771 66.2226 66.8461C66.2913 67.0092 66.2372 67.2954 66.2372 67.4696C66.2372 67.7055 66.3227 67.9264 66.383 68.1555C66.7044 69.3772 67.0032 70.7405 67.7172 71.8067C68.107 72.3888 68.585 72.8949 68.9129 73.518C69.0616 73.8006 69.2869 74.0943 69.4013 74.3771C69.467 74.5393 69.9498 75.0638 70.1085 75.1392" stroke="#F7F5EA" stroke-width="1.5" stroke-linecap="square"/>
<path d="M70.1738 74.9521C70.2195 75.3429 70.5757 75.6084 70.7643 75.9221C70.858 76.0778 71.0481 76.1609 71.1434 76.3239C71.2401 76.4893 71.3589 76.7501 71.4861 76.8851C71.821 77.2408 72.0994 77.6338 72.3682 78.0352C72.4996 78.2313 72.5984 78.4496 72.7328 78.6449C72.8486 78.8132 73.0225 78.96 73.1119 79.1298C73.3302 79.5448 73.8631 80.0169 74.2091 80.3457C74.592 80.7096 75.0471 81.1354 75.5688 81.3261C76.0276 81.4938 76.4052 81.9352 76.8665 82.0605C77.258 82.1667 77.7504 82.444 78.1132 82.6355C78.7498 82.9716 79.5312 83.3075 80.2785 83.3075C80.6062 83.3075 80.938 83.3712 81.2591 83.4322C81.5002 83.4781 81.9339 83.5995 82.1485 83.7128C82.4179 83.8551 83.0065 83.744 83.3114 83.744C83.9682 83.744 84.5969 83.5727 85.2288 83.4045C85.6374 83.2958 86.0329 83.2074 86.4317 83.072C86.7011 82.9805 86.9573 82.8644 87.2337 82.7948C87.7003 82.6775 88.1583 82.5593 88.6444 82.5593C89.2299 82.5593 89.5535 82.3347 90.0807 82.0951C90.6598 81.8319 91.1536 81.4623 91.732 81.1875C92.3382 80.8995 92.784 80.3781 93.3359 80.0409C93.4997 79.9408 93.7443 79.9566 93.9265 79.9127C94.2323 79.839 94.5388 79.7087 94.8159 79.5663C95.0494 79.4463 95.5489 79.0978 95.6835 78.8804C95.7995 78.6929 95.9842 78.6346 96.1246 78.4716C96.3225 78.2417 96.4536 77.9579 96.6495 77.7303C97.3102 76.9629 97.8399 76.0068 98.3555 75.1357C98.648 74.6416 98.9134 74.124 99.2413 73.6565C99.6764 73.0363 99.9156 72.2086 100.196 71.5227C100.411 70.9982 100.78 70.5736 101.064 70.0885C101.226 69.8113 101.277 69.4171 101.505 69.1567C101.686 68.95 101.745 68.5852 101.866 68.3426C102.042 67.9875 102.177 67.6321 102.325 67.2687C102.647 66.4765 102.899 65.6704 103.215 64.8785C103.519 64.1161 103.69 63.3143 103.966 62.5437C104.291 61.6344 104.403 60.6725 104.72 59.7689C105.028 58.8921 105.041 57.9354 105.343 57.0566C105.513 56.5627 105.504 56.0365 105.672 55.5601" stroke="#F7F5EA" stroke-width="1.5" stroke-linecap="square"/>
<path d="M105.934 55.56C105.934 54.8117 105.934 54.0635 105.934 53.3152C105.934 52.83 106.17 52.3583 106.196 51.8811C106.217 51.4989 106.375 51.0467 106.462 50.6721C106.557 50.2684 106.639 49.7992 106.655 49.3731C106.676 48.8147 106.82 48.1882 106.951 47.641C107.095 47.0387 107.066 46.395 107.195 45.7843C107.266 45.4479 107.279 45.0813 107.213 44.7416C107.15 44.416 106.983 44.0381 106.983 43.7127C106.983 43.235 106.918 42.7364 106.918 42.2474C106.918 41.2497 106.918 40.2521 106.918 39.2544C106.918 38.6057 107.031 38.0778 107.297 37.4773C107.462 37.1037 107.525 36.6909 107.578 36.2891C107.704 35.3291 107.851 34.2687 107.57 33.3343C107.497 33.0918 107.259 32.7725 107.129 32.5514C106.981 32.2983 106.717 32.1082 106.59 31.8655" stroke="#F7F5EA" stroke-width="1.5" stroke-linecap="square"/>
<path d="M90.3173 30.369C90.3173 29.8517 90.268 29.316 90.3975 28.8101C90.4778 28.4966 90.6082 28.2756 90.7256 27.9856C91.0047 27.2959 91.8375 27.0238 92.5154 26.8806C92.955 26.7878 93.3032 26.9619 93.6929 27.0677C94.0256 27.158 94.1601 27.5359 94.3855 27.7501" stroke="#F7F5EA" stroke-width="1.5" stroke-linecap="square"/>
<path d="M71.6165 58.6777C72.6666 58.7608 73.6472 59.4327 74.7004 59.4883C75.5072 59.5309 76.474 59.8312 77.2594 59.4883C77.947 59.1881 78.6764 58.9988 79.3591 58.6915C79.911 58.4431 80.4392 58.1257 80.9995 57.8671C81.8048 57.4954 82.5832 57.0681 83.347 56.6062C83.9319 56.2524 84.4778 55.5244 84.8708 54.985C85.7192 53.8204 87.0425 53.0182 87.8891 51.8326C88.8858 50.4368 89.5972 48.84 90.5793 47.4401C90.8594 47.0408 91.0488 46.5392 91.1844 46.0822C91.3431 45.5477 91.6114 45.085 91.8114 44.5719C92.0684 43.9126 92.2715 43.2425 92.4967 42.5765C92.9406 41.2641 93.2996 39.9208 93.634 38.579C93.8362 37.7679 93.9257 37.0478 93.9257 36.2303C93.9257 35.7522 93.9257 35.2742 93.9257 34.7961C93.9257 34.5849 93.7944 34.3901 93.7944 34.1726C93.7944 34.0097 93.757 33.6828 93.6632 33.5491" stroke="#F7F5EA" stroke-width="1.5" stroke-linecap="square"/>
<path d="M93.9252 37.8516C93.9252 38.3596 93.9252 38.8677 93.9252 39.3758C93.9252 39.7859 94.1057 40.1754 94.1221 40.5813C94.15 41.27 94.3845 41.9774 94.3845 42.684C94.3845 43.4835 94.5587 44.3528 94.698 45.147C94.8892 46.237 94.9095 47.2903 94.9095 48.3928C94.9095 50.8401 95.6968 53.2428 95.6968 55.6882C95.6968 56.5036 95.8135 57.2618 96.0249 58.0542C96.2977 59.0768 96.3221 60.1412 96.6155 61.1581C96.8195 61.8652 96.7467 62.6569 96.7467 63.3889C96.7467 63.5061 96.8352 64.2896 96.7467 64.2896C96.4575 64.2896 96.1693 63.9501 95.9265 63.822C95.3318 63.508 94.7908 63.1389 94.1367 62.9317C93.7188 62.7993 93.3312 62.5767 92.941 62.3913C92.5797 62.2196 92.1472 62.1276 91.7636 62.0137C91.4378 61.9169 91.1041 61.8873 90.7757 61.8093C90.2923 61.6945 89.9073 61.4826 89.4634 61.2828C88.7017 60.9399 87.8528 60.8551 87.0028 60.7354C86.1435 60.6145 85.3542 60.3613 84.4767 60.3613C82.54 60.3613 80.6041 60.1726 78.6734 60.0461C78.0337 60.0042 77.3508 59.9248 76.7341 59.9248" stroke="#F7F5EA" stroke-width="1.5" stroke-linecap="square"/>
<path d="M100.554 20.8912C100.586 20.587 100.882 20.3596 101.115 20.1984C101.511 19.9249 101.897 19.5794 102.267 19.2666C102.596 18.9885 102.928 18.5501 103.31 18.3486C103.599 18.196 104.005 17.9773 104.243 17.7597C104.596 17.4361 105.061 17.1104 105.482 16.866C105.766 16.7013 106.053 16.5201 106.324 16.3394C106.493 16.227 106.747 16.1284 106.886 15.9965C107.022 15.8673 107.235 15.8922 107.378 15.7782C107.498 15.6821 107.7 15.5925 107.852 15.5427C107.99 15.4972 108.502 15.3241 108.559 15.217" stroke="#F7F5EA" stroke-width="1.5" stroke-linecap="square"/>
<path d="M102.785 24.3206C103.145 23.9776 103.486 23.7979 103.936 23.6035C104.472 23.3722 105.027 23.1208 105.573 22.9176C106.519 22.5658 107.365 22.0361 108.333 21.7294C109.273 21.4314 110.392 21.39 111.366 21.39C112.024 21.39 112.521 21.3706 113.086 21.6394" stroke="#F7F5EA" stroke-width="1.5" stroke-linecap="square"/>
<path d="M103.309 28.3736C103.875 28.3736 104.489 28.4279 105.03 28.2628C105.395 28.1511 105.884 28.1242 106.262 28.1242C107.243 28.1242 108.305 28.0122 109.276 28.1277C109.922 28.2044 110.593 28.623 111.216 28.623C111.481 28.623 111.807 28.7584 112.069 28.8135C112.183 28.8376 112.69 29.1176 112.626 28.9971" stroke="#F7F5EA" stroke-width="1.5" stroke-linecap="square"/>
</svg>
