<svg width="672" height="850" viewBox="0 0 672 850" fill="none" xmlns="http://www.w3.org/2000/svg">
<path d="M49.1585 679.119L3.14646 701.25L109.048 709.747L62.2124 679.119L60.3383 622.311L64.7127 567.664C64.7127 562.95 118.171 505.915 113.137 467.607L103.404 429.243C103.404 429.243 94.5797 404.301 89.4102 400.5C84.9022 397.187 33.761 400.604 26.9102 403.5C20.0593 406.397 14.7208 424.073 1.13877 464.803C-8.76239 494.495 49.1575 561.08 49.1585 567.664V623.882V679.119Z" fill="#F7F5EA"/>
<path d="M181.553 698.591L142.36 718.478L234.037 726.114L193.492 698.591L192.619 648.01L193.581 598.437C193.581 594.202 241.768 542.923 237.41 508.5L227.41 475C227.41 475 218.41 448.501 216.41 446.5C214.41 444.5 166.182 446.46 162.41 449.5C158.638 452.54 152.38 469.407 140.622 506.007C132.051 532.688 183.476 592.522 183.477 598.437L182.515 648.01L181.553 698.591Z" fill="#F7F5EA"/>
<path d="M50.46 830.169C50.1925 840 15.9102 849 15.9102 849H91.9102C91.9102 849 58.9102 840.5 58.9102 830.169V608L59.9231 559.658C59.9231 555.517 111.813 505.423 107.266 471.778L98.4749 438.082L86.6428 406.954L29.3306 410.378C28.131 412.03 18.3764 433.541 6.10916 469.315C-2.83358 495.393 52.9704 553.876 52.9712 559.658C52.9712 559.658 52.4102 758.5 50.46 830.169Z" stroke="#5A6B3B" stroke-width="2"/>
<path d="M6.37891 468.042C16.5323 468.042 26.8626 467.414 36.99 468.06C41.4125 468.342 45.6073 470.805 50.0902 471.246C54.4742 471.678 59.0688 471.264 63.4712 471.264C68.6229 471.264 73.8673 471.115 78.8676 469.653C83.2622 468.368 88.3532 467.398 92.9093 467.398C94.8422 467.398 96.775 467.398 98.7078 467.398C99.2186 467.398 99.4515 466.789 99.8807 466.789C100.095 466.789 100.186 467.398 100.806 467.398C102.226 467.398 105.82 467.023 106.588 468.686" stroke="#5A6B3B" stroke-width="2" stroke-linecap="round"/>
<path d="M45.4414 547.552C46.2742 547.552 47.0822 548.077 47.8584 548.357C49.1263 548.815 50.361 549.349 51.6464 549.753C54.8664 550.766 58.2064 550.558 61.5457 550.558C62.8927 550.558 64.0982 550.563 65.3392 550.045C65.6512 549.915 66.2881 549.776 66.5284 549.568C66.7501 549.376 67.3287 549.409 67.4424 549.162" stroke="#5A6B3B" stroke-width="2" stroke-linecap="round"/>
<path d="M183.91 826.5C182.208 842.955 149.41 848.5 149.41 848.5L235.41 846.5C235.41 846.5 198.41 837.632 194.41 826.5C190.41 815.368 191.678 634 191.678 634V589.793C191.678 586.081 236.68 541.16 232.737 510.989L225.112 480.774L213.843 453.326L164.957 455.93C163.917 457.412 155.647 476.702 145.008 508.78C137.252 532.165 185.648 584.608 185.649 589.793C185.649 589.793 185.41 812 183.91 826.5Z" stroke="#5A6B3B" stroke-width="2"/>
<path d="M145.135 512.098C153.954 512.098 162.927 511.548 171.724 512.114C175.565 512.361 179.209 514.52 183.103 514.907C186.911 515.285 190.901 514.923 194.725 514.923C199.2 514.923 203.755 514.792 208.099 513.51C211.916 512.384 216.338 511.533 220.295 511.533C221.974 511.533 223.653 511.533 225.332 511.533C225.776 511.533 226.037 511.5 226.41 511.5C226.597 511.5 226.616 511.533 227.154 511.533C228.388 511.533 231.51 511.205 232.177 512.663" stroke="#5A6B3B" stroke-width="2" stroke-linecap="round"/>
<path d="M178.982 579.329C179.678 579.329 180.353 579.86 181.001 580.144C182.06 580.607 183.091 581.147 184.165 581.556C186.854 582.581 189.644 582.371 192.433 582.371C193.558 582.371 194.565 582.375 195.601 581.852C195.862 581.72 196.394 581.58 196.595 581.369C196.78 581.175 197.263 581.208 197.358 580.959" stroke="#5A6B3B" stroke-width="2" stroke-linecap="round"/>
<path d="M195.917 452.338L209.465 317.769L205.934 313.626C183.961 321.161 181.357 408.894 182.802 451.818L195.917 452.338Z" fill="#F7F5EA"/>
<path d="M336.821 159.102L607.472 2.77102C612.793 1.82844 616.092 3.25372 617.239 4.3725C641.166 28.3591 661.443 78.2514 669.476 100.702C672.703 109.652 664.097 115.693 661.299 118.602C659.062 120.929 651.33 125.986 647.744 128.224L405.676 270.309C400.168 273.889 389.897 277.469 385.45 278.811C375.911 280.676 354.078 282.929 343.061 277.021C332.044 271.114 321.831 274.858 318.101 277.469L238.273 320.654L236.982 323.563L224.717 330.275L222.135 329.604L216.11 333.184C215.077 333.542 212.811 333.035 211.807 332.737C204.749 326.113 195.239 306.259 191.365 297.159C190.333 293.937 192.226 291.491 193.302 290.671L199.327 287.314L200.403 283.958L211.807 277.469H216.325L291.42 229.809C295.551 229.272 299.883 223.32 301.533 220.411C303.254 191.412 325.776 167.456 336.821 159.102Z" fill="#F7F5EA"/>
<path d="M198.873 293.228C199.936 301.545 208.505 316.935 213.441 324.884L214.377 326.369C216.222 328.691 219.065 328.231 220.257 327.71L226.005 324.229L229.087 324.861L240.07 318.337L242.505 314.584L318.501 273.86C321.128 270.672 327.899 269.778 330.957 269.729C353.499 281.473 383.494 273.65 395.673 268.271L658.855 115.176C661.83 112.6 662.143 109.031 661.928 107.57L661.679 106.12C656.133 75.5096 630.695 35.0981 618.484 18.4897C613.552 11.7428 604.409 16.1469 600.733 17.1488L600.445 17.2339C597.303 18.2062 589.745 22.1362 586.256 24.0372L349.89 160.556C344.253 163.505 336.05 170.409 332.652 173.493L332.019 174.186C325.4 181.514 313.034 197.523 311.221 208.957L311.141 209.516C309.607 221.351 301.311 228.134 297.355 230.046L222.143 276.734L219.28 276.484L207.667 283.622L206.775 286.072L200.86 289.45L200.705 289.596C200.036 290.297 199.376 291.827 199.017 292.815L198.873 293.228ZM216.849 324.56C214.542 320.936 211.056 315.037 208.004 308.968C205.025 303.045 202.647 297.317 201.972 293.42C202.092 293.111 202.238 292.762 202.398 292.429C202.534 292.145 202.662 291.914 202.768 291.747L208.215 288.635L209.221 288.061L209.612 286.986L210.133 285.556L219.924 279.539L221.77 279.7L222.795 279.79L223.684 279.238L298.788 232.616C303.45 230.282 312.179 222.936 314.05 210.396L314.135 209.787C314.808 204.596 318.207 197.858 322.538 191.276C326.76 184.858 331.592 178.997 334.759 175.553C338.215 172.428 346.043 165.887 351.227 163.175L351.286 163.144L351.343 163.112L587.663 26.6216C589.434 25.6565 592.266 24.1615 595.009 22.8138C597.693 21.4952 600.006 20.4607 601.212 20.0836L601.439 20.0174C602.372 19.7631 604.009 19.1853 605.17 18.8263C606.544 18.4019 607.974 18.0315 609.376 17.8718C612.121 17.5591 614.381 18.0573 616.013 20.2888L616.017 20.2951C622.145 28.6294 631.686 43.0919 640.304 59.2773C648.946 75.506 656.525 93.2152 658.944 108.122C659.05 108.896 658.855 111.133 657.109 112.79L394.378 265.624C388.553 268.175 378.407 271.342 367.012 272.458C355.511 273.585 343.024 272.598 332.441 267.084L331.779 266.739L331.018 266.752C329.285 266.78 326.577 267.039 323.895 267.74C321.535 268.357 318.634 269.456 316.649 271.516L241.14 311.978L240.421 312.363L237.946 316.178L228.641 321.706L226.723 321.312L225.545 321.072L224.495 321.708L218.997 325.035C218.779 325.103 218.389 325.185 217.976 325.143C217.581 325.103 217.201 324.963 216.849 324.56Z" fill="#5A6B3B"/>
</svg>
