<svg width="202" height="262" viewBox="0 0 202 262" fill="none" xmlns="http://www.w3.org/2000/svg">
<path d="M95.3809 129.672C105.423 134.187 103.902 143.458 106.161 152.476C108.413 161.465 105.869 166.72 102.042 175.232C100.213 179.301 97.4092 182.203 95.077 185.871C92.6553 189.679 88.4044 194.154 84.4303 196.225C75.0413 201.117 66.56 201.219 56.9458 196.897C49.6781 193.63 41.9419 189.243 37.1595 182.916C35.3291 180.494 34.4218 176.139 33.3146 173.285C32.2483 170.536 30.4945 168.274 30.2851 165.194C29.9297 159.966 32.4673 154.268 32.9811 148.958C33.6281 142.269 34.6078 137.28 37.5744 131.149C40.1075 125.913 46.2535 120.862 52.0148 120.036C55.6563 119.514 59.0961 118.851 62.7041 118.855C66.0856 118.859 69.6733 119.956 72.9274 120.83C78.0177 122.198 83.6748 125.405 88.9427 125.722C91.2694 125.862 93.4529 126.693 95.5768 127.648" stroke="#5A6B3B" stroke-width="3" stroke-linecap="square"/>
<path d="M103.887 140.481C108.24 142.438 112.21 144.923 116.436 146.823C120.526 148.661 125.693 151.598 130.199 151.26C139.129 150.591 148.403 148.406 155.367 142.281C162.698 135.833 166.78 125.864 166.284 116.049C166.066 111.746 165.716 105.518 162.449 102.273C161.112 100.945 160.235 99.026 159.197 97.4679C157.767 95.3216 155.543 93.9156 154 91.9439C152.296 89.766 150.407 87.6995 148.631 85.5646C142.291 77.944 129.591 73.1156 119.877 73.8433C108.822 74.6715 101.778 80.5613 95.5621 88.8044C92.8553 92.3937 91.2517 96.8878 89.3729 101.067C88.1549 103.777 88.029 110.417 89.024 113.351C90.5652 117.896 90.4571 122.611 93.6423 126.623C96.1532 129.786 98.9498 132.914 100.501 136.86" stroke="#5A6B3B" stroke-width="3" stroke-linecap="square"/>
<path d="M163.663 111.651C164.584 109.602 160.011 103.099 157.913 102.015C154.519 100.261 150.761 98.6726 147.832 102.105C142.758 108.052 144.397 117.582 146.623 124.282C148.253 129.187 153.285 141.142 157.752 131.205C159.261 127.849 161.086 124.584 161.588 120.982C162.023 117.861 160.516 113.844 161.866 110.843" stroke="#5A6B3B" stroke-width="3" stroke-linecap="square"/>
<path d="M96.3211 169.565C102.33 167.769 98.9474 153.203 97.0867 147.498C95.6884 143.21 90.6349 140.27 87.4002 139.339C84.5334 138.514 80.0361 140.827 78.2716 142.944C73.3371 148.865 74.8188 163.793 77.922 172.032C79.0785 175.102 85.3558 174.056 86.9607 173.576C89.4461 172.833 98.081 171.98 98.2747 168.374" stroke="#5A6B3B" stroke-width="3" stroke-linecap="square"/>
<path d="M151.893 88.6084C154.543 84.5569 158.683 81.8032 161.958 78.5253C166.123 74.356 171.661 69.3374 175.186 64.3054C177.349 61.2188 182.278 56.1911 185.021 53.3206C186.78 51.4788 187.898 49.9 189.352 47.6772C191.728 44.0453 190.155 45.9855 187.595 47.2239C179.487 51.1468 172.185 52.2844 164.382 60.6635C158.791 66.6669 152.283 71.6916 147.498 79.005" stroke="#5A6B3B" stroke-width="3" stroke-linecap="square"/>
<path d="M45.0579 189.469C42.2485 195.718 34.151 197.898 28.4744 201.627C22.4579 205.581 16.4036 209.446 10.3405 213.43C8.39634 214.707 1.27667 218.775 5.46463 213.285C8.17313 209.734 13.8631 204.78 17.8643 202.401C22.7047 199.522 26.5113 195.742 30.7842 192.262C33.2116 190.285 37.6118 187.009 38.8047 184.355" stroke="#5A6B3B" stroke-width="3" stroke-linecap="square"/>
</svg>
