<svg width="425" height="576" viewBox="0 0 425 576" fill="none" xmlns="http://www.w3.org/2000/svg">
<path d="M149 381.633V406.969" stroke="#5A6B3B" stroke-width="2" stroke-linecap="round"/>
<path d="M149.536 381.365C150.831 381.365 152.529 380.701 153.826 381.164C154.438 381.383 155.379 381.633 156.037 381.633C156.533 381.633 157.154 382.038 157.639 382.177C158.865 382.527 159.985 383.16 160.528 384.381C161.054 385.565 161.528 386.639 161.876 387.859C162.066 388.525 162.137 389.199 162.137 389.944C162.137 390.873 161.433 391.55 161.332 392.357C161.225 393.218 159.239 394.286 158.517 394.606C157.919 394.872 157.102 394.669 156.507 394.934C155.931 395.19 155.001 395.44 154.362 395.44C153.64 395.44 152.94 395.843 152.217 395.843C151.584 395.843 151.06 396.245 150.474 396.245" stroke="#5A6B3B" stroke-width="2" stroke-linecap="round"/>
<path d="M169.644 382.169C170.174 382.766 169.51 384.165 169.51 384.85C169.51 385.71 169.778 386.774 169.778 387.665C169.778 388.787 170.18 389.756 170.18 390.853C170.18 391.742 170.34 392.95 170.575 393.772C170.715 394.265 170.716 394.988 170.716 395.507C170.716 396.063 170.984 396.623 170.984 397.116C170.984 398.055 171.118 399.064 171.118 399.931C171.118 400.912 171.252 401.807 171.252 402.746C171.252 403.234 171.653 405.494 171.118 405.494" stroke="#5A6B3B" stroke-width="2" stroke-linecap="round"/>
<path d="M188.947 382.974C188.903 383.319 186.543 384.266 186.131 384.314C185.477 384.391 185.11 385.094 184.597 385.387C184.162 385.635 183.431 386.218 183.182 386.653C182.099 388.549 180.904 390.755 180.904 393.027C180.904 393.674 180.77 394.293 180.77 394.964C180.77 395.442 180.906 396.516 181.201 396.885C181.455 397.201 181.741 398.037 181.834 398.456C181.941 398.937 182.233 399.457 182.371 399.938C182.694 401.072 183.231 402.81 184.389 403.453C185.435 404.034 186.582 404.288 187.807 404.288C188.407 404.288 188.991 404.422 189.617 404.422C190.228 404.422 190.833 404.153 191.426 404.153C192.508 404.153 193.76 403.089 194.547 402.381C196.969 400.201 197.614 397.604 198.188 394.442C198.476 392.859 198.474 391.577 198.188 390.004C197.939 388.634 196.439 387.035 195.515 386.057C194.642 385.133 193.281 382.974 191.829 382.974C191.279 382.974 190.749 382.84 190.153 382.84C189.718 382.84 188.603 383.259 188.41 383.644" stroke="#5A6B3B" stroke-width="2" stroke-linecap="round"/>
<path d="M214.416 382.572C214.52 383.509 215.306 384.468 215.354 385.387C215.378 385.843 215.723 386.685 215.995 387.025C216.369 387.493 216.295 388.439 216.665 388.902C216.977 389.292 216.909 390.021 217.127 390.481C217.397 391.051 217.35 391.723 217.529 392.327C217.81 393.277 218.092 394.038 218.601 394.904C219.744 396.847 221.024 398.527 222.087 400.534C222.515 401.343 223.069 402.489 223.695 403.185C224.155 403.697 224.59 404.951 225.14 405.226" stroke="#5A6B3B" stroke-width="2" stroke-linecap="round"/>
<path d="M225.408 405.226C225.408 404.457 226.158 403.544 226.347 402.791C226.486 402.231 226.683 401.627 226.749 401.07C226.798 400.655 227.26 400.311 227.285 399.864C227.34 398.874 228.258 397.866 228.484 396.848C228.844 395.228 229.598 393.569 230.338 392.089C230.728 391.31 230.603 390.229 231.038 389.468C231.454 388.74 231.678 387.869 232.006 387.129C232.314 386.438 232.781 385.372 232.781 384.649C232.781 384.283 233.026 383.903 233.049 383.51C233.067 383.199 233.172 382.593 233.317 382.304" stroke="#5A6B3B" stroke-width="2" stroke-linecap="round"/>
<path d="M241.092 382.974C241.092 383.57 240.836 384.966 241.196 385.416C241.38 385.646 241.393 386.499 241.464 386.802C241.608 387.412 241.86 387.898 241.904 388.537C242.046 390.605 241.762 392.723 241.762 394.874C241.762 396.852 241.896 398.766 241.896 400.72C241.896 402.241 241.499 404.565 242.165 405.896" stroke="#5A6B3B" stroke-width="2" stroke-linecap="round"/>
<path d="M252.352 406.164C252.352 402.35 251.682 398.498 251.682 394.696C251.682 393.695 251.548 392.704 251.548 391.687C251.548 391.221 251.414 390.834 251.414 390.376C251.414 389.801 251.548 389.208 251.548 388.671C251.548 387.817 251.414 387.026 251.414 386.191C251.414 385.766 251.414 385.342 251.414 384.918C251.414 384.439 251.816 384.067 251.816 383.644" stroke="#5A6B3B" stroke-width="2" stroke-linecap="round"/>
<path d="M252.217 383.51C252.217 384.208 253.786 385.02 254.257 385.491C255.07 386.304 255.822 387.175 256.611 387.963C257.454 388.807 257.991 389.895 258.815 390.719C259.55 391.454 260.5 392.387 261.034 393.296C261.522 394.125 262.272 395.162 262.911 395.872C263.735 396.788 264.036 397.995 264.847 398.896C265.297 399.395 265.474 400.143 265.92 400.638C266.341 401.106 266.353 401.917 266.724 402.381C267.226 403.009 267.386 405.092 268.303 405.092" stroke="#5A6B3B" stroke-width="2" stroke-linecap="round"/>
<path d="M267.5 382.438C267.5 384.117 267.634 385.811 267.634 387.45C267.634 388.348 267.634 389.247 267.634 390.145C267.634 390.783 267.634 391.421 267.634 392.059C267.634 392.676 267.566 393.787 267.798 394.368C268.152 395.253 267.902 396.663 267.902 397.615C267.902 398.655 267.902 399.695 267.902 400.735C267.902 401.528 268.304 402.221 268.304 403.014C268.304 403.312 268.438 403.661 268.438 404.019C268.438 404.41 268.304 404.753 268.304 405.092" stroke="#5A6B3B" stroke-width="2" stroke-linecap="round"/>
<path d="M54.6543 3.04593C54.5319 3.84488 52.7109 4.9151 52.0064 5.48968C50.8766 6.41104 50.5889 7.44617 49.6371 8.4165C47.62 10.4729 45.2455 12.7665 43.6792 15.0658C40.625 19.5494 39.0973 20.5539 35.4189 25.0539C33.7809 27.0579 30.7446 31.416 29.2882 33.5539C27.8902 35.6063 27.7101 35.8657 24.9967 39.5539C23.1575 42.0539 21.4931 45.5005 19.8476 47.5539C18.2021 49.6074 16.1811 51.2021 14.5168 53.1712C13.3482 54.5539 11.8468 55.3562 10.8962 56.0539C10.5676 56.2951 7.11536 58.5708 7.96662 58.7691C11.3357 59.5542 16.3282 58.7976 19.8476 58.7976C23.4387 58.7976 27.0247 59.8205 30.8227 59.8205C34.8768 59.8205 38.2504 60.332 42.2507 60.332C46.0555 60.332 50.1538 59.8489 53.7484 59.8489C58.6281 59.8489 63.5952 59.8205 67.8242 59.8205C75.8058 59.8205 82.3124 60.332 90.4018 60.332C107.321 60.332 123.713 59.309 140.574 59.309C148.622 59.309 156.67 59.309 164.719 59.309C173.636 59.309 181.664 59.309 190.438 59.309C194.733 59.309 198.408 58.9039 203.925 58.9039C205.93 58.9039 208.678 58.9039 210.669 58.9039C213.131 58.9039 219.798 58.2861 222.317 58.2861C230.599 58.2861 234.699 58.2861 243.287 58.2861C245.412 58.2861 247.578 58.1844 249.697 58.2861C251.491 58.3721 254.631 58.9039 256.649 58.9039C259.877 58.9039 263.829 59.7463 267.071 59.8205C271.456 59.9208 275.726 59.9859 279.173 59.8205C281.907 59.6894 290.76 58.0175 292.343 59.309" stroke="#5A6B3B" stroke-width="2" stroke-linecap="round"/>
<path d="M293.599 58.7976C293.707 58.0891 304.936 58.4801 306.42 58.826C310.62 59.8045 315.187 58.7976 319.312 58.7976C324.049 58.7976 328.172 58.2861 332.795 58.2861C337.546 58.2861 342.432 59.309 347.22 59.309C357.308 59.309 367.168 58.7976 377.009 58.7976C382.027 58.7976 387.044 58.7976 392.061 58.7976C394.387 58.7976 405.557 59.8005 406.485 58.2861" stroke="#5A6B3B" stroke-width="2" stroke-linecap="round"/>
<path d="M361.958 2.53445C362.23 4.30941 365.236 6.85759 366.348 8.44492C368.388 11.3557 370.135 13.0202 371.995 16.0539C373.221 18.0539 373.834 19.0539 375.06 21.0539C376.243 22.9829 378.829 24.9321 379.965 26.5539C381.637 28.943 382.193 30.8716 384.256 32.5539C386.687 34.5369 385.936 34.9585 387.934 37.0539C389.511 38.707 390.585 40.3412 392.2 41.805C393.211 42.7211 394.065 44.0539 395.232 45.2149C397.315 47.2876 399.358 50.5074 401.608 52.5461C404.097 54.8015 405.766 56.4582 408.994 57.7746" stroke="#5A6B3B" stroke-width="2" stroke-linecap="round"/>
<path d="M55.9092 2.02297C57.6395 2.02297 62.7465 1.76722 64.6893 1.76722C67.8245 1.76722 72.2391 1.46211 73.7481 1.48307C75.7944 1.51148 77.5129 1.51148 78.8597 1.51148C82.5382 1.51148 88.1651 1.76722 90.508 1.76722C93.1748 1.76722 96.2338 2.14816 99.7041 2.02297C102.745 1.91326 106.514 1.51148 109.53 1.51148C116.044 1.51148 123.119 1.20366 129.913 1.51148C155.525 2.67195 180.696 2.02297 206.425 2.02297C219.373 2.02297 232.163 1 245.308 1C259.207 1 272.759 1.51148 286.7 1.51148C299.268 1.51148 310.913 1.51148 323.701 1.51148C336.435 1.51148 348.636 2.53445 361.33 2.53445" stroke="#5A6B3B" stroke-width="2" stroke-linecap="round"/>
<path d="M62.8076 9.69522C66.0363 9.69522 69.2649 9.69522 72.4936 9.69522C76.3324 9.69522 79.7268 10.5715 83.5035 10.7182C87.3963 10.8694 90.8684 11.7412 94.7922 11.7412C97.6143 11.7412 100.437 11.7412 103.259 11.7412C115.265 11.7412 126.841 11.2297 139.006 11.2297C162.009 11.2297 185.161 10.2067 208.306 10.2067C220.727 10.2067 232.898 9.69522 245.343 9.69522C251.953 9.69522 258.221 10.2067 264.749 10.2067C266.862 10.2067 271.606 10.1348 273.529 10.8318C277.138 12.1398 282.106 10.8534 285.794 11.7127C288.223 12.2789 292.013 12.2526 294.539 12.2526C297.093 12.2526 300.202 12.7959 302.692 13.2472C308.105 14.2282 315.013 13.2756 320.566 13.2756C326.309 13.2756 332.269 12.7641 337.812 12.7641C340.948 12.7641 344.084 12.7641 347.219 12.7641C350.238 12.7641 352.56 13.6139 355.686 12.7641" stroke="#5A6B3B" stroke-width="2" stroke-linecap="round"/>
<path d="M62.1807 28.1086C64.997 28.1086 66.7143 26.5741 69.4277 26.5741C72.6564 26.5741 75.885 26.5741 79.1137 26.5741C81.7041 26.5741 85.043 27.5539 87.5453 28.137C88.9972 28.4753 94.209 28.18 94.7924 29.1315" stroke="#5A6B3B" stroke-width="2" stroke-linecap="round"/>
<path d="M117.997 36.8038C119.989 36.8038 121.615 35.7808 123.954 35.7808C126.672 35.7808 129.39 35.7808 132.107 35.7808C137.07 35.7808 141.381 37.3153 146.218 37.3153" stroke="#5A6B3B" stroke-width="2" stroke-linecap="round"/>
<path d="M160.642 25.0397C162.875 26.6583 167.836 25.0397 170.363 25.0397C174.021 25.0397 177.68 25.0397 181.338 25.0397C185.091 25.0397 188.354 25.6095 191.999 26.0343C195.039 26.3884 197.185 26.0627 200.152 26.0627" stroke="#5A6B3B" stroke-width="2" stroke-linecap="round"/>
<path d="M208.306 40.8957C210.737 41.1436 212.694 41.9186 215.553 41.9186C218.677 41.9186 221.801 41.9186 224.925 41.9186C231.093 41.9186 238.455 40.2262 244.68 41.9186" stroke="#5A6B3B" stroke-width="2" stroke-linecap="round"/>
<path d="M239.037 24.0167C239.353 24.0167 242.383 24.0167 241.545 24.0167C240.593 24.0167 238.688 24.0167 238.688 24.0167C238.688 24.0167 241.659 24.8306 243.079 24.4998C245.823 23.8602 248.886 22.9938 251.893 22.9938C255.2 22.9938 259.418 22.3998 262.241 23.6189C265.184 24.8895 269.026 24.9001 272.276 24.0167" stroke="#5A6B3B" stroke-width="2" stroke-linecap="round"/>
<path d="M278.547 46.0105C278.928 43.5242 289.848 44.9351 291.717 45.6127C295.049 46.8204 300.604 46.0105 304.26 46.0105" stroke="#5A6B3B" stroke-width="2" stroke-linecap="round"/>
<path d="M304.26 29.1316C307.396 29.1316 310.531 29.1316 313.667 29.1316C318.298 29.1316 323.038 30.1545 327.464 30.1545C333.195 30.1545 339.02 30.1545 344.397 30.1545" stroke="#5A6B3B" stroke-width="2" stroke-linecap="round"/>
<path d="M343.77 42.9416C347.361 42.9416 351.174 43.3055 354.431 43.4531C358.008 43.6151 361.301 44.476 365.093 44.476" stroke="#5A6B3B" stroke-width="2" stroke-linecap="round"/>
<path d="M51.5186 47.5449C53.8871 47.5449 56.7133 47.0334 59.3927 47.0334C62.6075 47.0334 65.595 47.9194 68.4516 48.0564C73.966 48.321 79.253 47.0334 84.7574 47.0334" stroke="#5A6B3B" stroke-width="2" stroke-linecap="round"/>
<path d="M14.5176 67.4928C63.8519 67.4928 113.698 68.0043 163.465 68.0043C169.214 68.0043 175.569 68.0043 181.339 68.0043C187.055 68.0043 192.654 67.4928 198.586 67.4928C211.28 67.4928 223.426 66.9813 236.214 66.9813C247.927 66.9813 260.52 67.4928 272.589 67.4928C278.031 67.4928 284.567 68.5256 290.114 67.9758C295.886 67.4039 302.03 67.4039 307.534 67.4039" stroke="#5A6B3B" stroke-width="2" stroke-linecap="round"/>
<path d="M307.396 67.4928C324.64 67.4928 342.113 68.5157 359.449 68.5157C368.229 68.5157 377.009 68.5157 385.789 68.5157C389.291 68.5157 394.024 68.7524 397.356 67.9758C400.682 67.201 403.308 65.9583 407.112 65.9583" stroke="#5A6B3B" stroke-width="2" stroke-linecap="round"/>
<path d="M17.6527 68.0042C17.6527 74.142 17.6527 80.2798 17.6527 86.4176C17.6527 91.987 17.6527 97.4215 17.6527 103.054C17.6527 109.036 17.6527 114.209 17.6527 120.175C17.6527 125.978 17.6527 132.537 17.6527 138.054C17.6527 144.117 17.6526 149.899 17.6526 156.054C17.6526 161.97 17.6527 167.554 17.6527 173.554C17.6527 185.77 17.6523 196.673 17.6523 208.054C17.6523 211.199 17.6527 214.409 17.6527 217.554C17.6527 220.169 17.5138 224.032 17.6527 227.054C17.7832 229.892 17.6527 231.778 17.6527 234.554C17.6527 237.554 17.6527 241.12 17.6527 243.954C17.6527 246.785 17.6527 249.141 17.6527 252.054C17.6527 253.721 18.2799 259.935 18.2799 261.554C18.2799 263.554 18.2799 267.139 18.2799 268.761C18.2799 271.393 18.1056 274.138 18.2799 276.554C18.6818 282.126 18.2799 287.044 18.2799 292.554C18.2799 295.383 18.899 298.777 18.2799 301.554C17.641 304.42 18.2799 306.937 18.2799 309.936C18.2799 312.539 17.0256 315.439 17.0256 317.864C17.0256 321.173 17.0256 325.87 17.0256 329.054C17.0256 331.479 17.0256 335.565 17.0256 338.054C17.0256 339.418 17.0256 343.19 17.0256 344.554C17.0256 345.677 16.4136 351.554 17.0267 349.554" stroke="#5A6B3B" stroke-width="2" stroke-linecap="round"/>
<path d="M400.113 68.4215C400.113 74.3683 398.498 79.8141 398.498 85.759C398.498 91.9039 400.651 108.409 400.651 114.554C400.651 140.41 400.774 157.025 400.194 183.054C399.581 210.554 399.581 238.554 399.581 271.554C399.581 283.25 399.581 310.357 399.581 322.054C399.581 324.98 399.036 336.751 399.036 339.677C399.036 341.14 399.036 342.603 399.036 344.066C399.036 345.835 398.254 347.691 400.651 348.016" stroke="#5A6B3B" stroke-width="2" stroke-linecap="round"/>
<path d="M10.7627 349.581C14.1779 349.581 17.6411 350.733 21.1296 350.733C24.7249 350.733 28.3782 350.888 31.9677 350.733C38.7515 350.442 45.7736 350.349 52.7015 350.349C59.5889 350.349 66.8622 350.733 73.9065 350.733C82.0879 350.733 90.1996 351.502 98.41 351.502C102.023 351.502 105.635 351.502 109.248 351.502C113.036 351.502 116.424 350.349 120.086 350.349C128.533 350.349 136.98 350.349 145.428 350.349C164.119 350.349 182.811 350.349 201.503 350.349C221.048 350.349 240.739 350.349 260.039 350.349C267.566 350.349 275.268 351.118 282.763 351.118C290.581 351.118 298.321 350.349 306.219 350.349C316.062 350.349 326.205 349.965 336.273 349.965C344.997 349.965 353.556 350.733 362.294 350.733C367.22 350.733 372.07 349.581 376.902 349.581C380.28 349.581 383.559 348.812 386.798 348.812C390.22 348.812 393.356 348.043 396.694 348.043C398.411 348.043 400.163 347.961 401.877 348.043C403.35 348.114 404.864 348.812 406.589 348.812" stroke="#5A6B3B" stroke-width="2" stroke-linecap="round"/>
<path d="M406.589 349.965C408.562 348.535 407.531 354.191 407.531 354.769C407.531 356.353 408.328 359.721 407.427 361.11C406.641 362.32 401.75 362.263 400.227 362.263C397.017 362.263 393.892 361.879 390.594 361.879C384.302 361.879 378.01 361.879 371.718 361.879C366.158 361.879 360.892 361.11 355.461 361.11C352.712 361.11 349.964 361.11 347.215 361.11C344.917 361.11 341.666 360.619 339.466 361.131C334.749 362.23 329.856 362.263 324.596 362.263C317.314 362.263 309.649 362.647 302.213 362.647C294.89 362.647 287.554 361.879 280.301 361.879C273.728 361.879 267.166 361.11 260.51 361.11C256.69 361.11 252.869 360.341 248.939 360.341C244.078 360.341 239.218 360.341 234.357 360.341C226.399 360.341 218.467 360.726 210.56 360.726C207.277 360.726 204.083 361.11 200.874 361.11C198.125 361.11 194.637 360.644 191.947 361.131C189.135 361.641 186.177 361.494 183.23 361.494C179.809 361.494 176.165 361.879 172.601 361.879C165.356 361.879 158.036 362.429 150.715 362.263C147.528 362.191 143.652 361.687 140.584 361.131C137.968 360.657 133.994 361.989 131.631 360.918C129.448 359.929 126.104 361.455 123.856 360.64C121.427 359.76 117.551 360.341 114.902 360.341" stroke="#5A6B3B" stroke-width="2" stroke-linecap="round"/>
<path d="M115.844 360.341C106.601 360.341 97.2587 359.573 88.147 359.573C77.6796 359.573 67.2598 360.341 56.9416 360.341C46.7335 360.341 36.5598 361.11 26.3121 361.11C23.0921 361.11 19.8721 361.11 16.6521 361.11C14.1921 361.11 13.2383 361.329 11.809 359.872C9.4262 357.443 9.34814 353.823 9.34814 350.734" stroke="#5A6B3B" stroke-width="2" stroke-linecap="round"/>
<path d="M49.3765 87.5539C55.0378 88.5539 59.3292 88.5539 63.6207 88.5539C68.3162 88.5539 73.4038 88.5539 78.3344 88.5539C83.3004 88.5539 86.9492 88.5539 91.8219 88.5539C94.765 88.5539 97.5521 88.5539 100.405 88.5539C101.631 88.5539 103.792 88.5539 105.007 88.5539C106.525 88.5539 105.309 93.0539 105.309 94.5539C105.309 96.653 105.309 98.913 105.309 101.054C105.309 103.552 105.309 104.056 105.309 106.554C105.309 111.072 105.922 114.982 105.922 119.554C105.922 123.241 105.309 125.554 105.309 129.054C105.309 130.671 105.195 132.468 105.309 134.054C105.457 136.107 105.386 138.583 105.922 140.554C106.108 141.236 105.994 141.502 106.536 142.054C106.969 142.496 106.703 143.819 105.309 143.554C103.47 143.204 100.6 143.204 99.3522 143.204C93.8109 143.204 88.2829 142.819 82.8594 142.819C72.3104 142.819 61.5926 143.204 51.2875 143.204C49.3603 143.204 49.3765 143.896 49.3765 142.243C49.3765 141.224 49.5204 139.433 49.5204 138.554C49.5204 135.054 49.5202 136.054 49.52 132.554C49.5198 129.392 49.9786 127.574 49.9786 124.054C49.9786 122.554 50.1332 118.054 49.9786 116.554C49.9269 116.053 49.9786 114.589 49.9786 114.054C49.9786 112.758 50.5434 111.252 49.9786 110.054C49.3487 108.718 50.0204 106.78 49.9786 105.349C49.9498 104.363 49.9786 102.484 49.9786 101.612C49.9786 100.054 50.3451 96.3924 50.3451 94.9723C50.3451 93.2752 50.3451 91.3357 50.3451 89.3998" stroke="#5A6B3B" stroke-width="2" stroke-linecap="round"/>
<path d="M76.7334 90.937C78.2545 92.3326 77.6759 96.7099 77.6759 98.4311C77.6759 100.161 77.6759 101.89 77.6759 103.619C77.6759 107.847 77.1082 111.826 77.1082 116.054C77.1082 118.938 76.4951 122.187 76.4951 125.054C76.4951 126.709 76.495 128.59 76.495 130.054C76.495 131.607 76.1523 132.017 76.4948 133.554C76.7579 134.734 76.495 135.366 76.495 136.554C76.495 136.942 76.495 137.863 76.495 138.554" stroke="#5A6B3B" stroke-width="2" stroke-linecap="round"/>
<path d="M54.3062 110.921C56.7584 110.921 61.6117 110.614 63.0071 110.554C65.1448 110.462 67.5579 110.554 69.7508 110.554C72.007 110.554 73.8915 110.537 76.0258 110.537C83.4679 110.537 91.0165 110.537 98.4089 110.537" stroke="#5A6B3B" stroke-width="2" stroke-linecap="round"/>
<path d="M48.9067 177.054C54.568 178.054 58.8595 178.054 63.151 178.054C67.8464 178.054 72.9341 178.054 77.8647 178.054C82.8307 178.054 86.4794 178.054 91.3522 178.054C94.2952 178.054 97.0824 178.054 99.9351 178.054C101.161 178.054 103.322 178.054 104.537 178.054C106.056 178.054 104.84 182.554 104.84 184.054C104.84 186.153 104.84 188.413 104.84 190.554C104.84 193.052 104.84 193.556 104.84 196.054C104.84 200.572 105.453 204.482 105.453 209.054C105.453 212.741 104.84 215.054 104.84 218.554C104.84 220.171 104.725 221.968 104.84 223.554C104.988 225.607 104.916 228.083 105.453 230.054C105.639 230.736 105.524 231.002 106.066 231.554C106.5 231.996 106.233 233.319 104.84 233.054C103 232.704 100.13 232.704 98.8825 232.704C93.3412 232.704 87.8131 232.319 82.3897 232.319C71.8407 232.319 61.1229 232.704 50.8178 232.704C48.8905 232.704 48.9067 233.396 48.9067 231.743C48.9067 230.724 49.0507 228.933 49.0507 228.054C49.0507 224.554 49.0505 225.554 49.0503 222.054C49.0501 218.892 49.5089 217.074 49.5089 213.554C49.5089 212.054 49.6635 207.554 49.5089 206.054C49.4572 205.553 49.5089 204.089 49.5089 203.554C49.5089 202.258 50.0737 200.752 49.5089 199.554C48.879 198.218 49.5507 196.28 49.5089 194.849C49.4801 193.863 49.5089 191.984 49.5089 191.112C49.5089 189.554 49.8754 185.892 49.8754 184.472C49.8754 182.775 49.8754 180.836 49.8754 178.9" stroke="#5A6B3B" stroke-width="2" stroke-linecap="round"/>
<path d="M76.2642 180.437C77.7852 181.833 77.2066 186.21 77.2066 187.931C77.2066 189.661 77.2066 191.39 77.2066 193.119C77.2066 197.347 76.639 201.326 76.639 205.554C76.639 208.438 76.0259 211.687 76.0259 214.554C76.0259 216.209 76.0258 218.09 76.0258 219.554C76.0258 221.107 75.683 221.517 76.0256 223.054C76.2887 224.234 76.0258 224.866 76.0258 226.054C76.0258 226.442 76.0258 227.363 76.0258 228.054" stroke="#5A6B3B" stroke-width="2" stroke-linecap="round"/>
<path d="M53.8374 200.421C56.2897 200.421 61.1429 200.114 62.5383 200.054C64.676 199.962 67.0892 200.054 69.2821 200.054C71.5382 200.054 73.4227 200.037 75.5571 200.037C82.9991 200.037 90.5477 200.037 97.9401 200.037" stroke="#5A6B3B" stroke-width="2" stroke-linecap="round"/>
<path d="M48.9067 274.054C54.4244 274.554 57.4897 274.054 61.7812 274.054C66.4766 274.054 72.7904 274.554 77.721 274.554C82.687 274.554 86.3358 274.554 91.2085 274.554C94.1515 274.554 96.9387 274.554 99.7914 274.554C101.018 274.554 103.322 275.196 104.537 275.196C106.056 275.196 104.84 280.336 104.84 282.049C104.84 284.446 104.84 287.028 104.84 289.473C104.84 292.326 104.84 292.902 104.84 295.755C104.84 300.915 105.453 305.38 105.453 310.603C105.453 314.814 104.84 317.456 104.84 321.453C104.84 323.3 104.725 325.352 104.84 327.164C104.988 329.509 104.916 332.337 105.453 334.588C105.639 335.367 105.524 335.67 106.066 336.301C106.5 336.806 106.233 338.317 104.84 338.014C103 337.614 100.13 337.614 98.8825 337.614C93.3412 337.614 87.8131 337.175 82.3897 337.175C71.8407 337.175 61.1229 337.614 50.8178 337.614C48.8905 337.614 48.9067 338.405 48.9067 336.517C48.9067 335.353 49.0507 333.307 49.0507 332.303C49.0507 328.306 49.0505 329.448 49.0503 325.451C49.0501 321.839 49.5089 319.763 49.5089 315.742C49.5089 314.029 49.6635 308.889 49.5089 307.176C49.4572 306.604 49.5089 304.932 49.5089 304.321C49.5089 302.841 50.0737 301.12 49.5089 299.752C48.879 298.227 49.5507 296.013 49.5089 294.378C49.4801 293.252 49.5089 291.106 49.5089 290.111C49.5089 288.331 49.8754 284.149 49.8754 282.527C49.8754 280.588 49.8754 278.373 49.8754 276.162" stroke="#5A6B3B" stroke-width="2" stroke-linecap="round"/>
<path d="M76.2642 277.918C77.7852 279.512 77.2066 284.511 77.2066 286.477C77.2066 288.453 77.2066 290.428 77.2066 292.403C77.2066 297.231 76.639 301.777 76.639 306.605C76.639 309.899 76.0259 313.61 76.0259 316.884C76.0259 318.775 76.0258 320.923 76.0258 322.595C76.0258 324.369 75.683 324.838 76.0256 326.593C76.2887 327.94 76.0258 328.662 76.0258 330.019C76.0258 330.462 76.0258 331.514 76.0258 332.303" stroke="#5A6B3B" stroke-width="2" stroke-linecap="round"/>
<path d="M53.811 297.52C56.2633 297.52 61.1166 297.169 62.5119 297.101C64.6497 296.996 67.0628 297.101 69.2557 297.101C71.5118 297.101 73.3963 297.081 75.5307 297.081C82.9728 297.081 90.5213 297.081 97.9138 297.081" stroke="#5A6B3B" stroke-width="2" stroke-linecap="round"/>
<path d="M137.188 273.054C142.85 274.196 147.141 274.196 151.433 274.196C156.128 274.196 161.216 274.196 166.146 274.196C171.112 274.196 174.761 274.196 179.634 274.196C182.577 274.196 185.364 274.196 188.217 274.196C189.443 274.196 191.604 274.196 192.819 274.196C194.337 274.196 193.121 279.336 193.121 281.049C193.121 283.446 193.121 286.028 193.121 288.473C193.121 291.326 193.121 291.902 193.121 294.755C193.121 299.915 193.734 304.38 193.734 309.603C193.734 313.814 193.121 316.456 193.121 320.453C193.121 322.3 193.007 324.352 193.121 326.164C193.27 328.509 193.198 331.337 193.734 333.588C193.92 334.367 193.806 334.67 194.348 335.301C194.781 335.806 194.515 337.317 193.121 337.014C191.282 336.614 188.412 336.614 187.164 336.614C181.623 336.614 176.095 336.175 170.671 336.175C160.122 336.175 149.405 336.614 139.1 336.614C137.172 336.614 137.188 337.405 137.188 335.517C137.188 334.353 137.332 332.307 137.332 331.303C137.332 327.306 137.332 328.448 137.332 324.451C137.332 320.839 137.791 318.763 137.791 314.742C137.791 313.029 137.945 307.889 137.791 306.176C137.739 305.604 137.791 303.932 137.791 303.321C137.791 301.841 138.355 300.12 137.791 298.752C137.161 297.227 137.832 295.013 137.791 293.378C137.762 292.252 137.791 290.106 137.791 289.111C137.791 287.331 138.157 283.149 138.157 281.527C138.157 279.588 138.157 277.373 138.157 275.162" stroke="#5A6B3B" stroke-width="2" stroke-linecap="round"/>
<path d="M164.546 276.918C166.067 278.512 165.488 283.511 165.488 285.477C165.488 287.453 165.488 289.428 165.488 291.403C165.488 296.231 164.921 300.777 164.921 305.605C164.921 308.899 164.308 312.61 164.308 315.884C164.308 317.775 164.308 319.923 164.308 321.595C164.308 323.369 163.965 323.838 164.307 325.593C164.57 326.94 164.308 327.662 164.308 329.019C164.308 329.462 164.307 330.514 164.308 331.303" stroke="#5A6B3B" stroke-width="2" stroke-linecap="round"/>
<path d="M143.319 297.52C145.772 297.52 150.625 297.169 152.02 297.101C154.158 296.996 156.571 297.101 158.764 297.101C161.02 297.101 162.905 297.081 165.039 297.081C172.481 297.081 180.03 297.081 187.422 297.081" stroke="#5A6B3B" stroke-width="2" stroke-linecap="round"/>
<path d="M229.149 272.054C234.811 273.214 239.102 273.214 243.394 273.214C248.089 273.214 253.177 273.214 258.107 273.214C263.073 273.214 266.722 273.214 271.595 273.214C274.538 273.214 277.325 273.214 280.178 273.214C281.404 273.214 283.565 273.214 284.78 273.214C286.298 273.214 285.082 278.434 285.082 280.174C285.082 282.609 285.082 285.23 285.082 287.714C285.082 290.612 285.082 291.196 285.082 294.094C285.082 299.335 285.695 303.87 285.695 309.174C285.695 313.451 285.082 316.134 285.082 320.194C285.082 322.07 284.968 324.154 285.082 325.994C285.23 328.375 285.158 331.248 285.695 333.534C285.881 334.325 285.767 334.633 286.308 335.274C286.742 335.787 286.476 337.321 285.082 337.014C283.243 336.607 280.373 336.607 279.125 336.607C273.584 336.607 268.056 336.162 262.632 336.162C252.083 336.162 241.366 336.607 231.06 336.607C229.133 336.607 229.149 337.41 229.149 335.493C229.149 334.311 229.293 332.233 229.293 331.214C229.293 327.154 229.293 328.314 229.293 324.254C229.293 320.585 229.752 318.477 229.752 314.394C229.752 312.654 229.906 307.434 229.752 305.694C229.7 305.113 229.752 303.415 229.752 302.794C229.752 301.291 230.316 299.543 229.752 298.154C229.122 296.604 229.793 294.357 229.752 292.696C229.723 291.552 229.752 289.372 229.752 288.362C229.752 286.554 230.118 282.307 230.118 280.659C230.118 278.691 230.118 276.441 230.118 274.195" stroke="#5A6B3B" stroke-width="2" stroke-linecap="round"/>
<path d="M256.506 275.978C258.027 277.597 257.448 282.675 257.448 284.671C257.448 286.678 257.448 288.684 257.448 290.69C257.448 295.594 256.881 300.21 256.881 305.114C256.881 308.459 256.268 312.228 256.268 315.554C256.268 317.474 256.268 319.655 256.268 321.354C256.268 323.155 255.925 323.631 256.267 325.414C256.53 326.782 256.267 327.516 256.267 328.894C256.267 329.343 256.267 330.412 256.267 331.214" stroke="#5A6B3B" stroke-width="2" stroke-linecap="round"/>
<path d="M235.279 296.527C237.732 296.527 242.585 296.171 243.98 296.101C246.118 295.995 248.531 296.101 250.724 296.101C252.98 296.101 254.865 296.082 256.999 296.082C264.441 296.082 271.99 296.082 279.382 296.082" stroke="#5A6B3B" stroke-width="2" stroke-linecap="round"/>
<path d="M316.204 273.054C321.865 274.196 326.157 274.196 330.448 274.196C335.144 274.196 340.231 274.196 345.162 274.196C350.128 274.196 353.777 274.196 358.65 274.196C361.593 274.196 364.38 274.196 367.232 274.196C368.459 274.196 370.62 274.196 371.835 274.196C373.353 274.196 372.137 279.336 372.137 281.049C372.137 283.446 372.137 286.028 372.137 288.473C372.137 291.326 372.137 291.902 372.137 294.755C372.137 299.915 372.75 304.38 372.75 309.603C372.75 313.814 372.137 316.456 372.137 320.453C372.137 322.3 372.023 324.352 372.137 326.164C372.285 328.509 372.213 331.337 372.75 333.588C372.936 334.367 372.822 334.67 373.363 335.301C373.797 335.806 373.53 337.317 372.137 337.014C370.298 336.614 367.427 336.614 366.18 336.614C360.639 336.614 355.11 336.175 349.687 336.175C339.138 336.175 328.42 336.614 318.115 336.614C316.188 336.614 316.204 337.405 316.204 335.517C316.204 334.353 316.348 332.307 316.348 331.303C316.348 327.306 316.348 328.448 316.348 324.451C316.347 320.839 316.806 318.763 316.806 314.742C316.806 313.029 316.961 307.889 316.806 306.176C316.755 305.604 316.806 303.932 316.806 303.321C316.806 301.841 317.371 300.12 316.806 298.752C316.176 297.227 316.848 295.013 316.806 293.378C316.777 292.252 316.806 290.106 316.806 289.111C316.806 287.331 317.173 283.149 317.173 281.527C317.173 279.588 317.173 277.373 317.173 275.162" stroke="#5A6B3B" stroke-width="2" stroke-linecap="round"/>
<path d="M343.562 276.918C345.083 278.512 344.504 283.511 344.504 285.477C344.504 287.453 344.504 289.428 344.504 291.403C344.504 296.231 343.936 300.777 343.936 305.605C343.936 308.899 343.323 312.61 343.323 315.884C343.323 317.775 343.323 319.923 343.323 321.595C343.323 323.369 342.98 323.838 343.323 325.593C343.586 326.94 343.323 327.662 343.323 329.019C343.323 329.462 343.323 330.514 343.323 331.303" stroke="#5A6B3B" stroke-width="2" stroke-linecap="round"/>
<path d="M321.109 297.52C323.562 297.52 328.415 297.169 329.81 297.101C331.948 296.996 334.361 297.101 336.554 297.101C338.81 297.101 340.695 297.081 342.829 297.081C350.271 297.081 357.82 297.081 365.212 297.081" stroke="#5A6B3B" stroke-width="2" stroke-linecap="round"/>
<path d="M137.188 177.054C142.85 178.054 147.141 178.054 151.433 178.054C156.128 178.054 161.216 178.054 166.146 178.054C171.112 178.054 174.761 178.054 179.634 178.054C182.577 178.054 185.364 178.054 188.217 178.054C189.443 178.054 191.604 178.054 192.819 178.054C194.337 178.054 193.121 182.554 193.121 184.054C193.121 186.153 193.121 188.413 193.121 190.554C193.121 193.052 193.121 193.556 193.121 196.054C193.121 200.572 193.734 204.482 193.734 209.054C193.734 212.741 193.121 215.054 193.121 218.554C193.121 220.171 193.007 221.968 193.121 223.554C193.27 225.607 193.198 228.083 193.734 230.054C193.92 230.736 193.806 231.002 194.348 231.554C194.781 231.996 194.515 233.319 193.121 233.054C191.282 232.704 188.412 232.704 187.164 232.704C181.623 232.704 176.095 232.319 170.671 232.319C160.122 232.319 149.405 232.704 139.1 232.704C137.172 232.704 137.188 233.396 137.188 231.743C137.188 230.724 137.332 228.933 137.332 228.054C137.332 224.554 137.332 225.554 137.332 222.054C137.332 218.892 137.791 217.074 137.791 213.554C137.791 212.054 137.945 207.554 137.791 206.054C137.739 205.553 137.791 204.089 137.791 203.554C137.791 202.258 138.355 200.752 137.791 199.554C137.161 198.218 137.832 196.28 137.791 194.849C137.762 193.863 137.791 191.984 137.791 191.112C137.791 189.554 138.157 185.892 138.157 184.472C138.157 182.775 138.157 180.836 138.157 178.9" stroke="#5A6B3B" stroke-width="2" stroke-linecap="round"/>
<path d="M164.546 180.437C166.067 181.833 165.488 186.21 165.488 187.931C165.488 189.661 165.488 191.39 165.488 193.119C165.488 197.347 164.921 201.326 164.921 205.554C164.921 208.438 164.308 211.687 164.308 214.554C164.308 216.209 164.308 218.09 164.308 219.554C164.308 221.107 163.965 221.517 164.307 223.054C164.57 224.234 164.308 224.866 164.308 226.054C164.308 226.442 164.307 227.363 164.308 228.054" stroke="#5A6B3B" stroke-width="2" stroke-linecap="round"/>
<path d="M142.119 200.421C144.571 200.421 149.425 200.114 150.82 200.054C152.958 199.962 155.371 200.054 157.564 200.054C159.82 200.054 161.704 200.037 163.839 200.037C171.281 200.037 178.829 200.037 186.222 200.037" stroke="#5A6B3B" stroke-width="2" stroke-linecap="round"/>
<path d="M230.375 177.054C236.036 178.054 240.328 178.054 244.619 178.054C249.315 178.054 254.402 178.054 259.333 178.054C264.299 178.054 267.948 178.054 272.82 178.054C275.763 178.054 278.551 178.054 281.403 178.054C282.63 178.054 284.79 178.054 286.005 178.054C287.524 178.054 286.308 182.554 286.308 184.054C286.308 186.153 286.308 188.413 286.308 190.554C286.308 193.052 286.308 193.556 286.308 196.054C286.308 200.572 286.921 204.482 286.921 209.054C286.921 212.741 286.308 215.054 286.308 218.554C286.308 220.171 286.194 221.968 286.308 223.554C286.456 225.607 286.384 228.083 286.921 230.054C287.107 230.736 286.992 231.002 287.534 231.554C287.968 231.996 287.701 233.319 286.308 233.054C284.469 232.704 281.598 232.704 280.351 232.704C274.809 232.704 269.281 232.319 263.858 232.319C253.309 232.319 242.591 232.704 232.286 232.704C230.359 232.704 230.375 233.396 230.375 231.743C230.375 230.724 230.519 228.933 230.519 228.054C230.519 224.554 230.519 225.554 230.519 222.054C230.518 218.892 230.977 217.074 230.977 213.554C230.977 212.054 231.132 207.554 230.977 206.054C230.925 205.553 230.977 204.089 230.977 203.554C230.977 202.258 231.542 200.752 230.977 199.554C230.347 198.218 231.019 196.28 230.977 194.849C230.948 193.863 230.977 191.984 230.977 191.112C230.977 189.554 231.344 185.892 231.344 184.472C231.344 182.775 231.344 180.836 231.344 178.9" stroke="#5A6B3B" stroke-width="2" stroke-linecap="round"/>
<path d="M257.731 180.437C259.253 181.833 258.674 186.21 258.674 187.931C258.674 189.661 258.674 191.39 258.674 193.119C258.674 197.347 258.106 201.326 258.106 205.554C258.106 208.438 257.493 211.687 257.493 214.554C257.493 216.209 257.493 218.09 257.493 219.554C257.493 221.107 257.15 221.517 257.493 223.054C257.756 224.234 257.493 224.866 257.493 226.054C257.493 226.442 257.493 227.363 257.493 228.054" stroke="#5A6B3B" stroke-width="2" stroke-linecap="round"/>
<path d="M235.304 200.421C237.756 200.421 242.609 200.114 244.005 200.054C246.142 199.962 248.555 200.054 250.748 200.054C253.005 200.054 254.889 200.037 257.023 200.037C264.465 200.037 272.014 200.037 279.406 200.037" stroke="#5A6B3B" stroke-width="2" stroke-linecap="round"/>
<path d="M314.979 177.054C320.64 178.054 324.931 178.054 329.223 178.054C333.918 178.054 339.006 178.054 343.936 178.054C348.902 178.054 352.551 178.054 357.424 178.054C360.367 178.054 363.154 178.054 366.007 178.054C367.233 178.054 369.394 178.054 370.609 178.054C372.127 178.054 370.911 182.554 370.911 184.054C370.911 186.153 370.911 188.413 370.911 190.554C370.911 193.052 370.911 193.556 370.911 196.054C370.911 200.572 371.525 204.482 371.525 209.054C371.525 212.741 370.911 215.054 370.911 218.554C370.911 220.171 370.797 221.968 370.911 223.554C371.06 225.607 370.988 228.083 371.525 230.054C371.71 230.736 371.596 231.002 372.138 231.554C372.571 231.996 372.305 233.319 370.911 233.054C369.072 232.704 366.202 232.704 364.954 232.704C359.413 232.704 353.885 232.319 348.461 232.319C337.912 232.319 327.195 232.704 316.89 232.704C314.962 232.704 314.979 233.396 314.979 231.743C314.979 230.724 315.122 228.933 315.122 228.054C315.122 224.554 315.122 225.554 315.122 222.054C315.122 218.892 315.581 217.074 315.581 213.554C315.581 212.054 315.735 207.554 315.581 206.054C315.529 205.553 315.581 204.089 315.581 203.554C315.581 202.258 316.145 200.752 315.581 199.554C314.951 198.218 315.622 196.28 315.581 194.849C315.552 193.863 315.581 191.984 315.581 191.112C315.581 189.554 315.947 185.892 315.947 184.472C315.947 182.775 315.947 180.836 315.947 178.9" stroke="#5A6B3B" stroke-width="2" stroke-linecap="round"/>
<path d="M342.336 180.437C343.857 181.833 343.278 186.21 343.278 187.931C343.278 189.661 343.278 191.39 343.278 193.119C343.278 197.347 342.711 201.326 342.711 205.554C342.711 208.438 342.098 211.687 342.098 214.554C342.098 216.209 342.098 218.09 342.098 219.554C342.098 221.107 341.755 221.517 342.097 223.054C342.36 224.234 342.098 224.866 342.098 226.054C342.098 226.442 342.098 227.363 342.098 228.054" stroke="#5A6B3B" stroke-width="2" stroke-linecap="round"/>
<path d="M319.908 200.421C322.36 200.421 327.214 200.114 328.609 200.054C330.747 199.962 333.16 200.054 335.353 200.054C337.609 200.054 339.494 200.037 341.628 200.037C349.07 200.037 356.619 200.037 364.011 200.037" stroke="#5A6B3B" stroke-width="2" stroke-linecap="round"/>
<path d="M137.188 88.0539C142.85 89.0539 147.141 89.0539 151.433 89.0539C156.128 89.0539 161.216 89.0539 166.146 89.0539C171.112 89.0539 174.761 89.0539 179.634 89.0539C182.577 89.0539 185.364 89.0539 188.217 89.0539C189.443 89.0539 191.604 89.0539 192.819 89.0539C194.337 89.0539 193.121 93.5539 193.121 95.0539C193.121 97.153 193.121 99.413 193.121 101.554C193.121 104.052 193.121 104.556 193.121 107.054C193.121 111.572 193.734 115.482 193.734 120.054C193.734 123.741 193.121 126.054 193.121 129.554C193.121 131.171 193.007 132.968 193.121 134.554C193.27 136.607 193.198 139.083 193.734 141.054C193.92 141.736 193.806 142.002 194.348 142.554C194.781 142.996 194.515 144.319 193.121 144.054C191.282 143.704 188.412 143.704 187.164 143.704C181.623 143.704 176.095 143.319 170.671 143.319C160.122 143.319 149.405 143.704 139.1 143.704C137.172 143.704 137.188 144.396 137.188 142.743C137.188 141.724 137.332 139.933 137.332 139.054C137.332 135.554 137.332 136.554 137.332 133.054C137.332 129.892 137.791 128.074 137.791 124.554C137.791 123.054 137.945 118.554 137.791 117.054C137.739 116.553 137.791 115.089 137.791 114.554C137.791 113.258 138.355 111.752 137.791 110.554C137.161 109.218 137.832 107.28 137.791 105.849C137.762 104.863 137.791 102.984 137.791 102.112C137.791 100.554 138.157 96.8924 138.157 95.4723C138.157 93.7752 138.157 91.8357 138.157 89.8998" stroke="#5A6B3B" stroke-width="2" stroke-linecap="round"/>
<path d="M164.546 91.437C166.067 92.8326 165.488 97.2099 165.488 98.9311C165.488 100.661 165.488 102.39 165.488 104.119C165.488 108.347 164.921 112.326 164.921 116.554C164.921 119.438 164.308 122.687 164.308 125.554C164.308 127.209 164.308 129.09 164.308 130.554C164.308 132.107 163.965 132.517 164.307 134.054C164.57 135.234 164.308 135.866 164.308 137.054C164.308 137.442 164.307 138.363 164.308 139.054" stroke="#5A6B3B" stroke-width="2" stroke-linecap="round"/>
<path d="M142.119 111.421C144.571 111.421 149.425 111.114 150.82 111.054C152.958 110.962 155.371 111.054 157.564 111.054C159.82 111.054 161.704 111.037 163.839 111.037C171.281 111.037 178.829 111.037 186.222 111.037" stroke="#5A6B3B" stroke-width="2" stroke-linecap="round"/>
<path d="M230.375 89.0539C236.036 90.0539 240.328 90.0539 244.619 90.0539C249.315 90.0539 254.402 90.0539 259.333 90.0539C264.299 90.0539 267.948 90.0539 272.82 90.0539C275.763 90.0539 278.551 90.0539 281.403 90.0539C282.63 90.0539 284.79 90.0539 286.005 90.0539C287.524 90.0539 286.308 94.5539 286.308 96.0539C286.308 98.153 286.308 100.413 286.308 102.554C286.308 105.052 286.308 105.556 286.308 108.054C286.308 112.572 286.921 116.482 286.921 121.054C286.921 124.741 286.308 127.054 286.308 130.554C286.308 132.171 286.194 133.968 286.308 135.554C286.456 137.607 286.384 140.083 286.921 142.054C287.107 142.736 286.992 143.002 287.534 143.554C287.968 143.996 287.701 145.319 286.308 145.054C284.469 144.704 281.598 144.704 280.351 144.704C274.809 144.704 269.281 144.319 263.858 144.319C253.309 144.319 242.591 144.704 232.286 144.704C230.359 144.704 230.375 145.396 230.375 143.743C230.375 142.724 230.519 140.933 230.519 140.054C230.519 136.554 230.519 137.554 230.519 134.054C230.518 130.892 230.977 129.074 230.977 125.554C230.977 124.054 231.132 119.554 230.977 118.054C230.925 117.553 230.977 116.089 230.977 115.554C230.977 114.258 231.542 112.752 230.977 111.554C230.347 110.218 231.019 108.28 230.977 106.849C230.948 105.863 230.977 103.984 230.977 103.112C230.977 101.554 231.344 97.8924 231.344 96.4723C231.344 94.7752 231.344 92.8357 231.344 90.8998" stroke="#5A6B3B" stroke-width="2" stroke-linecap="round"/>
<path d="M257.731 92.437C259.253 93.8326 258.674 98.2099 258.674 99.9311C258.674 101.661 258.674 103.39 258.674 105.119C258.674 109.347 258.106 113.326 258.106 117.554C258.106 120.438 257.493 123.687 257.493 126.554C257.493 128.209 257.493 130.09 257.493 131.554C257.493 133.107 257.15 133.517 257.493 135.054C257.756 136.234 257.493 136.866 257.493 138.054C257.493 138.442 257.493 139.363 257.493 140.054" stroke="#5A6B3B" stroke-width="2" stroke-linecap="round"/>
<path d="M235.304 112.421C237.756 112.421 242.609 112.114 244.005 112.054C246.142 111.962 248.555 112.054 250.748 112.054C253.005 112.054 254.889 112.037 257.023 112.037C264.465 112.037 272.014 112.037 279.406 112.037" stroke="#5A6B3B" stroke-width="2" stroke-linecap="round"/>
<path d="M316.204 88.0539C321.865 89.0539 326.157 89.0539 330.448 89.0539C335.144 89.0539 340.231 89.0539 345.162 89.0539C350.128 89.0539 353.777 89.0539 358.65 89.0539C361.593 89.0539 364.38 89.0539 367.232 89.0539C368.459 89.0539 370.62 89.0539 371.835 89.0539C373.353 89.0539 372.137 93.5539 372.137 95.0539C372.137 97.153 372.137 99.413 372.137 101.554C372.137 104.052 372.137 104.556 372.137 107.054C372.137 111.572 372.75 115.482 372.75 120.054C372.75 123.741 372.137 126.054 372.137 129.554C372.137 131.171 372.023 132.968 372.137 134.554C372.285 136.607 372.213 139.083 372.75 141.054C372.936 141.736 372.822 142.002 373.363 142.554C373.797 142.996 373.53 144.319 372.137 144.054C370.298 143.704 367.427 143.704 366.18 143.704C360.639 143.704 355.11 143.319 349.687 143.319C339.138 143.319 328.42 143.704 318.115 143.704C316.188 143.704 316.204 144.396 316.204 142.743C316.204 141.724 316.348 139.933 316.348 139.054C316.348 135.554 316.348 136.554 316.348 133.054C316.347 129.892 316.806 128.074 316.806 124.554C316.806 123.054 316.961 118.554 316.806 117.054C316.755 116.553 316.806 115.089 316.806 114.554C316.806 113.258 317.371 111.752 316.806 110.554C316.176 109.218 316.848 107.28 316.806 105.849C316.777 104.863 316.806 102.984 316.806 102.112C316.806 100.554 317.173 96.8924 317.173 95.4723C317.173 93.7752 317.173 91.8357 317.173 89.8998" stroke="#5A6B3B" stroke-width="2" stroke-linecap="round"/>
<path d="M343.562 91.437C345.083 92.8326 344.504 97.2099 344.504 98.9311C344.504 100.661 344.504 102.39 344.504 104.119C344.504 108.347 343.936 112.326 343.936 116.554C343.936 119.438 343.323 122.687 343.323 125.554C343.323 127.209 343.323 129.09 343.323 130.554C343.323 132.107 342.98 132.517 343.323 134.054C343.586 135.234 343.323 135.866 343.323 137.054C343.323 137.442 343.323 138.363 343.323 139.054" stroke="#5A6B3B" stroke-width="2" stroke-linecap="round"/>
<path d="M321.135 111.421C323.587 111.421 328.44 111.114 329.836 111.054C331.973 110.962 334.387 111.054 336.579 111.054C338.836 111.054 340.72 111.037 342.854 111.037C350.297 111.037 357.845 111.037 365.237 111.037" stroke="#5A6B3B" stroke-width="2" stroke-linecap="round"/>
<path d="M18.603 362.824V546.763" stroke="#5A6B3B" stroke-width="2" stroke-linecap="round"/>
<path d="M4.53564 548.613H40.8389" stroke="#5A6B3B" stroke-width="2" stroke-linecap="round"/>
<path d="M53.5449 548.983H65.7973" stroke="#5A6B3B" stroke-width="2" stroke-linecap="round"/>
<path d="M74.4189 548.983H81.6796" stroke="#5A6B3B" stroke-width="2" stroke-linecap="round"/>
<path d="M88.4868 548.983H94.8399" stroke="#5A6B3B" stroke-width="2" stroke-linecap="round"/>
<path d="M101.193 548.243H111.176" stroke="#5A6B3B" stroke-width="2" stroke-linecap="round"/>
<path d="M122.067 548.983H130.689" stroke="#5A6B3B" stroke-width="2" stroke-linecap="round"/>
<path d="M139.766 548.243H145.665" stroke="#5A6B3B" stroke-width="2" stroke-linecap="round"/>
<path d="M157.009 547.503H268.188" stroke="#5A6B3B" stroke-width="2" stroke-linecap="round"/>
<path d="M277.718 547.873H284.978" stroke="#5A6B3B" stroke-width="2" stroke-linecap="round"/>
<path d="M300.407 548.243C302.184 548.243 303.983 547.503 305.853 547.503" stroke="#5A6B3B" stroke-width="2" stroke-linecap="round"/>
<path d="M314.475 547.503H322.643" stroke="#5A6B3B" stroke-width="2" stroke-linecap="round"/>
<path d="M333.534 547.503H343.518" stroke="#5A6B3B" stroke-width="2" stroke-linecap="round"/>
<path d="M353.048 547.873H358.493" stroke="#5A6B3B" stroke-width="2" stroke-linecap="round"/>
<path d="M368.93 547.873C371.008 549.379 375.249 549.353 378.006 549.353" stroke="#5A6B3B" stroke-width="2" stroke-linecap="round"/>
<path d="M389.351 548.243H415.67" stroke="#5A6B3B" stroke-width="2" stroke-linecap="round"/>
<path d="M398.881 362.824V546.763" stroke="#5A6B3B" stroke-width="2" stroke-linecap="round"/>
<path d="M1 574.301H423.923" stroke="#5A6B3B" stroke-width="2" stroke-linecap="round"/>
<path d="M310.806 414.054V436.054L310.074 457.054M310.806 487.538V479.554M310.806 479.554L311.3 470.054L310.074 457.054M310.806 479.554L310.074 457.054" stroke="#5A6B3B" stroke-width="2" stroke-linecap="round"/>
<path d="M50.865 413.554V435.554L50.1328 456.554M50.865 487.038V479.054M50.865 479.054L51.3589 469.554L50.1328 456.554M50.865 479.054L50.1328 456.554" stroke="#5A6B3B" stroke-width="2" stroke-linecap="round"/>
<path d="M311.301 413.554L336.437 414.554L352.989 414.054L365.864 414.554" stroke="#5A6B3B" stroke-width="2" stroke-linecap="round"/>
<path d="M51.3594 413.054L76.4952 414.054L93.048 413.554L105.922 414.054" stroke="#5A6B3B" stroke-width="2" stroke-linecap="round"/>
<path d="M366.281 414.082V487.538" stroke="#5A6B3B" stroke-width="2" stroke-linecap="round"/>
<path d="M106.341 413.582V487.038" stroke="#5A6B3B" stroke-width="2" stroke-linecap="round"/>
<path d="M308.848 490.199C309.176 488.055 335.356 490.199 338.87 490.199C348.787 490.199 358.689 490.199 368.892 490.199" stroke="#5A6B3B" stroke-width="2" stroke-linecap="round"/>
<path d="M48.9067 489.699C49.2353 487.555 75.4148 489.699 78.929 489.699C88.846 489.699 98.7482 489.699 108.951 489.699" stroke="#5A6B3B" stroke-width="2" stroke-linecap="round"/>
<path d="M314.979 437.054L338.346 436.48L361.714 435.906" stroke="#5A6B3B" stroke-width="2" stroke-linecap="round"/>
<path d="M55.0371 436.554L78.4047 435.98L101.772 435.406" stroke="#5A6B3B" stroke-width="2" stroke-linecap="round"/>
<path d="M47.6748 509.601C49.9924 509.365 52.8336 509.101 55.1875 509.101C56.5109 509.101 57.5213 508.851 58.8672 508.851C60.3417 508.851 61.5465 508.101 63.0068 508.101" stroke="#5A6B3B" stroke-width="2" stroke-linecap="round"/>
<path d="M53.501 532.109C54.0459 532.053 52.6914 530.436 52.5129 530.108C51.9859 529.141 52.2278 528.249 51.9507 527.232C51.4469 525.383 50.4346 523.39 50.4346 521.48C50.4346 519.579 48.5947 517.842 48.5947 516.103C48.5947 515.219 47.9814 514.444 47.9814 513.478C47.9814 512.519 48.1788 511.424 47.6748 510.602" stroke="#5A6B3B" stroke-width="2" stroke-linecap="round"/>
<path d="M63.0068 508.351C63.2436 509.896 65.1533 511.318 65.1533 512.977C65.1533 514.774 66.7355 516.568 66.9932 518.354C67.2377 520.05 68.5264 521.691 68.5264 523.481C68.5264 525.302 69.4463 526.979 69.4463 528.858" stroke="#5A6B3B" stroke-width="2" stroke-linecap="round"/>
<path d="M50.1284 517.354C50.7676 516.89 52.5278 516.988 53.3481 516.84C54.0993 516.704 57.0086 516.467 57.4878 515.978C57.8854 515.573 60.2186 515.853 60.8608 515.853C62.138 515.853 63.3234 515.603 64.5405 515.603" stroke="#5A6B3B" stroke-width="2" stroke-linecap="round"/>
<path d="M54.4214 533.359C51.8283 533.359 59.4111 532.162 61.7807 531.303C64.1929 530.429 66.8361 530.298 69.1401 529.358" stroke="#5A6B3B" stroke-width="2" stroke-linecap="round"/>
<path d="M53.501 533.609C53.501 535.577 52.581 537.295 52.581 539.111C52.581 540.212 52.018 541.031 51.6782 542.001C51.4308 542.707 51.2982 544.65 50.5879 545.113C50.2821 545.313 50.1279 547.482 50.1279 547.864C50.1279 548.906 50.1279 549.948 50.1279 550.99C50.1279 551.967 49.5783 552.985 49.5146 553.866C49.452 554.735 48.5947 555.498 48.5947 556.367" stroke="#5A6B3B" stroke-width="2" stroke-linecap="round"/>
<path d="M56.2607 533.109C56.3664 533.798 58.8596 533.454 59.3953 533.804C59.6692 533.983 60.9304 534.053 61.3203 534.124C61.8345 534.217 62.694 534.556 63.075 534.804C64.8207 535.943 68.1495 535.61 70.3662 535.61" stroke="#5A6B3B" stroke-width="2" stroke-linecap="round"/>
<path d="M70.0596 529.108C70.0596 529.932 72.2869 530.108 73.126 530.108C74.3897 530.108 75.6049 530.608 76.8057 530.608C77.081 530.608 78.3804 530.786 78.5774 530.914C79.1021 531.256 79.9415 530.854 80.4172 531.164C80.9295 531.498 81.6701 531.329 82.3252 531.359C83.0666 531.392 83.7007 531.859 84.4717 531.859" stroke="#5A6B3B" stroke-width="2" stroke-linecap="round"/>
<path d="M70.0596 535.86C71.6027 535.86 72.3756 535.432 73.603 534.86C74.7905 534.307 76.0669 534.028 77.2656 533.484C78.1458 533.086 79.8265 532.405 80.792 532.359C81.9121 532.305 83.4884 532.26 84.4717 531.859" stroke="#5A6B3B" stroke-width="2" stroke-linecap="round"/>
<path d="M71.2861 558.118C71.2861 557.356 70.9795 556.492 70.9795 555.617C70.9795 554.687 71.5928 553.988 71.5928 552.991C71.5928 551.098 71.5845 549.404 70.9965 547.725C69.7877 544.275 69.4463 540.926 69.4463 537.111" stroke="#5A6B3B" stroke-width="2" stroke-linecap="round"/>
<path d="M84.7788 532.109C84.8944 532.957 85.3921 533.631 85.3921 534.485C85.3921 535.341 85.1818 536.402 85.4091 537.236C85.896 539.022 85.3921 540.647 85.3921 542.362C85.3921 543.358 85.0956 543.963 85.3751 544.988C85.6471 545.987 85.3921 547.214 85.3921 548.24C85.3921 550.006 86.0054 551.34 86.0054 553.116" stroke="#5A6B3B" stroke-width="2" stroke-linecap="round"/>
<path d="M269.611 509.554C271.929 509.318 274.77 509.054 277.124 509.054C278.447 509.054 279.458 508.804 280.804 508.804C282.278 508.804 283.483 508.054 284.943 508.054" stroke="#5A6B3B" stroke-width="2" stroke-linecap="round"/>
<path d="M275.437 532.062C275.982 532.007 274.628 530.389 274.449 530.062C273.922 529.094 274.164 528.202 273.887 527.186C273.383 525.336 272.371 523.343 272.371 521.434C272.371 519.532 270.531 517.796 270.531 516.057C270.531 515.172 269.918 514.397 269.918 513.431C269.918 512.472 270.115 511.377 269.611 510.555" stroke="#5A6B3B" stroke-width="2" stroke-linecap="round"/>
<path d="M284.944 508.304C285.181 509.849 287.091 511.272 287.091 512.931C287.091 514.727 288.673 516.522 288.931 518.307C289.175 520.003 290.464 521.644 290.464 523.434C290.464 525.256 291.384 526.932 291.384 528.811" stroke="#5A6B3B" stroke-width="2" stroke-linecap="round"/>
<path d="M272.065 517.307C272.705 516.844 274.465 516.942 275.285 516.793C276.036 516.657 278.946 516.42 279.425 515.932C279.822 515.526 282.156 515.807 282.798 515.807C284.075 515.807 285.26 515.557 286.478 515.557" stroke="#5A6B3B" stroke-width="2" stroke-linecap="round"/>
<path d="M276.358 533.313C273.765 533.313 281.348 532.115 283.718 531.256C286.13 530.382 288.773 530.251 291.077 529.311" stroke="#5A6B3B" stroke-width="2" stroke-linecap="round"/>
<path d="M275.438 533.563C275.438 535.53 274.519 537.248 274.519 539.065C274.519 540.165 273.955 540.984 273.616 541.955C273.368 542.661 273.236 544.603 272.525 545.067C272.22 545.266 272.065 547.435 272.065 547.818C272.065 548.86 272.065 549.902 272.065 550.944C272.065 551.921 271.516 552.938 271.452 553.82C271.389 554.689 270.532 555.451 270.532 556.321" stroke="#5A6B3B" stroke-width="2" stroke-linecap="round"/>
<path d="M278.198 533.063C278.304 533.752 280.797 533.408 281.333 533.757C281.607 533.936 282.868 534.006 283.258 534.077C283.772 534.17 284.632 534.509 285.012 534.758C286.758 535.897 290.087 535.563 292.304 535.563" stroke="#5A6B3B" stroke-width="2" stroke-linecap="round"/>
<path d="M291.997 529.061C291.997 529.885 294.224 530.062 295.063 530.062C296.327 530.062 297.542 530.562 298.743 530.562C299.018 530.562 300.318 530.739 300.515 530.867C301.04 531.21 301.879 530.807 302.355 531.117C302.867 531.452 303.608 531.282 304.263 531.312C305.004 531.346 305.638 531.812 306.409 531.812" stroke="#5A6B3B" stroke-width="2" stroke-linecap="round"/>
<path d="M291.997 535.814C293.54 535.814 294.313 535.385 295.54 534.813C296.728 534.26 298.004 533.981 299.203 533.438C300.083 533.039 301.764 532.359 302.729 532.312C303.85 532.259 305.426 532.213 306.409 531.812" stroke="#5A6B3B" stroke-width="2" stroke-linecap="round"/>
<path d="M293.224 558.071C293.224 557.309 292.917 556.445 292.917 555.57C292.917 554.641 293.53 553.942 293.53 552.944C293.53 551.051 293.522 549.357 292.934 547.679C291.725 544.228 291.384 540.879 291.384 537.064" stroke="#5A6B3B" stroke-width="2" stroke-linecap="round"/>
<path d="M306.716 532.062C306.831 532.911 307.329 533.584 307.329 534.438C307.329 535.294 307.119 536.355 307.346 537.189C307.833 538.976 307.329 540.6 307.329 542.316C307.329 543.311 307.033 543.916 307.312 544.942C307.584 545.94 307.329 547.167 307.329 548.193C307.329 549.959 307.942 551.293 307.942 553.069" stroke="#5A6B3B" stroke-width="2" stroke-linecap="round"/>
<path d="M384.549 511.433C382.418 511.216 379.806 510.974 377.642 510.974C376.426 510.974 375.497 510.744 374.259 510.744C372.904 510.744 371.796 510.054 370.454 510.054" stroke="#5A6B3B" stroke-width="2" stroke-linecap="round"/>
<path d="M379.193 532.125C378.692 532.074 379.937 530.587 380.101 530.286C380.586 529.397 380.363 528.577 380.618 527.642C381.081 525.942 382.012 524.11 382.012 522.354C382.012 520.606 383.703 519.01 383.703 517.411C383.703 516.598 384.267 515.885 384.267 514.997C384.267 514.116 384.085 513.109 384.549 512.353" stroke="#5A6B3B" stroke-width="2" stroke-linecap="round"/>
<path d="M370.454 510.284C370.236 511.704 368.481 513.012 368.481 514.537C368.481 516.188 367.026 517.838 366.789 519.48C366.565 521.039 365.38 522.547 365.38 524.193C365.38 525.868 364.534 527.409 364.534 529.136" stroke="#5A6B3B" stroke-width="2" stroke-linecap="round"/>
<path d="M382.293 518.561C381.705 518.135 380.087 518.225 379.333 518.088C378.642 517.963 375.968 517.745 375.527 517.296C375.162 516.923 373.017 517.181 372.426 517.181C371.252 517.181 370.163 516.951 369.044 516.951" stroke="#5A6B3B" stroke-width="2" stroke-linecap="round"/>
<path d="M378.347 533.275C380.731 533.275 373.76 532.174 371.581 531.384C369.364 530.581 366.934 530.46 364.816 529.596" stroke="#5A6B3B" stroke-width="2" stroke-linecap="round"/>
<path d="M379.194 533.505C379.194 535.313 380.039 536.893 380.039 538.563C380.039 539.574 380.557 540.328 380.869 541.219C381.097 541.869 381.219 543.654 381.872 544.081C382.153 544.264 382.295 546.258 382.295 546.61C382.295 547.567 382.295 548.525 382.295 549.483C382.295 550.381 382.8 551.317 382.858 552.127C382.916 552.926 383.704 553.627 383.704 554.426" stroke="#5A6B3B" stroke-width="2" stroke-linecap="round"/>
<path d="M376.655 533.045C376.558 533.678 374.266 533.362 373.774 533.683C373.522 533.848 372.362 533.912 372.004 533.977C371.531 534.063 370.741 534.375 370.391 534.603C368.786 535.65 365.726 535.344 363.688 535.344" stroke="#5A6B3B" stroke-width="2" stroke-linecap="round"/>
<path d="M363.97 529.366C363.97 530.124 361.922 530.286 361.151 530.286C359.989 530.286 358.872 530.746 357.768 530.746C357.515 530.746 356.32 530.909 356.139 531.027C355.657 531.341 354.885 530.971 354.448 531.257C353.977 531.564 353.296 531.408 352.694 531.435C352.012 531.466 351.429 531.895 350.72 531.895" stroke="#5A6B3B" stroke-width="2" stroke-linecap="round"/>
<path d="M363.97 535.574C362.551 535.574 361.841 535.18 360.712 534.654C359.621 534.145 358.447 533.889 357.345 533.39C356.536 533.023 354.991 532.398 354.103 532.355C353.073 532.306 351.624 532.264 350.72 531.895" stroke="#5A6B3B" stroke-width="2" stroke-linecap="round"/>
<path d="M362.842 556.036C362.842 555.335 363.124 554.541 363.124 553.737C363.124 552.882 362.56 552.239 362.56 551.323C362.56 549.582 362.567 548.025 363.108 546.482C364.219 543.309 364.533 540.231 364.533 536.723" stroke="#5A6B3B" stroke-width="2" stroke-linecap="round"/>
<path d="M350.438 532.125C350.332 532.905 349.875 533.524 349.875 534.309C349.875 535.096 350.068 536.071 349.859 536.838C349.411 538.481 349.875 539.974 349.875 541.551C349.875 542.466 350.147 543.023 349.89 543.965C349.64 544.883 349.875 546.012 349.875 546.954C349.875 548.578 349.311 549.804 349.311 551.438" stroke="#5A6B3B" stroke-width="2" stroke-linecap="round"/>
<path d="M117.283 534.11C120.647 534.11 123.064 532.859 126.482 532.859C128.19 532.859 129.581 532.109 131.235 532.109C132.967 532.109 134.703 531.609 136.295 531.609" stroke="#5A6B3B" stroke-width="2" stroke-linecap="round"/>
<path d="M137.214 531.359C139.241 531.359 140.743 532.359 142.734 532.359C144.665 532.359 146.052 533.462 147.64 534.11" stroke="#5A6B3B" stroke-width="2" stroke-linecap="round"/>
<path d="M135.068 538.361C135.156 537.786 137.575 537.388 138.135 537.361C139.26 537.307 140.246 536.671 141.508 536.611C141.945 536.59 142.491 536.221 142.905 536.124C143.409 536.007 144.394 536.328 144.813 536.055C145.625 535.525 147.509 535.646 148.561 535.36" stroke="#5A6B3B" stroke-width="2" stroke-linecap="round"/>
<path d="M134.148 538.361C131.491 538.12 128.759 537.111 126.022 537.111C124.269 537.111 122.658 536.11 120.81 536.11C119.551 536.11 118.567 535.36 117.283 535.36" stroke="#5A6B3B" stroke-width="2" stroke-linecap="round"/>
<path d="M116.363 555.617C116.363 553.969 116.057 552.548 116.057 550.865C116.057 549.205 117.283 547.934 117.283 546.239C117.283 544.638 117.59 542.912 117.59 541.237C117.59 539.515 117.283 537.761 117.283 536.11" stroke="#5A6B3B" stroke-width="2" stroke-linecap="round"/>
<path d="M134.58 539.163C134.58 540.023 134.959 540.867 134.959 541.633C134.959 542.541 135.148 543.533 135.148 544.487C135.148 546.36 135.377 548.359 134.969 550.189C134.747 551.185 134.391 552.156 134.391 553.241C134.391 553.81 134.104 554.235 134.212 554.81C134.306 555.307 134.58 555.764 134.58 556.293C134.58 556.878 135.218 558.331 135.674 558.796C136.123 559.254 136.305 560.7 136.851 560.922" stroke="#5A6B3B" stroke-width="2" stroke-linecap="round"/>
<path d="M149.149 535.46C149.236 536.095 149.906 536.762 149.906 537.389C149.906 538.144 150.285 538.939 150.285 539.704C150.285 541.425 150.502 543 151.042 544.65C151.283 545.388 151.609 546.145 151.609 546.914C151.609 547.9 152.296 548.871 152.366 549.897C152.432 550.865 153.123 551.811 153.123 552.743C153.123 553.236 153.174 553.996 153.417 554.449C153.66 554.903 153.561 555.44 153.88 555.83" stroke="#5A6B3B" stroke-width="2" stroke-linecap="round"/>
<path d="M149.906 534.688C149.804 534.678 149.906 532.872 149.906 532.528C149.906 531.346 150.827 530.142 151.031 528.978C151.163 528.224 151.189 527.204 151.567 526.509C152.134 525.47 151.754 524.14 151.998 523.046C152.611 520.298 154.127 517.687 155.625 515.244C155.916 514.77 156.471 514.256 156.907 513.855C157.012 513.759 157.466 513.21 157.475 513.084C157.506 512.646 157.594 511.078 156.813 511.078C155.802 511.078 154.425 510.889 153.501 511.266C152.726 511.582 151.985 511.663 151.147 511.858C149.729 512.188 148.017 512.775 146.5 512.775C144.545 512.775 142.59 512.775 140.635 512.775" stroke="#5A6B3B" stroke-width="2" stroke-linecap="round"/>
<path d="M140.257 513.084C140.257 513.819 139.863 514.581 139.7 515.313C139.56 515.937 139.735 516.81 139.458 517.405C139.041 518.298 139.042 519.307 138.922 520.242C138.781 521.331 138.554 522.39 138.554 523.5C138.554 524.812 138.329 526.215 137.976 527.513C137.834 528.031 137.643 529.251 137.271 529.63C136.912 529.997 137.186 531.234 136.662 531.448" stroke="#5A6B3B" stroke-width="2" stroke-linecap="round"/>
<path d="M135.715 532.374C135.11 532.929 134.958 533.871 134.958 534.611C134.958 535.062 135.193 535.319 135.326 535.7C135.47 536.11 135.292 536.467 135.526 536.849" stroke="#5A6B3B" stroke-width="2" stroke-linecap="round"/>
<path d="M139.878 520.8C141.059 520.907 142.125 520.61 143.368 520.371C144.632 520.128 146.001 520.077 147.173 519.642C147.789 519.414 148.58 519.402 149.191 519.222C149.729 519.065 150.2 518.912 150.747 518.785C151.641 518.577 152.661 518.21 153.501 517.868" stroke="#5A6B3B" stroke-width="2" stroke-linecap="round"/>
<path d="M105.907 510.827C103.586 510.616 101.248 510.238 98.8677 510.238C96.6146 510.238 94.5695 510.827 92.1897 510.827C91.3351 510.827 90.256 511.214 89.4623 511.399C88.747 511.566 86.8936 511.368 86.4141 511.857C85.96 512.32 84.2292 511.958 83.6065 512.364C83.1107 512.688 81.2709 513.152 80.6384 513.182C78.3383 513.292 76.5562 513.868 75.9257 515.668C75.3923 517.191 76.6362 518.295 78.1116 519.364C79.8049 520.592 82.0604 520.783 84.0677 521.147C86.7263 521.629 88.9314 522.014 91.7485 522.014C96.6529 522.014 101.43 521.72 106.268 521.72C107.449 521.72 108.644 521.755 109.697 521.278C110.739 520.806 111.819 521.078 112.926 520.82C114.683 520.41 117.236 520.265 118.621 519.135C119.154 518.701 119.896 518.304 120.526 517.892C121.368 517.343 121.291 516.274 121.97 515.832C123.535 514.81 118.489 513.212 117.819 513.182C113.101 512.968 109.356 510.827 104.463 510.827" stroke="#5A6B3B" stroke-width="2" stroke-linecap="round"/>
<path d="M336.436 511.698C334.115 511.488 332.072 511.554 329.692 511.554C327.439 511.554 326.554 511.554 324.174 511.554C323.32 511.554 321.29 511.869 320.496 512.054C319.781 512.221 317.431 512.554 317.01 512.673C316.323 512.868 314.479 513.257 313.752 513.554C312.526 514.054 319.27 511.554 310.074 514.554C307.934 515.252 306.413 515.254 305.782 517.054C305.249 518.577 306.536 519.927 308.235 520.554C310.299 521.315 312.656 521.599 314.663 521.963C317.322 522.445 319.527 522.83 322.344 522.83C327.249 522.83 328.533 523.054 333.37 523.054C334.551 523.054 337.049 523.106 338.275 522.83C339.457 522.564 341.46 522.312 342.566 522.054C344.324 521.644 345.632 521.554 348.697 520.554C349.128 520.413 351.132 519.965 351.763 519.554C352.604 519.005 353.602 518.054 353.602 517.054C353.602 515.419 349.066 514.131 348.415 513.998C343.793 513.054 339.952 511.643 335.058 511.643" stroke="#5A6B3B" stroke-width="2" stroke-linecap="round"/>
<path d="M99.4097 522.014C99.4097 527.047 100.132 532.518 100.132 537.617C100.132 540.267 100.132 542.916 100.132 545.566C100.132 546.742 99.757 548.397 100.152 549.524C100.498 550.511 101.323 551.911 100.493 552.926" stroke="#5A6B3B" stroke-width="2" stroke-linecap="round"/>
<path d="M329.079 523.054C329.079 528.088 329.079 532.454 329.079 537.554C329.079 540.204 329.079 542.904 329.079 545.554C329.079 546.73 329.079 547.882 329.079 549.054C329.079 550.054 328.765 551.554 329.078 552.554" stroke="#5A6B3B" stroke-width="2" stroke-linecap="round"/>
<path d="M109.878 558.52C109.767 557.798 107.997 557.494 107.692 556.622C107.39 555.76 106.1 555.153 105.185 554.758C103.844 554.179 99.556 551.231 98.3266 552.484C98.0645 552.752 97.3785 553.056 97.2638 553.384C96.9721 554.216 96.5095 553.758 95.88 554.169C94.996 554.746 93.6762 554.665 92.7315 555.281C91.5366 556.061 86.7754 557.556 86.7754 558.814" stroke="#5A6B3B" stroke-width="2" stroke-linecap="round"/>
<path d="M340.474 559.336C340.363 558.614 338.593 558.31 338.288 557.438C337.985 556.576 336.695 555.969 335.781 555.574C334.44 554.995 330.152 552.047 328.922 553.3C328.66 553.568 327.974 553.872 327.859 554.2C327.568 555.032 327.105 554.574 326.476 554.985C325.592 555.562 324.272 555.481 323.327 556.097C322.132 556.877 317.371 558.372 317.371 559.63" stroke="#5A6B3B" stroke-width="2" stroke-linecap="round"/>
<path d="M257.849 546.551C257.849 543.188 257.535 539.975 257.535 536.554C257.535 534.502 257.535 532.532 257.535 530.554C257.535 528.682 257.535 526.321 257.535 524.422C257.535 520.863 257.222 518.714 257.222 515.054C257.222 513.21 257.222 509.764 257.222 507.921C257.222 506.078 257.351 505.407 257.351 503.554" stroke="#5A6B3B" stroke-width="2" stroke-linecap="round"/>
<path d="M257.385 502.766C257.385 501.938 257.351 500.903 257.351 500.054C257.351 499.468 258.198 499.15 258.198 498.537C258.198 497.214 258.198 495.89 258.198 494.567C258.198 491.468 258.198 488.369 258.198 485.271C258.198 484.136 258.605 482.938 258.605 481.871C258.605 479.924 258.605 477.977 258.605 476.03C258.605 472.75 258.808 469.521 258.808 466.246C258.808 465.432 259.012 464.623 259.012 463.795C259.012 463.127 258.808 462.533 258.808 461.888C258.808 461.154 258.808 460.42 258.808 459.686C258.808 459.45 258.68 457.94 258.503 457.825C258.305 457.695 258.198 456.375 258.198 456.13C258.198 455.496 257.995 455.005 257.995 454.416C257.995 453.769 257.588 453.166 257.588 452.518C257.588 451.938 257.182 451.505 257.182 450.943C257.182 449.872 256.309 448.874 256.165 447.875C256.002 446.746 255.154 445.439 254.583 444.392C254.035 443.385 253.85 442.345 253.115 441.37C252.756 440.894 252.752 439.943 252.2 439.583C251.733 439.278 251.22 438.22 250.923 437.759C250.419 436.974 249.503 436.502 249.003 435.769C248.481 435.002 247.588 433.742 246.929 433.054C245.523 431.587 244.797 430.621 243.25 429.554C240.185 427.439 238.457 426.68 235.893 425.054C234.29 424.037 233.399 423.868 231.602 423.054C229.793 422.234 226.295 421.472 224.245 421.054C222.263 420.65 219.34 420.217 217.501 420.054C212.799 419.637 208.756 419.603 204.014 420.217C198.602 420.917 194.205 421.554 190.385 423.405C187.281 424.909 184.292 426.588 181.439 428.398C179.847 429.408 178.55 430.385 177.225 431.586C176.245 432.474 175.546 433.422 174.672 434.313C174.149 434.846 175.813 433.057 173.973 435.054C173.515 435.552 173.107 435.966 172.747 436.554C171.521 438.554 170.908 439.054 170.295 440.554" stroke="#5A6B3B" stroke-width="2" stroke-linecap="round"/>
<path d="M170.294 440.554C170.157 441.45 169.068 444.554 168.455 445.554C167.61 446.932 167.853 447.639 167.229 449.054C166.514 450.673 166.616 452.554 166.003 455.054C165.696 456.304 165.39 457.116 165.39 458.554C165.39 460.077 164.776 462.031 164.776 463.554C164.776 465.049 164.95 466.568 164.776 468.054C164.498 470.437 164.301 472.279 164.301 474.83C164.301 476.241 164.163 478.172 164.163 479.554C164.163 480.426 163.849 481.69 163.849 482.562C163.849 483.979 163.646 485.356 163.646 486.772C163.646 489.695 164.163 491.618 164.163 494.554C164.163 497.056 164.241 500.06 164.163 502.554C164.074 505.382 163.849 507.248 163.849 510.292C163.849 512.133 163.849 514.697 163.849 516.554C163.849 519.101 163.849 521.495 163.849 524.054C163.849 526.787 164.764 530.326 164.764 533.054C164.764 535.065 164.757 537.062 164.764 539.054C164.776 542.554 164.163 545.054 164.256 546.215" stroke="#5A6B3B" stroke-width="2" stroke-linecap="round"/>
<path d="M165.799 539.861C168.279 539.861 170.889 540.783 173.326 541.144C174.815 541.365 176.576 541.156 178.089 541.156C179.387 541.156 180.481 540.563 181.676 540.509C183.726 540.416 185.801 540.138 187.821 540.077C192.171 539.946 196.562 540.509 200.993 540.509C206.23 540.509 211.516 540.077 216.737 540.077C219.02 540.077 221.273 539.645 223.544 539.645C226.062 539.645 228.581 539.645 231.1 539.645C235.335 539.645 239.472 538.998 243.728 538.998C244.919 538.998 245.124 538.998 246.315 538.998C247.432 538.998 248.767 538.998 249.993 538.998C250.666 538.998 253.634 538.861 254.285 538.83C255.285 538.782 254.98 538.508 256.124 538.83C256.878 539.042 256.56 538.554 257.35 538.554" stroke="#5A6B3B" stroke-width="2" stroke-linecap="round"/>
<path d="M241.743 538.054C241.743 537.054 241.817 535.426 241.743 534.788C241.638 533.891 241.41 532.992 241.41 532.054C241.41 531.054 241.478 529.5 241.478 528.554C241.478 527.092 241.41 526.128 241.41 524.554C241.41 523.849 241.478 523.158 241.478 522.554C241.478 522.17 241.464 520.582 241.758 520.282C242.103 519.931 241.604 519.055 241.758 518.616C241.943 518.086 241.71 517.988 241.758 517.283C241.836 516.132 242.272 514.741 242.272 513.554C242.272 511.651 242.904 507.357 242.272 505.554C241.68 503.865 241.758 503.294 241.758 501.554C241.758 495.499 240.685 490.118 240.685 484.062C240.685 479.304 241.415 474.56 241.478 469.747C241.526 466.17 242.425 462.62 242.537 459.052C242.6 457.054 243.066 455.101 243.066 453.105C243.066 451.962 243.331 450.684 243.331 449.437C243.331 448.328 242.801 447.149 242.801 445.984" stroke="#5A6B3B" stroke-width="2" stroke-linecap="round"/>
<path d="M191.467 539.214C192.721 537.935 193.267 535.18 193.319 533.603C193.364 532.244 193.584 530.888 193.584 529.502C193.584 527.952 193.584 526.401 193.584 524.85C193.584 522.818 194.203 519.821 193.451 517.86C193.043 516.794 193.51 515.595 193.304 514.503C193.124 513.546 193.054 512.685 193.054 511.698C193.054 510.155 192.79 508.7 192.79 507.142C192.79 504.614 192.261 502.198 192.261 499.684C192.261 496.483 191.996 493.27 191.996 490.057C191.996 486.554 191.731 483.105 191.731 479.602C191.731 476.75 191.202 473.952 191.202 471.09C191.202 467.541 191.202 463.992 191.202 460.443C191.202 457.725 191.467 454.857 191.467 452.23C191.467 450.037 191.996 448.108 191.996 445.984" stroke="#5A6B3B" stroke-width="2" stroke-linecap="round"/>
<path d="M168.71 446.415C170.325 446.415 171.872 446.716 173.473 446.835C175.821 447.009 178.13 447.063 180.5 447.063C181.769 447.063 183.055 447.112 184.322 447.063C184.895 447.04 186.988 446.828 187.439 446.583C188.389 446.066 190.414 446.12 191.555 445.996C193.408 445.794 195.273 445.767 197.141 445.564C198.868 445.376 200.751 445.552 202.492 445.552C205.162 445.552 207.982 445.563 210.607 445.936C213.33 446.322 216.15 445.868 218.884 446.211C220.515 446.416 222.304 446.631 223.955 446.631C225.984 446.631 228.48 446.498 230.424 446.895C231.089 447.03 234.617 447.476 235.128 446.955C235.516 446.559 237.051 446.969 237.627 446.835C238.163 446.71 238.733 446.342 239.156 446.032C240.369 445.141 243.737 445.552 245.183 445.552" stroke="#5A6B3B" stroke-width="2" stroke-linecap="round"/>
<path d="M244.39 445.336C244.489 445.987 251.523 446.317 252.637 446.403C254.068 446.514 255.408 446.199 256.826 446.199" stroke="#5A6B3B" stroke-width="2" stroke-linecap="round"/>
</svg>
