<svg width="528" height="1078" viewBox="0 0 528 1078" fill="none" xmlns="http://www.w3.org/2000/svg">
<path d="M23.5161 6.11475C31.8444 6.11475 40.1728 6.11475 48.5011 6.11475C51.9816 6.11475 55.4621 6.11475 58.9426 6.11475C63.4898 6.11475 67.8589 7.10489 72.3334 7.10489C76.38 7.10489 80.8757 8.0274 84.8768 8.6176C87.8567 9.05716 91.0786 9.08173 93.9961 9.60774C100.703 10.817 108.403 10.0753 115.354 10.0753C127.298 10.0753 139.243 10.0753 151.187 10.0753C156.785 10.0753 162.038 12.3523 167.663 12.5507C174.397 12.7882 180.878 14.0359 187.664 14.0359C206.181 14.0359 224.111 15.5614 242.109 18.9866C246.927 19.9035 251.352 21.6653 256.009 22.9471C259.851 24.0049 263.667 23.7802 267.603 24.3223C276.403 25.5347 285.231 25.8061 293.978 27.4028C302.298 28.9216 312.212 30.2591 319.776 33.5636C322.7 34.841 326.399 34.3337 329.574 34.3337C333.947 34.3337 338.32 34.3337 342.693 34.3337C353.016 34.3337 361.348 38.1991 370.458 41.5123C375.165 43.224 379.302 45.6532 383.815 47.6731C388.172 49.6233 392.912 50.9665 397.545 52.4038C404.003 54.407 410.04 57.9851 416.191 60.5725C422.633 63.2827 429.27 64.4941 435.446 67.751C440.086 70.198 444.892 72.013 449.447 74.682C451.908 76.1239 453.462 78.1394 455.549 79.8802C458.776 82.5705 461.889 85.1036 464.567 88.1864C466.674 90.6111 468.486 92.6749 470.059 95.2274C472.326 98.9058 474.768 102.699 474.466 107.109C474.258 110.153 466.778 111.167 466.533 114.535C466.176 119.458 461.375 119.486 456.16 119.486C452.449 119.486 451.888 118.293 451.888 121.934C451.888 124.434 451.616 126.552 453.109 128.672C454.723 130.964 457.352 132.312 458.906 134.833C459.76 136.22 460.423 137.693 461.347 139.041C461.999 139.994 461.5 141.221 461.957 142.259C463.216 145.12 463.489 148.91 464.059 151.913C464.653 155.045 464.703 158.114 464.703 161.319C464.703 167.569 464.535 174.207 463.448 180.379C462.94 183.268 460.93 185.615 459.957 188.301C459.105 190.649 456.441 191.856 455.685 194.241C453.556 200.959 453.719 208.717 453.719 215.639C453.719 219.585 454.297 223.624 454.804 227.576C455.124 230.076 454.853 232.605 454.939 235.112C454.966 235.894 455.152 239.083 455.685 239.678C457.506 241.709 457.246 250.184 453.109 250.184C449.033 250.184 445.948 245.625 442.125 244.739C439.05 244.026 435.683 241.45 432.971 240.035C429.506 238.228 426.66 235.202 422.903 233.847C421.144 233.213 419.44 231.881 417.682 231.097C413.686 229.314 409.323 228.124 405.274 226.421C394.381 221.838 383.07 218.352 371.645 214.787C357.515 210.378 342.293 206.44 327.709 203.373C300.186 197.583 270.663 201.772 242.448 200.567C217.301 199.494 191.796 195.787 166.578 198.202C153.88 199.418 141.252 199.192 128.473 199.192C121.063 199.192 113.116 198.166 105.895 196.827C102.904 196.272 99.5482 196.846 96.6065 196.112C92.7228 195.142 87.9627 195.727 83.9276 195.727C80.0629 195.727 76.1981 195.727 72.3334 195.727" stroke="#5A6B3B" stroke-width="2" stroke-linecap="round"/>
<path d="M71.1128 195.232C67.3935 192.549 61.9595 189.053 61.9595 184.588C61.9595 180.55 64.4004 177.268 64.4004 173.201C64.4004 169.714 65.1941 167.023 61.9595 164.537C59.4787 162.631 56.0695 161.446 53.5521 159.477C51.2286 157.659 49.0085 156.433 45.9583 155.516C41.6932 154.234 37.1391 152.672 32.9743 151.17C30.9271 150.432 25.3465 149.149 25.3465 147.457C25.3465 140.902 25.3465 134.347 25.3465 127.792C25.3465 111.023 26.567 94.4762 26.567 77.68C26.567 68.293 25.9568 58.8329 25.9568 49.406C25.9568 45.1294 26.0135 40.9971 26.5331 36.7817C26.831 34.3649 27.1772 32.1 27.1772 29.6582C27.1772 22.6082 28.5474 13.784 24.7363 7.6001" stroke="#5A6B3B" stroke-width="2" stroke-linecap="round"/>
<path d="M28.398 47.2057C33.2908 47.2057 40.3608 46.1241 45.1451 47.2332C49.7324 48.2965 46.831 56.2742 46.1282 58.8398C44.8841 63.3819 42.5902 68.2307 42.433 72.9493C42.3355 75.8769 42.1262 79.0075 42.9076 81.8606C43.6797 84.6791 43.4392 87.9356 44.3993 90.6618C46.123 95.5563 46.3812 101.265 47.3486 106.367C47.8092 108.795 50.2947 110.934 50.9421 113.298C51.4326 115.088 51.1004 116.699 51.8914 118.496C53.2661 121.619 51.1482 121.466 47.925 121.466C45.2807 121.466 42.6364 121.466 39.9921 121.466C37.731 121.466 34.7315 120.614 32.6695 119.871C30.3891 119.049 28.7923 119.981 26.5674 119.981" stroke="#5A6B3B" stroke-width="2" stroke-linecap="round"/>
<path d="M49.1455 50.1759C54.9426 50.1759 60.7396 50.1759 66.5367 50.1759C70.2823 50.1759 73.5115 49.1857 77.2494 49.1857C88.8209 49.1857 100.392 49.1857 111.964 49.1857C119.119 49.1857 125.352 50.5838 132.135 52.1562C141.087 54.2312 150.188 54.6315 159.595 54.6315C165.2 54.6315 170.805 54.6315 176.41 54.6315C180.136 54.6315 183.151 55.5099 186.783 56.2267C190.131 56.8874 193.333 58.097 196.818 58.097C200.683 58.097 204.547 58.097 208.412 58.097C215.721 58.097 223.552 57.2492 230.515 59.1971C235.405 60.565 240.147 60.8767 245.161 61.6725C252.775 62.8811 260.486 64.1711 268.078 65.523C273.397 66.4704 279.066 67.9134 284.045 69.7311C286.499 70.6271 290.85 72.454 293.571 72.454C298.557 72.454 305.527 72.612 310.318 73.6917C317.797 75.3772 325.311 75.2119 332.286 78.6699C336.176 80.5984 339.65 82.8923 343.575 84.8308C347.429 86.7341 352.024 87.4193 356.017 89.0389C363.759 92.1796 371.977 93.649 380.493 94.6222C385.423 95.1855 390.125 96.163 395.003 96.8225C401.05 97.6402 406.878 100.37 412.835 101.663C423.399 103.957 434.656 106.663 444.566 110.574C447.522 111.741 449.299 113.508 451.414 115.415C452.368 116.275 453.09 117.498 454.329 118" stroke="#5A6B3B" stroke-width="2" stroke-linecap="round"/>
<path d="M47.3145 61.5628C73.2261 61.5628 99.1377 61.5628 125.049 61.5628C133.125 61.5628 141.1 62.0579 149.221 62.0579C157.982 62.0579 165.05 62.5685 173.324 65.3033C178.761 67.1003 183.006 70.6996 188.58 72.2068C192.577 73.2877 195.669 73.4445 199.869 73.4445C208.856 73.4445 217.837 74.4346 226.718 74.4346C245.956 74.4346 266.04 73.921 284.689 78.0101C290.755 79.3403 295.336 82.8394 301.639 83.951C309.069 85.2613 315.456 89.0033 323.132 89.7818C328.836 90.3602 334.571 91.6413 340.218 92.5322C345.373 93.3453 349.927 95.1312 355.27 95.2276C362.821 95.3637 370.419 97.3485 377.781 98.4455C387.097 99.8338 395.361 104.034 404.291 106.339C411.616 108.23 418.373 110.812 425.513 113.05C428.75 114.065 431.519 114.842 434.056 116.901C436.274 118.7 439.039 120.472 441.819 121.686C445.209 123.167 448.312 123.47 451.888 124.437" stroke="#5A6B3B" stroke-width="2" stroke-linecap="round"/>
<path d="M43.6533 74.9297C57.9189 74.9297 72.3695 74.107 86.3685 76.6624C93.9464 78.0457 102.37 79.0064 110.167 79.3578C116.13 79.6266 122.034 80.7495 127.999 80.8705C140.418 81.1224 152.405 81.8544 164.747 80.1279C173.131 78.9552 181.247 78.8902 189.8 78.8902C196.605 78.8902 202.924 78.9636 209.632 79.9904C219.3 81.4702 228.784 85.1126 238.38 87.0589C247.392 88.8867 255.243 92.2571 264.552 92.2571C273.542 92.2571 282.55 92.0986 291.537 92.2571C294.232 92.3047 297.161 92.9668 299.809 93.3573C305.079 94.1347 310.532 94.1749 315.81 95.0075C321.465 95.8996 327.456 97.0771 332.862 98.693C338.607 100.41 344.763 100.783 350.592 102.159C359.251 104.202 368.311 104.935 377.137 106.367C387.309 108.017 397.246 111.332 406.698 114.783C411.63 116.583 416.999 116.785 421.988 118.606C426.378 120.209 432.667 120.746 436.362 123.199C438.79 124.811 442.506 127.754 445.786 127.902C447.729 127.99 450.972 129.511 452.498 128.892" stroke="#5A6B3B" stroke-width="2" stroke-linecap="round"/>
<path d="M45.4839 87.8015C71.0205 87.8015 96.7711 87.8526 122.236 88.7917C129.749 89.0687 137.105 90.2769 144.712 90.2769C150.249 90.2769 155.309 90.7969 160.51 91.7346C170.987 93.6235 181.802 94.0826 192.41 95.6126C200.564 96.7886 209.897 96.993 217.565 99.6832C220.885 100.848 225.504 100.178 229.023 100.178C232.854 100.178 236.685 100.178 240.516 100.178C249.708 100.178 259.353 99.9533 268.077 102.764C272.723 104.26 277.319 105.194 282.282 105.597C293.238 106.485 304.797 105.624 315.81 105.624C324.149 105.624 332.68 108.344 340.557 110.327C346.89 111.922 352.959 113.4 359.101 115.498C360.989 116.143 363.019 116.45 364.627 117.506C366.434 118.693 370.757 117.99 372.899 118.111C383.46 118.709 395.719 119.796 405.512 123.447C411.727 125.763 419.163 126.749 425.039 129.662C431.33 132.782 439.019 135.779 444.26 140.031C447.948 143.023 451.858 145.701 455.549 148.695C457.639 150.39 462.53 151.328 463.482 153.646" stroke="#5A6B3B" stroke-width="2" stroke-linecap="round"/>
<path d="M47.9409 98.6431C55.6658 98.6431 63.6625 98.1354 71.3291 98.8874C75.2277 99.2698 79.253 99.6204 83.1751 99.6204C92.1658 99.6204 101.321 100.627 109.904 102.824C120.106 105.435 131.722 106.461 142.405 106.461C152.572 106.461 163.148 105.654 173.083 107.547C180.684 108.995 188.373 109.393 196.167 109.393C201.959 109.393 207.486 110.323 213.177 110.832C221.665 111.59 230.153 114.155 238.691 114.28C244.773 114.368 250.866 114.28 256.95 114.28C260.832 114.28 265.585 114.351 269.369 115.012C273.522 115.739 278.2 115.193 282.43 115.257C286.447 115.318 290.361 116.471 294.344 116.75C298.875 117.067 303.416 118.189 307.945 118.189C313.181 118.189 318.011 119.901 323.132 120.523C325.738 120.84 328.421 120.358 330.995 120.876C333.318 121.343 335.64 121.89 337.981 122.315C341.332 122.923 344.956 123.111 348.174 124.052C353.549 125.624 359.284 126.742 364.745 128.206C370.623 129.782 376.799 130.152 382.665 131.653C385.368 132.345 388.184 133.575 390.563 134.802C393.174 136.15 394.886 136.41 397.717 137.191C403.769 138.862 409.098 141.743 414.896 143.842C419.821 145.625 424.823 146.788 429.914 148.104C432.903 148.877 436.288 149.052 439.026 150.439C444.072 152.994 448.019 156.214 451.649 159.967C453.313 161.688 455.384 163.16 457.251 164.718C459.095 166.256 462.087 169.29 464.676 169.984" stroke="#5A6B3B" stroke-width="2" stroke-linecap="round"/>
<path d="M66.7588 190.682C66.7588 196.015 68.4789 203.74 65.7035 208.693C62.4513 214.498 63.9447 222.993 63.9447 229.177C63.9447 238.711 63.9447 248.245 63.9447 257.779C63.9447 268.66 66.0099 279.248 68.0095 289.995C69.7978 299.608 68.1658 310.249 68.1658 319.992C68.1658 336.149 66.6664 351.865 63.9447 367.873C62.4658 376.572 62.5377 385.084 62.5377 393.875C62.5377 403.354 66.0553 412.481 66.0553 421.842C66.0553 427.571 66.2832 433.762 68.2049 439.219C68.4603 439.944 79.2887 440.534 80.4773 440.677C85.0716 441.229 89.7422 441.671 94.1959 442.675C101.985 444.43 110.406 443.386 118.272 444.546C122.841 445.22 127.611 444.799 132.186 445.37C136.319 445.886 140.84 446.881 145.005 446.956C158.074 447.191 171.284 447.468 184.246 448.636C188.938 449.059 193.176 449.81 197.965 449.81C214.993 449.81 232.009 450.38 248.969 450.38C259.262 450.38 269.031 454.946 279.221 454.946C290.131 454.946 300.978 458.371 311.934 458.371C320.442 458.371 328.949 458.371 337.456 458.371C344.541 458.371 351.503 459.961 358.562 460.083C362.15 460.145 366.037 460.757 369.427 461.796C383.261 466.035 398.769 464.79 412.85 468.359C416.283 469.23 420.418 468.639 423.793 469.247C425.549 469.564 434.056 470.951 435.245 469.215C437.439 466.011 437.512 462.584 437.512 458.942C437.512 450.57 437.961 442.161 436.457 433.86C434.603 423.635 436.105 412.48 436.105 402.151C436.105 390.707 436.658 379.154 435.558 367.746C435.16 363.626 433.018 359.053 433.838 355.063C434.878 350.001 435.205 344.95 436.261 339.906C437.512 333.929 438.919 327.81 438.919 321.705C438.919 316.996 439.622 312.339 439.622 307.657C439.622 301.327 439.125 294.853 439.661 288.537C440.383 280.048 440.326 271.573 440.326 263.043C440.326 259.314 439.733 255.396 438.763 251.754C438.4 250.393 438.222 246.049 436.808 245.476" stroke="#5A6B3B" stroke-width="2" stroke-linecap="round"/>
<path d="M71.0354 469.663C71.0354 498.146 71.5946 527.511 77.575 555.652C83.2385 582.302 75.077 609.051 72.8277 635.511C71.9077 646.333 71.9073 657.671 71.9073 668.484C71.9073 674.497 71.9073 680.51 71.9073 686.523C71.9073 690.528 73.3915 694.363 73.6512 698.156C74.1681 705.704 74.5232 713.152 74.5232 720.754C74.5232 722.134 73.6025 725.745 75.8795 725.745C80.8314 725.745 86.0353 724.962 90.8963 724.173C104.477 721.969 119.119 722.915 132.943 722.915C141.372 722.915 149.801 722.915 158.23 722.915C163.805 722.915 171.24 723.918 176.589 722.562C184.567 720.539 195.162 722.208 203.571 722.208C213.55 722.208 223.391 721.501 233.314 721.501C247.345 721.501 260.435 723.917 274.247 725.391C283.972 726.43 293.575 726.453 303.36 726.453C319.058 726.453 336.822 728.435 352.092 725.038C366.847 721.755 382.607 715.841 398.014 715.841C404.792 715.841 411.392 716.549 418.069 716.549C423.089 716.549 427.821 717.256 432.892 717.256C435.55 717.256 438.364 717.966 439.674 715.841C442.163 711.802 444.227 708.516 444.227 703.855C444.227 694.538 444.499 685.247 442.919 675.991C441.668 668.659 439.868 662.099 439.868 654.69C439.868 637.774 440.926 620.595 438.996 603.756C437.015 586.485 430.776 569.686 428.532 552.39C426.68 538.112 428.532 524.021 428.532 509.828C428.532 506.643 427.812 503.711 427.66 500.631C427.568 498.764 425.503 497.332 424.996 495.483C424.21 492.614 421.76 492.382 418.941 491.239C414.707 489.521 410.514 487.342 406.056 486.09C403.684 485.424 402.04 483.822 399.758 483.261C394.822 482.047 390.145 481.689 384.935 481.689C368.511 481.689 352.164 480.981 335.67 480.981C319.454 480.981 303.158 476.402 287.084 474.772C268.515 472.889 249.31 473.907 230.601 473.907C214.163 473.907 197.726 473.907 181.288 473.907C171.882 473.907 163.082 474.033 154.064 471.942C148.416 470.633 141.489 471.439 135.559 470.37C125.337 468.527 113.302 467.285 102.861 466.872C93.9982 466.522 85.2027 466.126 76.3155 466.126C74.2509 466.126 66.9812 464.215 65.8037 466.126" stroke="#5A6B3B" stroke-width="2" stroke-linecap="round"/>
<path d="M72.7798 468.248C82.306 472.112 92.0892 475.741 102.426 477.837C111.056 479.588 118.686 483.106 127.712 483.772C132.717 484.141 137.688 485.702 142.535 485.933C144.084 486.007 145.077 490.148 146.895 490.885" stroke="#5A6B3B" stroke-width="2" stroke-linecap="round"/>
<path d="M146.895 490.884C171.87 490.884 196.418 493.714 221.349 493.714C237.49 493.714 253.953 494.422 270.227 494.422C283.738 494.422 297.063 496.406 310.336 493.714C325.829 490.572 342.02 490.177 357.905 490.177C363.04 490.177 366.594 490.192 371.178 492.299C374.046 493.618 380.247 495.836 383.676 495.836C388.233 495.836 392.531 496.544 397.095 496.544C400.098 496.544 405.372 497.393 408.042 496.19C410.879 494.912 420.441 496.234 421.557 494.422" stroke="#5A6B3B" stroke-width="2" stroke-linecap="round"/>
<path d="M68.4194 192.357C76.8505 199.197 88.1657 203.412 96.3216 210.396C102.235 215.461 110.754 218.215 116.812 223.13C121.151 226.65 126.822 229.595 130.327 233.544C132.391 235.869 133.953 237.01 134.639 240.068C135.133 242.275 136.684 243.747 139.047 244.706" stroke="#5A6B3B" stroke-width="2" stroke-linecap="round"/>
<path d="M139.047 244.706C144.505 244.706 149.963 244.706 155.421 244.706C162.896 244.706 169.897 243.665 177.316 243.33C193.981 242.579 210.144 239.754 226.92 239.754C239.469 239.754 252.424 239.749 264.656 242.23C271.299 243.577 279.572 243.291 286.406 243.291C295.587 243.291 305.033 244.501 314.114 245.571C329.839 247.422 345.508 248.243 361.393 248.243C367.684 248.243 373.121 247.567 379.268 246.828C382.31 246.462 385.127 245.468 388.23 245.413C390.842 245.367 393.704 245.719 396.271 245.256C408.024 243.137 420.809 243.998 432.893 243.998" stroke="#5A6B3B" stroke-width="2" stroke-linecap="round"/>
<path d="M76.0435 741.28C76.0435 756.441 76.0435 771.603 76.0435 786.765C76.0435 791.565 76.4937 796.147 76.9276 800.899C77.5541 807.762 79.7942 814.236 80.7241 821.026C81.652 827.801 84.5984 834.85 86.5489 841.532C88.4889 848.177 88.2132 855.242 88.2132 862.038C88.2132 872.674 86.3781 882.483 84.6767 893.008C82.2907 907.768 84.4686 923.834 84.4686 938.704C84.4686 946.678 84.4686 954.653 84.4686 962.628C84.4686 964.75 83.4951 979.672 85.4048 979.758C90.2426 979.976 94.4958 981.277 99.4467 981.277C104.439 981.277 109.432 981.277 114.425 981.277C126.258 981.277 137.902 980.518 149.79 980.518C161.115 980.518 172.299 982.037 183.647 982.037C189.648 982.037 196.617 982.845 202.473 981.657C226.675 976.748 251.175 970.805 276.375 970.644C289.687 970.559 304.463 972.078 317.565 969.716C323.787 968.594 329.311 965.839 335.56 964.737C346.307 962.842 356.895 961.632 367.596 960.054C375.569 958.878 382.622 957.84 390.531 955.834C397.561 954.052 403.686 950.898 411.23 950.898C417.926 950.898 424.079 948.71 429.485 945.919C436.011 942.55 437.1 935.204 439.262 929.632C442.96 920.103 442.071 908.205 442.071 898.324C442.071 887.092 443.032 876.226 443.891 865.076C445.046 850.078 443.118 835.403 440.614 820.604C438.976 810.919 438.778 801.266 437.598 791.575C436.715 784.32 437.824 776.75 436.246 769.55C435.02 763.956 434.402 758.244 432.917 752.672C432.242 750.139 430.837 746.858 430.837 744.318C430.837 742.166 430.837 740.014 430.837 737.862C430.837 735.543 413.269 736.723 410.294 736.723C403.88 736.723 396.848 737.559 390.531 738.2C374.586 739.817 358.796 741.741 342.633 742.039C336.208 742.158 328.792 743.592 322.454 744.487C315.396 745.482 308.089 745.077 300.923 745.077C267.95 745.077 234.978 745.077 202.005 745.077C189.731 745.077 177.458 745.077 165.184 745.077C152.565 745.077 140.145 746.113 127.531 745.837C122.108 745.718 115.915 744.557 110.68 743.39C104.5 742.011 97.6773 737.676 91.2296 737.482C88.0649 737.387 80.8379 735.019 78.8518 738.242" stroke="#5A6B3B" stroke-width="2" stroke-linecap="round"/>
<path d="M144.965 490.603C144.965 503.627 144.965 516.652 144.965 529.677C144.965 533.929 144.058 536.761 145.683 540.716" stroke="#5A6B3B" stroke-width="2" stroke-linecap="round"/>
<path d="M136.346 242.949V283.156" stroke="#5A6B3B" stroke-width="2" stroke-linecap="round"/>
<path d="M378.802 249.164C378.802 263.24 378.721 277.281 378.081 291.31C377.868 295.979 377.359 300.63 377.359 305.358" stroke="#5A6B3B" stroke-width="2" stroke-linecap="round"/>
<path d="M26.6273 149.075C26.6273 158.67 28.4181 169.425 26.2155 178.871C24.6811 185.451 23.7087 192.324 22.9629 198.98C22.2944 204.945 22.8743 211.022 22.1394 216.984C21.5162 222.04 21.0114 227.211 21.4806 232.35C22.0584 238.678 23.5143 245.457 25.4744 251.591C27.2639 257.191 29.5917 263.831 29.5917 269.629C29.5917 275.942 29.5917 282.255 29.5917 288.568C29.5917 292.401 27.8724 295.186 26.7919 298.79C26.0908 301.129 26.1704 303.629 25.845 306.005C24.885 313.015 25.4386 320.125 24.5686 327.183C24.0521 331.373 24.0991 335.487 23.2922 339.676C22.5626 343.465 23.4343 347.323 22.757 351.1C21.0803 360.452 19.9572 369.121 19.9572 378.625C19.9572 388.576 19.3735 398.448 23.0864 408.087C25.044 413.169 27.7973 419.737 28.1095 425.056C28.5499 432.559 27.5141 439.986 27.3684 447.437C27.1879 456.66 26.5597 466.342 24.5686 475.429C24.011 477.973 24.0215 480.836 23.704 483.412C23.4564 485.421 22.9217 487.371 22.9217 489.392" stroke="#5A6B3B" stroke-width="2" stroke-linecap="round"/>
<path d="M24.4042 488.79C24.4042 496.894 23.9372 505.088 24.5689 513.175C25.0635 519.506 26.6218 525.783 27.3275 532.082C28.7203 544.511 27.3687 557.502 27.3687 569.961C27.3687 578.096 28.2047 586.56 26.6276 594.613C25.3623 601.075 22.984 607.405 22.1809 613.921C20.4188 628.217 19.9576 642.315 19.9576 656.677C19.9576 675.203 17.5154 694.75 25.8865 712.328C27.1068 714.89 29.3775 717.64 30.1685 720.278C31.1512 723.556 31.0743 728.035 31.0743 731.401C31.0743 738.316 31.0743 745.231 31.0743 752.145" stroke="#5A6B3B" stroke-width="2" stroke-linecap="round"/>
<path d="M32.5558 750.341C32.5558 760.674 32.5558 771.007 32.5558 781.34C32.5558 796.849 31.3642 812.71 32.9263 828.172C33.7879 836.7 34.0396 846.076 33.2557 854.661C32.8991 858.567 30.3699 862.687 28.8502 866.386C26.9328 871.053 25.8833 875.655 24.8153 880.482C22.0676 892.902 19.1332 905.397 17.5688 917.961C15.711 932.883 11.5317 947.125 14.028 962.254C15.3776 970.434 17.3027 978.277 19.5863 986.305C21.3032 992.341 23.7186 997.872 24.5682 1004.08C25.3442 1009.74 28.8502 1014.67 28.8502 1020.31" stroke="#5A6B3B" stroke-width="2" stroke-linecap="round"/>
<path d="M28.1094 1020.91C44.9079 1020.91 61.7065 1020.91 78.5051 1020.91C95.5673 1020.91 112.228 1022.11 129.271 1022.11C142.611 1022.11 155.951 1022.11 169.291 1022.11C173.771 1022.11 179.666 1021.26 183.908 1022.25C188.587 1023.33 193.367 1023.92 198.236 1023.92C206.059 1023.92 214.237 1022.36 221.91 1021.21C231.823 1019.72 241.299 1019.71 251.349 1019.71C261.408 1019.71 272.29 1019.98 282.311 1019.07C291.12 1018.28 300.822 1015.74 309.321 1013.7C315.005 1012.33 321.358 1011.98 327.19 1010.99C334.536 1009.74 341.847 1007.99 349.382 1007.72C353.993 1007.55 358.64 1007.68 363.257 1007.68C366.162 1007.68 368.631 1006.53 371.409 1006.01C383.224 1003.83 395.126 1002.53 407.106 1001.04C412.908 1000.31 419.083 999.087 424.605 997.328C430.816 995.35 437.866 994.352 443.874 992.05C450.871 989.37 457.716 986.764 465.366 985.57C475.356 984.012 486.297 984.965 495.711 981.528C501.182 979.531 505.996 977.928 510.409 974.48C513.787 971.841 517.175 970.697 521.32 969.202C522.924 968.624 524.491 968.149 525.232 966.797C525.919 965.542 525.741 963.791 523.914 963.791C520.346 963.791 516.777 963.791 513.209 963.791C504.463 963.791 495.408 963.19 486.447 963.19C478.053 963.19 469.957 963.791 461.661 963.791C457.769 963.791 453.204 964.347 449.432 965.027C447.311 965.409 446.838 965.971 446.838 963.791C446.838 962.032 446.838 960.272 446.838 958.513C446.838 947.565 448.414 937.083 450.709 926.379C452.381 918.577 451.285 910.087 451.285 902.161C451.285 896.599 452.026 891.164 452.026 885.626" stroke="#5A6B3B" stroke-width="2" stroke-linecap="round"/>
<path d="M454.25 884.424C454.25 840.138 456.781 795.681 447.992 751.878C446.169 742.796 444.488 733.772 448.65 725.088C450.181 721.893 450.253 717.908 450.585 714.532C451.135 708.962 452.026 703.516 452.026 697.897C452.026 684.714 452.026 671.531 452.026 658.347C452.026 651.345 450.62 644.309 449.433 637.37C448.757 633.426 449.751 627.599 447.58 624.075" stroke="#5A6B3B" stroke-width="2" stroke-linecap="round"/>
<path d="M450.544 625.278C450.544 612.952 450.544 600.626 450.544 588.3C450.544 577.954 452.768 567.719 452.768 557.368C452.768 550.041 452.768 542.715 452.768 535.388C452.768 518.831 452.768 502.274 452.768 485.717C452.768 471.188 448.6 456.852 448.321 442.359C448.145 433.194 446.072 423.391 447.745 414.233C448.993 407.398 446.707 399.981 451.286 393.79" stroke="#5A6B3B" stroke-width="2" stroke-linecap="round"/>
<path d="M453.508 250.087C453.508 273.692 454.249 297.159 454.249 320.736C454.249 325.123 454.249 329.51 454.249 333.897C454.249 337.865 452.752 341.499 451.656 345.354C450.502 349.41 449.806 353.95 447.744 357.714C446.439 360.096 447.579 364.738 447.579 367.334C447.579 370.34 447.579 373.347 447.579 376.353C447.579 379.337 448.636 382.895 450.173 385.639C451.456 387.929 453.135 392.741 451.285 394.992" stroke="#5A6B3B" stroke-width="2" stroke-linecap="round"/>
<path d="M526.482 963.808C526.482 965.914 526.482 968.02 526.482 970.126C526.482 972.871 523.816 973.863 522.609 976.31C521.704 978.146 516.818 979.467 514.987 980.656C512.166 982.487 510.613 985.088 507.035 986.205C500.615 988.208 493.926 989.517 487.917 991.954C479.305 995.448 469.455 996.386 460.106 998.071C449.309 1000.02 438.805 1004.99 428.627 1008.6C424.816 1009.95 420.498 1010.14 416.555 1011.21C411.322 1012.62 405.665 1014.54 400.239 1015.42C394.805 1016.3 389.49 1016.3 384.129 1017.66C379.67 1018.79 374.777 1018.95 370.162 1019.63C362.927 1020.7 355.477 1020.75 348.16 1021.57C338.644 1022.64 329.581 1023.38 319.936 1023.38C314.486 1023.38 308.902 1022.66 304.156 1025.18C300.622 1027.06 295.456 1028.79 291.012 1028.79C285.944 1028.79 280.877 1028.79 275.809 1028.79C271.009 1028.79 267.053 1029.43 262.459 1029.96C257.229 1030.57 251.135 1032.08 245.978 1033.6C234.425 1037.01 224.686 1040.22 212.357 1040.22C187.973 1040.22 163.728 1037.21 139.347 1037.21C130.214 1037.21 121.081 1037.21 111.948 1037.21C97.9871 1037.21 84.3727 1039.02 70.3749 1039.02C58.8795 1039.02 47.3841 1039.02 35.8887 1039.02C33.3527 1039.02 30.4181 1039.39 28.1015 1038.55C24.7805 1037.35 25.135 1036.92 25.135 1033.91C25.135 1029.8 25.1576 1024.54 27.3599 1020.97" stroke="#5A6B3B" stroke-width="2" stroke-linecap="round"/>
<path d="M503.492 987.876C503.492 997.704 503.492 1007.53 503.492 1017.36C503.492 1020.13 501.626 1020.02 499.042 1021.3C494.555 1023.53 490.334 1026.61 485.692 1028.49C475.774 1032.51 467.428 1038.13 456.356 1039.92C434.966 1043.39 414.958 1050.67 393.688 1054.36C387.756 1055.39 382.487 1057.67 376.424 1057.67C369.067 1057.67 361.992 1059.49 355.329 1061.88C341.487 1066.86 326.101 1065.17 311.407 1066.23C291.188 1067.69 271.099 1070.07 250.923 1071.81C223.834 1074.15 195.803 1072.71 168.601 1072.71C159.666 1072.71 150.579 1072.35 141.655 1072.75C136.618 1072.98 131.759 1074.24 126.698 1074.49C116.708 1074.96 106.821 1074.48 96.8266 1075.42C90.7906 1075.99 84.419 1075.02 78.4916 1076.02C71.5094 1077.2 63.3972 1076.32 56.2837 1076.32C50.2111 1076.32 43.0021 1077.26 37.1659 1075.86C32.6592 1074.77 25.3988 1075.42 23.6928 1070.58C22.0154 1065.81 24.151 1058.63 25.7117 1054.2C27.2864 1049.72 26.6182 1044.27 26.6182 1039.62" stroke="#5A6B3B" stroke-width="2" stroke-linecap="round"/>
<path d="M84.0122 274.136C84.0122 283.738 82.6928 294.519 85.5651 303.84C86.5654 307.086 86.2798 311.609 86.4968 314.954C86.6451 317.24 87.0051 320.199 85.8756 322.261C82.6407 328.166 79.8116 334.425 76.0756 340.15C74.9806 341.828 72.5996 342.822 71.3136 344.462C69.4481 346.84 69.162 349.907 67.2417 352.244" stroke="#5A6B3B" stroke-width="2" stroke-linecap="round"/>
<path d="M85.2554 274.136C89.4998 274.136 93.7442 274.136 97.9886 274.136C99.4184 274.136 104.879 273.502 105.753 274.388C107.628 276.29 106.995 278.825 106.995 281.191C106.995 284.383 106.995 287.574 106.995 290.766C106.995 297.218 108.858 303.689 108.858 310.027C108.858 314.614 107.872 320.012 109.618 324.417C111.42 328.967 113.431 333.261 115.691 337.743C120.151 346.588 121.893 356.451 128.079 364.815C129.689 366.993 128.98 370.91 129.494 373.41C129.983 375.79 130.338 378.105 130.632 380.493C131.205 385.134 131.84 389.631 131.84 394.323C131.84 404.626 133.082 414.96 133.082 425.314C133.082 431.437 134.325 438.069 134.325 443.959" stroke="#5A6B3B" stroke-width="2" stroke-linecap="round"/>
<path d="M87.1182 309.411C90.8002 309.411 94.108 311.274 97.6774 311.427C100.759 311.558 103.808 311.931 106.994 311.931" stroke="#5A6B3B" stroke-width="2" stroke-linecap="round"/>
<path d="M64.7578 381.472C78.6462 381.472 93.0915 377.788 106.857 380.072C114.769 381.385 122.896 382.631 129.977 385.504" stroke="#5A6B3B" stroke-width="2" stroke-linecap="round"/>
<path d="M67.8638 429.345C74.8355 429.345 81.2858 430.353 88.2231 430.353C93.582 430.353 98.5709 430.593 103.751 431.753C106.129 432.285 108.908 432.873 111.377 432.873C118.72 432.873 125.752 430.857 133.083 430.857" stroke="#5A6B3B" stroke-width="2" stroke-linecap="round"/>
<path d="M132.461 384.496C132.461 380.383 131.934 375.995 132.496 371.898C132.892 369.006 134.86 366.96 136.05 364.451C138.78 358.691 142.288 352.952 144.539 346.953C148.727 335.789 148.142 324.301 149.197 312.742C149.838 305.72 148.61 298.713 148.61 291.773C148.61 288.162 148.61 284.551 148.61 280.939C148.61 279.317 148.034 277.123 149.542 275.9C151.982 273.921 157.404 275.648 160.412 275.648C163.458 275.648 166.62 277.555 169.384 278.195C172.631 278.948 171.44 291.233 170.661 293.257C168.532 298.784 169.108 305.023 169.108 310.811C169.108 314.123 169.108 317.436 169.108 320.749C169.108 324.794 170.324 327.993 171.903 331.836C175.578 340.781 182.788 348.656 186.361 357.676C189.056 364.478 189.127 371.407 189.64 378.477C190.142 385.406 190.767 392.843 192.711 399.613C194.213 404.849 194.507 410.122 195.678 415.347C197.148 421.905 195.816 429.521 195.816 436.176C195.816 440.744 196.438 445.382 196.438 450.006" stroke="#5A6B3B" stroke-width="2" stroke-linecap="round"/>
<path d="M138.052 382.984C138.052 398.616 138.673 414.285 138.673 429.849C138.673 431.637 137.179 442.465 140.226 441.915C144.845 441.083 149.718 440.936 154.547 440.936C160.39 440.936 166.233 440.936 172.076 440.936C177.323 440.936 182.482 441.943 187.605 441.943C188.582 441.943 190.191 442.62 190.227 441.831C190.381 438.465 189.681 435.199 189.606 431.865C189.468 425.689 189.779 419.506 189.606 413.332C189.528 410.539 188.364 407.836 188.364 404.933C188.364 402.988 188.283 399.644 187.432 397.85C186.405 395.682 186.5 392.14 186.5 389.787C186.5 387.056 187.363 385.378 183.947 384.244C170.128 379.657 153.575 382.48 139.295 382.48" stroke="#5A6B3B" stroke-width="2" stroke-linecap="round"/>
<path d="M150.475 302.86C154.183 302.86 157.31 304.876 160.723 304.876C163.311 304.876 165.899 304.876 168.487 304.876" stroke="#5A6B3B" stroke-width="2" stroke-linecap="round"/>
<path d="M117.082 340.651C117.082 332.062 116.748 323.4 117.475 314.848C117.877 310.114 117.914 305.411 117.914 300.653C117.914 296.666 117.906 292.074 118.954 288.164C119.197 287.257 118.503 283.684 119.255 283.007C120.248 282.111 124.06 282.594 125.403 282.594C127.761 282.594 130.118 282.594 132.476 282.594C133.358 282.594 136.772 282.179 137.376 282.669C137.914 283.106 137.378 284.866 137.491 285.463C137.702 286.576 137.884 287.516 137.884 288.67C137.884 291.621 137.735 294.729 138.508 297.615C139.532 301.434 138.724 305.844 139.109 309.748C139.362 312.313 139.87 315.811 141.005 318.205C141.823 319.931 141.598 322.014 142.877 323.699C143.845 324.976 145.275 327.324 145.373 328.837C145.552 331.598 146.368 334.942 148.286 337.276" stroke="#5A6B3B" stroke-width="2" stroke-linecap="round"/>
<path d="M118.748 320.061C126.015 320.061 133.146 320.399 140.382 320.399" stroke="#5A6B3B" stroke-width="2" stroke-linecap="round"/>
<path d="M196.132 402.759C196.132 394.142 195.716 385.578 195.716 376.974C195.716 373.255 195.716 369.536 195.716 365.817C195.716 363.613 196.562 362.494 197.612 360.547C200.306 355.551 203.575 350.213 204.546 344.702C205.953 336.71 206.95 329.247 206.95 321.149C206.95 311.733 207.366 302.299 207.366 292.908C207.366 290.559 206.595 287.179 207.574 284.957C209.41 280.786 215.766 280.906 220.171 280.906C223.415 280.906 227.204 282.131 228.908 284.619C230.135 286.411 229.562 289.776 229.208 291.727C228.341 296.51 228.17 301.559 227.729 306.391C226.775 316.835 226.571 327.485 231.08 337.445C234.362 344.692 233.807 353.176 238.153 360.229C240.808 364.536 245.908 367.77 247.214 372.643C249.349 380.61 247.804 389.015 249.618 397.002C250.726 401.882 251.226 407.618 253.547 412.191C255.887 416.802 255.211 421.37 255.211 426.33C255.211 434.45 255.211 442.57 255.211 450.69" stroke="#5A6B3B" stroke-width="2" stroke-linecap="round"/>
<path d="M196.132 402.421C196.132 404.391 195.716 406.169 195.716 408.159" stroke="#5A6B3B" stroke-width="2" stroke-linecap="round"/>
<path d="M201.125 390.944C201.125 393.445 201.125 395.945 201.125 398.445C201.125 401.157 201.096 404.462 202.049 407.071C203.108 409.969 202.373 413.724 202.373 416.766C202.373 424.806 201.957 432.919 201.957 440.9C201.957 441.913 201.957 442.926 201.957 443.938C201.957 445.721 202.122 445.626 204.453 445.626C208.194 445.626 211.65 445.692 215.27 444.876C216.747 444.543 218.108 444.195 219.639 443.919C228.182 442.379 237.796 444.276 246.474 444.276C247.09 444.276 249.275 444.554 249.71 444.201C250.196 443.806 250.196 440.21 250.218 439.55C250.317 436.655 250.218 433.745 250.218 430.849C250.218 426.714 248.97 422.71 248.97 418.604C248.97 411.872 246.89 405.455 246.89 398.708C246.89 397.387 247.536 394.423 246.381 393.382C244.997 392.134 239.617 392.413 237.737 392.219C234.679 391.905 231.64 391.957 228.561 391.957C219.969 391.957 211.405 392.294 202.789 392.294" stroke="#5A6B3B" stroke-width="2" stroke-linecap="round"/>
<path d="M208.197 306.897C210.557 307.089 212.579 308.846 214.854 309.335C216.577 309.705 218.045 310.273 219.847 310.273C222.43 310.273 224.809 309.935 227.335 309.935" stroke="#5A6B3B" stroke-width="2" stroke-linecap="round"/>
<path d="M174.914 336.696C174.914 335.296 174.882 333.894 174.914 332.495C174.964 330.331 176.129 328.341 176.162 326.157C176.256 319.972 175.48 313.537 176.578 307.405C177.282 303.474 181.056 296.685 178.751 292.478C176.826 288.964 186.604 290.981 188.228 291.128C190.189 291.305 196.169 290.793 196.525 292.816C197.497 298.334 196.965 304.115 196.965 309.693C196.965 317.032 196.133 324.286 196.133 331.633C196.133 334.325 196.188 338.096 197.589 340.596C198.648 342.487 198.521 344.565 199.253 346.466C199.918 348.193 199.877 350.243 199.877 352.054C199.877 353.547 200.166 354.277 200.709 355.598" stroke="#5A6B3B" stroke-width="2" stroke-linecap="round"/>
<path d="M176.578 326.474H194.884" stroke="#5A6B3B" stroke-width="2" stroke-linecap="round"/>
<path d="M134.549 853.565C134.549 852.166 134.517 850.764 134.549 849.365C134.599 847.2 135.764 845.21 135.797 843.027C135.892 836.842 135.115 830.407 136.214 824.274C136.917 820.344 140.691 813.555 138.386 809.348C136.462 805.834 146.24 807.851 147.863 807.997C149.825 808.174 155.805 807.662 156.161 809.685C157.132 815.204 156.6 820.985 156.6 826.562C156.6 833.902 155.768 841.155 155.768 848.502C155.768 851.194 155.823 854.966 157.224 857.466C158.283 859.356 158.156 861.435 158.888 863.335C159.554 865.063 159.512 867.113 159.512 868.924C159.512 870.417 159.802 871.147 160.344 872.468" stroke="#5A6B3B" stroke-width="2" stroke-linecap="round"/>
<path d="M136.213 843.344H154.519" stroke="#5A6B3B" stroke-width="2" stroke-linecap="round"/>
<path d="M248.97 372.38C248.97 366.864 249.795 362.256 252.067 357.059C252.8 355.383 253.464 353.743 254.379 352.127C255.048 350.946 255.034 349.588 255.835 348.433C260.436 341.796 262.284 335.048 262.284 327.468C262.284 318.853 262.73 309.937 260.204 301.496C259.053 297.653 258.539 293.714 258.539 289.757C258.539 287.781 258.625 286.049 260.712 284.694C261.765 284.011 264.778 284.733 265.843 285.125C267.655 285.793 269.283 285.969 271.229 285.969C273.848 285.969 278.841 285.393 280.174 287.826C281.656 290.531 281.226 293.873 281.746 296.77C282.192 299.259 282.254 301.675 282.254 304.196C282.254 307.169 282.67 310.11 282.67 313.047C282.67 315.329 282.67 317.61 282.67 319.892C282.67 321.779 283.417 323.584 283.502 325.461C283.662 328.954 284.792 332.651 285.559 336.075C285.933 337.742 285.643 339.486 286.022 341.176C286.396 342.848 288.153 345.148 289.327 346.576C291.76 349.537 292.328 353.355 293.695 356.684C296.367 363.187 300.354 369.652 301.901 376.43C302.655 379.734 303.69 382.955 304.212 386.294C304.892 390.64 304.305 395.331 304.305 399.72C304.305 404.069 304.82 408.051 305.553 412.359C306.124 415.721 305.969 419.089 305.969 422.486C305.969 428.898 306.385 435.416 306.385 441.876C306.385 445.713 306.385 449.551 306.385 453.389C306.385 455.279 306.363 456.316 303.889 456.427C302.331 456.497 301.238 457.04 299.728 456.427" stroke="#5A6B3B" stroke-width="2" stroke-linecap="round"/>
<path d="M250.714 397.357C256.718 397.357 262.721 397.357 268.725 397.357C271.108 397.357 273.493 397.073 275.914 397.073C280.243 397.073 283.897 398.439 288.116 399.043C289.749 399.277 291.742 399.031 293.303 399.406C294.53 399.701 296.58 399.869 297.85 399.564C299.608 399.141 302.135 399.157 303.873 399.627" stroke="#5A6B3B" stroke-width="2" stroke-linecap="round"/>
<path d="M255.96 443.89C265.663 443.89 275.408 443.672 285.105 443.953C289.665 444.085 295.54 445.177 299.638 443.212C301.68 442.233 303.532 441.336 305.972 441.336" stroke="#5A6B3B" stroke-width="2" stroke-linecap="round"/>
<path d="M300.185 365.866C300.185 362.021 301.39 359.171 303.433 355.729C304.555 353.838 306.697 352.245 308.21 350.556C312.397 345.886 312.868 340.633 312.868 335.135C312.868 324.528 311.63 313.97 311.63 303.373C311.63 300.535 311.321 297.692 311.321 294.84C311.321 293.376 312.127 293.334 313.951 293.334C315.528 293.334 316.859 294.157 318.367 294.533C319.514 294.82 320.725 294.74 321.908 295.035C324.153 295.596 326.461 295.195 328.645 295.091C330.79 294.989 329.882 297.283 329.882 298.605C329.882 302.075 328.517 305.158 328.095 308.588C327.731 311.54 327.757 314.57 327.716 317.539C327.64 323.178 326.314 328.756 327.716 334.382C328.242 336.491 329.263 338.334 329.263 340.517C329.263 342.136 329.855 343.591 330.191 345.16C330.858 348.272 333.029 351.539 334.522 354.433C335.764 356.84 337.065 359.005 338.08 361.474C339.217 364.241 341.132 366.731 342.857 369.268C344.625 371.867 345.409 374.649 346.604 377.397C349.708 384.532 351.846 391.605 351.846 399.204C351.846 415.13 351.119 431.06 351.536 446.986C351.608 449.715 352.464 452.496 352.464 455.213C352.464 456.044 352.524 456.892 352.464 457.722C352.428 458.217 348.322 458.006 347.515 458.224" stroke="#5A6B3B" stroke-width="2" stroke-linecap="round"/>
<path d="M304.207 393.975C319.692 393.975 335.122 394.226 350.609 394.226" stroke="#5A6B3B" stroke-width="2" stroke-linecap="round"/>
<path d="M307.609 435.637C312.038 435.637 316.44 435.701 320.843 435.246C325.214 434.795 329.392 433.767 333.801 433.615C339.124 433.431 344.348 432.876 349.681 432.876" stroke="#5A6B3B" stroke-width="2" stroke-linecap="round"/>
<path d="M377.522 306.134C375.349 306.134 366.618 305.146 365.458 307.263C364.82 308.428 363.211 309.421 363.98 310.903C364.683 312.257 369.07 313.135 370.854 313.398C374.446 313.928 379.319 314.805 381.475 311.655C381.924 311 382.421 308.263 381.389 307.891C380.166 307.45 377.883 306.887 376.594 306.887" stroke="#5A6B3B" stroke-width="2" stroke-linecap="round"/>
<path d="M313.487 318.432C316.009 318.432 318.626 318.683 321.204 318.683C322.744 318.683 324.11 319.185 325.552 319.185" stroke="#5A6B3B" stroke-width="2" stroke-linecap="round"/>
<path d="M364.529 309.899C364.529 314.7 364.412 319.405 363.67 324.148C362.927 328.891 363.784 333.883 362.364 338.565C361.254 342.222 361.842 346.615 359.958 350.054C359.59 350.726 359.889 351.948 359.889 352.676C359.889 353.428 358.363 354.915 357.724 355.464C356.14 356.825 354.716 358.347 353.393 359.898C351.553 362.054 351.08 364.09 350.368 366.619C349.186 370.814 348.752 375.145 348.752 379.418" stroke="#5A6B3B" stroke-width="2" stroke-linecap="round"/>
<path d="M383.4 309.146C383.4 318.292 383.376 327.386 384.311 336.488C384.56 338.91 384.845 341.247 385.239 343.641C385.604 345.86 386.526 347.912 387.043 350.054C387.391 351.491 387.835 352.219 389.278 353.122C393.433 355.723 395.08 360.173 396.083 364.151C397.351 369.181 397.944 374.274 399.641 379.167C401.232 383.758 400.548 388.68 400.792 393.389C401.381 404.733 400.723 416.109 400.723 427.466C400.723 430.623 401.342 433.728 401.342 436.891C401.342 440.227 401.368 443.555 400.964 446.875C400.362 451.817 400.723 456.894 400.723 461.863C400.723 464.949 396.617 464.248 393.918 464.248" stroke="#5A6B3B" stroke-width="2" stroke-linecap="round"/>
<path d="M398.867 377.16C394.238 377.16 389.609 377.16 384.981 377.16C382.289 377.16 379.73 376.658 377.058 376.658C374.847 376.658 372.635 376.658 370.424 376.658C369.573 376.658 366.887 376.279 366.231 376.811C364.982 377.825 365.26 380.523 365.148 381.817C364.92 384.457 364.934 387.067 364.821 389.709C364.574 395.524 364.529 401.328 364.529 407.151C364.529 411.443 365.457 415.644 365.457 419.937C365.457 422.54 365.457 425.143 365.457 427.745C365.457 430.939 365.749 434.216 366.145 437.394C366.458 439.907 367.313 442.335 367.313 444.867C367.313 447.337 375.745 447.05 377.831 446.373C378.954 446.009 380.345 446.008 381.543 445.871C383.585 445.638 385.583 445.201 387.662 445.174C389.539 445.15 391.42 445.174 393.299 445.174C394.33 445.174 395.361 445.174 396.392 445.174C397.621 445.174 398.589 445.927 399.795 445.927" stroke="#5A6B3B" stroke-width="2" stroke-linecap="round"/>
<path d="M229.278 327.789C229.278 325.728 230.246 323.562 230.95 321.603C231.53 319.989 232.565 318.222 232.656 316.524C232.992 310.246 232.963 303.95 232.963 297.648C232.963 296.486 232.963 295.323 232.963 294.161C232.963 293.544 232.179 292.915 233.338 292.915C235.055 292.915 236.772 292.915 238.49 292.915C240.183 292.915 242.583 293.286 244.17 292.791C245.256 292.452 247.486 292.168 248.622 292.168C250.872 292.168 251.345 295.427 251.385 296.845C251.604 304.672 251.692 312.572 251.692 320.441C251.692 322.738 253.266 324.819 253.773 327.042C254.514 330.285 256.912 333.433 256.912 336.743C256.912 339.32 258.14 341.675 258.14 344.23" stroke="#5A6B3B" stroke-width="2" stroke-linecap="round"/>
<path d="M234.191 317.577C238.438 317.577 242.686 317.577 246.933 317.577C248.167 317.577 249.307 317.513 250.464 317.826" stroke="#5A6B3B" stroke-width="2" stroke-linecap="round"/>
<path d="M285.648 329.478C285.648 324.377 285.648 319.275 285.648 314.173C285.648 310.741 285.865 307.308 285.865 303.882C285.865 302.86 286.179 301.725 286.684 300.804C287.175 299.907 287.115 299.395 288.37 298.947C291.797 297.724 294.878 297.461 298.61 297.461C300.287 297.461 301.741 297.879 303.308 298.341C304.797 298.78 304.866 300.59 305.331 301.722C306.131 303.668 306.944 305.784 307.102 307.84C307.272 310.051 307.114 312.311 307.114 314.525C307.114 317.5 306.897 320.453 306.897 323.419C306.897 326.65 306.528 330.056 307.548 333.211C308.626 336.545 308.724 340.023 309.668 343.375C309.859 344.054 310.165 348.207 309.499 348.477" stroke="#5A6B3B" stroke-width="2" stroke-linecap="round"/>
<path d="M285.648 329.478C287.812 329.478 289.977 329.478 292.141 329.478C294.406 329.478 296.642 329.958 298.875 330.221C301.141 330.489 303.522 330.358 305.813 330.358" stroke="#5A6B3B" stroke-width="2" stroke-linecap="round"/>
<path d="M73.2681 636.029C73.2681 634.802 74.6863 633.739 75.4483 632.72C76.7953 630.92 77.4929 628.822 78.8801 627.054C79.6128 626.119 79.7571 624.972 80.172 623.942C81.1325 621.558 82.1283 619.023 83.3616 616.736C85.6607 612.472 86.9558 607.823 88.3478 603.306C89.7002 598.917 91.7998 594.446 91.7998 589.86C91.7998 580.275 92.8899 570.794 92.8899 561.215C92.8899 557.972 92.6753 554.675 92.9101 551.437C93.0171 549.962 93.6166 548.487 93.6166 547.015C93.6166 545.016 93.9334 543.109 93.98 541.103C94.03 538.955 94.6028 536.47 96.5236 534.912C97.8887 533.804 99.5984 533.348 101.066 532.423C102.582 531.466 105.559 531.964 107.344 531.964C109.129 531.964 111.662 531.958 113.42 532.275C117.299 532.975 118.85 538.951 119.335 541.398C120.033 544.924 120.142 548.318 120.142 551.879C120.142 553.397 120.142 554.915 120.142 556.432C120.142 558.118 119.107 559.545 119.052 561.149C118.904 565.49 118.093 569.808 117.518 574.121C116.761 579.799 117.236 585.653 117.236 591.366C117.236 594.326 116.517 598.175 118.043 600.947C120.33 605.104 120.071 609.587 121.757 613.886C123.587 618.552 127.004 622.482 129.671 626.89C132.159 631.002 133.977 635.406 136.777 639.337C142.529 647.414 145.215 656.984 145.215 666.262C145.215 671.536 145.215 676.81 145.215 682.083C145.215 684.174 145.215 686.265 145.215 688.356C145.215 690.301 144.47 692.066 144.125 693.957C142.422 703.281 142.308 712.651 142.308 722.111" stroke="#5A6B3B" stroke-width="2" stroke-linecap="round"/>
<path d="M73.6313 656.665C82.8347 656.665 91.6975 656.96 100.884 656.96C102.492 656.96 104.218 657.42 105.789 657.697C108.059 658.097 110.424 657.946 112.693 658.286C118.239 659.12 124.174 658.812 129.751 658.45C132.376 658.28 134.939 658.139 137.584 658.139C138.77 658.139 138.982 658.13 139.32 659.089C139.938 660.843 139.764 662.882 139.764 664.69C139.764 667.865 139.401 671.072 139.401 674.206C139.401 676.658 139.507 679.419 138.492 681.723C137.859 683.161 138.5 684.936 138.23 686.44C137.736 689.194 137.341 691.948 136.777 694.694C136.289 697.066 135.404 699.374 135.404 701.77C135.404 703.503 135.653 705.355 135.404 707.076C135.238 708.219 125.411 706.781 124.22 706.781C121.866 706.781 119.542 706.76 117.256 707.223C114.058 707.872 110.006 707.666 106.758 707.666C104.188 707.666 101.617 707.666 99.0469 707.666C91.0595 707.666 83.0722 707.666 75.0848 707.666" stroke="#5A6B3B" stroke-width="2" stroke-linecap="round"/>
<path d="M94.8799 543.093C99.7437 543.093 104.918 544.218 109.821 543.606C111.408 543.408 112.927 543.197 114.551 543.083C115.957 542.984 117.36 542.395 118.743 542.395" stroke="#5A6B3B" stroke-width="2" stroke-linecap="round"/>
<path d="M94.0195 554.953C95.944 554.953 97.8411 555.87 99.7167 556.165C100.948 556.358 102.238 556.634 103.431 556.911C105.785 557.456 108.873 557.046 111.302 557.046C113.864 557.046 116.804 556.292 119.173 555.651" stroke="#5A6B3B" stroke-width="2" stroke-linecap="round"/>
<path d="M119.388 538.034C122.459 538.034 125.565 537.916 128.632 538.034C130.132 538.092 131.472 539.31 132.92 539.604C135.032 540.032 133.997 545.687 133.529 546.968C133.275 547.664 133.132 548.498 132.239 548.713C130.245 549.192 128.071 549.63 126.172 550.331C124.178 551.066 122.737 550.069 120.893 550.069" stroke="#5A6B3B" stroke-width="2" stroke-linecap="round"/>
<path d="M133.011 548.525C133.011 555.332 132.187 562.661 133.362 569.439C134.313 574.926 133.821 580.474 135.165 585.928C135.713 588.151 136.098 590.384 136.68 592.606C137.299 594.963 137.899 597.245 138.611 599.556C139.368 602.013 140.001 604.803 141.338 607.101C142.79 609.595 143.249 612.427 144.784 614.918C145.98 616.858 146.783 618.956 148.086 620.859C148.423 621.351 148.101 621.961 148.246 622.489C148.41 623.09 148.804 623.667 148.804 624.288C148.804 626.408 149.378 628.472 149.378 630.643C149.378 632.438 148.968 633.349 147.145 634.487C146.034 635.18 144.795 637.416 144.481 638.563C144.17 639.698 143.295 640.88 142.838 641.993C142.263 643.392 142.2 644.9 142.2 646.368" stroke="#5A6B3B" stroke-width="2" stroke-linecap="round"/>
<path d="M135.309 541.536C138.941 541.536 142.573 541.536 146.205 541.536C147.63 541.536 150.315 541.256 151.102 542.571C152.065 544.179 151.964 546.416 151.964 548.162C151.964 548.875 152.774 550.002 151.9 550.569C149.516 552.117 145.675 552.019 142.775 552.019C139.592 552.019 136.736 551.553 133.586 551.553" stroke="#5A6B3B" stroke-width="2" stroke-linecap="round"/>
<path d="M151.963 551.553C151.138 551.805 151.676 555.646 151.676 556.226C151.676 559.388 151.676 562.55 151.676 565.712C151.676 569.862 152.46 573.884 152.808 577.981C153.042 580.724 153.663 583.603 154.483 586.264C155.693 590.191 155.361 594.347 156.717 598.275C157.676 601.055 158.289 603.925 159.556 606.635C159.91 607.392 160.21 608.945 161.151 609.327" stroke="#5A6B3B" stroke-width="2" stroke-linecap="round"/>
<path d="M160.865 542.002C160.865 549.545 161.067 557.109 160.865 564.65C160.768 568.265 160.29 571.923 160.29 575.548C160.29 581.309 159.716 587.042 159.716 592.787C159.716 596.827 160.003 600.897 160.003 604.901C160.003 611.391 161.008 618.296 157.132 624.236C155.805 626.27 153.568 627.796 151.963 629.646C151.191 630.537 150.277 632.608 149.092 633.089" stroke="#5A6B3B" stroke-width="2" stroke-linecap="round"/>
<path d="M161.544 540.659C165.848 540.659 170.15 540.783 174.333 540.261C177.701 539.84 179.895 540.106 181.438 542.923C182.066 544.069 181.542 546.288 181.542 547.534C181.542 549.33 181.542 551.126 181.542 552.921C181.542 556.317 181.542 559.713 181.542 563.109C181.542 572.478 181.542 581.848 181.542 591.218C181.542 598.821 184.332 606.17 184.332 613.668C184.332 614.949 185.724 616.724 186.451 617.818C187.786 619.831 188.852 622.353 189.913 624.505C192.69 630.137 194.955 635.755 198.956 640.855C199.713 641.82 199.718 643.339 200.144 644.418C200.845 646.19 201.68 647.935 202.237 649.742C203.897 655.129 204.979 660.654 206.655 666.008C208.166 670.835 207.585 675.982 207.585 680.933C207.585 688.009 207.12 695.071 207.12 702.167C207.12 705.477 207.669 709.069 207.094 712.333C206.782 714.104 204.367 717.926 202.469 718.831C201.006 719.53 200.045 720.25 198.491 720.823C197.039 721.358 194.758 721.011 193.168 721.011" stroke="#5A6B3B" stroke-width="2" stroke-linecap="round"/>
<path d="M143.407 718.37C143.407 720.729 148.19 722.521 150.848 722.521" stroke="#5A6B3B" stroke-width="2" stroke-linecap="round"/>
<path d="M146.661 667.811H205.724" stroke="#5A6B3B" stroke-width="2" stroke-linecap="round"/>
<path d="M143.407 704.032C147.775 704.032 151.671 705.667 155.86 705.919C158.838 706.098 161.756 706.296 164.8 706.296C172.41 706.296 180.173 705.919 187.691 705.919C190.766 705.919 194.068 705.926 196.992 705.248C199.918 704.57 203.118 704.032 206.19 704.032" stroke="#5A6B3B" stroke-width="2" stroke-linecap="round"/>
<path d="M161.598 549.555C165.165 549.555 168.055 550.615 171.488 551.352C174.289 551.953 176.968 551.881 179.843 551.881" stroke="#5A6B3B" stroke-width="2" stroke-linecap="round"/>
<path d="M183.492 544.691C186.378 544.691 189.265 544.691 192.151 544.691C193.17 544.691 196.418 544.257 197.161 545.032C197.775 545.672 197.306 547.756 197.306 548.509C197.306 550.327 196.788 552.149 196.466 553.949C195.994 556.59 195.742 559.368 195.742 562.031C195.742 568.516 195.742 575.001 195.742 581.486C195.742 584.569 195.534 587.702 195.757 590.779C195.881 592.5 196.168 594.215 196.278 595.959C196.363 597.31 196.231 598.99 196.582 600.306C197.06 602.098 196.806 603.963 197.248 605.757C197.969 608.681 199.049 611.397 200.043 614.263C200.508 615.604 200.616 617.051 201.419 618.281C201.952 619.099 202.258 619.754 202.258 620.724C202.258 623.505 202.423 626.307 201.998 629.065C201.601 631.638 201.673 634.373 200.897 636.89C200.144 639.335 200.694 642.403 200.694 644.925" stroke="#5A6B3B" stroke-width="2" stroke-linecap="round"/>
<path d="M182.71 576.41C186.67 576.41 190.489 576.622 194.44 576.622" stroke="#5A6B3B" stroke-width="2" stroke-linecap="round"/>
<path d="M219.15 542.158C219.15 553.894 219.15 565.63 219.15 577.366C219.15 579.952 219.15 582.537 219.15 585.123C219.15 587.872 219.697 590.578 216.389 592.111C210.465 594.857 205.798 598.187 204.232 603.78C203.366 606.87 202.089 609.69 202.089 612.858C202.089 615.031 201.718 617.266 201.718 619.495" stroke="#5A6B3B" stroke-width="2" stroke-linecap="round"/>
<path d="M219.892 542.46C224.034 542.46 228.176 542.46 232.318 542.46C235.355 542.46 239.674 540.955 239.921 544.566C240.198 548.602 240.292 552.668 240.292 556.753C240.292 560.981 239.179 565.108 239.179 569.308C239.179 573.603 239.159 577.969 239.901 582.181C240.213 583.955 239.766 585.937 240.374 587.664C241.127 589.802 240.151 592.795 243.342 593.85C253.333 597.152 254.738 607.516 255.891 614.998C256.303 617.674 256.039 620.419 256.53 623.106C256.958 625.453 257.209 627.97 257.354 630.328C257.617 634.591 256.983 638.763 256.983 642.95C256.983 645.247 256.516 647.9 257.271 650.122C258.148 652.7 257.321 655.4 257.807 658.012C258.357 660.967 258.096 664.066 258.096 667.057C258.096 671.465 258.096 675.873 258.096 680.28C258.096 686.674 256.241 692.947 256.241 699.305C256.241 703.552 256.241 707.798 256.241 712.044C256.241 714.241 257.215 717.951 254.387 719.166C251.631 720.349 249.068 721.506 245.856 721.506" stroke="#5A6B3B" stroke-width="2" stroke-linecap="round"/>
<path d="M205.063 621.351C209.634 621.351 214.204 621.351 218.774 621.351C223.524 621.351 228.409 621.008 233.074 621.8C238.327 622.692 243.537 622.789 248.877 622.789C249.357 622.789 251.288 622.544 251.683 622.819C252.027 623.058 251.806 624.146 251.806 624.446C251.806 625.581 251.806 626.716 251.806 627.851C251.806 630.114 251.806 632.377 251.806 634.641C251.806 639.796 251.806 644.952 251.806 650.107C251.806 652.836 251.806 655.566 251.806 658.295C251.806 662.506 252.327 666.947 251.683 671.125C251.281 673.731 250.698 676.23 250.698 678.863C250.698 680.661 250.698 682.458 250.698 684.255C250.698 684.95 251.156 690.581 250.575 690.715C249.383 690.992 248.005 690.905 246.76 690.905C245.237 690.905 243.807 691.265 242.28 691.265C238.473 691.265 234.775 691.443 230.982 691.624C228.656 691.735 225.947 692.511 223.672 691.983C223.094 691.849 222.695 691.438 222.121 691.304C221.306 691.116 220.465 691 219.635 690.865C218.475 690.677 217.294 690.238 216.14 690.186C215.358 690.151 214.462 689.803 213.691 689.647C212.645 689.435 211.266 689.795 211.266 688.708C211.266 683.424 212.374 678.222 212.374 672.932C212.374 670.989 212.374 669.045 212.374 667.101C212.374 665.209 211.931 663.337 211.931 661.43C211.931 659.814 211.428 658.447 210.774 656.937C209.952 655.04 209.632 653.005 209.1 651.046C208.713 649.621 208.243 648.137 207.993 646.692C206.514 638.174 207.5 629.711 207.5 621.171" stroke="#5A6B3B" stroke-width="2" stroke-linecap="round"/>
<path d="M219.824 576.352H238.016" stroke="#5A6B3B" stroke-width="2" stroke-linecap="round"/>
<path d="M240.858 544.528C245.363 544.528 250.033 544.294 254.486 544.746C257.056 545.006 260.186 544.965 260.186 547.526C260.186 551.923 259.22 555.991 258.481 560.337C257.921 563.627 257.06 567.038 257.06 570.356C257.06 575.796 257.06 581.237 257.06 586.677C257.06 589.376 256.235 592.416 258.418 594.851C258.674 595.137 258.738 595.627 258.939 595.953C259.386 596.679 260.144 597.293 260.597 598.028C261.07 598.796 261.584 599.614 262.176 600.334" stroke="#5A6B3B" stroke-width="2" stroke-linecap="round"/>
<path d="M269.098 545.498C269.098 549.496 269.098 553.494 269.098 557.492C269.098 559.24 268.91 560.834 268.675 562.551C268.388 564.646 268.665 567.033 268.104 569.082C267.352 571.827 268.158 574.636 267.731 577.407C267.34 579.944 267.309 582.449 267.309 585.046C267.309 588.281 267.249 592.956 265.619 595.931C264.807 597.414 265.234 600.252 263.508 601.373C262.575 601.978 261.715 603.597 261.271 604.437C260.366 606.151 258.59 607.794 258.365 609.718C258.218 610.968 258.227 612.305 257.893 613.528C257.567 614.715 257.679 616.273 257.023 617.337" stroke="#5A6B3B" stroke-width="2" stroke-linecap="round"/>
<path d="M269.991 545.135C263.579 545.135 282.81 544.772 289.221 544.772C293.151 544.772 291.457 553.822 291.457 556.181C291.457 561.926 291.457 567.671 291.457 573.415C291.457 575.845 291.022 578.546 291.905 580.873C292.609 582.732 293.605 584.999 293.693 586.941C293.788 589.007 295.105 591.123 295.83 593.109C296.568 595.129 295.801 597.191 297.718 598.833C301.023 601.663 303.799 604.705 304.874 608.629C305.316 610.245 306.17 611.72 306.215 613.427C306.264 615.254 306.027 617.13 306.24 618.95C306.517 621.303 307.896 623.587 308.004 625.964C308.125 628.617 308.004 631.292 308.004 633.946C308.004 639.348 309.346 644.553 309.346 649.971C309.346 654.474 310.688 658.929 310.688 663.355C310.688 667.434 310.688 671.512 310.688 675.591C310.688 682.185 310.24 688.676 310.24 695.264C310.24 699.65 309.998 704.006 309.793 708.325C309.725 709.766 309.008 711.247 308.899 712.76C308.817 713.888 308.423 715.834 306.886 716.388C299.891 718.911 291.617 718.565 283.954 718.565C281.768 718.565 279.398 719.24 277.147 719.291C273.806 719.366 270.451 719.291 267.109 719.291C263.832 719.291 260.894 717.477 257.917 717.477" stroke="#5A6B3B" stroke-width="2" stroke-linecap="round"/>
<path d="M303.98 602.824C303.98 599.444 307.11 596.709 307.11 593.31C307.11 588.925 307.558 584.494 307.558 580.047C307.558 575.987 308.375 571.027 306.315 567.267C304.772 564.45 307.467 561.825 310.887 561.825C312.385 561.825 314.168 561.168 315.607 561.099C317.596 561.005 319.629 561.099 321.62 561.099C324.61 561.099 327.235 564.191 327.235 566.36C327.235 568.862 321.779 567.993 319.409 567.993C315.862 567.993 312.481 568.356 308.899 568.356" stroke="#5A6B3B" stroke-width="2" stroke-linecap="round"/>
<path d="M327.235 567.993C327.235 575.115 326.788 582.123 326.788 589.238C326.788 592.001 327.069 594.682 327.235 597.381C327.401 600.074 329.236 602.7 329.471 605.283C329.648 607.217 331.233 608.803 331.732 610.625C332.182 612.267 333.336 614.759 334.589 616.067C336.909 618.487 337.252 621.4 338.416 624.23" stroke="#5A6B3B" stroke-width="2" stroke-linecap="round"/>
<path d="M350.043 558.923C350.043 564.278 350.168 569.461 349.173 574.706C348.815 576.596 348.404 578.641 348.229 580.551C348.014 582.911 348.253 585.776 347.459 588.029C346.084 591.935 346.728 596.61 344.9 600.466C344.259 601.817 344.714 603.443 343.782 604.719C342.385 606.632 342.205 609.373 341.546 611.512C340.431 615.129 339.175 618.661 337.521 622.135C335.805 625.739 335.9 629.724 334.043 633.302C333.251 634.827 333.943 637.784 333.943 639.389C333.943 643.528 333.943 647.667 333.943 651.806C333.943 658.941 333.943 666.077 333.943 673.212C333.943 678.791 333.938 684.388 332.95 689.902C332.056 694.886 332.154 699.807 332.154 704.859C332.154 707.008 331.912 709.212 332.502 711.309C332.719 712.077 332.923 714.057 333.72 714.574C334.658 715.183 334.059 716.751 335.732 716.751C337.851 716.751 339.878 717.138 341.968 717.477C344.834 717.942 348.142 718.203 351.037 718.203C354.798 718.203 358.382 719.291 362.118 719.291C364.577 719.291 367.037 719.291 369.497 719.291C371.893 719.291 374.139 718.203 376.652 718.203C382.582 718.203 386.267 714.467 386.267 710.019C386.267 699.759 386.714 689.545 386.714 679.3C386.714 670.883 387.609 662.757 387.609 654.325C387.609 650.518 387.752 646.738 386.814 643.017C386.549 641.969 386.417 640.801 385.82 639.833C385.103 638.669 383.945 637.886 383.584 636.567C382.809 633.738 381.407 631.115 380.801 628.222C379.88 623.823 378.494 619.247 376.876 614.979C375.02 610.087 373.592 605.045 371.31 600.285C366.303 589.838 369.273 577.682 369.273 566.824C369.273 565.01 370.239 562.903 369.695 560.918C369.202 559.118 366.519 557.585 364.552 557.129C362.125 556.566 360.3 556.383 357.646 556.383C355.057 556.383 353.356 558.197 350.937 558.197" stroke="#5A6B3B" stroke-width="2" stroke-linecap="round"/>
<path d="M350.937 566.542C353.516 568.635 356.61 570.418 360.427 570.533C362.243 570.587 365.53 570.985 367.036 570.17" stroke="#5A6B3B" stroke-width="2" stroke-linecap="round"/>
<path d="M371.061 560.737C374.622 560.737 378.08 560.374 381.57 560.374C384.162 560.374 384.136 563.446 383.235 565.09C382.162 567.049 381.821 568.719 378.44 568.719C375.533 568.719 372.626 568.719 369.719 568.719" stroke="#5A6B3B" stroke-width="2" stroke-linecap="round"/>
<path d="M383.137 564.728C383.137 571.164 383.137 577.601 383.137 584.038C383.137 587.364 382.991 590.677 383.609 593.935C384.275 597.449 385.856 600.815 386.714 604.296C387.547 607.673 389.133 611.355 391.186 614.354C392.565 616.367 393.37 617.651 393.422 619.877C393.511 623.627 395.956 626.868 396.578 630.399C397.113 633.438 398.612 636.489 399.584 639.469C400.726 642.97 401.672 646.377 401.919 649.991C402 651.163 402.197 652.874 402.59 654.023C403.605 656.986 402.814 660.895 402.814 663.94C402.814 668.992 402.814 674.045 402.814 679.098C402.814 686.986 402.814 694.874 402.814 702.762C402.814 705.584 402.814 708.406 402.814 711.228C402.814 713.506 401.616 714.359 399.037 714.957C394.755 715.949 389.638 715.3 385.373 715.3" stroke="#5A6B3B" stroke-width="2" stroke-linecap="round"/>
<path d="M308.646 715.704C312.775 715.704 316.463 717.184 320.393 717.877C322.379 718.228 324.546 718.045 326.576 718.045C328.156 718.045 329.736 718.045 331.316 718.045C333.144 718.045 333.84 717.474 335.438 717.041" stroke="#5A6B3B" stroke-width="2" stroke-linecap="round"/>
<path d="M241.657 580.412C244.463 580.412 247.095 581.008 249.922 581.008C250.836 581.008 251.765 581.049 252.677 581.008C253.651 580.964 254.243 580.412 255.248 580.412" stroke="#5A6B3B" stroke-width="2" stroke-linecap="round"/>
<path d="M241.291 586.372C244.413 586.372 247.535 586.372 250.657 586.372C251.713 586.372 255.187 586.77 255.616 586.074" stroke="#5A6B3B" stroke-width="2" stroke-linecap="round"/>
<path d="M219.251 581.902C224.215 581.902 228.997 582.796 233.944 582.796C234.905 582.796 238.666 583.18 239.087 582.498" stroke="#5A6B3B" stroke-width="2" stroke-linecap="round"/>
<path d="M270.677 558.955C277.077 558.955 283.366 559.253 289.778 559.253" stroke="#5A6B3B" stroke-width="2" stroke-linecap="round"/>
<path d="M336.5 670.032C346.552 670.032 356.6 670.432 366.571 670.616C369.145 670.663 384.71 673.561 386.166 671.2" stroke="#5A6B3B" stroke-width="2" stroke-linecap="round"/>
<path d="M113.042 817.356C113.042 822.711 113.167 827.894 112.173 833.139C111.814 835.029 111.403 837.075 111.229 838.984C111.013 841.344 111.252 844.209 110.459 846.463C109.083 850.368 109.728 855.043 107.9 858.899C107.259 860.251 107.713 861.877 106.781 863.153C105.384 865.065 105.204 867.807 104.545 869.945C103.431 873.562 102.175 877.094 100.521 880.568C98.8043 884.172 98.8991 888.157 97.0422 891.735C96.2507 893.26 96.9428 896.217 96.9428 897.822C96.9428 901.961 96.9428 906.1 96.9428 910.239C96.9428 917.375 96.9428 924.51 96.9428 931.646C96.9428 937.224 96.9377 942.821 95.949 948.336C95.0554 953.32 95.154 958.24 95.154 963.292C95.154 965.441 94.911 967.645 95.5018 969.742C95.7183 970.511 95.9226 972.491 96.7192 973.008C97.6577 973.617 97.0584 975.185 98.7317 975.185C100.85 975.185 102.877 975.571 104.968 975.91C107.834 976.375 111.141 976.636 114.036 976.636C117.798 976.636 121.382 977.724 125.117 977.724C127.577 977.724 130.037 977.724 132.496 977.724C134.893 977.724 137.138 976.636 139.652 976.636C145.581 976.636 149.267 972.9 149.267 968.452C149.267 958.192 149.714 947.979 149.714 937.733C149.714 929.317 150.608 921.19 150.608 912.759C150.608 908.951 150.751 905.172 149.813 901.451C149.549 900.403 149.416 899.234 148.819 898.266C148.102 897.102 146.945 896.32 146.583 895C145.808 892.171 144.406 889.548 143.801 886.655C142.88 882.256 141.494 877.681 139.875 873.412C138.02 868.521 136.592 863.478 134.31 858.718C129.303 848.272 132.273 836.115 132.273 825.258C132.273 823.443 133.239 821.336 132.695 819.352C132.202 817.551 129.518 816.018 127.552 815.562C125.125 814.999 123.299 814.816 120.645 814.816C118.056 814.816 116.355 816.63 113.937 816.63" stroke="#5A6B3B" stroke-width="2" stroke-linecap="round"/>
<path d="M113.936 824.975C116.516 827.068 119.61 828.851 123.427 828.966C125.242 829.021 128.529 829.418 130.036 828.603" stroke="#5A6B3B" stroke-width="2" stroke-linecap="round"/>
<path d="M99.4985 928.466C109.55 928.466 119.598 928.866 129.57 929.05C132.144 929.097 147.709 931.995 149.164 929.634" stroke="#5A6B3B" stroke-width="2" stroke-linecap="round"/>
<path d="M333.76 710.734C344.096 710.734 354.813 710.102 365.076 711.027C371.694 711.624 377.922 712.285 384.623 712.285" stroke="#5A6B3B" stroke-width="2" stroke-linecap="round"/>
<path d="M258.422 626.342C269.29 626.342 280.037 627.583 290.929 627.583C294.223 627.583 297.574 627.893 300.787 627.893C302.32 627.893 305.336 628.136 306.608 628.824" stroke="#5A6B3B" stroke-width="2" stroke-linecap="round"/>
<path d="M257.274 706.7C264.526 706.7 271.778 706.7 279.03 706.7C284.414 706.7 289.743 706.528 295.05 707.39C298.15 707.893 300.969 707.941 304.122 707.941C305.452 707.941 308.926 707.967 307.755 706.7" stroke="#5A6B3B" stroke-width="2" stroke-linecap="round"/>
<path d="M311.197 665.435C316.17 665.435 321.152 665.522 326.112 665.745C328.848 665.869 330.318 667.095 330.318 669.468C330.318 672.18 330.318 674.892 330.318 677.604C330.318 679.627 330.318 681.649 330.318 683.672C330.318 684.799 330.628 686.252 330.127 687.309C329.677 688.259 329.802 689.723 329.575 690.739C329.283 692.039 329.038 693.314 328.598 694.6C327.869 696.728 327.641 698.598 327.641 700.805C327.641 701.736 328.062 702.667 326.664 702.667C323.994 702.667 321.324 702.667 318.654 702.667C315.815 702.667 313.245 702.357 310.432 702.357" stroke="#5A6B3B" stroke-width="2" stroke-linecap="round"/>
<path d="M388.55 663.802C391.969 663.802 398.268 662.927 401.415 664.203" stroke="#5A6B3B" stroke-width="2" stroke-linecap="round"/>
<path d="M387.066 701.538H401.91" stroke="#5A6B3B" stroke-width="2" stroke-linecap="round"/>
<path d="M382.118 496.801C382.118 517.998 384.097 539.055 384.097 560.229" stroke="#5A6B3B" stroke-width="2" stroke-linecap="round"/>
<path d="M216.011 977.41C208.409 977.41 200.537 977.734 193.07 977.734C191.329 977.734 190.955 977.966 190.854 976.439C190.565 972.098 189.117 967.873 188.881 963.564C188.627 958.92 187.285 954.343 187.285 949.645C187.285 944.215 189.227 938.96 189.657 933.551C190.286 925.64 190.078 917.688 190.078 909.759C190.078 904.802 190.307 899.804 189.701 894.888C189.368 892.183 189.093 888.393 190.078 885.807C190.866 883.739 191.879 881.732 192.671 879.674C193.173 878.371 194.076 877.313 195.087 876.258C196.435 874.852 197.136 873.184 198.057 871.564C199.149 869.646 199.677 867.295 200.451 865.252C201.173 863.35 202.163 861.515 202.756 859.588C203.854 856.026 204.125 852.24 204.929 848.654C205.833 844.618 206.037 840.663 206.037 836.534C206.037 832.789 205.485 828.699 206.059 824.971C206.368 822.967 206.835 820.945 206.835 818.965C206.835 817.783 206.027 813.342 207.455 812.815C210.025 811.867 212.671 812.006 215.413 812.006C217.983 812.006 229.177 810.677 229.177 813.948C229.177 817.412 229.576 821.077 229.576 824.63C229.576 826.747 229.945 829.088 229.488 831.175C229.128 832.816 229.819 835.248 228.978 836.75C228.423 837.741 228.379 840.065 228.379 841.156C228.379 842.793 227.98 844.292 227.98 845.921C227.98 849.879 226.441 854.385 229.177 858.041C230.42 859.703 230.708 861.749 231.771 863.472C233.178 865.755 234.52 868.192 235.561 870.593C237.252 874.493 239.078 878.277 240.437 882.246C241.606 885.659 242.799 888.93 243.74 892.442C244.565 895.523 245.995 898.279 246.311 901.487C246.525 903.659 246.512 905.947 246.821 908.141C247.297 911.524 248.053 914.922 248.328 918.319C248.662 922.451 248.389 926.737 249.104 930.799C249.831 934.928 249.126 939.584 249.126 943.747C249.126 947.547 249.126 951.347 249.126 955.148C249.126 959.128 248.727 963.112 248.727 967.052C248.727 967.95 248.287 971.729 248.727 971.907" stroke="#5A6B3B" stroke-width="2" stroke-linecap="round"/>
<path d="M191.749 906.094C195.916 906.094 199.495 906.709 203.541 907.317C206.63 907.781 209.731 908.865 212.895 909.007C215.369 909.119 218.355 909.368 220.785 909.727C223.668 910.152 226.715 910.024 229.651 909.978C232.725 909.93 236.499 908.891 239.227 907.784C241.578 906.831 244.546 906.688 246.807 905.77" stroke="#5A6B3B" stroke-width="2" stroke-linecap="round"/>
<path d="M191.673 971.584C196.941 971.584 202.187 971.26 207.433 971.26C211.696 971.26 215.959 971.26 220.222 971.26C223.49 971.26 226.674 971.908 229.886 971.908C233.683 971.908 237.683 971.584 241.345 971.584C243.468 971.584 245.292 970.937 247.53 970.937" stroke="#5A6B3B" stroke-width="2" stroke-linecap="round"/>
<path d="M205.238 846.964C210.149 846.964 214.779 848.259 219.734 848.259C222.092 848.259 224.545 847.935 226.783 847.935" stroke="#5A6B3B" stroke-width="2" stroke-linecap="round"/>
<path d="M247.531 897.136C247.531 893.491 247.531 889.847 247.531 886.202C247.531 883.484 246.959 880.323 247.929 877.715C249.334 873.94 249.674 869.908 251.21 866.17C252.637 862.696 255.098 859.62 256.507 856.189C260.718 845.942 260.697 834.632 260.697 823.911C260.697 818.3 260.697 812.689 260.697 807.079C260.697 804.374 261.288 801.747 261.472 799.058C261.587 797.386 261.137 795.507 261.694 793.879C262.841 790.529 260.994 786.724 261.916 783.36C262.782 780.197 268.665 778.019 272.267 778.019C274.701 778.019 279.609 777.182 280.645 779.493C282.457 783.536 283.438 787.27 283.438 791.686C283.438 795.697 283.837 799.731 283.837 803.77C283.837 805.59 283.844 807.325 283.239 809.093C282.777 810.44 283.256 811.863 282.95 813.229C282.297 816.143 282.241 819.471 282.241 822.436C282.241 826.423 281.842 830.373 281.842 834.34C281.842 836.694 283.054 838.914 283.837 841.138C285.12 844.782 286.396 848.532 287.827 852.143C289.402 856.119 290.83 860.57 291.019 864.767C291.154 867.796 291.939 870.847 292.415 873.848C292.979 877.407 294.609 881.044 294.609 884.638C294.609 886.348 295.857 888.359 296.604 889.943C297.375 891.576 297.777 893.225 298.422 894.87C299.833 898.469 302.362 901.774 302.611 905.606C303.279 915.901 303.387 926.39 303.387 936.698C303.387 940.929 303.786 945.175 303.786 949.429C303.786 951.036 303.786 952.642 303.786 954.249C303.786 955.324 304.248 957.185 303.586 958.151C302.776 959.335 303.694 961.188 303.187 962.503C302.431 964.467 301.723 965.723 300.195 967.376" stroke="#5A6B3B" stroke-width="2" stroke-linecap="round"/>
<path d="M298.598 968.671H298.199" stroke="#5A6B3B" stroke-width="2" stroke-linecap="round"/>
<path d="M300.38 968.01C299.725 968.076 299.06 969.091 298.41 969.326C298.087 969.442 297.671 969.768 297.418 969.932C297.12 970.126 296.593 970.188 296.208 970.266" stroke="#5A6B3B" stroke-width="2" stroke-linecap="round"/>
<path d="M248.19 934.315C255.765 934.315 263.72 934.944 271.198 933.855C274.91 933.314 278.733 933.562 282.464 933.092C285.978 932.65 289.446 932.246 293.009 932.246C295.398 932.246 298.945 931.776 301.031 932.622" stroke="#5A6B3B" stroke-width="2" stroke-linecap="round"/>
<path d="M261.676 816.085C265.135 816.085 268.594 816.085 272.053 816.085C273.023 816.085 275.134 816.413 275.864 815.939C277.42 814.93 280.466 816.389 282.07 815.521" stroke="#5A6B3B" stroke-width="2" stroke-linecap="round"/>
<path d="M226.218 810.821C226.218 806.275 226.119 801.743 225.999 797.2C225.894 793.258 226.557 789.108 225.703 785.208C225.425 783.942 225.291 782.492 225.291 781.207C225.291 779.527 227.632 779.091 229.23 778.898C231.592 778.615 233.596 778.534 235.835 777.823C238.008 777.133 239.922 776.788 242.26 776.788C244.596 776.788 246.05 777.111 246.728 779.066C247.631 781.67 248.003 784.139 248.003 786.837C248.003 793.063 248.003 799.289 248.003 805.514C248.003 807.065 248.361 809.698 246.38 810.591C245.218 811.115 244.094 811.748 242.904 812.231C240.91 813.04 238.864 812.889 236.698 812.889C234.485 812.889 232.35 813.077 230.157 813.077" stroke="#5A6B3B" stroke-width="2" stroke-linecap="round"/>
<path d="M248.103 809.392C248.103 815.755 248.103 822.119 248.103 828.483C248.103 830.919 248.659 833.311 248.816 835.738C248.875 836.642 248.895 837.531 249.041 838.432C249.152 839.115 249.031 839.811 249.185 840.488C249.327 841.107 249.416 841.768 249.514 842.394C249.634 843.162 249.974 843.8 250.268 844.529C250.768 845.768 251.517 846.958 251.92 848.218C252.119 848.842 252.085 849.502 252.289 850.125C252.601 851.079 253.186 851.891 253.765 852.753C254.266 853.5 254.732 854.524 255.433 855.161C255.614 855.325 255.665 855.561 255.898 855.656" stroke="#5A6B3B" stroke-width="2" stroke-linecap="round"/>
<path d="M355.272 776.555C355.272 786.938 355.657 797.261 354.02 807.553C353.264 812.305 354.05 817.152 352.568 821.813C351.432 825.384 350.064 828.943 348.962 832.518C348.395 834.359 348.195 836.118 347.835 837.983C347.461 839.93 347.789 842.578 346.934 844.381C346.341 845.633 346.546 847.425 346.258 848.769C345.746 851.158 345.098 853.524 344.555 855.899C342.291 865.819 340.399 875.513 340.399 885.679C340.399 892.098 340.575 898.353 339.498 904.692C338.959 907.862 337.803 910.926 337.244 914.097C335.953 921.433 336.343 928.841 336.343 936.259C336.343 941.04 336.343 945.82 336.343 950.6C336.343 951.819 336.343 953.038 336.343 954.257C336.343 955.606 337.043 956.629 337.219 957.913C337.488 959.878 338.294 961.129 340.625 961.549C342.434 961.876 344.669 962.022 346.258 962.667" stroke="#5A6B3B" stroke-width="2" stroke-linecap="round"/>
<path d="M355.723 776.189C360.791 776.189 366.646 773.351 370.821 776.738C372.95 778.466 372.33 784.305 371.847 786.509C370.985 790.445 370.595 793.96 370.595 797.965C370.595 802.505 370.145 807.078 370.145 811.657C370.145 813.718 370.617 815.824 371.397 817.791C371.806 818.824 371.947 819.612 371.947 820.737C371.947 824.05 372.6 827.035 373.65 830.223C376.141 837.783 379.183 845.203 381.862 852.69C383.471 857.185 385 861.857 385.818 866.503C386.862 872.428 389.073 878.588 389.073 884.582C389.073 890.536 390.218 896.372 390.425 902.336C390.512 904.84 391.074 907.338 391.302 909.832C391.634 913.465 391.327 917.209 391.327 920.842C391.327 928.418 391.327 935.995 391.327 943.572C391.327 945.663 392.929 955.253 389.975 956.451" stroke="#5A6B3B" stroke-width="2" stroke-linecap="round"/>
<path d="M380.06 776.92C380.06 782.1 380.06 787.28 380.06 792.46C380.06 799.394 380.961 806.214 380.961 813.139C380.961 818.2 382.003 823.004 381.862 828.029C381.784 830.821 381.09 833.878 380.16 836.52C379.7 837.825 378.257 839.192 378.257 840.542" stroke="#5A6B3B" stroke-width="2" stroke-linecap="round"/>
<path d="M380.51 776.188C383.737 774.734 385.855 772.532 389.749 772.532C392.122 772.532 393.894 773.424 395.834 774.442C397.929 775.542 397.745 779.284 398.312 780.942C399.474 784.335 398.538 788.937 398.538 792.46C398.538 803.774 398.988 815.132 398.988 826.485C398.988 829.836 398.718 833 399.79 836.235C400.546 838.519 401.138 840.823 401.918 843.101C402.975 846.188 404.622 849.682 405.323 852.811C405.767 854.793 406.607 856.799 407.101 858.803C407.68 861.152 408.312 863.817 409.354 866.055C411.865 871.447 412.383 878.042 413.636 883.687C415.612 892.597 415.664 901.324 415.664 910.379C415.664 914.95 415.664 919.52 415.664 924.091C415.664 927.321 415.664 930.551 415.664 933.78C415.664 935.696 414.762 937.444 414.762 939.285C414.762 940.906 415.821 949.622 414.312 950.234" stroke="#5A6B3B" stroke-width="2" stroke-linecap="round"/>
<path d="M388.864 907.867C382.853 907.867 377.477 909.911 371.508 909.911C367.731 909.911 363.85 910.787 360.071 910.787C357.792 910.787 355.512 910.787 353.233 910.787C352.097 910.787 351.1 910.463 351.074 911.565C350.98 915.499 349.994 919.431 349.994 923.359C349.994 930.513 348.554 937.629 348.554 944.788C348.554 947.47 348.554 950.152 348.554 952.834C348.554 957.244 350.789 961.009 356.832 961.009" stroke="#5A6B3B" stroke-width="2" stroke-linecap="round"/>
<path d="M415.138 902.611C409.799 902.611 404.46 902.611 399.122 902.611C397.612 902.611 395.932 902.442 394.443 902.627C393.086 902.797 391.995 903.195 390.664 903.195" stroke="#5A6B3B" stroke-width="2" stroke-linecap="round"/>
<path d="M204.517 856.006C204.517 851.163 204.57 846.726 202.407 842.087C200.701 838.428 198.532 834.726 197.483 830.895C194.36 819.495 195.373 807.675 195.373 796.051C195.373 790.123 196.227 783.774 192.715 778.392C191.433 776.427 187.91 775.538 185.369 775.538C181.873 775.538 180.523 775.151 178.334 777.124C176.134 779.107 176.38 782.144 176.38 784.669C176.38 787.368 175.677 789.706 175.677 792.374C175.677 798.271 175.677 804.168 175.677 810.065C175.677 818.83 173.047 827.104 172.121 835.746C171.523 841.324 168.719 846.594 167.236 852.011C166.85 853.418 166.394 855.276 165.673 856.576C163.92 859.737 164.017 863.461 161.999 866.5C160.597 868.613 160.307 872.455 159.655 874.838C158.8 877.958 158.795 881.333 158.795 884.54C158.795 887.35 159.685 891.355 158.638 894.115C157.808 896.305 157.388 898.184 157.388 900.52C157.388 902.287 155.981 904.08 155.981 906.005C155.981 908.782 155.278 911.622 155.278 914.501C155.278 921.676 154.574 928.731 154.574 935.902C154.574 943.173 154.574 950.444 154.574 957.715C154.574 960.969 155.278 964.124 155.278 967.29C155.278 968.444 154.398 973.171 155.434 974.012C156.521 974.894 162.323 974.139 163.875 974.139C166.761 974.139 169.41 974.709 172.16 974.709C176.407 974.709 184.871 976.014 188.339 974.139" stroke="#5A6B3B" stroke-width="2" stroke-linecap="round"/>
<path d="M188.818 885.25C183.97 885.25 178.771 885.646 174.18 885.646C172.251 885.646 170.552 886.042 168.705 886.042C165.271 886.042 166.374 887.878 166.374 890.396C166.374 903.296 161.982 915.915 161.982 928.794C161.982 933.898 163.934 938.728 163.934 943.836C163.934 948.322 163.934 952.809 163.934 957.295C163.934 957.885 163.536 960.419 164.422 960.462C166.648 960.568 168.581 961.253 170.873 961.253C176.367 961.253 181.861 961.253 187.354 961.253" stroke="#5A6B3B" stroke-width="2" stroke-linecap="round"/>
<path d="M177.108 809.247C182.431 809.247 187.616 809.643 192.722 809.643" stroke="#5A6B3B" stroke-width="2" stroke-linecap="round"/>
<path d="M356.558 785.425H370.623" stroke="#5A6B3B" stroke-width="2" stroke-linecap="round"/>
<path d="M383.159 808.246C385.809 808.246 388.459 808.246 391.109 808.246C392.09 808.246 397.246 808.706 397.53 808.246" stroke="#5A6B3B" stroke-width="2" stroke-linecap="round"/>
<path d="M97.8984 893.442C114.895 893.442 131.556 895.688 148.416 895.688" stroke="#5A6B3B" stroke-width="2" stroke-linecap="round"/>
<path d="M304.061 964.089C311.54 964.089 319.072 965.023 326.514 965.023C330.075 965.023 340.908 966.292 340.908 961.754" stroke="#5A6B3B" stroke-width="2" stroke-linecap="round"/>
<path d="M291.969 867.867C291.969 863.839 291.214 859.109 292.865 855.281C293.545 853.704 294.558 851.355 296 850.117C297.569 848.769 299.24 848.565 300.893 847.522C303.845 845.659 306.651 845.312 308.986 842.877C312.058 839.672 311.445 834.928 312.152 831.199C312.668 828.482 311.774 824.591 313.144 822.091C313.869 820.768 313.067 818.858 313.56 817.42C314.247 815.414 313.848 813.051 313.848 810.984C313.848 809.726 313.634 808.524 314.423 807.403C315.591 805.746 314.468 803.72 315.127 801.85C315.966 799.469 321.357 800.137 323.635 800.137C327.148 800.137 328.241 800.597 328.241 803.64C328.241 805.817 328.817 808.257 328.817 810.18C328.817 812.283 329.968 814.396 329.968 816.719C329.968 819.632 330.544 822.59 330.544 825.412C330.544 829.488 331.12 833.616 331.12 837.609C331.12 839.767 331.683 846.168 334.574 847.21C337.164 848.144 338.941 848.781 341.035 850.48C341.983 851.249 344.786 855.316 343.786 855.722" stroke="#5A6B3B" stroke-width="2" stroke-linecap="round"/>
<path d="M298.302 868.801C298.302 873.394 298.878 878.065 298.878 882.58C298.878 884.449 298.878 886.317 298.878 888.186C298.878 889.714 299.941 891.329 298.878 892.623" stroke="#5A6B3B" stroke-width="2" stroke-linecap="round"/>
<path d="M299.455 869.268C308.432 869.268 317.409 869.268 326.386 869.268C328.791 869.268 331.174 869.735 333.423 869.735C336.773 869.735 337.172 869.325 337.486 872.123C338.941 885.114 336.878 897.87 336.878 910.84" stroke="#5A6B3B" stroke-width="2" stroke-linecap="round"/>
<path d="M304.061 937.465H335.726" stroke="#5A6B3B" stroke-width="2" stroke-linecap="round"/>
<path d="M191.215 936.064C210.731 936.064 230 936.531 249.365 936.531" stroke="#5A6B3B" stroke-width="2" stroke-linecap="round"/>
<path d="M247.638 898.228H298.879" stroke="#5A6B3B" stroke-width="2" stroke-linecap="round"/>
<path d="M125.634 773.03C125.634 782.761 125.634 792.492 125.634 802.223C125.634 804.268 126.581 813.69 125.634 814.074" stroke="#5A6B3B" stroke-width="2" stroke-linecap="round"/>
<path d="M126.346 771.873C116.395 763.351 107.726 754.48 96.4194 747.273C91.6893 744.257 87.2165 741.075 82.1685 738.344" stroke="#5A6B3B" stroke-width="2" stroke-linecap="round"/>
<path d="M127.772 771.874C140.493 771.874 153.213 771.874 165.933 771.874C177.919 771.874 189.635 770.761 201.561 770.011C213.643 769.251 225.384 768.983 237.505 768.983C248.391 768.983 259.346 768.405 270.282 768.405C273.69 768.405 276.879 767.468 280.257 767.121C287.268 766.4 294.272 766.882 301.317 766.639C312.586 766.25 323.795 766.093 335.084 766.093C338.794 766.093 342.476 765.191 346.168 764.969C351.171 764.668 356.315 764.937 361.329 764.937C365.779 764.937 372.6 763.913 376.807 765.226C379.81 766.163 383.299 766.981 386.427 767.827" stroke="#5A6B3B" stroke-width="2" stroke-linecap="round"/>
<path d="M386.212 767.776C388.168 767.776 390.839 770.13 391.657 771.458" stroke="#5A6B3B" stroke-width="2" stroke-linecap="round"/>
<path d="M392.156 772.357C399.119 772.357 406.835 772.885 413.321 770.547C416.722 769.32 420.556 768.518 423.778 767.047C427.041 765.558 430.312 763.202 434.135 763.202" stroke="#5A6B3B" stroke-width="2" stroke-linecap="round"/>
<path d="M27.8384 136.102C49.9151 136.102 71.731 135.694 93.681 134.213C107.157 133.304 121.158 134.102 134.692 134.102C144.247 134.102 153.722 133.602 163.236 133.602C170.671 133.602 177.478 135.258 184.775 136.324C199.142 138.422 214.662 138.36 229.219 138.99C249.213 139.854 270.278 140.869 289.773 144.877C297.898 146.547 305.584 148.84 313.413 151.097C321.902 153.545 330.303 157.304 339.26 158.595C357.91 161.284 374.964 168.912 392.459 174.34C405.022 178.238 418.707 179.451 430.319 185.31C434.334 187.336 438.35 189.22 442.366 191.363C444.916 192.724 447.254 194.12 450.071 195.084C451.332 195.516 454.014 196.617 454.624 197.584" stroke="#5A6B3B" stroke-width="2" stroke-linecap="round"/>
<path d="M25.0356 147.35C63.965 147.35 102.759 145.598 141.71 146.316C145.925 146.394 150.637 148.08 154.622 149.158C158.423 150.186 162.246 151.099 166.12 151.884C176.264 153.942 187.161 153.033 197.57 153.033C217.858 153.033 238.275 150.503 258.596 152.631C266.152 153.422 272.614 154.648 279.751 156.649C286.916 158.657 293.149 161.847 300.058 164.14C321.064 171.112 343.718 175.074 365.859 178.979C374.5 180.503 382.65 183.822 391.189 185.695C393.388 186.177 395.872 187.002 397.876 187.905C400.724 189.189 404.64 189.457 407.746 190.488C412.95 192.215 419.577 192.655 424.019 195.511C427.689 197.87 432.902 199.013 437.321 200.304C442.263 201.747 447.854 203.4 452.321 205.212" stroke="#5A6B3B" stroke-width="2" stroke-linecap="round"/>
<path d="M23.3538 4.81721C18.8004 4.81721 8.46842 -1.56947 7.35529 2.84563C5.01124 12.143 6.79589 22.3007 4.72262 31.7622C3.59573 36.9049 1.48242 43.2751 1.48242 48.4386C1.48242 62.979 1.48242 77.5195 1.48242 92.0599C1.48242 108.567 8.77287 125.813 8.77287 141.596C8.77287 155.753 8.77287 169.91 8.77287 184.067C8.77287 204.551 10.5955 225.383 10.5955 245.104C10.5955 257.097 14.2407 269.153 14.2407 281.332C14.2407 290.095 14.2407 298.858 14.2407 307.62C14.2407 329.149 8.14076 350.435 5.2289 371.697C2.1742 394.001 8.77287 416.109 8.77287 438.156C8.77287 469.626 10.5955 501.762 10.5955 533.531C10.5955 565.209 6.60712 597.017 5.12765 628.825C4.22539 648.223 1.48242 666.869 1.48242 686.494C1.48242 706.469 6.40357 726.011 6.95026 745.97C7.6165 770.293 8.77287 795.054 8.77287 819.658C8.77287 829.735 8.77287 839.812 8.77287 849.889C8.77287 856.153 10.3251 864.129 7.35529 869.851C3.90203 876.505 5.38786 887.015 3.40629 894.25C1.63789 900.706 3.30503 909.134 3.30503 915.691" stroke="#5A6B3B" stroke-width="2" stroke-linecap="round"/>
<path d="M23.546 1068.16C23.546 1065.55 19.2117 1061.15 17.2384 1059.15C14.591 1056.46 13.2976 1052.98 12.5436 1049.61C11.3327 1044.21 9.35393 1038.35 9.35393 1032.78C9.35393 1021.6 8.06374 1010.63 8.06374 999.485C8.06374 995.783 8.06374 992.08 8.06374 988.378C8.06374 981.844 5.68023 975.314 4.69491 968.839C4.18314 965.476 2.25789 962.261 2.25789 958.895C2.25789 955.16 1.61279 951.514 1.61279 947.817C1.61279 940.577 1.61279 933.337 1.61279 926.097C1.61279 922.229 2.90298 918.788 2.90298 914.816" stroke="#5A6B3B" stroke-width="2" stroke-linecap="round"/>
</svg>
