<svg width="202" height="189" viewBox="0 0 202 189" fill="none" xmlns="http://www.w3.org/2000/svg">
<path d="M105.334 119.368C105.26 122.593 105.288 125.845 105.113 129.065C104.921 132.606 102.622 134.16 101.283 136.767C100.183 138.906 96.7157 139.796 94.6585 140.678C90.5707 142.43 90.521 142.489 87.9394 143.292C86.2335 143.823 85.2926 148.553 85.0482 150.267C84.7375 152.445 84.6199 157.613 84.5774 159.48C84.4197 166.411 83.7297 173.785 83.58 180.365" stroke="#5A6B3B" stroke-width="2" stroke-linecap="square"/>
<path d="M62.994 116.851C62.9211 120.055 62.5517 123.44 62.8763 126.614C63.1982 129.763 63.1163 133.302 65.2832 135.557C66.3651 136.683 67.1997 138.081 68.5658 138.793C69.454 139.257 70.3229 139.732 71.1881 140.241C71.8102 140.607 72.426 140.862 73.0768 141.144C73.8174 141.466 74.319 141.956 74.9721 142.417C76.4373 143.452 77.3082 145.199 78.0842 146.923C79.1682 149.332 79.3723 151.865 79.7232 154.54C80.0841 157.291 80.7904 160.022 81.0199 162.781C81.2509 165.557 81.1543 168.348 81.0901 171.17C81.0622 172.395 80.9284 173.594 80.8732 174.801C80.8368 175.596 80.6212 176.411 80.5203 177.2C80.3979 178.156 80.3957 180.505 79.7575 181.222C79.6778 181.312 77.8076 180.795 77.5468 180.698C76.8213 180.426 75.885 180.087 75.1154 180.045C74.0623 179.988 72.4625 179.582 71.4881 180.156C70.7458 180.593 70.0675 180.71 69.2914 180.984C67.1373 181.744 69.3011 184.146 70.4091 184.962C72.293 186.348 74.2129 186.348 76.373 186.397C79.5519 186.47 82.7731 186.701 85.9708 186.774C88.1915 186.824 90.5366 187.134 92.7431 186.77C94.1128 186.544 94.5978 185.234 94.6303 183.809C94.6687 182.119 92.6118 181.591 91.6743 180.967C90.4156 180.128 89.1687 180.049 87.7356 180.016C87.3581 180.008 85.7394 179.794 85.4491 180.201C85.0507 180.76 84.2808 181.044 83.685 181.031" stroke="#5A6B3B" stroke-width="2" stroke-linecap="square"/>
<path d="M105.206 118.506C105.18 119.613 103.18 119.528 102.578 119.734C102.087 119.902 101.531 119.76 101.028 119.91C100.383 120.104 99.7244 120.22 99.062 120.329C93.9991 121.164 88.9398 121.203 83.8297 121.087C81.3217 121.03 78.5393 121.377 76.1071 120.543C73.7836 119.746 71.462 119.456 69.0467 119.401C67.648 119.369 66.4046 118.682 65.201 117.936C64.5541 117.535 63.8839 117.43 63.2431 116.964C62.6022 116.499 63.4055 115.802 63.8504 115.717C65.3132 115.438 66.7609 115.188 68.2387 114.965C69.0399 114.844 69.8051 114.632 70.6138 114.651C71.7577 114.677 72.8899 114.728 74.0306 114.606C75.0759 114.493 76.1177 114.162 77.1666 114.186C79.4549 114.238 81.7417 114.167 84.0323 114.22C88.4042 114.319 92.7744 114.173 97.1503 114.273C98.3135 114.299 99.4048 114.394 100.553 114.595C101.352 114.735 102.115 115.246 102.901 115.481C103.993 115.807 105.453 116.789 105.42 118.265" stroke="#5A6B3B" stroke-width="2" stroke-linecap="square"/>
<path d="M64.47 126.934C67.2751 126.934 70.083 126.898 72.8878 126.934C75.1517 126.963 77.2995 127.75 79.4837 127.918C80.6209 128.005 81.3272 128.836 82.5083 128.902C84.3312 129.003 86.1825 129.23 88.0837 129.23C93.4972 129.23 98.8097 128.902 104.154 128.902" stroke="#5A6B3B" stroke-width="2" stroke-linecap="square"/>
<path d="M1.9262 75.4028C1.85282 78.6276 1.66093 81.8748 1.70555 85.0999C1.75462 88.6468 4.3515 90.3119 5.78001 92.9816C6.95261 95.1731 10.9403 96.2321 13.2885 97.2141C17.9548 99.1655 18.0096 99.2269 20.9713 100.157C22.9285 100.771 23.7896 105.542 23.9894 107.266C24.2434 109.457 24.1258 114.625 24.0834 116.492C23.9257 123.422 24.365 130.822 24.2152 137.402" stroke="#5A6B3B" stroke-width="2" stroke-linecap="square"/>
<path d="M51.274 74.9721C51.2011 78.1768 51.464 81.5758 50.9304 84.7306C50.4012 87.8597 50.3223 91.399 47.6921 93.5449C46.3789 94.6163 45.3398 95.9718 43.7165 96.6162C42.6611 97.0352 41.6276 97.4673 40.5967 97.9329C39.8554 98.2677 39.127 98.4922 38.3564 98.7426C37.4797 99.0275 36.8724 99.4919 36.0904 99.9206C34.3361 100.882 33.2376 102.584 32.2506 104.268C30.8719 106.621 30.5099 109.141 29.9703 111.796C29.4154 114.526 28.4599 117.219 28.0572 119.964C27.6521 122.726 27.6271 125.518 27.5629 128.34C27.535 129.566 27.6316 130.77 27.6363 131.978C27.6395 132.774 27.8501 133.598 27.9286 134.391C28.0238 135.353 27.9108 137.698 28.6174 138.447C28.7057 138.54 30.9054 138.116 31.2133 138.032C32.0702 137.796 33.1754 137.504 34.0722 137.499C35.2993 137.494 37.1792 137.168 38.2838 137.788C39.1253 138.262 39.9081 138.412 40.7969 138.724C43.2638 139.589 40.63 141.882 39.3017 142.642C37.0433 143.934 34.8112 143.84 32.2976 143.783C28.5983 143.698 24.842 143.771 21.1208 143.686C18.5366 143.628 15.795 143.821 13.2477 143.349C11.6664 143.056 11.1669 141.724 11.1994 140.299C11.2378 138.609 13.6552 138.183 14.7758 137.605C16.2804 136.829 17.734 136.812 19.4017 136.849C19.8409 136.859 21.7332 136.726 22.0508 137.147C22.4864 137.724 23.3676 138.046 24.0609 138.062" stroke="#5A6B3B" stroke-width="2" stroke-linecap="square"/>
<path d="M2.11809 74.548C2.0929 75.6553 4.4229 75.6693 5.11229 75.9047C5.67462 76.0967 6.32832 75.9815 6.90543 76.1568C7.64615 76.3819 8.4062 76.5303 9.17093 76.672C15.0158 77.7553 20.8958 78.0432 26.8424 78.1785C29.7609 78.245 32.9787 78.7289 35.8472 78.0153C38.5877 77.3336 41.3011 77.1577 44.1118 77.2216C45.7394 77.2587 47.2187 76.6339 48.6548 75.9478C49.4266 75.5791 50.2109 75.5073 50.9789 75.0735C51.7468 74.6398 50.8473 73.9041 50.3342 73.7976C48.6472 73.4474 46.9765 73.1259 45.2695 72.8302C44.344 72.6698 43.4647 72.421 42.5237 72.3996C41.1924 72.3693 39.8737 72.3654 38.5535 72.1865C37.3438 72.0225 36.149 71.6409 34.9284 71.6131C32.2654 71.5526 29.6104 71.3694 26.9448 71.3088C21.8572 71.193 16.7837 70.8321 11.6915 70.7163C10.3378 70.6855 9.0644 70.7268 7.71965 70.8713C6.78427 70.9719 5.87203 71.4443 4.94658 71.64C3.66026 71.9119 1.91485 72.8209 1.88126 74.2972" stroke="#5A6B3B" stroke-width="2" stroke-linecap="square"/>
<path d="M6.36572 91.9415C11.3399 91.9415 16.3141 91.9415 21.2883 91.9415C23.1267 91.9415 25.6033 91.504 27.374 92.1237C28.955 92.6771 30.1341 93.3393 31.4553 94.0733C33.3683 95.1361 35.4066 94.8933 37.5228 94.8933C40.3688 94.8933 42.8354 95.2212 45.722 95.2212" stroke="#5A6B3B" stroke-width="2" stroke-linecap="square"/>
<path d="M168.761 1.24017C164.309 1.24017 159.311 0.49598 159.311 6.56479C159.311 11.8827 164.735 14.6207 169.211 12.481C172.829 10.751 177.311 12.1088 177.311 6.08073C177.311 1.38301 171.136 1.24017 167.861 1.24017" stroke="#5A6B3B" stroke-width="2" stroke-linecap="square"/>
<path d="M159.325 5.51941C159.325 17.6455 159.325 29.7716 159.325 41.8976C159.325 44.3954 159.237 46.6556 158.471 49.0042C157.615 51.6259 155.592 53.2736 154.628 55.6881C154.037 57.1693 151.444 58.612 150.145 59.2545C147.992 60.3204 146.714 63.4925 145.995 65.8063C139.986 85.1412 141.393 105.527 141.393 125.829C141.393 134.664 138.405 143.38 138.405 152.195C138.405 159.247 137.892 166.481 139.259 173.329C139.674 175.41 140.431 178.627 141.583 180.277C143.313 182.755 146.798 183.65 149.505 184.32C152.272 185.004 155.069 184.267 157.807 184.821C160.388 185.344 162.946 185.635 165.634 185.746C170.492 185.947 175.295 187.173 180.245 187.173C182.151 187.173 183.469 186.222 185.368 186.222C187.431 186.222 189.495 186.222 191.558 186.222C195.435 186.222 197.658 181.553 199.243 178.375C200.011 176.837 199.884 172.29 199.884 170.529C199.884 167.139 200.311 163.869 200.311 160.437C200.311 148.424 198.789 136.938 197.322 125.089C196.867 121.414 196.509 117.543 196.468 113.835C196.416 109.115 195.614 104.43 195.614 99.7276C195.614 97.1572 196.041 94.4976 196.041 92.0663" stroke="#5A6B3B" stroke-width="2" stroke-linecap="square"/>
<path d="M196.041 91.1152C196.041 85.2855 196.041 79.4558 196.041 73.6262C196.041 71.8473 196.041 70.0685 196.041 68.2896C196.041 66.3525 195.218 64.9635 194.784 63.2701C193.965 60.0784 191.36 58.0544 189.21 55.9258C187.688 54.4192 183.742 54.1564 182.806 52.3329C181.012 48.8361 181.585 45.1043 180.648 41.4485C179.898 38.5243 178.537 34.8443 178.537 31.6737C178.537 29.7536 177.683 27.8709 177.683 25.8616C177.683 23.5984 177.683 21.3352 177.683 19.072C177.683 15.9337 178.139 12.2748 177.256 9.32364" stroke="#5A6B3B" stroke-width="2" stroke-linecap="square"/>
<path d="M159.311 22.9038C160.035 22.9038 160.806 23.2512 161.408 23.6347C162.052 24.0444 162.814 24.1443 163.534 24.2754C165.469 24.6271 167.417 24.6124 169.41 24.6124C170.246 24.6124 171.131 24.6398 171.954 24.5222C172.583 24.4323 173.211 24.2588 173.838 24.1805C174.111 24.1463 174.442 24.1181 174.687 23.9954C174.828 23.9249 175.141 23.7751 175.285 23.7581C175.729 23.7059 176.118 23.2455 176.567 23.2455" stroke="#5A6B3B" stroke-width="2" stroke-linecap="round"/>
</svg>
