<?xml version="1.0" encoding="UTF-8"?>
<svg id="Lag_1" xmlns="http://www.w3.org/2000/svg" version="1.1" viewBox="0 0 1512 581">
  <!-- Generator: Adobe Illustrator 29.0.0, SVG Export Plug-In . SVG Version: 2.1.0 Build 186)  -->
  <defs>
    <style>
      .st0 {
        fill: #5a6b3b;
        stroke: #5a6b3b;
      }
    </style>
  </defs>
  <path class="st0" d="M352.9,59.4C129.4,32.7-56.6,87.3-71.1,15.7c-21.7,29.6,0,197.5,0,367.1,0,257.8-135,181.2,29.5,217.6,131,29,327.5-32.9,579,19,251.5,51.9,731.1,3.7,1013.6,0,226-3,68.7-273.4,69.8-330.1,2.9-149.8-22.2-262.9-36.1-263.1-5.2,0-6.2,16.1-12.4,28.7-44.3,90.4-336.7-38.7-685.4,4.5-96.6,12-149.5,31.2-272.1,30.7-110.9-.5-201.8-16.7-261.9-30.7Z"/>
</svg>