<svg width="132" height="99" viewBox="0 0 132 99" fill="none" xmlns="http://www.w3.org/2000/svg">
<path d="M117.86 18.9728C117.86 18.1685 117.591 17.3449 117.232 16.6151C116.891 15.9197 116.678 15.1266 116.259 14.471C116.04 14.1279 115.831 13.618 115.688 13.2254C115.563 12.8841 115.271 12.6034 115.163 12.2467C115.046 11.8582 114.729 11.4057 114.489 11.0634C114.228 10.691 114.065 10.2359 113.778 9.88461C113.655 9.73454 113.644 9.52632 113.544 9.36415C113.463 9.23345 113.298 9.15925 113.225 9.00382C113.042 8.61278 112.613 8.46574 112.401 8.08299C112.048 7.44437 111.268 6.95249 110.763 6.41928C109.743 5.34225 108.46 4.56624 107.121 3.83918C106.456 3.47783 105.735 3.22037 105.052 2.89612C104.265 2.52207 103.435 2.26257 102.59 2.01533C100.861 1.50995 98.9758 1.67724 97.1738 1.67724C96.8649 1.67724 96.5559 1.67724 96.247 1.67724C95.8855 1.67724 95.6457 1.81188 95.2967 1.83739C94.4685 1.89793 93.5986 1.87267 92.7502 1.91746C92.4707 1.93222 92.16 2.09619 91.8889 2.17547C91.2943 2.34932 90.6934 2.54352 90.096 2.71818C89.4008 2.92147 88.6652 3.40617 88.1627 3.88367C87.6986 4.32471 87.1649 4.69842 86.7022 5.13813C86.1778 5.63649 85.8144 6.2665 85.2932 6.76181C84.8842 7.15049 84.4903 7.84023 84.2212 8.32321C83.9474 8.81477 83.532 9.28066 83.1259 9.66664C82.5968 10.1694 82.4526 10.8559 82.0024 11.406C81.5153 12.0012 81.2121 12.7498 80.8275 13.4078C80.383 14.1681 80.2933 15.0702 79.924 15.85C79.7438 16.2304 79.697 16.6386 79.4793 17.011C79.3332 17.2609 78.9661 17.6532 78.9316 17.9318C78.8978 18.2047 78.5588 18.6269 78.3605 18.8304C78.0423 19.157 77.8346 19.6211 77.546 19.9737C77.3596 20.2015 77.1639 20.5552 77.0124 20.8144C76.8309 21.1249 76.6286 21.4227 76.4459 21.7353C76.2734 22.0304 76.0694 22.3498 75.8514 22.616C75.6811 22.8241 75.5399 23.185 75.3084 23.3144C74.8052 23.5957 74.2084 24.259 73.9416 24.7379C73.8491 24.9039 73.7634 25.0418 73.5858 25.1383C73.3612 25.2603 73.1911 25.8021 73.0709 26.0013C72.8135 26.4276 72.6298 26.7312 72.233 27.0244C71.4642 27.5927 70.5758 28.0483 69.663 28.3857C68.7241 28.7327 67.9651 28.8216 66.9667 28.8216C66.2021 28.8216 65.8446 28.6488 65.1973 28.3412" stroke="#3C1518" stroke-width="1.5" stroke-linecap="square"/>
<path d="M80.6165 14.1684C80.6165 14.8205 80.6206 15.458 80.5369 16.0946C80.4826 16.5076 80.243 16.8825 80.1952 17.2912C80.147 17.7031 79.9424 18.1066 79.9424 18.5324C79.9424 18.9327 79.9424 19.3331 79.9424 19.7334C79.9424 20.585 80.4135 21.0337 80.8037 21.7753C81.0821 22.3044 81.7952 22.8162 82.428 22.8162C84.2626 22.8162 85.3756 21.7426 86.1589 20.2539C86.389 19.8166 86.7974 19.3533 86.9359 18.8927C87.0807 18.4112 87.2093 17.881 87.3994 17.4113C87.5853 16.9519 87.7972 16.4908 87.9658 16.0279C88.0413 15.8207 88.2813 15.0506 88.4526 14.9692" stroke="#3C1518" stroke-width="1.5" stroke-linecap="square"/>
<path d="M88.4534 15.4494C88.4534 15.9427 88.1163 16.3441 88.1163 16.8106C88.1163 17.2352 87.9221 17.857 87.798 18.2697C87.6446 18.7798 87.7793 19.4799 87.7793 20.0135C87.7793 20.3861 87.6832 20.8778 87.798 21.2323C87.9445 21.6849 87.9682 22.1583 88.1163 22.6158C88.2563 23.0482 88.4752 23.4536 88.6874 23.8569C89.1754 24.7844 89.8174 25.1138 90.8548 25.4139C91.739 25.6696 92.821 25.1512 93.4668 24.5375C94.0514 23.982 94.5203 23.2871 94.8945 22.5758C95.1328 22.1229 95.2657 21.5969 95.4282 21.1167C95.6588 20.4347 95.9385 19.7509 96.121 19.057C96.2646 18.5111 96.6935 18.0257 96.7108 17.4512C96.7285 16.8635 96.7951 16.2824 96.7951 15.6896" stroke="#3C1518" stroke-width="1.5" stroke-linecap="square"/>
<path d="M68.5667 28.0208C68.5667 27.3873 68.368 26.7508 68.2249 26.1392C68.1465 25.8036 67.9854 25.2116 67.7615 24.9381C67.4611 24.571 67.3578 24.2064 66.9236 23.9772C66.5749 23.7931 65.8681 23.942 65.7018 24.2975C65.3079 25.1398 64.9435 25.7283 64.9435 26.6774C64.9435 27.7497 64.8592 28.7936 64.8592 29.8625C64.8592 30.8647 64.6907 31.8712 64.6907 32.9052C64.6907 34.0655 64.6064 35.2548 64.6064 36.4284C64.6064 37.5259 64.8592 38.6142 64.8592 39.7113C64.8592 40.8053 65.2805 41.8802 65.2805 42.9943" stroke="#3C1518" stroke-width="1.5" stroke-linecap="square"/>
<path d="M65.3638 42.674C65.3638 43.1545 65.3638 43.6349 65.3638 44.1153C65.3638 44.4643 65.3311 45.0742 65.4668 45.3965C65.5967 45.7052 65.7008 46.3416 65.7008 46.6776C65.7008 47.1044 65.8562 47.5206 65.8694 47.9588C65.8926 48.7305 65.9928 49.5099 66.0379 50.2808C66.0595 50.6508 66.1941 51.1104 66.2907 51.4775C66.433 52.0186 66.4104 52.6264 66.5856 53.159C66.6933 53.4866 66.712 54.0055 66.712 54.3467C66.712 54.7344 66.8805 55.0926 66.8805 55.4811C66.8805 56.3051 67.4268 57.1029 67.4703 57.8877C67.5126 58.6508 67.5597 59.4578 67.7886 60.192C67.9172 60.6045 68.0004 61.1425 68.0648 61.571C68.1729 62.2899 68.6009 62.9648 68.7342 63.6929C69.0459 65.3959 69.4696 67.0335 69.956 68.6974C70.1397 69.326 70.0021 70.2509 70.4615 70.7748C70.8786 71.2504 71.1797 72.0604 71.9361 72.0604C72.2021 72.0604 72.6151 72.1367 72.8208 71.9803C72.9872 71.8538 73.1886 71.224 73.2 71.0195C73.2525 70.0717 73.4527 69.1365 73.4527 68.1725C73.4527 66.7193 73.4527 65.2662 73.4527 63.813" stroke="#3C1518" stroke-width="1.5" stroke-linecap="square"/>
<path d="M49.8613 32.2649C49.8613 32.345 49.8883 32.6454 50.0111 32.425C50.0839 32.2943 49.9456 32.2113 49.9456 32.425" stroke="#3C1518" stroke-width="1.5" stroke-linecap="square"/>
<path d="M51.2945 36.2681C51.2945 36.5778 51.199 36.3696 51.126 36.5083" stroke="#3C1518" stroke-width="1.5" stroke-linecap="square"/>
<path d="M53.9061 32.3447C53.9061 32.7467 54.1131 32.4524 54.0278 32.4292C53.7652 32.3579 53.6533 32.4303 53.6533 32.665" stroke="#3C1518" stroke-width="1.5" stroke-linecap="square"/>
<path d="M65.5337 24.4176C65.0401 23.9486 64.3542 23.6169 63.7642 23.2566C63.1845 22.9024 62.5867 22.5235 61.9527 22.2557C60.4602 21.6253 58.7605 21.0546 57.1077 21.0546C56.468 21.0546 55.8282 21.0546 55.1885 21.0546C54.627 21.0546 53.7489 20.8985 53.2318 21.1169C52.9616 21.231 52.6206 21.2146 52.3424 21.3348C52.1149 21.4331 51.7133 21.587 51.4623 21.6151C51.229 21.6412 50.9059 21.8527 50.6665 21.9354C50.3918 22.0303 50.1304 22.1242 49.8614 22.2379C48.8278 22.6744 47.6812 22.9796 46.7016 23.4968C46.2197 23.7512 45.6176 23.9203 45.1054 24.0973C44.4356 24.3288 43.8931 24.8333 43.2423 25.0582C42.892 25.1792 42.4451 25.3662 42.1516 25.5831C41.8955 25.7724 41.7048 26.0464 41.4354 26.197C41.1857 26.3365 41.046 26.6105 40.8081 26.7397C40.5184 26.897 40.2775 27.1369 40.0873 27.3981C39.6871 27.9474 39.1879 28.3902 38.7204 28.8838C38.3876 29.2352 38.0764 29.8431 37.6437 30.0849C37.3019 30.276 36.9461 30.7034 36.759 31.0235C36.3615 31.7034 35.9538 32.4319 35.4998 33.1098C35.174 33.5964 34.7388 34.0986 34.484 34.6312C34.1578 35.3132 33.958 36.0551 33.6367 36.7531C33.3901 37.2887 32.9137 38.0023 32.8409 38.5903C32.8072 38.863 32.5881 39.2514 32.4617 39.5156C32.336 39.7785 32.3242 40.0884 32.1856 40.3519C31.2408 42.1475 32.0075 44.3183 31.4272 46.1794C31.32 46.5232 31.3242 47.0399 31.3242 47.3982C31.3242 47.8829 31.24 48.3656 31.24 48.8395C31.24 49.4801 31.24 50.1207 31.24 50.7612C31.24 52.3806 31.0441 53.9768 31.2447 55.5967C31.3411 56.3754 31.2934 57.1588 31.3242 57.9499C31.3496 58.6017 31.577 59.2438 31.577 59.8894C31.577 60.634 31.7372 61.293 31.9328 62.0158C32.1012 62.6383 32.5039 63.3253 32.5039 63.9731" stroke="#3C1518" stroke-width="1.5" stroke-linecap="square"/>
<path d="M32.7568 64.0534C32.7568 64.479 32.7568 64.9045 32.7568 65.3301C32.7568 65.6053 33.0096 65.8331 33.0096 66.0952C33.0096 66.516 33.3655 67.0297 33.4964 67.4342C33.6338 67.8585 33.6719 68.3068 33.7726 68.7376C33.9062 69.3086 34.2732 69.7857 34.3625 70.3791C34.5187 71.4188 34.8992 72.5575 35.2659 73.5642C35.4988 74.2036 35.4439 74.8569 35.7481 75.4992C35.9977 76.0265 36.325 76.5112 36.5953 77.025C37.2158 78.2042 37.9718 79.2583 38.9499 80.1879C39.801 80.9967 40.9175 81.5596 41.9411 82.1319C42.2482 82.3035 42.5751 82.6632 42.8306 82.9059C43.147 83.2066 43.5683 83.3657 43.9213 83.6265C44.2349 83.8583 44.7325 84.2086 45.143 84.2315C45.2829 84.2393 45.5057 84.5743 45.6486 84.6497C45.892 84.7782 46.1094 84.9654 46.3414 85.1123C47.4569 85.819 49.0754 85.5927 50.3484 85.5927C51.2113 85.5927 52.0742 85.5927 52.937 85.5927C53.8351 85.5927 54.5336 85.3668 55.3806 85.1879C55.9181 85.0744 56.4429 84.7575 56.9394 84.534C57.4152 84.3198 57.9137 84.2712 58.3718 84.0536C58.5882 83.9508 58.9268 83.8335 59.0459 83.6354C59.0947 83.5543 59.6014 83.5111 59.72 83.4708C59.9167 83.404 60.2301 83.3507 60.4362 83.3507C60.7269 83.3507 60.9938 83.0833 61.2741 83.0349C61.5868 82.9809 61.9103 82.9198 62.229 82.8525C62.526 82.7898 62.7638 82.6522 63.0061 82.4877C63.1419 82.3956 63.3087 82.4163 63.4274 82.3098C63.8654 81.9166 64.2242 81.4636 64.6445 81.0642C65.6659 80.0936 66.2613 78.761 67.3033 77.8258C67.754 77.4213 67.9864 76.8442 68.394 76.4245C68.8609 75.9438 69.5038 75.3503 69.8686 74.783C70.2259 74.2275 70.5099 73.6645 70.8235 73.1015C71.0122 72.7628 71.2973 72.4447 71.4321 72.0606" stroke="#3C1518" stroke-width="1.5" stroke-linecap="square"/>
<path d="M53.7371 73.822C55.4234 73.822 57.0609 73.7419 58.7505 73.7419C59.4064 73.7419 60.0512 73.9021 60.6838 73.9021C61.6321 73.9021 62.5952 73.9821 63.5533 73.9821C64.5804 73.9821 65.6108 74.3316 66.6288 74.3825C67.254 74.4138 67.9029 74.4885 68.4451 74.7829C68.5887 74.8609 68.9325 74.9783 68.9834 75.1476C69.0512 75.3731 69.1023 75.7061 68.9038 75.806C68.5316 75.9933 67.9285 76.3843 67.5135 76.3843C66.9474 76.3843 66.4402 76.7847 65.8705 76.7847C65.1287 76.7847 64.4042 77.0249 63.6797 77.0249C63.0289 77.0249 62.324 77.1498 61.6575 77.185C60.9838 77.2206 60.2849 77.3452 59.5931 77.3452C58.2905 77.3452 56.9885 77.5854 55.7172 77.5854C55.0571 77.5854 54.3971 77.5854 53.7371 77.5854C52.9466 77.5854 52.1037 77.185 51.3357 77.185C49.5459 77.185 47.7562 77.185 45.9665 77.185C45.5452 77.185 45.1239 77.185 44.7026 77.185C44.3276 77.185 43.7564 77.2903 43.4199 77.145C43.1666 77.0355 42.7672 77.0678 42.4931 77.0204C42.1161 76.9553 41.7275 76.8647 41.3322 76.8647C40.9762 76.8647 40.675 76.7847 40.3211 76.7847C39.8096 76.7847 39.0854 76.8374 38.6125 76.6646C38.3278 76.5605 37.9494 76.7237 37.6856 76.5845C37.3379 76.4009 36.935 76.4157 36.6323 76.1441C36.0866 75.6543 35.9863 75.2692 36.7587 74.943C37.3621 74.6882 38.0609 74.8944 38.6546 74.6405C39.9209 74.099 41.0595 73.9021 42.4463 73.9021C43.1852 73.9021 43.9362 73.7419 44.6838 73.7419C45.2861 73.7419 45.8884 73.7419 46.4907 73.7419C48.9343 73.7419 51.3778 73.7419 53.8213 73.7419" stroke="#3C1518" stroke-width="1.5" stroke-linecap="square"/>
<path d="M64.7763 26.0991C63.9391 26.0549 63.1041 25.5262 62.3749 25.2183C61.8544 24.9984 61.466 24.5934 60.9004 24.4354C60.0035 24.1847 59.2488 23.7259 58.293 23.6124C57.7868 23.5523 57.2962 23.5368 56.7763 23.5368C56.4714 23.5368 55.8999 23.4365 55.6342 23.5768C55.4693 23.6638 55.0229 23.6769 54.8337 23.6969C54.5496 23.7269 54.2469 23.9135 53.9911 24.035C53.2665 24.3793 52.5288 24.5459 51.7208 24.7378C51.3421 24.8278 51.0063 25.0174 50.6207 25.0581C50.2898 25.0931 49.8655 25.1866 49.5441 25.2806C48.7162 25.5226 47.8422 25.5249 47.0163 25.7966C45.7848 26.2017 44.401 27.0149 43.4586 27.8607C42.968 28.301 42.3603 28.4255 41.9841 28.9817C41.7904 29.2679 41.3916 29.4245 41.1415 29.6623C40.8678 29.9224 40.5411 30.1728 40.3036 30.463C39.8745 30.9872 39.4338 31.6064 39.0958 32.1845C38.7664 32.748 38.5815 33.3852 38.2345 33.9283C37.9329 34.4004 37.4596 35.0621 37.303 35.5831C37.1834 35.9808 36.9705 36.5886 36.76 36.9488C36.6322 37.1673 36.6072 37.475 36.4838 37.7095C36.3764 37.9136 36.2249 38.2152 36.2123 38.4301C36.1856 38.886 35.8201 39.4466 35.7114 39.9115C35.413 41.1876 35.454 42.5266 35.454 43.8572C35.454 45.348 35.5142 46.8514 35.454 48.3413C35.4264 49.0211 35.2854 49.6954 35.2854 50.4009C35.2854 51.1084 35.2012 51.8355 35.2012 52.5584C35.2012 53.4214 35.2012 54.2844 35.2012 55.1474C35.2012 55.9166 35.5326 56.4825 35.702 57.207C35.9537 58.2829 36.1526 59.4299 36.5306 60.4677C36.808 61.2293 37.2199 61.9238 37.5604 62.6519C37.6675 62.8808 37.854 63.0451 37.9022 63.2969C37.9712 63.6575 38.1199 64.1247 38.3562 64.4135C38.7344 64.8755 39.2048 65.3723 39.4797 65.8948C39.6544 66.2269 40.0003 66.3986 40.1912 66.6955C40.3012 66.8666 41.1099 67.3721 40.5938 67.1759" stroke="#3C1518" stroke-width="1.5" stroke-linecap="square"/>
<path d="M40.5918 67.176C40.8662 67.2086 40.9665 67.5985 41.1816 67.7187C41.364 67.8207 41.5692 68.0336 41.7246 68.1813C42.0468 68.4874 42.3653 68.7988 42.6983 69.0977C43.5475 69.8599 44.5864 70.444 45.6474 70.9216C46.6865 71.3893 47.9494 71.9451 49.102 72.0604C49.6765 72.1178 50.5437 72.5409 50.9979 72.1093C51.2175 71.9006 52.141 72.0604 52.4724 72.0604C52.7902 72.0604 53.0575 72.0727 53.3571 72.136C53.7119 72.2109 54.0609 72.2459 54.4198 72.3406C54.9178 72.4721 55.497 72.7539 56.0113 72.781C56.518 72.8078 57.1028 72.8611 57.6544 72.8611C58.0211 72.8611 58.3878 72.8611 58.7545 72.8611C59.1038 72.8611 59.7275 72.9819 60.0558 72.8433C60.559 72.6308 61.352 72.781 61.9095 72.781C62.2628 72.781 62.7018 72.6893 63.047 72.6164C64.2273 72.3672 65.5621 71.6321 66.4174 70.8193C66.6693 70.5798 67.1157 70.4239 67.4285 70.2587C67.7869 70.0695 67.9614 69.9443 68.229 69.6582C68.4946 69.3742 68.6242 68.8613 68.9452 68.6173C69.2491 68.3863 69.4371 68.1074 69.4929 67.7365" stroke="#3C1518" stroke-width="1.5" stroke-linecap="square"/>
<path d="M34.1777 80.2471C34.1777 79.844 34.258 79.3664 34.1602 78.9711C34.1072 78.7572 34.0352 78.5324 34.0197 78.3123C33.9993 78.0215 33.912 77.4341 33.7038 77.2114C33.5354 77.0314 33.328 76.447 33.3089 76.2106C33.2809 75.8648 33.1368 75.4108 33.0544 75.0681C32.9181 74.5016 32.7884 73.8216 32.756 73.2667C32.7433 73.0487 32.5218 72.7153 32.4225 72.5161C32.2613 72.1928 32.0923 71.8634 31.9223 71.5404C31.5354 70.805 31.288 69.9796 30.9745 69.2136C30.8338 68.8698 30.6034 68.4506 30.5488 68.0877C30.504 67.7894 30.3042 67.6044 30.2329 67.2996C30.1261 66.8428 29.5026 66.1969 29.1622 65.8735C28.8386 65.5659 28.0985 65.0103 27.6221 65.0103C26.4497 65.0103 24.9648 64.7455 24.2433 65.911C23.9665 66.3583 23.4859 66.6256 23.2165 67.112C23.0551 67.4035 22.8426 67.833 22.8041 68.1628C22.7854 68.3225 22.716 68.9803 22.6066 69.0635C22.5216 69.1281 22.4427 69.652 22.4135 69.7765C22.3733 69.9485 22.2443 70.2353 22.1283 70.377C21.9331 70.6155 21.7853 71.0258 21.6983 71.3152C21.5554 71.7904 21.3914 72.2525 21.2639 72.7371C21.0653 73.4922 21.2244 74.4276 21.2244 75.2182C21.2244 75.8804 21.1246 76.6316 21.3209 77.2615C21.4411 77.6468 21.5064 78.0124 21.7159 78.3706C21.8581 78.6139 22.1389 78.9113 22.1722 79.1963C22.2333 79.7186 22.8779 80.0528 23.1376 80.4723C23.7133 81.4024 25.0919 81.5122 25.8493 82.232C26.1583 82.5255 26.6082 82.7749 26.9463 83.0534C27.2063 83.2675 27.6898 83.5267 27.859 83.8082C27.9816 84.0121 28.2605 84.3052 28.4514 84.4503C28.692 84.6332 28.8586 84.9499 29.0833 85.1634C29.4982 85.5577 29.9117 85.8998 30.4216 86.1767C30.6451 86.298 30.8189 86.5261 31.0579 86.627C31.508 86.8171 31.8526 87.0445 32.2031 87.3776C32.589 87.7443 32.8625 88.196 33.2475 88.5618C33.5561 88.8552 34.024 89.3794 34.4936 89.4042C35.0165 89.4318 35.5495 89.4042 36.0733 89.4042C36.6681 89.4042 37.2015 89.1323 37.7758 89.033C38.9975 88.822 39.613 87.2883 40.1366 86.3643C40.5611 85.615 40.6544 84.4577 40.6544 83.6247C40.6544 83.358 40.8038 82.0069 40.5754 81.8984" stroke="#3C1518" stroke-width="1.5" stroke-linecap="square"/>
<path d="M21.7772 73.2667C22.2229 72.8432 22.8971 72.6382 23.392 72.2534C23.7938 71.941 24.1965 71.5819 24.5592 71.2234C24.8957 70.8908 25.3086 70.6745 25.6913 70.3769C25.9846 70.1489 26.2041 69.7049 26.5162 69.5305C26.8104 69.366 27.1491 69.1385 27.5035 69.1385C27.9601 69.1385 28.0399 69.4879 28.1924 69.814C28.4499 70.3644 28.2539 71.3764 28.2539 71.974C28.2539 72.684 27.8496 73.528 27.3061 74.0173C26.8738 74.4064 26.0319 75.2276 25.4105 75.2932C25.1148 75.3245 24.8127 75.6071 24.5022 75.6727C24.1204 75.7533 23.7801 75.8937 23.3744 75.8937C23.1018 75.8937 22.6092 75.9827 22.3696 75.8562C22.004 75.6632 21.798 75.2971 21.6982 74.9179" stroke="#3C1518" stroke-width="1.5" stroke-linecap="square"/>
<path d="M13.5623 69.9642C13.3116 69.9906 13.2338 70.448 13.0094 70.5813C12.7818 70.7165 12.6222 71.0618 12.4961 71.2777C12.1147 71.93 12.2325 72.8927 12.066 73.6045C11.8871 74.3696 12.2422 75.1637 12.6584 75.7853C13.1386 76.5024 13.7457 77.3428 14.4706 77.8786C15.7965 78.8586 17.2758 79.6264 18.7752 80.3388C19.3713 80.6221 19.9493 80.8809 20.5129 81.1645C20.8322 81.3251 21.0893 81.4572 21.4212 81.5272C21.6956 81.5852 22.5317 81.6732 22.2505 81.6732" stroke="#3C1518" stroke-width="1.5" stroke-linecap="square"/>
<path d="M6.76953 70.7899C8.00597 70.7899 9.50707 70.5678 10.4818 69.7391C11.1006 69.2129 11.7894 68.8832 12.6099 68.6883C13.4351 68.4922 14.4236 68.1268 15.1593 67.7125C16.2422 67.1027 17.7187 67.1286 18.8935 66.6992C20.0606 66.2727 21.4022 66.2216 22.6101 65.9445C23.335 65.7782 23.9699 65.5105 24.6637 65.2731C25.2757 65.0638 26.1697 64.8169 26.6734 64.41C27.303 63.9014 28.4114 63.7188 29.157 63.3967C29.4217 63.2823 29.7755 63.306 30.0302 63.1715C30.2741 63.0428 30.8175 62.9088 31.0965 62.9088" stroke="#3C1518" stroke-width="1.5" stroke-linecap="square"/>
<path d="M6.5332 67.7874C6.80914 67.7583 7.14363 67.4504 7.40202 67.3413C7.83977 67.1564 8.30145 67.0216 8.74474 66.8492C9.15266 66.6906 9.6141 66.6217 10.0085 66.4531C10.9275 66.0601 11.923 65.8824 12.8124 65.4273C13.207 65.2254 13.7615 65.1079 14.1946 64.9936C14.5811 64.8916 14.9502 64.7073 15.3443 64.6392C15.8989 64.5433 16.4119 64.3767 16.959 64.243C17.3142 64.1562 17.7643 64.0571 18.0824 63.8844C18.6506 63.5759 19.3715 63.5263 19.9604 63.2464C20.409 63.0333 20.8164 62.7953 21.3031 62.6668C22.1576 62.4413 22.973 62.0496 23.8306 61.8203C24.5152 61.6374 25.2133 61.5226 25.8842 61.2949C26.574 61.0608 27.1794 60.5609 27.9026 60.4359C28.6976 60.2986 29.4859 60.1315 30.3072 60.1315" stroke="#3C1518" stroke-width="1.5" stroke-linecap="square"/>
<path d="M20.5127 58.6303C21.5811 58.6303 22.6852 58.3411 23.6106 57.8214C23.8567 57.6832 24.1189 57.5536 24.3434 57.3877C24.5224 57.2554 24.5788 57.0253 24.7383 56.904C25.0455 56.6705 25.0944 56.2279 25.3702 55.9658C25.6191 55.7293 25.8089 55.4097 25.945 55.1026C26.172 54.5903 26.4186 53.3581 26.16 52.8175C25.9873 52.4564 25.5249 52.1003 25.0937 52.1003C24.7544 52.1003 23.9349 51.9533 23.672 52.1754C23.0364 52.7123 22.1972 53.0275 21.9344 53.9017C21.7392 54.551 21.2788 55.1326 21.149 55.8115C21.059 56.2818 20.9076 56.6975 20.9076 57.1876C20.9076 58.0534 20.8286 58.9508 20.8286 59.8313C20.8286 60.3872 21.266 60.8359 21.5395 61.2907C21.7033 61.5632 22.1884 61.4825 22.4697 61.4825C23.5722 61.4825 24.5557 61.0676 25.5282 60.6569C26.2021 60.3723 26.6077 59.6606 27.1298 59.2141C27.4073 58.9767 27.5363 58.5655 27.7178 58.2551C27.9551 57.849 28.231 57.3867 28.5339 57.0166C28.8234 56.663 28.8925 56.2244 28.9595 55.7781C29.0192 55.3814 29.1219 54.9 29.1219 54.5022C29.1219 54.0433 29.278 53.5168 29.3764 53.0594C29.5078 52.4489 29.5168 51.7833 29.5168 51.1621C29.5168 50.0793 29.5168 48.9965 29.5168 47.9137C29.5168 47.1369 29.166 46.0659 28.7665 45.3826C28.5955 45.0902 28.3925 44.78 28.2531 44.4819C28.1223 44.2023 27.8402 43.9599 27.7002 43.6938" stroke="#3C1518" stroke-width="1.5" stroke-linecap="square"/>
<path d="M13.1673 60.582C13.963 60.582 14.7446 60.657 15.5412 60.657C16.0182 60.657 17.2502 60.7234 17.5903 60.3193C18.2496 59.5361 18.7029 58.4849 18.1871 57.5046C17.8688 56.8996 17.6073 56.486 16.9585 56.2119C16.4822 56.0108 15.9936 55.8533 15.4578 55.8533C15.0434 55.8533 14.283 55.711 13.9571 56.0034C13.4882 56.4243 13.0851 56.6463 12.8689 57.2628C12.5077 58.2925 12.2882 59.6187 12.5398 60.6946C12.6864 61.3214 12.9796 61.929 13.2068 62.5335C13.3359 62.8771 13.485 63.54 13.843 63.7344C14.7522 64.2281 16.0373 64.1068 16.9585 63.7177C17.8732 63.3314 18.7471 62.1364 19.17 61.3326" stroke="#3C1518" stroke-width="1.5" stroke-linecap="square"/>
<path d="M6.375 62.8337C7.00266 62.8337 7.91449 62.8737 8.42857 62.4584C8.85176 62.1166 9.42361 61.9298 9.83272 61.5411C10.3732 61.0275 10.4833 59.5656 9.91171 59.0225C9.6926 58.8142 8.90062 58.6469 8.64797 58.839C8.3764 59.0454 8.11508 59.2703 7.85814 59.5145C7.21276 60.1278 6.92788 60.5865 6.92788 61.4827C6.92788 62.2877 6.82657 63.2388 7.38423 63.9012C7.61701 64.1777 7.61096 64.6772 7.81426 64.9187C8.02373 65.1675 8.23774 65.9622 8.66552 65.9862C9.30114 66.0217 9.31524 65.7774 9.70986 65.4024C10.0338 65.0945 10.3404 65.0786 10.7191 64.9187C11.2622 64.6893 11.9038 63.4458 11.9038 62.9088" stroke="#3C1518" stroke-width="1.5" stroke-linecap="square"/>
<path d="M31.65 42.268C31.65 41.4754 31.5245 40.7602 31.22 40.0162C30.895 39.222 30.8458 38.3322 30.5618 37.5226C30.203 36.4997 29.7192 35.6178 29.1708 34.6913C28.7767 34.0254 28.3506 33.3826 27.7008 32.9024C27.0597 32.4285 26.57 31.8349 25.7263 31.8349C25.3624 31.8349 25.1445 31.8206 24.875 32.0768C24.6591 32.2819 24.3983 32.5599 24.2431 32.8107C24.0067 33.1925 23.5531 33.4792 23.3567 33.899C23.1043 34.4387 22.6478 34.8866 22.4265 35.4544C22.1389 36.1923 21.7765 36.9733 21.6937 37.7603C21.6474 38.2007 21.5401 38.59 21.5401 39.0405C21.5401 39.4964 21.5401 39.9523 21.5401 40.4082C21.5401 42.779 21.6396 45.1566 21.3207 47.5053C20.8055 51.2995 20.8293 55.1726 20.8293 59.0059" stroke="#3C1518" stroke-width="1.5" stroke-linecap="square"/>
<path d="M21.6977 37.8394C21.6977 37.2001 21.5769 36.4572 21.2238 35.9046C21.0982 35.7079 20.9262 35.458 20.8289 35.2499C20.7333 35.0456 20.4906 34.9606 20.355 34.7996C20.071 34.4623 18.5979 34.687 18.1435 34.687C17.0378 34.687 16.3396 35.9358 15.8134 36.7136C15.0135 37.8961 14.902 39.5069 14.5497 40.8459C14.0469 42.7572 14.0363 44.7219 14.0363 46.6796C14.0363 47.3152 13.9573 47.9439 13.9573 48.5727C13.9573 48.9488 13.8968 49.6231 13.7599 49.9613C13.6604 50.2071 13.7778 50.4834 13.7028 50.7327C13.5892 51.1105 13.5825 51.5598 13.558 51.9545C13.5048 52.8136 13.3255 53.6599 13.3255 54.519C13.3255 55.2307 13.3175 56.0336 13.2421 56.7499C13.1853 57.2896 12.8516 57.8967 12.8516 58.4053" stroke="#3C1518" stroke-width="1.5" stroke-linecap="square"/>
<path d="M13.9578 43.7688C13.9578 42.8302 14.0564 41.9227 13.7033 41.0501C13.4561 40.4394 12.7172 39.9031 12.185 39.5322C11.8167 39.2755 11.6286 38.9641 11.1758 38.8317C10.2683 38.5663 9.79214 40.6389 9.53468 41.1418C9.09957 41.9917 8.8668 42.9967 8.62637 43.9106C8.254 45.326 7.71111 46.7144 7.48111 48.1639C7.25364 49.5974 7.17052 51.0329 7.00282 52.4672C6.9156 53.2132 6.78888 53.9495 6.77026 54.7106C6.74406 55.7809 6.5333 56.8754 6.5333 57.9548C6.5333 59.5813 6.45432 61.2102 6.45432 62.8335C6.45432 63.0964 6.35961 63.5422 6.49381 63.7718C6.61551 63.9799 6.84924 64.2493 6.84924 64.4848" stroke="#3C1518" stroke-width="1.5" stroke-linecap="square"/>
<path d="M8.50835 44.7448C7.06074 44.7448 5.35733 43.7911 4.63816 42.5681C4.48993 42.316 4.14925 41.9758 3.92731 41.78C3.66041 41.5445 3.46452 41.2496 3.18135 41.0294C2.80334 40.7355 2.26347 40.1534 2.09313 39.7326C1.99994 39.5023 1.79621 39.26 1.67628 39.032C1.50042 38.6978 1.35946 38.251 1.32524 37.877C1.25422 37.1008 1.10822 36.2199 1.3384 35.4543C1.51248 34.8753 1.42305 34.2323 1.59729 33.6362C1.68045 33.3517 1.7567 33.0775 1.85618 32.7939C1.94899 32.5293 2.14932 32.3692 2.2862 32.135C2.47374 31.8143 2.92174 31.7598 3.26034 31.7598C3.73323 31.7598 4.32206 31.6752 4.77857 31.5513C5.74286 31.2894 6.95836 31.9606 7.62198 32.5687C8.15896 33.0608 8.69854 33.492 9.10073 34.0866C9.55181 34.7534 10.0269 35.3965 10.404 36.1131C10.8027 36.8709 11.1148 37.7471 11.1148 38.59" stroke="#3C1518" stroke-width="1.5" stroke-linecap="square"/>
<path d="M6.9096 52.7396C6.9096 51.2693 6.73969 49.6528 6.34505 48.2277C6.1933 47.6798 5.96641 46.7676 5.57689 46.328C5.17223 45.8714 5.03467 45.0536 4.76245 44.5075C4.56552 44.1124 4.38031 43.8013 4.05908 43.4961C3.43223 42.9004 2.29326 42.9528 1.84715 43.7159C1.02687 45.119 1.16228 46.9689 1.16228 48.54C1.16228 51.1462 1.07898 53.7392 1.07898 56.3411C1.07898 58.9147 0.779318 61.6802 1.34738 64.1994C1.69888 65.7582 1.76456 67.4447 1.82864 69.0278C1.86774 69.994 2.11614 71.0263 2.26362 71.9917C2.43678 73.1253 2.49499 74.3125 2.49499 75.457C2.49499 76.9928 2.87013 78.5852 3.15672 80.0831C3.21891 80.4082 3.18832 80.748 3.26315 81.0769C3.3788 81.5852 3.51262 82.1419 3.57319 82.66C3.65749 83.381 3.80985 84.0864 3.99429 84.7972C4.19045 85.5532 4.56201 86.2352 4.78096 86.9783C4.95218 87.5595 4.71666 87.9926 4.80873 88.5351C4.90525 89.1037 5.11702 89.6577 5.24834 90.2193C5.42501 90.9748 5.84508 91.7002 5.99336 92.4752C6.24521 93.7915 6.89348 95.7037 8.14051 96.4329C9.39707 97.1678 9.74544 95.6494 10.01 94.8323C10.2366 94.1325 10.5535 93.3746 10.5746 92.6335C10.5882 92.1548 10.6579 91.6883 10.6579 91.2087C10.6579 90.6972 10.5804 90.1237 10.6995 89.6256C10.8316 89.0733 10.7411 88.4305 10.7411 87.8666C10.7411 86.9608 10.7411 86.0549 10.7411 85.149C10.7411 83.8944 10.4869 82.7095 10.3062 81.4727C10.162 80.4864 10.0336 79.4885 9.86656 78.5044C9.63934 77.1657 9.6467 75.7931 9.36679 74.4631C9.21384 73.7364 9.24185 72.9679 9.24185 72.2292C9.24185 71.7922 9.15855 71.369 9.15855 70.9451" stroke="#3C1518" stroke-width="1.5" stroke-linecap="square"/>
<path d="M69.8906 67.6065C69.9205 67.3791 70.6045 66.994 70.7869 66.8271C70.9586 66.6699 71.1868 66.548 71.3746 66.4092C71.9071 66.0157 72.2374 65.5276 72.5922 65.003C72.9571 64.4636 73.3663 63.9529 73.7126 63.3959C73.9265 63.052 74.1029 62.6923 74.3426 62.3634C74.4973 62.151 74.6991 61.9791 74.8203 61.7486C75.1355 61.1497 75.4619 60.5297 75.8646 59.9768C76.1593 59.5724 76.3003 59.1282 76.5495 58.7072C76.858 58.1861 77.0457 57.6661 77.6361 57.4657C77.8927 57.3786 78.5639 57.0666 78.6593 56.8148C78.8399 56.3381 79.0541 56.1077 79.5936 56.1077C79.9764 56.1077 80.3927 56.6618 80.3927 57.0117C80.3927 57.187 80.5196 57.7592 80.6379 57.8996C80.7853 58.0748 80.7473 58.8414 80.6802 59.0567C80.5362 59.5185 80.3896 59.9501 80.2405 60.4107C80.1009 60.8419 79.7345 61.0405 79.5556 61.4232C79.4238 61.7049 79.1068 61.8776 79.0059 62.1826C78.8907 62.5309 78.6724 62.853 78.5324 63.195C78.3545 63.6297 78.3379 64.0324 78.3379 64.4968C78.3379 64.9468 78.6201 65.3244 78.6423 65.7262C78.6471 65.8112 78.8986 66.3333 78.7523 66.3731C78.4865 66.4452 78.303 66.4504 78.0927 66.6503C77.8032 66.9254 77.4692 67.2026 77.1584 67.498C76.7544 67.882 76.4748 68.384 76.169 68.8359C75.5178 69.7986 75.5222 71.2688 75.5222 72.3635C75.5222 73.5626 75.6347 74.8365 75.9407 75.9996C76.1221 76.689 76.369 77.3605 76.6468 78.0205C76.7264 78.2097 76.6637 78.5417 76.6637 78.7437C76.6637 79.0173 76.7629 79.2735 76.8328 79.5392C77.2056 80.9561 77.5521 82.5373 78.3802 83.7739C78.8323 84.4491 79.3867 85.036 79.767 85.7587C79.9395 86.0866 80.2007 86.4271 80.3335 86.7551C80.4096 86.9432 80.9696 87.5515 81.1537 87.639" stroke="#3C1518" stroke-width="1.5" stroke-linecap="square"/>
<path d="M81.2295 87.422C81.2825 87.8753 81.6956 88.1831 81.9144 88.547C82.023 88.7276 82.2436 88.824 82.3541 89.013C82.4663 89.2049 82.6041 89.5073 82.7515 89.6639C83.14 90.0765 83.4629 90.5322 83.7747 90.9978C83.927 91.2252 84.0417 91.4785 84.1975 91.7049C84.3318 91.9002 84.5336 92.0705 84.6372 92.2674C84.8904 92.7487 85.5084 93.2962 85.9098 93.6776C86.3539 94.0997 86.8817 94.5935 87.4868 94.8146C88.0189 95.0091 88.4568 95.5211 88.9919 95.6664C89.4459 95.7897 90.017 96.1112 90.4378 96.3334C91.1761 96.7231 92.0824 97.1128 92.9492 97.1128C93.3292 97.1128 93.7141 97.1867 94.0865 97.2574C94.3662 97.3106 94.8691 97.4514 95.1181 97.5829C95.4305 97.7478 96.1132 97.619 96.4668 97.619C97.2285 97.619 97.9577 97.4203 98.6906 97.2253C99.1646 97.0992 99.6232 96.9966 100.086 96.8396C100.398 96.7335 100.695 96.5988 101.016 96.5182C101.557 96.382 102.088 96.245 102.652 96.245C103.331 96.245 103.707 95.9844 104.318 95.7066C104.99 95.4013 105.562 94.9727 106.233 94.6539C106.936 94.3199 107.453 93.7151 108.093 93.3241C108.283 93.208 108.567 93.2263 108.778 93.1754C109.133 93.0899 109.489 92.9387 109.81 92.7736C110.081 92.6345 110.66 92.2302 110.816 91.9781C110.951 91.7607 111.165 91.6931 111.328 91.504C111.557 91.2373 111.709 90.9081 111.937 90.6442C112.703 89.7542 113.317 88.6452 113.915 87.6349C114.254 87.0618 114.562 86.4615 114.943 85.9193C115.447 85.2 115.725 84.24 116.05 83.4444C116.299 82.8361 116.728 82.3437 117.057 81.7811C117.245 81.4596 117.303 81.0024 117.568 80.7003C117.778 80.4606 117.847 80.0374 117.987 79.7561C118.191 79.3442 118.348 78.932 118.519 78.5106C118.893 77.5918 119.184 76.6568 119.551 75.7384C119.904 74.8541 120.103 73.9242 120.422 73.0304C120.799 71.9758 120.93 70.8601 121.297 69.8122C121.654 68.7952 121.669 67.6856 122.02 66.6663C122.217 66.0935 122.207 65.4833 122.401 64.9306" stroke="#3C1518" stroke-width="1.5" stroke-linecap="square"/>
<path d="M122.704 64.9305C122.704 64.0626 122.704 63.1948 122.704 62.327C122.704 61.7642 122.978 61.2171 123.009 60.6636C123.033 60.2204 123.216 59.6959 123.317 59.2614C123.427 58.7933 123.523 58.249 123.541 57.7548C123.566 57.1072 123.732 56.3806 123.884 55.7459C124.051 55.0473 124.018 54.3007 124.167 53.5924C124.249 53.2023 124.265 52.777 124.188 52.3831C124.115 52.0055 123.922 51.5672 123.922 51.1898C123.922 50.6357 123.846 50.0574 123.846 49.4903C123.846 48.3332 123.846 47.1761 123.846 46.0189C123.846 45.2666 123.977 44.6543 124.285 43.9578C124.477 43.5245 124.55 43.0457 124.611 42.5797C124.757 41.4662 124.928 40.2364 124.602 39.1526C124.518 38.8714 124.241 38.5011 124.091 38.2446C123.919 37.9511 123.613 37.7306 123.465 37.4491" stroke="#3C1518" stroke-width="1.5" stroke-linecap="square"/>
<path d="M104.592 35.7136C104.592 35.1137 104.535 34.4924 104.685 33.9056C104.778 33.542 104.929 33.2857 105.065 32.9494C105.389 32.1494 106.355 31.8337 107.141 31.6677C107.651 31.56 108.055 31.762 108.507 31.8847C108.893 31.9894 109.049 32.4278 109.31 32.6762" stroke="#3C1518" stroke-width="1.5" stroke-linecap="square"/>
<path d="M82.9023 68.5466C84.1203 68.6431 85.2576 69.4223 86.4791 69.4868C87.4149 69.5362 88.5362 69.8845 89.4471 69.4868C90.2445 69.1386 91.0906 68.9191 91.8824 68.5627C92.5225 68.2746 93.1351 67.9064 93.7849 67.6065C94.7189 67.1754 95.6217 66.6798 96.5077 66.144C97.186 65.7338 97.8191 64.8894 98.2749 64.2637C99.2589 62.913 100.794 61.9826 101.776 60.6076C102.932 58.9886 103.757 57.1367 104.896 55.5131C105.221 55.05 105.44 54.4681 105.598 53.9381C105.782 53.3182 106.093 52.7815 106.325 52.1864C106.623 51.4217 106.858 50.6445 107.12 49.8721C107.634 48.35 108.051 46.792 108.439 45.2357C108.673 44.295 108.777 43.4598 108.777 42.5116C108.777 41.9572 108.777 41.4027 108.777 40.8483C108.777 40.6033 108.625 40.3773 108.625 40.1251C108.625 39.9361 108.581 39.557 108.473 39.4019" stroke="#3C1518" stroke-width="1.5" stroke-linecap="square"/>
<path d="M108.777 44.3921C108.777 44.9813 108.777 45.5706 108.777 46.1599C108.777 46.6356 108.986 47.0873 109.005 47.558C109.037 48.3568 109.309 49.1773 109.309 49.9968C109.309 50.9241 109.511 51.9323 109.673 52.8534C109.895 54.1177 109.918 55.3393 109.918 56.6181C109.918 59.4564 110.831 62.2432 110.831 65.0794C110.831 66.0252 110.967 66.9045 111.212 67.8236C111.528 69.0095 111.556 70.2441 111.897 71.4235C112.133 72.2437 112.049 73.1619 112.049 74.0109C112.049 74.1468 112.152 75.0555 112.049 75.0555C111.714 75.0555 111.379 74.6618 111.098 74.5131C110.408 74.149 109.78 73.7209 109.022 73.4806C108.537 73.3271 108.088 73.0688 107.635 72.8538C107.216 72.6547 106.714 72.548 106.269 72.4159C105.892 72.3036 105.505 72.2693 105.124 72.1788C104.563 72.0456 104.116 71.7999 103.602 71.5681C102.718 71.1704 101.734 71.0721 100.748 70.9333C99.7512 70.793 98.8357 70.4994 97.8179 70.4994C95.5718 70.4994 93.3265 70.2805 91.0871 70.1338C90.3452 70.0852 89.5532 69.9932 88.8379 69.9932" stroke="#3C1518" stroke-width="1.5" stroke-linecap="square"/>
<path d="M116.465 24.721C116.502 24.3682 116.845 24.1044 117.116 23.9175C117.575 23.6002 118.022 23.1995 118.452 22.8367C118.834 22.5142 119.218 22.0057 119.661 21.772C119.996 21.595 120.468 21.3414 120.743 21.089C121.154 20.7137 121.693 20.3359 122.181 20.0524C122.51 19.8615 122.843 19.6513 123.158 19.4417C123.354 19.3113 123.648 19.197 123.809 19.0439C123.966 18.8942 124.214 18.923 124.379 18.7908C124.519 18.6793 124.753 18.5754 124.929 18.5176C125.089 18.4649 125.684 18.2641 125.749 18.1399" stroke="#3C1518" stroke-width="1.5" stroke-linecap="square"/>
<path d="M119.052 28.6984C119.47 28.3006 119.866 28.0922 120.388 27.8667C121.009 27.5985 121.653 27.3068 122.286 27.0712C123.383 26.6632 124.364 26.0488 125.487 25.6931C126.578 25.3475 127.875 25.2994 129.004 25.2994C129.767 25.2994 130.344 25.277 131 25.5887" stroke="#3C1518" stroke-width="1.5" stroke-linecap="square"/>
<path d="M119.66 33.3992C120.317 33.3992 121.029 33.4621 121.656 33.2706C122.08 33.1411 122.647 33.1099 123.085 33.1099C124.222 33.1099 125.454 32.98 126.581 33.1139C127.331 33.2029 128.108 33.6884 128.83 33.6884C129.138 33.6884 129.517 33.8454 129.82 33.9094C129.952 33.9373 130.54 34.262 130.467 34.1224" stroke="#3C1518" stroke-width="1.5" stroke-linecap="square"/>
</svg>
