<svg width="200" height="148" viewBox="0 0 200 148" fill="none" xmlns="http://www.w3.org/2000/svg">
<path d="M178.16 27.5077C178.16 26.2931 177.753 25.0493 177.212 23.9473C176.697 22.8971 176.374 21.6994 175.742 20.7093C175.411 20.1913 175.095 19.4211 174.879 18.8283C174.692 18.3128 174.25 17.8889 174.088 17.3503C173.911 16.7636 173.432 16.0803 173.07 15.5634C172.675 15.001 172.429 14.3137 171.995 13.7832C171.81 13.5565 171.793 13.2421 171.642 12.9972C171.52 12.7998 171.271 12.6878 171.161 12.453C170.885 11.8625 170.237 11.6404 169.917 11.0624C169.383 10.098 168.205 9.35519 167.443 8.54995C165.902 6.92346 163.965 5.75157 161.943 4.6536C160.938 4.1079 159.849 3.71909 158.818 3.22941C157.629 2.66455 156.377 2.27266 155.1 1.89928C152.49 1.13607 149.642 1.38872 146.921 1.38872C146.454 1.38872 145.988 1.38872 145.521 1.38872C144.975 1.38872 144.613 1.59204 144.086 1.63056C142.835 1.72199 141.521 1.68385 140.24 1.75149C139.818 1.77377 139.349 2.02139 138.94 2.14112C138.042 2.40366 137.134 2.69694 136.232 2.9607C135.182 3.2677 134.071 3.99968 133.312 4.72078C132.612 5.38683 131.806 5.95118 131.107 6.61521C130.315 7.36782 129.766 8.31923 128.979 9.06723C128.361 9.65419 127.766 10.6958 127.36 11.4252C126.947 12.1675 126.319 12.8711 125.706 13.454C124.907 14.2133 124.689 15.25 124.009 16.0807C123.274 16.9795 122.816 18.11 122.235 19.1037C121.564 20.2518 121.428 21.6142 120.871 22.7918C120.599 23.3663 120.528 23.9827 120.199 24.5452C119.978 24.9225 119.424 25.5149 119.372 25.9358C119.321 26.3478 118.809 26.9854 118.509 27.2928C118.029 27.786 117.715 28.4868 117.279 29.0193C116.998 29.3633 116.702 29.8975 116.474 30.2889C116.199 30.7578 115.894 31.2076 115.618 31.6795C115.358 32.1253 115.05 32.6076 114.72 33.0097C114.463 33.3239 114.25 33.8689 113.9 34.0644C113.14 34.4892 112.239 35.4908 111.836 36.2141C111.697 36.4646 111.567 36.673 111.299 36.8187C110.96 37.0029 110.703 37.8212 110.521 38.1219C110.133 38.7657 109.855 39.2242 109.256 39.6671C108.095 40.5252 106.753 41.2133 105.375 41.7227C103.957 42.2467 102.811 42.3811 101.303 42.3811C100.148 42.3811 99.6085 42.12 98.6309 41.6555" stroke="#F7F5EA" stroke-width="2" stroke-linecap="square"/>
<path d="M121.917 20.2524C121.917 21.2372 121.923 22.1999 121.797 23.1613C121.715 23.7849 121.353 24.3511 121.281 24.9684C121.208 25.5904 120.899 26.1997 120.899 26.8427C120.899 27.4473 120.899 28.0519 120.899 28.6565C120.899 29.9425 121.61 30.62 122.2 31.74C122.62 32.539 123.697 33.3119 124.653 33.3119C127.423 33.3119 129.104 31.6907 130.287 29.4425C130.634 28.782 131.251 28.0825 131.46 27.3868C131.679 26.6597 131.873 25.859 132.16 25.1498C132.441 24.4559 132.761 23.7595 133.016 23.0605C133.13 22.7475 133.492 21.5846 133.751 21.4617" stroke="#F7F5EA" stroke-width="2" stroke-linecap="square"/>
<path d="M133.751 22.1868C133.751 22.9318 133.242 23.5379 133.242 24.2424C133.242 24.8837 132.948 25.8227 132.761 26.4459C132.529 27.2163 132.733 28.2736 132.733 29.0793C132.733 29.642 132.588 30.3846 132.761 30.92C132.982 31.6034 133.018 32.3183 133.242 33.0092C133.453 33.6622 133.784 34.2745 134.104 34.8835C134.841 36.2841 135.811 36.7817 137.377 37.2348C138.713 37.621 140.347 36.8381 141.322 35.9113C142.205 35.0724 142.913 34.023 143.478 32.9488C143.838 32.2648 144.038 31.4706 144.284 30.7453C144.632 29.7155 145.054 28.6828 145.33 27.6349C145.547 26.8106 146.195 26.0775 146.221 25.2098C146.247 24.3224 146.348 23.4447 146.348 22.5495" stroke="#F7F5EA" stroke-width="2" stroke-linecap="square"/>
<path d="M103.721 41.1717C103.721 40.2149 103.421 39.2538 103.205 38.3301C103.086 37.8233 102.843 36.9293 102.505 36.5163C102.051 35.9619 101.895 35.4114 101.239 35.0652C100.713 34.7872 99.6455 35.0121 99.3944 35.5489C98.7995 36.8209 98.2492 37.7096 98.2492 39.1429C98.2492 40.7622 98.122 42.3388 98.122 43.9529C98.122 45.4665 97.8675 46.9864 97.8675 48.5479C97.8675 50.3001 97.7402 52.0962 97.7402 53.8685C97.7402 55.5259 98.122 57.1694 98.122 58.8262C98.122 60.4782 98.7582 62.1015 98.7582 63.784" stroke="#F7F5EA" stroke-width="2" stroke-linecap="square"/>
<path d="M98.8853 63.3005C98.8853 64.0261 98.8853 64.7516 98.8853 65.4771C98.8853 66.0042 98.836 66.9252 99.0409 67.4119C99.2371 67.8781 99.3943 68.8392 99.3943 69.3466C99.3943 69.9912 99.6289 70.6197 99.6488 71.2813C99.6839 72.4469 99.8352 73.6238 99.9033 74.7881C99.936 75.3468 100.139 76.0409 100.285 76.5952C100.5 77.4123 100.466 78.3302 100.73 79.1345C100.893 79.6293 100.921 80.4129 100.921 80.9282C100.921 81.5136 101.176 82.0546 101.176 82.6412C101.176 83.8857 102.001 85.0905 102.066 86.2756C102.13 87.4281 102.202 88.6467 102.547 89.7554C102.741 90.3785 102.867 91.1909 102.964 91.838C103.127 92.9237 103.774 93.9429 103.975 95.0424C104.446 97.6143 105.086 100.087 105.82 102.6C106.098 103.549 105.89 104.946 106.584 105.737C107.214 106.455 107.668 107.679 108.811 107.679C109.212 107.679 109.836 107.794 110.147 107.558C110.398 107.367 110.702 106.416 110.719 106.107C110.798 104.675 111.101 103.263 111.101 101.807C111.101 99.6128 111.101 97.4183 111.101 95.2238" stroke="#F7F5EA" stroke-width="2" stroke-linecap="square"/>
<path d="M75.4722 47.5808C75.4722 47.7018 75.5129 48.1555 75.6984 47.8227C75.8083 47.6253 75.5994 47.4999 75.5994 47.8227" stroke="#F7F5EA" stroke-width="2" stroke-linecap="square"/>
<path d="M77.6354 53.6265C77.6354 54.0942 77.4911 53.7798 77.3809 53.9892" stroke="#F7F5EA" stroke-width="2" stroke-linecap="square"/>
<path d="M81.58 47.7014C81.58 48.3085 81.8926 47.864 81.7638 47.8291C81.3672 47.7214 81.1982 47.8307 81.1982 48.1851" stroke="#F7F5EA" stroke-width="2" stroke-linecap="square"/>
<path d="M99.1399 35.7304C98.3946 35.0221 97.3586 34.5213 96.4677 33.977C95.5923 33.4422 94.6895 32.8699 93.732 32.4655C91.4781 31.5136 88.9113 30.6517 86.4153 30.6517C85.4492 30.6517 84.4831 30.6517 83.5169 30.6517C82.6691 30.6517 81.3429 30.4159 80.562 30.7458C80.1541 30.9181 79.6391 30.8934 79.2189 31.0749C78.8754 31.2233 78.2689 31.4558 77.8898 31.4982C77.5375 31.5375 77.0496 31.8569 76.6881 31.9818C76.2732 32.1252 75.8785 32.267 75.4722 32.4387C73.9113 33.0979 72.1798 33.5588 70.7005 34.3398C69.9726 34.7241 69.0633 34.9794 68.2898 35.2467C67.2784 35.5962 66.4591 36.3581 65.4763 36.6978C64.9473 36.8806 64.2724 37.1629 63.8292 37.4905C63.4424 37.7764 63.1544 38.1901 62.7476 38.4175C62.3706 38.6283 62.1595 39.0421 61.8003 39.2371C61.3627 39.4748 60.999 39.837 60.7116 40.2314C60.1073 41.0609 59.3535 41.7296 58.6474 42.4751C58.1449 43.0058 57.6749 43.9237 57.0215 44.2889C56.5053 44.5775 55.9681 45.223 55.6854 45.7064C55.0852 46.7331 54.4694 47.8332 53.7838 48.8571C53.2918 49.5918 52.6345 50.3502 52.2498 51.1546C51.7572 52.1844 51.4555 53.3049 50.9703 54.359C50.5979 55.1678 49.8784 56.2455 49.7685 57.1335C49.7175 57.5453 49.3867 58.1319 49.1959 58.5308C49.006 58.9278 48.9882 59.3958 48.7788 59.7937C47.3521 62.5054 48.5099 65.7836 47.6336 68.5941C47.4717 69.1134 47.4781 69.8936 47.4781 70.4348C47.4781 71.1668 47.3508 71.8957 47.3508 72.6114C47.3508 73.5788 47.3508 74.5462 47.3508 75.5135C47.3508 77.959 47.055 80.3695 47.3579 82.8158C47.5035 83.9918 47.4315 85.1749 47.4781 86.3696C47.5164 87.3539 47.8598 88.3235 47.8598 89.2986C47.8598 90.423 48.1017 91.4181 48.3971 92.5097C48.6514 93.4498 49.2595 94.4872 49.2595 95.4655" stroke="#F7F5EA" stroke-width="2" stroke-linecap="square"/>
<path d="M49.6411 95.5867C49.6411 96.2293 49.6411 96.872 49.6411 97.5147C49.6411 97.9303 50.0229 98.2743 50.0229 98.6702C50.0229 99.3056 50.5603 100.081 50.758 100.692C50.9655 101.333 51.023 102.01 51.1751 102.661C51.3768 103.523 51.9311 104.243 52.0659 105.139C52.3019 106.71 52.8765 108.429 53.4302 109.949C53.782 110.915 53.699 111.902 54.1583 112.872C54.5354 113.668 55.0296 114.4 55.4379 115.176C56.3748 116.957 57.5165 118.549 58.9937 119.952C60.279 121.174 61.965 122.024 63.5109 122.888C63.9746 123.147 64.4684 123.69 64.8541 124.057C65.3319 124.511 65.9682 124.751 66.5012 125.145C66.9748 125.495 67.7263 126.024 68.3463 126.059C68.5576 126.071 68.894 126.576 69.1097 126.69C69.4774 126.884 69.8057 127.167 70.156 127.389C71.8406 128.456 74.2848 128.115 76.2072 128.115C77.5103 128.115 78.8134 128.115 80.1165 128.115C81.4727 128.115 82.5276 127.773 83.8066 127.503C84.6184 127.332 85.4109 126.853 86.1607 126.516C86.8792 126.192 87.6321 126.119 88.3239 125.79C88.6507 125.635 89.162 125.458 89.3418 125.159C89.4155 125.036 90.1808 124.971 90.3598 124.91C90.657 124.809 91.1302 124.729 91.4414 124.729C91.8804 124.729 92.2835 124.325 92.7068 124.252C93.179 124.17 93.6676 124.078 94.1489 123.976C94.5974 123.882 94.9565 123.674 95.3224 123.425C95.5274 123.286 95.7794 123.318 95.9586 123.157C96.6201 122.563 97.1619 121.879 97.7966 121.276C99.3391 119.81 100.238 117.798 101.812 116.385C102.493 115.774 102.843 114.903 103.459 114.269C104.164 113.543 105.135 112.647 105.686 111.79C106.225 110.951 106.654 110.101 107.128 109.251C107.413 108.739 107.843 108.259 108.047 107.679" stroke="#F7F5EA" stroke-width="2" stroke-linecap="square"/>
<path d="M81.3253 110.339C83.872 110.339 86.3448 110.218 88.8965 110.218C89.8869 110.218 90.8606 110.46 91.816 110.46C93.2481 110.46 94.7025 110.581 96.1495 110.581C97.7006 110.581 99.2566 111.108 100.794 111.185C101.738 111.232 102.718 111.345 103.537 111.79C103.754 111.908 104.273 112.085 104.35 112.341C104.452 112.681 104.529 113.184 104.23 113.335C103.667 113.618 102.757 114.208 102.13 114.208C101.275 114.208 100.509 114.813 99.6487 114.813C98.5285 114.813 97.4345 115.176 96.3403 115.176C95.3575 115.176 94.293 115.364 93.2864 115.417C92.269 115.471 91.2137 115.659 90.1689 115.659C88.2017 115.659 86.2355 116.022 84.3156 116.022C83.3188 116.022 82.3221 116.022 81.3253 116.022C80.1316 116.022 78.8587 115.417 77.6988 115.417C74.996 115.417 72.2932 115.417 69.5904 115.417C68.9542 115.417 68.318 115.417 67.6817 115.417C67.1155 115.417 66.2529 115.576 65.7448 115.357C65.3622 115.192 64.7591 115.24 64.3451 115.169C63.7758 115.07 63.189 114.934 62.5919 114.934C62.0544 114.934 61.5995 114.813 61.065 114.813C60.2926 114.813 59.199 114.892 58.4847 114.631C58.0549 114.474 57.4833 114.721 57.085 114.51C56.5598 114.233 55.9514 114.256 55.4944 113.845C54.6702 113.106 54.5188 112.524 55.6853 112.032C56.5965 111.647 57.6517 111.958 58.5483 111.575C60.4607 110.757 62.1801 110.46 64.2744 110.46C65.3902 110.46 66.5244 110.218 67.6535 110.218C68.563 110.218 69.4726 110.218 70.3822 110.218C74.0723 110.218 77.7624 110.218 81.4526 110.218" stroke="#F7F5EA" stroke-width="2" stroke-linecap="square"/>
<path d="M97.9946 38.2696C96.7302 38.2028 95.4693 37.4045 94.3681 36.9394C93.5819 36.6074 92.9954 35.9958 92.1413 35.7571C90.7868 35.3785 89.6472 34.6857 88.2037 34.5143C87.4393 34.4235 86.6984 34.4001 85.9133 34.4001C85.4528 34.4001 84.5898 34.2486 84.1884 34.4605C83.9395 34.592 83.2653 34.6118 82.9796 34.6419C82.5506 34.6872 82.0934 34.9689 81.7071 35.1525C80.6128 35.6724 79.4988 35.924 78.2786 36.2139C77.7067 36.3498 77.1996 36.6361 76.6173 36.6976C76.1176 36.7504 75.4769 36.8915 74.9914 37.0335C73.7412 37.399 72.4214 37.4024 71.174 37.8128C69.3143 38.4245 67.2245 39.6526 65.8014 40.9298C65.0605 41.5948 64.1427 41.7829 63.5746 42.6227C63.2821 43.0551 62.6799 43.2916 62.3021 43.6506C61.8888 44.0434 61.3955 44.4215 61.0367 44.8598C60.3888 45.6514 59.7233 46.5865 59.2129 47.4596C58.7154 48.3105 58.4362 49.2728 57.9122 50.093C57.4567 50.8059 56.742 51.8051 56.5054 52.592C56.3248 53.1926 56.0033 54.1105 55.6853 54.6544C55.4924 54.9844 55.4546 55.449 55.2683 55.8032C55.1061 56.1114 54.8772 56.5668 54.8582 56.8915C54.818 57.5799 54.266 58.4265 54.1018 59.1285C53.6512 61.0557 53.713 63.0778 53.713 65.0872C53.713 67.3385 53.8041 69.609 53.713 71.8588C53.6715 72.8855 53.4585 73.9038 53.4585 74.9692C53.4585 76.0376 53.3313 77.1356 53.3313 78.2274C53.3313 79.5306 53.3313 80.8339 53.3313 82.1372C53.3313 83.2988 53.8318 84.1533 54.0877 85.2475C54.4677 86.8724 54.7681 88.6044 55.339 90.1717C55.7579 91.3219 56.3799 92.3706 56.8942 93.4702C57.0559 93.8159 57.3375 94.064 57.4102 94.4443C57.5144 94.9888 57.739 95.6944 58.096 96.1304C58.6671 96.8283 59.3774 97.5784 59.7926 98.3675C60.0564 98.869 60.5787 99.1283 60.8671 99.5767C61.0332 99.835 62.2544 100.598 61.475 100.302" stroke="#F7F5EA" stroke-width="2" stroke-linecap="square"/>
<path d="M61.4751 100.302C61.8895 100.351 62.041 100.94 62.3658 101.122C62.6413 101.276 62.9511 101.597 63.1858 101.82C63.6723 102.283 64.1533 102.753 64.6562 103.204C65.9386 104.355 67.5076 105.237 69.1099 105.959C70.6791 106.665 72.5862 107.504 74.3269 107.678C75.1945 107.765 76.5041 108.404 77.19 107.752C77.5216 107.437 78.9163 107.678 79.4168 107.678C79.8967 107.678 80.3004 107.697 80.7529 107.793C81.2886 107.906 81.8156 107.959 82.3576 108.102C83.1097 108.3 83.9844 108.726 84.7611 108.767C85.5263 108.807 86.4094 108.888 87.2424 108.888C87.7961 108.888 88.3499 108.888 88.9037 108.888C89.4313 108.888 90.3732 109.07 90.8689 108.861C91.6287 108.54 92.8263 108.767 93.6683 108.767C94.2019 108.767 94.8648 108.628 95.3861 108.518C97.1685 108.142 99.1843 107.032 100.476 105.804C100.856 105.443 101.531 105.207 102.003 104.958C102.544 104.672 102.808 104.483 103.212 104.051C103.613 103.622 103.809 102.847 104.293 102.479C104.752 102.13 105.036 101.709 105.12 101.149" stroke="#F7F5EA" stroke-width="2" stroke-linecap="square"/>
<path d="M51.7865 120.042C51.7865 119.433 51.9078 118.712 51.76 118.115C51.68 117.792 51.5713 117.452 51.5479 117.12C51.5171 116.681 51.3853 115.794 51.0708 115.457C50.8165 115.185 50.5033 114.303 50.4744 113.946C50.4322 113.424 50.2146 112.738 50.0901 112.221C49.8843 111.365 49.6885 110.338 49.6395 109.5C49.6202 109.171 49.2858 108.667 49.1359 108.367C48.8925 107.878 48.6372 107.381 48.3804 106.893C47.7962 105.783 47.4225 104.536 46.9491 103.379C46.7366 102.86 46.3887 102.227 46.3063 101.679C46.2386 101.229 45.9368 100.949 45.8292 100.489C45.6679 99.799 44.7263 98.8237 44.2123 98.3352C43.7235 97.8707 42.6059 97.0317 41.8864 97.0317C40.116 97.0317 37.8735 96.6318 36.784 98.3919C36.3659 99.0673 35.6402 99.4709 35.2334 100.205C34.9896 100.646 34.6687 101.294 34.6105 101.792C34.5823 102.034 34.4775 103.027 34.3123 103.153C34.1839 103.25 34.0647 104.041 34.0207 104.229C33.96 104.489 33.7651 104.922 33.59 105.136C33.2952 105.496 33.072 106.116 32.9406 106.553C32.7248 107.271 32.4771 107.969 32.2845 108.7C31.9846 109.841 32.2249 111.253 32.2249 112.447C32.2249 113.447 32.0741 114.582 32.3707 115.533C32.5521 116.115 32.6508 116.667 32.9671 117.208C33.1819 117.575 33.6059 118.024 33.6562 118.455C33.7485 119.243 34.722 119.748 35.1141 120.382C35.9835 121.786 38.0654 121.952 39.2093 123.039C39.6758 123.482 40.3553 123.859 40.8659 124.28C41.2585 124.603 41.9887 124.994 42.2443 125.419C42.4295 125.727 42.8505 126.17 43.1388 126.389C43.5022 126.665 43.7538 127.144 44.0931 127.466C44.7196 128.061 45.3441 128.578 46.1142 128.996C46.4517 129.18 46.7142 129.524 47.075 129.676C47.7548 129.963 48.2752 130.307 48.8045 130.81C49.3874 131.364 49.8003 132.046 50.3817 132.598C50.8478 133.041 51.5543 133.833 52.2636 133.87C53.0532 133.912 53.8582 133.87 54.6492 133.87C55.5474 133.87 56.3529 133.46 57.2203 133.31C59.0651 132.991 59.9947 130.675 60.7854 129.28C61.4265 128.148 61.5673 126.4 61.5673 125.142C61.5673 124.74 61.793 122.699 61.448 122.535" stroke="#F7F5EA" stroke-width="2" stroke-linecap="square"/>
<path d="M33.0597 109.5C33.7327 108.861 34.7509 108.551 35.4983 107.97C36.1051 107.498 36.7133 106.956 37.2609 106.414C37.7692 105.912 38.3926 105.586 38.9706 105.136C39.4135 104.792 39.745 104.121 40.2164 103.858C40.6606 103.609 41.1722 103.266 41.7074 103.266C42.3969 103.266 42.5174 103.794 42.7477 104.286C43.1365 105.117 42.8405 106.646 42.8405 107.548C42.8405 108.62 42.2299 109.895 41.4092 110.634C40.7564 111.221 39.4849 112.461 38.5465 112.561C38.0999 112.608 37.6437 113.035 37.1748 113.134C36.5982 113.255 36.0844 113.467 35.4718 113.467C35.06 113.467 34.3161 113.602 33.9543 113.411C33.4022 113.119 33.0911 112.566 32.9404 111.994" stroke="#F7F5EA" stroke-width="2" stroke-linecap="square"/>
<path d="M20.6548 104.513C20.2762 104.553 20.1587 105.244 19.8199 105.445C19.4762 105.649 19.2352 106.171 19.0446 106.497C18.4687 107.482 18.6465 108.936 18.3952 110.01C18.125 111.166 18.6612 112.365 19.2898 113.304C20.0149 114.387 20.9318 115.656 22.0265 116.465C24.0288 117.945 26.2628 119.104 28.5272 120.18C29.4274 120.608 30.3002 120.999 31.1513 121.427C31.6336 121.67 32.0218 121.869 32.523 121.975C32.9375 122.063 34.2 122.195 33.7754 122.195" stroke="#F7F5EA" stroke-width="2" stroke-linecap="square"/>
<path d="M10.397 105.76C12.2642 105.76 14.5311 105.424 16.003 104.173C16.9376 103.378 17.9778 102.88 19.2169 102.586C20.4631 102.29 21.9559 101.738 23.0669 101.113C24.7022 100.192 26.9321 100.231 28.7061 99.5823C30.4687 98.9381 32.4947 98.8609 34.3188 98.4425C35.4135 98.1914 36.3724 97.7871 37.4201 97.4287C38.3444 97.1125 39.6943 96.7396 40.455 96.1251C41.4058 95.3571 43.0796 95.0813 44.2057 94.5949C44.6055 94.4222 45.1398 94.4579 45.5243 94.2549C45.8927 94.0604 46.7133 93.8582 47.1346 93.8582" stroke="#F7F5EA" stroke-width="2" stroke-linecap="square"/>
<path d="M10.0391 101.226C10.4558 101.182 10.9609 100.717 11.3511 100.552C12.0122 100.273 12.7094 100.069 13.3788 99.8088C13.9949 99.5694 14.6917 99.4653 15.2873 99.2106C16.6752 98.6171 18.1785 98.3488 19.5217 97.6615C20.1175 97.3566 20.955 97.1792 21.609 97.0066C22.1927 96.8525 22.7501 96.5741 23.3452 96.4713C24.1829 96.3266 24.9575 96.075 25.7838 95.8731C26.3202 95.742 26.9999 95.5923 27.4802 95.3315C28.3383 94.8655 29.4269 94.7907 30.3163 94.3681C30.9937 94.0462 31.609 93.6868 32.344 93.4928C33.6344 93.1521 34.8658 92.5606 36.1609 92.2144C37.1947 91.9381 38.249 91.7648 39.2622 91.421C40.304 91.0674 41.2181 90.3125 42.3104 90.1238C43.5109 89.9163 44.7013 89.6641 45.9417 89.6641" stroke="#F7F5EA" stroke-width="2" stroke-linecap="square"/>
<path d="M31.1514 87.3971C32.7648 87.3971 34.4321 86.9603 35.8297 86.1755C36.2014 85.9667 36.5974 85.7711 36.9363 85.5206C37.2067 85.3208 37.2919 84.9732 37.5327 84.7901C37.9966 84.4374 38.0704 83.769 38.487 83.3732C38.8629 83.016 39.1496 82.5335 39.355 82.0697C39.6979 81.296 40.0702 79.4352 39.6797 78.6188C39.4189 78.0735 38.7206 77.5357 38.0695 77.5357C37.557 77.5357 36.3194 77.3138 35.9225 77.6491C34.9626 78.4599 33.6953 78.9359 33.2984 80.2561C33.0036 81.2366 32.3084 82.115 32.1122 83.1402C31.9763 83.8504 31.7478 84.4782 31.7478 85.2183C31.7478 86.5258 31.6285 87.881 31.6285 89.2107C31.6285 90.0502 32.2889 90.7279 32.702 91.4147C32.9494 91.8262 33.6819 91.7044 34.1068 91.7044C35.7717 91.7044 37.257 91.0778 38.7255 90.4576C39.7432 90.0277 40.3558 88.953 41.1442 88.2787C41.5634 87.9202 41.7581 87.2991 42.0322 86.8304C42.3906 86.2172 42.8072 85.5191 43.2647 84.9601C43.7018 84.4261 43.8062 83.7638 43.9075 83.0898C43.9975 82.4908 44.1527 81.7638 44.1527 81.1629C44.1527 80.47 44.3883 79.6748 44.537 78.9841C44.7354 78.0622 44.7491 77.057 44.7491 76.1188C44.7491 74.4837 44.7491 72.8485 44.7491 71.2133C44.7491 70.0401 44.2192 68.4229 43.6159 67.3909C43.3577 66.9493 43.0512 66.4809 42.8406 66.0307C42.6431 65.6085 42.2171 65.2424 42.0057 64.8406" stroke="#F7F5EA" stroke-width="2" stroke-linecap="square"/>
<path d="M20.0584 90.3442C21.2601 90.3442 22.4405 90.4576 23.6434 90.4576C24.3638 90.4576 26.2243 90.5577 26.738 89.9475C27.7336 88.7648 28.4181 87.1773 27.6392 85.6969C27.1585 84.7832 26.7636 84.1586 25.7838 83.7448C25.0645 83.441 24.3267 83.2032 23.5175 83.2032C22.8916 83.2032 21.7434 82.9882 21.2512 83.4299C20.5431 84.0654 19.9344 84.4006 19.6078 85.3317C19.0623 86.8868 18.7309 88.8895 19.1108 90.5142C19.3322 91.4609 19.775 92.3784 20.1181 93.2913C20.3131 93.8102 20.5382 94.8113 21.0789 95.1049C22.4519 95.8505 24.3926 95.6672 25.7838 95.0797C27.1652 94.4963 28.4849 92.6916 29.1235 91.4777" stroke="#F7F5EA" stroke-width="2" stroke-linecap="square"/>
<path d="M9.80078 93.7448C10.7486 93.7448 12.1257 93.8051 12.902 93.178C13.5411 92.6618 14.4047 92.3798 15.0225 91.7927C15.8387 91.0171 16.005 88.8095 15.1418 87.9892C14.8109 87.6747 13.6149 87.422 13.2333 87.7121C12.8232 88.0239 12.4286 88.3635 12.0406 88.7322C11.0659 89.6584 10.6357 90.3512 10.6357 91.7045C10.6357 92.9203 10.4827 94.3565 11.3249 95.3569C11.6764 95.7744 11.6673 96.5287 11.9743 96.8934C12.2906 97.2692 12.6138 98.4694 13.2598 98.5055C14.2197 98.5591 14.241 98.1902 14.837 97.6239C15.3262 97.159 15.7891 97.1349 16.3611 96.8934C17.1813 96.547 18.1502 94.6692 18.1502 93.8581" stroke="#F7F5EA" stroke-width="2" stroke-linecap="square"/>
<path d="M47.9695 62.6872C47.9695 61.4903 47.7799 60.4102 47.3201 59.2867C46.8293 58.0873 46.755 56.7436 46.3261 55.521C45.7843 53.9762 45.0537 52.6444 44.2255 51.2452C43.6303 50.2396 42.9868 49.2689 42.0056 48.5437C41.0374 47.8281 40.2979 46.9316 39.0237 46.9316C38.4742 46.9316 38.1451 46.9101 37.7381 47.2969C37.4122 47.6066 37.0183 48.0265 36.7839 48.4052C36.4269 48.9818 35.7419 49.4147 35.4453 50.0487C35.0641 50.8638 34.3747 51.5402 34.0405 52.3976C33.6062 53.512 33.0589 54.6914 32.9339 55.8799C32.8639 56.545 32.7019 57.1329 32.7019 57.8132C32.7019 58.5017 32.7019 59.1901 32.7019 59.8786C32.7019 63.459 32.8522 67.0494 32.3706 70.5965C31.5926 76.3263 31.6284 82.1753 31.6284 87.9641" stroke="#F7F5EA" stroke-width="2" stroke-linecap="square"/>
<path d="M32.9407 55.9994C32.9407 55.0338 32.7582 53.912 32.225 53.0775C32.0353 52.7805 31.7755 52.4029 31.6286 52.0888C31.4843 51.7802 31.1177 51.6519 30.913 51.4087C30.4841 50.8993 28.2595 51.2387 27.5732 51.2387C25.9035 51.2387 24.849 53.1246 24.0545 54.2991C22.8464 56.085 22.678 58.5175 22.146 60.5397C21.3867 63.4259 21.3707 66.3929 21.3707 69.3494C21.3707 70.3093 21.2514 71.2588 21.2514 72.2084C21.2514 72.7763 21.16 73.7946 20.9532 74.3053C20.803 74.6765 20.9803 75.0937 20.8671 75.4703C20.6956 76.0409 20.6853 76.7193 20.6484 77.3154C20.5681 78.6128 20.2972 79.8907 20.2972 81.1881C20.2972 82.2629 20.2851 83.4755 20.1713 84.5571C20.0855 85.3722 19.5815 86.2891 19.5815 87.0571" stroke="#F7F5EA" stroke-width="2" stroke-linecap="square"/>
<path d="M21.251 64.9538C21.251 63.5363 21.4 62.1659 20.8667 60.848C20.4934 59.9258 19.3776 59.116 18.5739 58.5559C18.0176 58.1682 17.7336 57.6979 17.0498 57.4979C15.6793 57.0972 14.9603 60.2271 14.5714 60.9866C13.9144 62.2701 13.5628 63.7877 13.1997 65.1679C12.6374 67.3054 11.8176 69.4021 11.4702 71.591C11.1267 73.7558 11.0012 75.9237 10.7479 78.0897C10.6162 79.2163 10.4248 80.3283 10.3967 81.4776C10.3572 83.0939 10.0389 84.7469 10.0389 86.3769C10.0389 88.8332 9.9196 91.2931 9.9196 93.7446C9.9196 94.1415 9.77658 94.8148 9.97924 95.1614C10.163 95.4758 10.516 95.8826 10.516 96.2383" stroke="#F7F5EA" stroke-width="2" stroke-linecap="square"/>
<path d="M13.021 66.4275C10.8349 66.4275 8.26243 64.9873 7.17636 63.1404C6.95251 62.7597 6.43804 62.246 6.10286 61.9502C5.6998 61.5945 5.40398 61.1492 4.97635 60.8167C4.40549 60.3729 3.5902 59.4939 3.33296 58.8583C3.19222 58.5106 2.88457 58.1446 2.70344 57.8004C2.43788 57.2956 2.225 56.6209 2.17332 56.056C2.06606 54.884 1.84558 53.5536 2.1932 52.3974C2.45607 51.523 2.32103 50.552 2.58416 49.6518C2.70975 49.2222 2.82489 48.8081 2.97513 48.3798C3.11528 47.9802 3.41781 47.7384 3.62453 47.3848C3.90775 46.9004 4.58429 46.8181 5.09563 46.8181C5.80977 46.8181 6.69901 46.6904 7.38841 46.5032C8.84464 46.1078 10.6802 47.1214 11.6824 48.0397C12.4933 48.7828 13.3082 49.4341 13.9156 50.3319C14.5968 51.3389 15.3143 52.3101 15.8837 53.3923C16.4858 54.5367 16.9572 55.8599 16.9572 57.1329" stroke="#F7F5EA" stroke-width="2" stroke-linecap="square"/>
<path d="M10.6081 78.501C10.6081 76.2807 10.3515 73.8396 9.75549 71.6875C9.52632 70.8599 9.18368 69.4824 8.59544 68.8186C7.98434 68.129 7.7766 66.894 7.36551 66.0693C7.06811 65.4727 6.78841 65.0029 6.3033 64.5419C5.35665 63.6423 3.63663 63.7215 2.96292 64.8739C1.72417 66.9928 1.92866 69.7864 1.92866 72.159C1.92866 76.0948 1.80287 80.0107 1.80287 83.9399C1.80287 87.8266 1.35033 92.0028 2.20819 95.8072C2.73902 98.1613 2.8382 100.708 2.93497 103.099C2.99402 104.558 3.36915 106.117 3.59186 107.575C3.85336 109.287 3.94127 111.08 3.94127 112.808C3.94127 115.127 4.50779 117.532 4.94059 119.794C5.03452 120.285 4.98832 120.798 5.10132 121.295C5.27597 122.063 5.47805 122.903 5.56953 123.686C5.69684 124.774 5.92692 125.84 6.20546 126.913C6.50169 128.055 7.0628 129.085 7.39346 130.207C7.65203 131.085 7.29636 131.739 7.43539 132.558C7.58116 133.417 7.90096 134.253 8.09927 135.101C8.36608 136.242 9.00045 137.338 9.22438 138.508C9.60472 140.496 10.5837 143.384 12.4669 144.485C14.3645 145.595 14.8906 143.302 15.2902 142.068C15.6323 141.011 16.1109 139.866 16.1427 138.747C16.1633 138.024 16.2685 137.32 16.2685 136.596C16.2685 135.823 16.1515 134.957 16.3314 134.205C16.5309 133.371 16.3943 132.4 16.3943 131.549C16.3943 130.181 16.3943 128.812 16.3943 127.444C16.3943 125.55 16.0104 123.76 15.7374 121.893C15.5197 120.403 15.3258 118.896 15.0735 117.41C14.7304 115.388 14.7415 113.316 14.3188 111.307C14.0878 110.21 14.1301 109.049 14.1301 107.934C14.1301 107.274 14.0043 106.635 14.0043 105.994" stroke="#F7F5EA" stroke-width="2" stroke-linecap="square"/>
<path d="M105.719 100.952C105.764 100.609 106.797 100.027 107.072 99.7753C107.332 99.538 107.676 99.3539 107.96 99.1443C108.764 98.55 109.263 97.8129 109.799 97.0207C110.35 96.2061 110.968 95.4349 111.491 94.5937C111.814 94.0743 112.08 93.5312 112.442 93.0344C112.676 92.7137 112.98 92.4541 113.163 92.1061C113.639 91.2015 114.132 90.2652 114.74 89.4304C115.185 88.8196 115.398 88.1489 115.775 87.513C116.241 86.7261 116.524 85.9408 117.416 85.6382C117.803 85.5067 118.817 85.0355 118.961 84.6553C119.234 83.9353 119.557 83.5874 120.372 83.5874C120.95 83.5874 121.579 84.4242 121.579 84.9526C121.579 85.2173 121.77 86.0814 121.949 86.2935C122.172 86.5579 122.114 87.7157 122.013 88.0409C121.795 88.7383 121.574 89.39 121.349 90.0856C121.138 90.7368 120.585 91.0367 120.314 91.6146C120.115 92.0401 119.637 92.3009 119.484 92.7614C119.31 93.2875 118.981 93.7738 118.769 94.2904C118.501 94.9468 118.476 95.555 118.476 96.2562C118.476 96.9358 118.902 97.506 118.935 98.1129C118.942 98.2413 119.322 99.0297 119.101 99.0897C118.7 99.1987 118.423 99.2066 118.105 99.5084C117.668 99.9238 117.164 100.342 116.694 100.789C116.084 101.368 115.662 102.127 115.2 102.809C114.217 104.263 114.223 106.483 114.223 108.136C114.223 109.947 114.393 111.871 114.855 113.627C115.129 114.668 115.502 115.683 115.922 116.679C116.042 116.965 115.947 117.466 115.947 117.771C115.947 118.184 116.097 118.571 116.203 118.973C116.765 121.112 117.289 123.5 118.539 125.368C119.222 126.387 120.059 127.274 120.634 128.365C120.894 128.86 121.289 129.375 121.489 129.87C121.604 130.154 122.45 131.073 122.728 131.205" stroke="#F7F5EA" stroke-width="2" stroke-linecap="square"/>
<path d="M122.843 130.877C122.923 131.561 123.547 132.026 123.877 132.576C124.041 132.849 124.374 132.994 124.541 133.28C124.711 133.569 124.919 134.026 125.142 134.263C125.728 134.886 126.216 135.574 126.687 136.277C126.917 136.62 127.09 137.003 127.325 137.345C127.528 137.64 127.833 137.897 127.989 138.194C128.372 138.921 129.305 139.748 129.911 140.324C130.582 140.961 131.379 141.707 132.293 142.041C133.096 142.335 133.757 143.108 134.565 143.327C135.251 143.513 136.114 143.999 136.749 144.335C137.864 144.923 139.233 145.512 140.542 145.512C141.116 145.512 141.697 145.623 142.259 145.73C142.682 145.81 143.441 146.023 143.817 146.221C144.289 146.471 145.32 146.276 145.854 146.276C147.004 146.276 148.105 145.976 149.212 145.681C149.928 145.491 150.621 145.336 151.319 145.099C151.791 144.939 152.24 144.735 152.724 144.614C153.541 144.408 154.343 144.201 155.195 144.201C156.22 144.201 156.787 143.808 157.71 143.388C158.725 142.927 159.59 142.28 160.603 141.798C161.664 141.294 162.445 140.381 163.412 139.79C163.699 139.615 164.127 139.642 164.446 139.565C164.982 139.436 165.519 139.208 166.004 138.959C166.413 138.749 167.288 138.138 167.524 137.757C167.727 137.429 168.051 137.327 168.296 137.041C168.643 136.639 168.873 136.142 169.216 135.743C170.373 134.399 171.301 132.724 172.204 131.198C172.716 130.333 173.181 129.426 173.755 128.608C174.517 127.521 174.936 126.072 175.428 124.87C175.804 123.952 176.451 123.208 176.948 122.358C177.232 121.873 177.32 121.182 177.72 120.726C178.038 120.364 178.141 119.725 178.352 119.3C178.661 118.678 178.898 118.056 179.157 117.419C179.721 116.032 180.161 114.62 180.715 113.233C181.248 111.897 181.548 110.493 182.03 109.143C182.599 107.551 182.797 105.866 183.352 104.283C183.89 102.748 183.914 101.072 184.443 99.5325C184.741 98.6676 184.725 97.7459 185.018 96.9114" stroke="#F7F5EA" stroke-width="2" stroke-linecap="square"/>
<path d="M185.478 96.9112C185.478 95.6007 185.478 94.2901 185.478 92.9795C185.478 92.1296 185.891 91.3034 185.937 90.4676C185.974 89.7982 186.25 89.0062 186.403 88.3501C186.569 87.643 186.714 86.8211 186.742 86.0748C186.778 85.0969 187.03 83.9995 187.259 83.041C187.511 81.986 187.462 80.8586 187.687 79.7889C187.811 79.1998 187.835 78.5576 187.719 77.9626C187.607 77.3924 187.316 76.7305 187.316 76.1606C187.316 75.3238 187.201 74.4505 187.201 73.594C187.201 71.8466 187.201 70.0992 187.201 68.3518C187.201 67.2156 187.399 66.291 187.865 65.2392C188.155 64.5847 188.265 63.8618 188.357 63.158C188.578 61.4765 188.836 59.6191 188.344 57.9825C188.217 57.5578 187.798 56.9987 187.572 56.6113C187.313 56.1681 186.85 55.835 186.627 55.4099" stroke="#F7F5EA" stroke-width="2" stroke-linecap="square"/>
<path d="M158.125 52.7891C158.125 51.8832 158.039 50.9449 158.265 50.0588C158.406 49.5097 158.635 49.1226 158.84 48.6147C159.329 47.4066 160.788 46.93 161.975 46.6792C162.745 46.5166 163.355 46.8215 164.037 47.0069C164.62 47.1651 164.856 47.8271 165.25 48.2021" stroke="#F7F5EA" stroke-width="2" stroke-linecap="square"/>
<path d="M125.371 102.372C127.211 102.518 128.928 103.695 130.773 103.792C132.186 103.867 133.879 104.393 135.255 103.792C136.459 103.266 137.737 102.935 138.933 102.396C139.899 101.961 140.824 101.405 141.806 100.952C143.216 100.301 144.58 99.5529 145.918 98.7438C146.942 98.1243 147.898 96.8491 148.586 95.9042C150.072 93.8644 152.39 92.4594 153.873 90.3828C155.619 87.938 156.865 85.1412 158.585 82.6893C159.076 81.99 159.407 81.1113 159.645 80.3109C159.923 79.3747 160.393 78.5642 160.743 77.6655C161.193 76.5107 161.549 75.3371 161.943 74.1706C162.721 71.872 163.35 69.5191 163.935 67.1688C164.289 65.7483 164.446 64.487 164.446 63.0551C164.446 62.2178 164.446 61.3805 164.446 60.5432C164.446 60.1732 164.216 59.8319 164.216 59.451C164.216 59.1656 164.151 58.5932 163.987 58.3589" stroke="#F7F5EA" stroke-width="2" stroke-linecap="square"/>
<path d="M164.446 65.895C164.446 66.7849 164.446 67.6748 164.446 68.5647C164.446 69.2831 164.762 69.9652 164.791 70.6762C164.839 71.8825 165.25 73.1215 165.25 74.3591C165.25 75.7594 165.555 77.282 165.799 78.6731C166.134 80.5823 166.17 82.4271 166.17 84.3582C166.17 88.6446 167.549 92.853 167.549 97.1363C167.549 98.5645 167.753 99.8924 168.124 101.28C168.601 103.071 168.644 104.936 169.158 106.717C169.515 107.955 169.388 109.342 169.388 110.624C169.388 110.829 169.543 112.202 169.388 112.202C168.881 112.202 168.376 111.607 167.951 111.383C166.91 110.833 165.962 110.186 164.816 109.823C164.084 109.591 163.405 109.202 162.722 108.877C162.089 108.576 161.332 108.415 160.66 108.215C160.089 108.046 159.505 107.994 158.929 107.857C158.083 107.656 157.408 107.285 156.631 106.935C155.297 106.335 153.81 106.186 152.321 105.977C150.816 105.765 149.434 105.321 147.896 105.321C144.504 105.321 141.114 104.991 137.732 104.769C136.612 104.696 135.415 104.557 134.335 104.557" stroke="#F7F5EA" stroke-width="2" stroke-linecap="square"/>
<path d="M176.054 36.1885C176.11 35.6556 176.628 35.2573 177.037 34.975C177.73 34.4959 178.406 33.8907 179.055 33.3428C179.631 32.8558 180.212 32.0879 180.881 31.735C181.387 31.4677 182.099 31.0847 182.515 30.7035C183.134 30.1368 183.949 29.5663 184.686 29.1381C185.182 28.8498 185.685 28.5324 186.161 28.2159C186.457 28.019 186.901 27.8463 187.144 27.6152C187.382 27.389 187.757 27.4326 188.006 27.2329C188.216 27.0645 188.571 26.9076 188.836 26.8203C189.078 26.7407 189.976 26.4376 190.075 26.25" stroke="#F7F5EA" stroke-width="2" stroke-linecap="square"/>
<path d="M179.961 42.1951C180.593 41.5944 181.19 41.2796 181.979 40.9392C182.916 40.534 183.889 40.0936 184.845 39.7378C186.503 39.1216 187.983 38.1938 189.679 37.6567C191.326 37.1347 193.286 37.0621 194.991 37.0621C196.143 37.0621 197.014 37.0282 198.004 37.4989" stroke="#F7F5EA" stroke-width="2" stroke-linecap="square"/>
<path d="M180.88 49.294C181.872 49.294 182.947 49.3891 183.894 49.0998C184.534 48.9043 185.39 48.8571 186.052 48.8571C187.77 48.8571 189.63 48.661 191.332 48.8632C192.464 48.9976 193.639 49.7308 194.729 49.7308C195.193 49.7308 195.765 49.9679 196.223 50.0645C196.423 50.1067 197.311 50.597 197.2 50.3861" stroke="#F7F5EA" stroke-width="2" stroke-linecap="square"/>
</svg>
